M48
; DRILL file {KiCad 6.0.10-86aedd382b~118~ubuntu22.04.1} date on. 28. des. 2022 kl. 20.04 +0100
; FORMAT={-:-/ absolute / metric / decimal}
; #@! TF.CreationDate,2022-12-28T20:04:09+01:00
; #@! TF.GenerationSoftware,Kicad,Pcbnew,6.0.10-86aedd382b~118~ubuntu22.04.1
; #@! TF.FileFunction,Plated,1,2,PTH
FMAT,2
METRIC
; #@! TA.AperFunction,Plated,PTH,ViaDrill
T1C0.400
; #@! TA.AperFunction,Plated,PTH,ComponentDrill
T2C0.700
; #@! TA.AperFunction,Plated,PTH,ComponentDrill
T3C0.750
; #@! TA.AperFunction,Plated,PTH,ComponentDrill
T4C0.800
; #@! TA.AperFunction,Plated,PTH,ComponentDrill
T5C0.900
; #@! TA.AperFunction,Plated,PTH,ComponentDrill
T6C1.000
; #@! TA.AperFunction,Plated,PTH,ComponentDrill
T7C1.020
; #@! TA.AperFunction,Plated,PTH,ComponentDrill
T8C1.100
; #@! TA.AperFunction,Plated,PTH,ComponentDrill
T9C1.500
; #@! TA.AperFunction,Plated,PTH,ComponentDrill
T10C4.300
%
G90
G05
T1
X206.5Y-243.0
X214.872Y-226.93
X240.0Y-333.5
X296.652Y-325.427
X300.801Y-330.851
X301.151Y-341.065
X304.144Y-334.055
X325.13Y-327.16
X328.344Y-335.477
X330.083Y-348.698
X339.0Y-257.0
X345.25Y-257.75
X352.555Y-307.221
X354.041Y-342.355
X361.0Y-119.5
X372.09Y-307.883
X373.011Y-335.619
X375.55Y-307.884
X376.348Y-306.325
X382.316Y-328.386
X382.724Y-322.34
X383.0Y-325.0
X383.241Y-333.783
X385.0Y-335.5
X385.5Y-120.0
X385.564Y-339.097
X386.0Y-332.0
X386.001Y-315.73
X386.464Y-323.953
X388.171Y-318.815
X388.889Y-312.938
X388.915Y-326.899
X388.931Y-305.37
X396.589Y-315.984
X404.554Y-251.28
X457.5Y-117.5
T2
X107.92Y-56.0
X113.0Y-56.0
X136.92Y-56.0
X142.0Y-56.0
X165.92Y-56.0
X171.0Y-56.0
X193.92Y-56.0
X199.0Y-56.0
X290.83Y-354.34
X290.91Y-371.34
X295.91Y-354.34
X295.99Y-371.34
X328.88Y-354.0
X328.92Y-371.08
X333.96Y-354.0
X334.0Y-371.08
X421.92Y-54.0
X427.0Y-54.0
X450.92Y-54.0
X456.0Y-54.0
X481.0Y-54.0
X486.08Y-54.0
X509.46Y-54.0
X514.54Y-54.0
T3
X423.365Y-50.34
X425.905Y-50.34
X452.065Y-50.44
X454.605Y-50.44
X481.565Y-50.24
X484.105Y-50.24
X509.18Y-50.44
X511.72Y-50.44
T4
X104.98Y-167.5
X105.69Y-190.5
X106.6Y-127.5
X107.19Y-228.93
X108.0Y-99.7
X111.19Y-252.93
X112.6Y-167.5
X113.31Y-190.5
X114.22Y-127.5
X114.81Y-228.93
X115.62Y-99.7
X118.81Y-252.93
X133.69Y-190.5
X134.6Y-167.5
X135.19Y-228.93
X135.19Y-252.93
X135.38Y-99.7
X135.6Y-127.5
X141.31Y-190.5
X142.22Y-167.5
X142.81Y-228.93
X142.81Y-252.93
X143.0Y-99.7
X143.22Y-127.5
X158.79Y-163.5
X158.98Y-186.5
X159.19Y-223.93
X159.19Y-247.93
X161.0Y-122.18
X165.0Y-98.7
X166.41Y-163.5
X166.6Y-186.5
X166.81Y-223.93
X166.81Y-247.93
X168.62Y-122.18
X172.62Y-98.7
X182.41Y-160.5
X182.6Y-184.5
X183.19Y-221.93
X183.19Y-245.93
X183.38Y-120.18
X190.03Y-160.5
X190.22Y-184.5
X190.81Y-221.93
X190.81Y-245.93
X191.0Y-120.18
X194.0Y-97.7
X201.62Y-97.7
X205.98Y-186.5
X206.6Y-162.5
X207.19Y-223.93
X207.19Y-247.93
X208.0Y-122.18
X213.6Y-186.5
X214.22Y-162.5
X214.81Y-223.93
X214.81Y-247.93
X215.62Y-122.18
X221.0Y-97.7
X228.62Y-97.7
X229.98Y-188.5
X230.57Y-226.93
X230.6Y-164.5
X232.0Y-123.18
X237.6Y-188.5
X238.19Y-226.93
X238.22Y-164.5
X239.62Y-123.18
X246.614Y-245.312
X251.0Y-97.7
X253.6Y-188.5
X254.234Y-245.312
X254.6Y-165.5
X255.19Y-226.93
X255.38Y-124.18
X258.62Y-97.7
X261.22Y-188.5
X262.22Y-165.5
X262.81Y-226.93
X263.0Y-124.18
X267.614Y-258.312
X275.234Y-258.312
X276.98Y-173.5
X277.57Y-222.93
X278.234Y-235.312
X280.0Y-97.7
X280.0Y-125.18
X284.6Y-173.5
X285.19Y-222.93
X285.854Y-235.312
X286.234Y-268.312
X287.62Y-97.7
X287.62Y-125.18
X293.854Y-268.312
X330.78Y-269.88
X334.7Y-96.8
X335.0Y-124.66
X337.1Y-173.3
X337.1Y-222.0
X338.4Y-269.88
X339.16Y-239.4
X342.32Y-96.8
X342.62Y-124.66
X344.72Y-173.3
X344.72Y-222.0
X346.78Y-239.4
X351.78Y-259.4
X359.38Y-124.66
X359.4Y-259.4
X359.48Y-187.3
X360.1Y-164.3
X360.48Y-227.0
X363.7Y-96.8
X367.0Y-124.66
X367.1Y-187.3
X367.72Y-164.3
X368.1Y-227.0
X371.16Y-248.4
X371.32Y-96.8
X378.78Y-248.4
X383.38Y-124.66
X384.1Y-163.3
X384.48Y-187.3
X384.48Y-227.0
X391.0Y-124.66
X391.72Y-163.3
X392.1Y-187.3
X392.1Y-227.0
X392.7Y-96.8
X400.32Y-96.8
X406.38Y-121.66
X408.1Y-161.3
X408.1Y-224.0
X408.1Y-248.0
X408.48Y-185.3
X414.0Y-121.66
X415.72Y-161.3
X415.72Y-224.0
X415.72Y-248.0
X416.1Y-185.3
X420.08Y-96.8
X427.7Y-96.8
X430.38Y-119.66
X431.48Y-182.3
X431.48Y-246.0
X432.1Y-222.0
X432.48Y-159.3
X438.0Y-119.66
X439.1Y-182.3
X439.1Y-246.0
X439.72Y-222.0
X440.1Y-159.3
X449.08Y-96.8
X454.38Y-124.66
X455.1Y-248.0
X455.48Y-185.3
X456.1Y-163.3
X456.1Y-225.0
X456.7Y-96.8
X462.0Y-124.66
X462.72Y-248.0
X463.1Y-185.3
X463.72Y-163.3
X463.72Y-225.0
X478.08Y-96.8
X478.38Y-126.66
X479.1Y-229.0
X479.1Y-254.0
X479.48Y-166.3
X479.48Y-190.3
X485.7Y-96.8
X486.0Y-126.66
X486.72Y-229.0
X486.72Y-254.0
X487.1Y-166.3
X487.1Y-190.3
X503.48Y-253.0
X506.7Y-96.8
X507.38Y-126.66
X508.1Y-190.3
X508.1Y-229.0
X508.48Y-165.3
X511.1Y-253.0
X514.32Y-96.8
X515.0Y-126.66
X515.72Y-190.3
X515.72Y-229.0
X516.1Y-165.3
T5
X109.9Y-50.7
X112.44Y-50.7
X138.1Y-51.2
X140.64Y-51.2
X167.4Y-51.0
X169.94Y-51.0
X195.2Y-51.2
X197.74Y-51.2
T6
X117.348Y-50.8
X124.18Y-82.78
X125.19Y-114.88
X125.19Y-117.42
X125.24Y-110.06
X126.0Y-178.31
X126.0Y-180.85
X126.33Y-174.0
X126.975Y-238.145
X127.0Y-220.0
X127.065Y-213.095
X145.796Y-51.054
X150.0Y-217.5
X150.31Y-178.27
X150.31Y-180.81
X151.61Y-114.42
X151.61Y-116.96
X174.37Y-173.45
X174.37Y-175.99
X174.6Y-212.92
X174.752Y-50.8
X176.17Y-110.08
X176.17Y-112.62
X195.5Y-253.0
X195.578Y-257.463
X197.25Y-171.31
X197.25Y-173.85
X198.0Y-211.0
X198.04Y-253.0
X198.118Y-257.463
X199.08Y-107.46
X199.08Y-110.0
X200.58Y-253.0
X200.658Y-257.463
X202.438Y-51.308
X202.438Y-56.388
X203.198Y-257.463
X205.738Y-257.463
X208.278Y-257.463
X210.818Y-257.463
X213.358Y-257.463
X215.898Y-257.463
X219.7Y-52.9
X221.41Y-173.68
X221.41Y-176.22
X222.0Y-213.0
X222.85Y-109.65
X223.92Y-53.0
X229.0Y-53.0
X230.5Y-320.76
X230.5Y-323.3
X230.5Y-325.84
X230.5Y-328.38
X230.5Y-330.92
X230.5Y-333.46
X230.5Y-336.0
X230.5Y-338.54
X230.5Y-341.08
X232.41Y-53.086
X245.25Y-175.87
X245.25Y-178.41
X246.0Y-214.5
X246.8Y-111.86
X246.8Y-114.4
X249.5Y-310.74
X253.5Y-310.74
X254.5Y-241.0
X257.5Y-310.67
X261.0Y-252.5
X261.0Y-310.66
X264.5Y-310.558
X268.856Y-175.36
X268.856Y-177.9
X268.93Y-310.66
X270.0Y-216.0
X270.02Y-113.22
X270.02Y-115.76
X271.47Y-310.66
X274.01Y-310.66
X274.5Y-233.5
X276.55Y-310.66
X278.866Y-346.372
X279.09Y-310.66
X281.13Y-260.386
X281.63Y-310.66
X284.0Y-264.5
X286.914Y-240.223
X289.5Y-250.0
X289.5Y-252.54
X289.5Y-255.08
X293.0Y-160.42
X293.0Y-162.96
X293.26Y-147.11
X294.0Y-207.554
X294.0Y-213.5
X294.6Y-112.18
X294.6Y-114.72
X326.985Y-86.465
X327.42Y-113.93
X328.0Y-210.0
X328.2Y-162.82
X333.5Y-250.0
X333.5Y-252.54
X333.5Y-255.08
X342.32Y-309.72
X343.0Y-266.0
X344.86Y-309.72
X346.5Y-235.0
X347.4Y-309.72
X349.94Y-309.72
X350.56Y-112.58
X350.56Y-115.12
X351.55Y-161.48
X351.55Y-164.02
X351.92Y-177.95
X352.0Y-213.0
X352.48Y-309.72
X355.02Y-309.72
X358.0Y-240.5
X359.116Y-309.672
X362.926Y-309.672
X366.736Y-309.672
X370.546Y-309.672
X371.562Y-347.106
X374.37Y-112.81
X374.37Y-115.35
X374.61Y-309.672
X375.5Y-218.0
X376.01Y-175.84
X376.01Y-178.38
X389.636Y-52.832
X393.0Y-319.8
X393.0Y-322.34
X393.0Y-324.88
X393.0Y-327.42
X393.0Y-329.96
X393.0Y-332.5
X393.0Y-335.04
X393.0Y-337.58
X393.0Y-340.12
X393.46Y-53.0
X398.21Y-112.59
X398.21Y-115.13
X398.54Y-53.0
X399.85Y-175.74
X399.85Y-178.28
X400.0Y-238.24
X402.9Y-52.7
X405.0Y-253.0
X405.11Y-256.92
X407.54Y-253.0
X407.65Y-256.92
X410.08Y-253.0
X410.19Y-256.92
X412.73Y-256.92
X415.27Y-256.92
X416.01Y-253.35
X417.81Y-256.92
X420.35Y-256.92
X422.04Y-110.25
X422.04Y-112.79
X422.89Y-256.92
X423.39Y-173.59
X423.39Y-176.13
X423.5Y-215.0
X425.43Y-256.92
X429.514Y-50.292
X435.5Y-54.0
X445.87Y-108.07
X445.87Y-110.61
X447.34Y-171.42
X447.34Y-173.96
X447.5Y-214.0
X458.216Y-50.292
X469.67Y-112.82
X469.67Y-115.36
X471.0Y-174.144
X471.0Y-176.684
X471.0Y-216.0
X487.68Y-50.292
X493.67Y-114.9
X493.67Y-117.44
X495.0Y-214.5
X495.0Y-220.0
X496.71Y-178.55
X496.71Y-181.09
X515.366Y-50.546
X524.18Y-178.6
X524.18Y-181.14
X527.0Y-115.19
X527.0Y-117.73
T7
X248.37Y-321.19
X248.37Y-338.97
X248.6Y-327.54
X248.6Y-330.08
X248.6Y-332.62
X250.91Y-321.19
X250.91Y-338.97
X253.45Y-321.19
X253.45Y-338.97
X255.99Y-321.19
X255.99Y-338.97
X258.53Y-321.19
X258.53Y-338.97
X261.07Y-321.19
X261.07Y-338.97
X263.61Y-321.19
X263.61Y-338.97
X266.15Y-321.19
X266.15Y-338.97
X268.69Y-321.19
X268.69Y-338.97
X271.23Y-321.19
X271.23Y-338.97
X273.77Y-321.19
X273.77Y-338.97
X276.31Y-321.19
X276.31Y-338.97
X278.85Y-321.19
X278.85Y-338.97
X281.39Y-321.19
X281.39Y-338.97
X283.93Y-321.19
X283.93Y-338.97
X286.47Y-321.19
X286.47Y-338.97
X289.01Y-321.19
X289.01Y-338.97
X291.55Y-321.19
X291.55Y-338.97
X294.09Y-321.19
X294.09Y-338.97
X296.63Y-321.19
X296.63Y-338.97
X328.37Y-321.19
X328.37Y-338.97
X330.91Y-321.19
X330.91Y-338.97
X333.45Y-321.19
X333.45Y-338.97
X335.99Y-321.19
X335.99Y-338.97
X338.53Y-321.19
X338.53Y-338.97
X341.07Y-321.19
X341.07Y-338.97
X343.61Y-321.19
X343.61Y-338.97
X346.15Y-321.19
X346.15Y-338.97
X348.69Y-321.19
X348.69Y-338.97
X351.23Y-321.19
X351.23Y-338.97
X353.77Y-321.19
X353.77Y-338.97
X356.31Y-321.19
X356.31Y-338.97
X358.85Y-321.19
X358.85Y-338.97
X361.39Y-321.19
X361.39Y-338.97
X363.93Y-321.19
X363.93Y-338.97
X366.47Y-321.19
X366.47Y-338.97
X369.01Y-321.19
X369.01Y-338.97
X371.55Y-321.19
X371.55Y-338.97
X374.09Y-321.19
X374.09Y-338.97
X376.4Y-327.54
X376.4Y-330.08
X376.4Y-332.62
X376.63Y-321.19
X376.63Y-338.97
T8
X289.945Y-361.28
X293.045Y-366.48
X298.045Y-358.08
X298.045Y-367.38
X327.225Y-357.76
X327.225Y-367.06
X332.225Y-358.66
X335.325Y-363.86
T9
X106.19Y-177.26
X106.39Y-153.46
X106.68Y-216.49
X107.39Y-83.76
X107.59Y-113.24
X111.48Y-240.39
X112.54Y-174.72
X112.74Y-150.92
X113.03Y-213.95
X113.74Y-81.22
X113.94Y-110.7
X117.83Y-237.85
X134.69Y-153.46
X135.09Y-177.16
X135.18Y-240.29
X135.38Y-216.29
X135.99Y-83.86
X136.19Y-113.44
X141.04Y-150.92
X141.44Y-174.62
X141.53Y-237.75
X141.73Y-213.75
X142.34Y-81.32
X142.54Y-110.9
X158.49Y-148.76
X158.69Y-172.46
X159.08Y-211.69
X159.18Y-235.49
X160.19Y-108.64
X164.79Y-83.86
X164.84Y-146.22
X165.04Y-169.92
X165.43Y-209.15
X165.53Y-232.95
X166.54Y-106.1
X171.14Y-81.32
X182.29Y-170.06
X182.39Y-146.16
X182.88Y-209.19
X182.88Y-233.19
X183.79Y-106.04
X188.64Y-167.52
X188.74Y-143.62
X189.23Y-206.65
X189.23Y-230.65
X190.14Y-103.5
X193.39Y-83.76
X199.74Y-81.22
X205.99Y-172.46
X206.19Y-148.66
X206.78Y-211.79
X206.88Y-235.59
X207.69Y-108.54
X212.34Y-169.92
X212.54Y-146.12
X213.13Y-209.25
X213.23Y-233.05
X214.04Y-106.0
X222.09Y-83.66
X228.44Y-81.12
X229.89Y-174.76
X230.09Y-150.96
X230.38Y-214.09
X231.29Y-110.74
X236.24Y-172.22
X236.44Y-148.42
X236.73Y-211.55
X237.64Y-108.2
X243.044Y-252.127
X249.814Y-253.103
X250.29Y-83.96
X253.69Y-174.86
X253.79Y-150.96
X254.48Y-214.09
X255.29Y-110.84
X256.64Y-81.42
X260.04Y-172.32
X260.14Y-148.42
X260.83Y-211.55
X261.64Y-108.3
X263.744Y-263.927
X270.514Y-264.903
X275.544Y-243.327
X276.34Y-160.42
X277.15Y-209.11
X278.88Y-166.77
X278.99Y-83.86
X278.99Y-110.84
X279.69Y-215.46
X282.314Y-244.303
X284.344Y-276.027
X285.34Y-81.32
X285.34Y-108.3
X291.114Y-277.003
X334.43Y-281.705
X334.47Y-84.1
X334.92Y-160.46
X334.97Y-111.46
X335.02Y-209.46
X337.46Y-166.81
X337.56Y-215.81
X338.66Y-276.331
X340.82Y-81.56
X341.32Y-108.92
X343.03Y-249.135
X347.26Y-243.76
X355.13Y-269.865
X358.87Y-111.36
X359.36Y-264.491
X359.87Y-174.8
X360.07Y-214.2
X360.17Y-151.0
X363.27Y-84.0
X365.22Y-108.82
X366.22Y-172.26
X366.42Y-211.66
X366.52Y-148.46
X369.62Y-81.46
X375.73Y-257.865
X379.96Y-252.491
X382.67Y-111.56
X383.77Y-150.9
X383.87Y-174.7
X383.87Y-214.0
X389.02Y-109.02
X390.12Y-148.36
X390.22Y-172.16
X390.22Y-211.46
X391.87Y-84.1
X398.22Y-81.56
X406.57Y-109.16
X407.57Y-211.9
X407.67Y-235.7
X407.77Y-148.5
X407.77Y-172.5
X412.92Y-106.62
X413.92Y-209.36
X414.02Y-233.16
X414.12Y-145.96
X414.12Y-169.96
X420.41Y-84.12
X426.76Y-81.58
X430.17Y-106.86
X431.43Y-209.42
X431.47Y-170.1
X431.57Y-146.3
X431.57Y-233.1
X436.52Y-104.32
X437.78Y-206.88
X437.82Y-167.56
X437.92Y-143.76
X437.92Y-230.56
X449.07Y-84.2
X454.27Y-111.46
X455.07Y-235.8
X455.27Y-150.9
X455.37Y-172.4
X455.42Y-81.66
X455.67Y-212.0
X460.62Y-108.92
X461.42Y-233.26
X461.62Y-148.36
X461.72Y-169.86
X462.02Y-209.46
X477.67Y-84.0
X477.87Y-113.96
X478.87Y-177.1
X478.87Y-240.6
X478.97Y-216.5
X479.17Y-153.4
X484.02Y-81.46
X484.22Y-111.42
X485.22Y-174.56
X485.22Y-238.06
X485.32Y-213.96
X485.52Y-150.86
X502.77Y-240.7
X506.37Y-84.1
X506.57Y-113.86
X507.57Y-177.2
X507.67Y-153.3
X507.87Y-216.6
X509.12Y-238.16
X512.72Y-81.56
X512.92Y-111.32
X513.92Y-174.66
X514.02Y-150.76
X514.22Y-214.06
T10
X91.0Y-219.0
X91.0Y-244.0
X91.2Y-115.4
X91.5Y-47.5
X91.5Y-87.0
X91.5Y-154.5
X91.5Y-179.5
X238.5Y-311.08
X246.1Y-232.1
X260.3Y-245.7
X281.5Y-363.5
X289.8Y-261.7
X295.5Y-311.08
X303.4Y-86.5
X303.5Y-47.5
X303.6Y-113.7
X304.0Y-211.0
X304.5Y-154.5
X304.5Y-179.5
X319.0Y-87.0
X319.0Y-179.5
X319.3Y-113.7
X319.5Y-154.5
X319.5Y-211.5
X320.5Y-47.5
X329.5Y-310.0
X335.58Y-262.0
X345.0Y-363.08
X364.28Y-245.9
X376.0Y-231.5
X384.5Y-310.0
X532.5Y-219.0
X532.5Y-244.0
X533.0Y-48.0
X533.0Y-86.5
X533.0Y-114.0
X533.0Y-154.5
X533.0Y-179.5
T0
M30
