M48
; DRILL file {KiCad 6.0.10-86aedd382b~118~ubuntu22.04.1} date ma. 02. jan. 2023 kl. 10.19 +0100
; FORMAT={-:-/ absolute / metric / decimal}
; #@! TF.CreationDate,2023-01-02T10:19:21+01:00
; #@! TF.GenerationSoftware,Kicad,Pcbnew,6.0.10-86aedd382b~118~ubuntu22.04.1
; #@! TF.FileFunction,NonPlated,1,2,NPTH
FMAT,2
METRIC
; #@! TA.AperFunction,NonPlated,NPTH,ComponentDrill
T1C1.100
; #@! TA.AperFunction,NonPlated,NPTH,ComponentDrill
T2C1.500
; #@! TA.AperFunction,NonPlated,NPTH,ComponentDrill
T3C1.700
; #@! TA.AperFunction,NonPlated,NPTH,ComponentDrill
T4C1.800
; #@! TA.AperFunction,NonPlated,NPTH,ComponentDrill
T5C4.000
%
G90
G05
T1
X293.045Y-362.88
X298.045Y-362.88
X327.225Y-362.26
X332.225Y-362.26
T2
X293.47Y-327.655
X293.47Y-332.505
X331.53Y-327.655
X331.53Y-332.505
T3
X104.92Y-179.8
X105.12Y-156.0
X105.41Y-219.03
X106.12Y-86.3
X106.32Y-115.78
X110.21Y-242.93
X115.08Y-179.8
X115.28Y-156.0
X115.57Y-219.03
X116.28Y-86.3
X116.48Y-115.78
X120.37Y-242.93
X133.42Y-156.0
X133.82Y-179.7
X133.91Y-242.83
X134.11Y-218.83
X134.72Y-86.4
X134.92Y-115.98
X143.58Y-156.0
X143.98Y-179.7
X144.07Y-242.83
X144.27Y-218.83
X144.88Y-86.4
X145.08Y-115.98
X157.22Y-151.3
X157.42Y-175.0
X157.81Y-214.23
X157.91Y-238.03
X158.92Y-111.18
X163.52Y-86.4
X167.38Y-151.3
X167.58Y-175.0
X167.97Y-214.23
X168.07Y-238.03
X169.08Y-111.18
X173.68Y-86.4
X181.02Y-172.6
X181.12Y-148.7
X181.61Y-211.73
X181.61Y-235.73
X182.52Y-108.58
X191.18Y-172.6
X191.28Y-148.7
X191.77Y-211.73
X191.77Y-235.73
X192.12Y-86.3
X192.68Y-108.58
X202.28Y-86.3
X204.72Y-175.0
X204.92Y-151.2
X205.51Y-214.33
X205.61Y-238.13
X206.42Y-111.08
X214.88Y-175.0
X215.08Y-151.2
X215.67Y-214.33
X215.77Y-238.13
X216.58Y-111.08
X220.82Y-86.2
X228.62Y-177.3
X228.82Y-153.5
X229.11Y-216.63
X230.02Y-113.28
X230.98Y-86.2
X238.78Y-177.3
X238.98Y-153.5
X239.27Y-216.63
X240.18Y-113.28
X240.675Y-253.692
X249.02Y-86.5
X249.473Y-258.772
X252.42Y-177.4
X252.52Y-153.5
X253.21Y-216.63
X254.02Y-113.38
X259.18Y-86.5
X261.375Y-265.492
X262.58Y-177.4
X262.68Y-153.5
X263.37Y-216.63
X264.18Y-113.38
X270.173Y-270.572
X273.175Y-244.892
X277.72Y-86.4
X277.72Y-113.38
X281.42Y-157.88
X281.42Y-168.04
X281.973Y-249.972
X281.975Y-277.592
X282.23Y-206.57
X282.23Y-216.73
X287.88Y-86.4
X287.88Y-113.38
X290.773Y-282.672
X333.2Y-86.64
X333.7Y-114.0
X334.601Y-284.54
X340.0Y-157.92
X340.0Y-168.08
X340.1Y-206.92
X340.1Y-217.08
X343.201Y-251.969
X343.36Y-86.64
X343.399Y-279.46
X343.86Y-114.0
X351.999Y-246.889
X355.301Y-272.7
X357.6Y-113.9
X358.6Y-177.34
X358.8Y-216.74
X358.9Y-153.54
X362.0Y-86.54
X364.099Y-267.62
X367.76Y-113.9
X368.76Y-177.34
X368.96Y-216.74
X369.06Y-153.54
X372.16Y-86.54
X375.901Y-260.7
X381.4Y-114.1
X382.5Y-153.44
X382.6Y-177.24
X382.6Y-216.54
X384.699Y-255.62
X390.6Y-86.64
X391.56Y-114.1
X392.66Y-153.44
X392.76Y-177.24
X392.76Y-216.54
X400.76Y-86.64
X405.3Y-111.7
X406.3Y-214.44
X406.4Y-238.24
X406.5Y-151.04
X406.5Y-175.04
X415.46Y-111.7
X416.46Y-214.44
X416.56Y-238.24
X416.66Y-151.04
X416.66Y-175.04
X419.14Y-86.66
X428.9Y-109.4
X429.3Y-86.66
X430.16Y-211.96
X430.2Y-172.64
X430.3Y-148.84
X430.3Y-235.64
X439.06Y-109.4
X440.32Y-211.96
X440.36Y-172.64
X440.46Y-148.84
X440.46Y-235.64
X447.8Y-86.74
X453.0Y-114.0
X453.8Y-238.34
X454.0Y-153.44
X454.1Y-174.94
X454.4Y-214.54
X457.96Y-86.74
X463.16Y-114.0
X463.96Y-238.34
X464.16Y-153.44
X464.26Y-174.94
X464.56Y-214.54
X476.4Y-86.54
X476.6Y-116.5
X477.6Y-179.64
X477.6Y-243.14
X477.7Y-219.04
X477.9Y-155.94
X486.56Y-86.54
X486.76Y-116.5
X487.76Y-179.64
X487.76Y-243.14
X487.86Y-219.04
X488.06Y-155.94
X501.5Y-243.24
X505.1Y-86.64
X505.3Y-116.4
X506.3Y-179.74
X506.4Y-155.84
X506.6Y-219.14
X511.66Y-243.24
X515.26Y-86.64
X515.46Y-116.4
X516.46Y-179.74
X516.56Y-155.84
X516.76Y-219.14
T4
X296.5Y-327.355
X296.5Y-332.805
X328.5Y-327.355
X328.5Y-332.805
T5
X110.0Y-179.8
X110.2Y-156.0
X110.49Y-219.03
X111.2Y-86.3
X111.4Y-115.78
X115.29Y-242.93
X138.5Y-156.0
X138.9Y-179.7
X138.99Y-242.83
X139.19Y-218.83
X139.8Y-86.4
X140.0Y-115.98
X162.3Y-151.3
X162.5Y-175.0
X162.89Y-214.23
X162.99Y-238.03
X164.0Y-111.18
X168.6Y-86.4
X186.1Y-172.6
X186.2Y-148.7
X186.69Y-211.73
X186.69Y-235.73
X187.6Y-108.58
X197.2Y-86.3
X209.8Y-175.0
X210.0Y-151.2
X210.59Y-214.33
X210.69Y-238.13
X211.5Y-111.08
X225.9Y-86.2
X233.7Y-177.3
X233.9Y-153.5
X234.19Y-216.63
X235.1Y-113.28
X245.074Y-256.232
X254.1Y-86.5
X257.5Y-177.4
X257.6Y-153.5
X258.29Y-216.63
X259.1Y-113.38
X265.774Y-268.032
X277.574Y-247.432
X281.42Y-162.96
X282.23Y-211.65
X282.8Y-86.4
X282.8Y-113.38
X286.374Y-280.132
X338.28Y-86.64
X338.78Y-114.0
X339.0Y-282.0
X340.0Y-163.0
X340.1Y-212.0
X347.6Y-249.429
X359.7Y-270.16
X362.68Y-113.9
X363.68Y-177.34
X363.88Y-216.74
X363.98Y-153.54
X367.08Y-86.54
X380.3Y-258.16
X386.48Y-114.1
X387.58Y-153.44
X387.68Y-177.24
X387.68Y-216.54
X395.68Y-86.64
X410.38Y-111.7
X411.38Y-214.44
X411.48Y-238.24
X411.58Y-151.04
X411.58Y-175.04
X424.22Y-86.66
X433.98Y-109.4
X435.24Y-211.96
X435.28Y-172.64
X435.38Y-148.84
X435.38Y-235.64
X452.88Y-86.74
X458.08Y-114.0
X458.88Y-238.34
X459.08Y-153.44
X459.18Y-174.94
X459.48Y-214.54
X481.48Y-86.54
X481.68Y-116.5
X482.68Y-179.64
X482.68Y-243.14
X482.78Y-219.04
X482.98Y-155.94
X506.58Y-243.24
X510.18Y-86.64
X510.38Y-116.4
X511.38Y-179.74
X511.48Y-155.84
X511.68Y-219.14
T0
M30
