M48
; DRILL file {KiCad 7.0.1-3b83917a11~172~ubuntu22.04.1} date fr. 31. mars 2023 kl. 15.39 +0200
; FORMAT={-:-/ absolute / metric / decimal}
; #@! TF.CreationDate,2023-03-31T15:39:11+02:00
; #@! TF.GenerationSoftware,Kicad,Pcbnew,7.0.1-3b83917a11~172~ubuntu22.04.1
; #@! TF.FileFunction,NonPlated,1,2,NPTH
FMAT,2
METRIC
; #@! TA.AperFunction,NonPlated,NPTH,ComponentDrill
T1C1.100
; #@! TA.AperFunction,NonPlated,NPTH,ComponentDrill
T2C1.500
; #@! TA.AperFunction,NonPlated,NPTH,ComponentDrill
T3C1.700
; #@! TA.AperFunction,NonPlated,NPTH,ComponentDrill
T4C1.800
; #@! TA.AperFunction,NonPlated,NPTH,ComponentDrill
T5C4.000
%
G90
G05
T1
X294.0Y-363.0
X299.0Y-363.0
X326.7Y-362.1
X331.7Y-362.1
T2
X300.5Y-327.655
X300.5Y-332.505
X323.53Y-327.35
X323.53Y-332.2
T3
X105.41Y-219.03
X110.21Y-242.93
X115.57Y-219.03
X116.65Y-179.8
X116.85Y-156.0
X120.37Y-242.93
X122.53Y-116.32
X126.81Y-179.8
X127.01Y-156.0
X132.69Y-116.32
X133.91Y-242.83
X134.11Y-218.83
X143.75Y-156.0
X144.07Y-242.83
X144.15Y-179.7
X144.27Y-218.83
X144.59Y-86.9
X149.35Y-116.02
X153.91Y-156.0
X154.31Y-179.7
X154.75Y-86.9
X157.81Y-214.23
X157.91Y-238.03
X159.51Y-116.02
X165.69Y-151.3
X165.89Y-175.0
X166.88Y-86.58
X167.97Y-214.23
X168.07Y-238.03
X170.46Y-111.18
X175.85Y-151.3
X176.05Y-175.0
X177.04Y-86.58
X180.62Y-111.18
X181.61Y-211.73
X181.61Y-235.73
X187.67Y-172.6
X187.77Y-148.7
X189.46Y-86.7
X191.77Y-211.73
X191.77Y-235.73
X192.06Y-108.58
X197.83Y-172.6
X197.93Y-148.7
X199.62Y-86.7
X202.22Y-108.58
X205.51Y-214.33
X205.61Y-238.13
X209.47Y-175.0
X209.67Y-151.2
X211.74Y-86.6
X213.64Y-111.08
X215.67Y-214.33
X215.77Y-238.13
X219.63Y-175.0
X219.83Y-151.2
X221.9Y-86.6
X223.8Y-111.08
X229.11Y-216.63
X232.36Y-177.3
X232.56Y-153.5
X234.22Y-86.5
X234.82Y-113.28
X239.27Y-216.63
X240.675Y-253.692
X242.52Y-177.3
X242.72Y-153.5
X244.38Y-86.5
X244.98Y-113.28
X249.473Y-258.772
X253.21Y-216.63
X254.38Y-177.4
X254.48Y-153.5
X255.92Y-86.5
X256.0Y-113.38
X261.375Y-265.492
X263.37Y-216.63
X264.54Y-177.4
X264.64Y-153.5
X266.08Y-86.5
X266.16Y-113.38
X270.173Y-270.572
X273.175Y-244.892
X277.72Y-86.4
X277.72Y-113.38
X281.42Y-157.88
X281.42Y-168.04
X281.973Y-249.972
X281.975Y-277.592
X282.23Y-206.57
X282.23Y-216.73
X287.88Y-86.4
X287.88Y-113.38
X290.773Y-282.672
X333.2Y-86.64
X333.7Y-114.0
X334.601Y-284.54
X340.0Y-157.92
X340.0Y-168.08
X340.1Y-206.92
X340.1Y-217.08
X343.201Y-251.969
X343.36Y-86.64
X343.399Y-279.46
X343.86Y-114.0
X351.999Y-246.889
X355.301Y-272.7
X357.6Y-113.9
X358.6Y-177.34
X358.8Y-216.74
X358.9Y-153.54
X362.0Y-86.54
X364.099Y-267.62
X367.76Y-113.9
X368.76Y-177.34
X368.96Y-216.74
X369.06Y-153.54
X372.16Y-86.54
X375.901Y-260.7
X381.4Y-114.1
X382.5Y-153.44
X382.6Y-177.24
X382.6Y-216.54
X384.699Y-255.62
X390.6Y-86.64
X391.56Y-114.1
X392.66Y-153.44
X392.76Y-177.24
X392.76Y-216.54
X400.76Y-86.64
X405.3Y-111.7
X406.3Y-214.44
X406.4Y-238.24
X406.5Y-151.04
X406.5Y-175.04
X415.46Y-111.7
X416.46Y-214.44
X416.56Y-238.24
X416.66Y-151.04
X416.66Y-175.04
X419.14Y-86.66
X428.9Y-109.4
X429.3Y-86.66
X430.16Y-211.96
X430.2Y-172.64
X430.3Y-148.84
X430.3Y-235.64
X439.06Y-109.4
X440.32Y-211.96
X440.36Y-172.64
X440.46Y-148.84
X440.46Y-235.64
X447.8Y-86.74
X453.0Y-114.0
X453.8Y-238.34
X454.0Y-153.44
X454.1Y-174.94
X454.4Y-214.54
X457.96Y-86.74
X463.16Y-114.0
X463.96Y-238.34
X464.16Y-153.44
X464.26Y-174.94
X464.56Y-214.54
X476.4Y-86.54
X476.6Y-116.5
X477.6Y-179.64
X477.6Y-243.14
X477.7Y-219.04
X477.9Y-155.94
X486.56Y-86.54
X486.76Y-116.5
X487.76Y-179.64
X487.76Y-243.14
X487.86Y-219.04
X488.06Y-155.94
X501.5Y-243.24
X505.1Y-86.64
X505.3Y-116.4
X506.3Y-179.74
X506.4Y-155.84
X506.6Y-219.14
X511.66Y-243.24
X515.26Y-86.64
X515.46Y-116.4
X516.46Y-179.74
X516.56Y-155.84
X516.76Y-219.14
T4
X303.53Y-327.355
X303.53Y-332.805
X320.5Y-327.05
X320.5Y-332.5
T5
X110.49Y-219.03
X115.29Y-242.93
X121.73Y-179.8
X121.93Y-156.0
X127.61Y-116.32
X138.99Y-242.83
X139.19Y-218.83
X148.83Y-156.0
X149.23Y-179.7
X149.67Y-86.9
X154.43Y-116.02
X162.89Y-214.23
X162.99Y-238.03
X170.77Y-151.3
X170.97Y-175.0
X171.96Y-86.58
X175.54Y-111.18
X186.69Y-211.73
X186.69Y-235.73
X192.75Y-172.6
X192.85Y-148.7
X194.54Y-86.7
X197.14Y-108.58
X210.59Y-214.33
X210.69Y-238.13
X214.55Y-175.0
X214.75Y-151.2
X216.82Y-86.6
X218.72Y-111.08
X234.19Y-216.63
X237.44Y-177.3
X237.64Y-153.5
X239.3Y-86.5
X239.9Y-113.28
X245.074Y-256.232
X258.29Y-216.63
X259.46Y-177.4
X259.56Y-153.5
X261.0Y-86.5
X261.08Y-113.38
X265.774Y-268.032
X277.574Y-247.432
X281.42Y-162.96
X282.23Y-211.65
X282.8Y-86.4
X282.8Y-113.38
X286.374Y-280.132
X338.28Y-86.64
X338.78Y-114.0
X339.0Y-282.0
X340.0Y-163.0
X340.1Y-212.0
X347.6Y-249.429
X359.7Y-270.16
X362.68Y-113.9
X363.68Y-177.34
X363.88Y-216.74
X363.98Y-153.54
X367.08Y-86.54
X380.3Y-258.16
X386.48Y-114.1
X387.58Y-153.44
X387.68Y-177.24
X387.68Y-216.54
X395.68Y-86.64
X410.38Y-111.7
X411.38Y-214.44
X411.48Y-238.24
X411.58Y-151.04
X411.58Y-175.04
X424.22Y-86.66
X433.98Y-109.4
X435.24Y-211.96
X435.28Y-172.64
X435.38Y-148.84
X435.38Y-235.64
X452.88Y-86.74
X458.08Y-114.0
X458.88Y-238.34
X459.08Y-153.44
X459.18Y-174.94
X459.48Y-214.54
X481.48Y-86.54
X481.68Y-116.5
X482.68Y-179.64
X482.68Y-243.14
X482.78Y-219.04
X482.98Y-155.94
X506.58Y-243.24
X510.18Y-86.64
X510.38Y-116.4
X511.38Y-179.74
X511.48Y-155.84
X511.68Y-219.14
T0
M30
