%TF.GenerationSoftware,KiCad,Pcbnew,6.0.10-86aedd382b~118~ubuntu22.04.1*%
%TF.CreationDate,2022-12-24T14:30:03+01:00*%
%TF.ProjectId,Europe-flex,4575726f-7065-42d6-966c-65782e6b6963,rev?*%
%TF.SameCoordinates,Original*%
%TF.FileFunction,Profile,NP*%
%FSLAX46Y46*%
G04 Gerber Fmt 4.6, Leading zero omitted, Abs format (unit mm)*
G04 Created by KiCad (PCBNEW 6.0.10-86aedd382b~118~ubuntu22.04.1) date 2022-12-24 14:30:03*
%MOMM*%
%LPD*%
G01*
G04 APERTURE LIST*
%TA.AperFunction,Profile*%
%ADD10C,0.100000*%
%TD*%
%TA.AperFunction,Profile*%
%ADD11C,0.010000*%
%TD*%
G04 APERTURE END LIST*
D10*
X324325000Y-370610000D02*
X324300000Y-374000000D01*
X88000000Y-194000000D02*
X308000000Y-194000000D01*
X308000000Y-194000000D02*
X308000000Y-196000000D01*
X308000000Y-196000000D02*
X88000000Y-196000000D01*
X88000000Y-196000000D02*
X88000000Y-194000000D01*
X300945000Y-371730000D02*
X300900000Y-374000000D01*
X403500000Y-263500000D02*
X334000000Y-301000000D01*
X85500000Y-34500000D02*
X310000000Y-34500000D01*
X389500000Y-240500000D02*
X411500000Y-272500000D01*
X402000000Y-262500000D02*
X389000000Y-241000000D01*
X303000000Y-277500000D02*
X289500000Y-300500000D01*
X542950000Y-272500000D02*
X411500000Y-272500000D01*
X212000000Y-272000000D02*
X85500000Y-272000000D01*
X543000000Y-34500000D02*
X542950000Y-272500000D01*
X85500000Y-272000000D02*
X85500000Y-34500000D01*
X410000000Y-272500000D02*
X410000000Y-374000000D01*
X316000000Y-133000000D02*
X536000000Y-133000000D01*
X536000000Y-133000000D02*
X536000000Y-135000000D01*
X536000000Y-135000000D02*
X316000000Y-135000000D01*
X316000000Y-135000000D02*
X316000000Y-133000000D01*
X335500000Y-232000000D02*
X322000000Y-277500000D01*
X308000000Y-228000000D02*
X308000000Y-228500000D01*
X289000000Y-299000000D02*
X301500000Y-277000000D01*
X289000000Y-231000000D02*
X303000000Y-277500000D01*
X334500000Y-299500000D02*
X402000000Y-262500000D01*
X314500000Y-301500000D02*
X406500000Y-301500000D01*
X406500000Y-301500000D02*
X406500000Y-304500000D01*
X406500000Y-304500000D02*
X314500000Y-304500000D01*
X314500000Y-304500000D02*
X314500000Y-301500000D01*
X229500000Y-301500000D02*
X309000000Y-301500000D01*
X309000000Y-301500000D02*
X309000000Y-304500000D01*
X309000000Y-304500000D02*
X229500000Y-304500000D01*
X229500000Y-304500000D02*
X229500000Y-301500000D01*
X289500000Y-300500000D02*
X220000000Y-263000000D01*
X389000000Y-241000000D02*
X350000000Y-229000000D01*
X334000000Y-301000000D02*
X320500000Y-278000000D01*
X311000000Y-40000000D02*
X313000000Y-40000000D01*
X313000000Y-40000000D02*
X313000000Y-342000000D01*
X313000000Y-342000000D02*
X311000000Y-342000000D01*
X311000000Y-342000000D02*
X311000000Y-40000000D01*
X322000000Y-277500000D02*
X334500000Y-299500000D01*
X234500000Y-240500000D02*
X221500000Y-262000000D01*
X301500000Y-277000000D02*
X288000000Y-231500000D01*
X350000000Y-228500000D02*
X372500000Y-235500000D01*
X273500000Y-228500000D02*
X234500000Y-240500000D01*
X315500000Y-228500000D02*
X350000000Y-228500000D01*
X226000000Y-374000000D02*
X226000000Y-272000000D01*
X220000000Y-263000000D02*
X213500000Y-272000000D01*
X310000000Y-34500000D02*
X543000000Y-34500000D01*
X320500000Y-278000000D02*
X334500000Y-231500000D01*
X372500000Y-235500000D02*
X389500000Y-240500000D01*
X234000000Y-240000000D02*
X251000000Y-235000000D01*
X324320000Y-347000000D02*
X324325000Y-353410000D01*
X334500000Y-231500000D02*
X335500000Y-232000000D01*
X301000000Y-347000000D02*
X324320000Y-347000000D01*
X251000000Y-235000000D02*
X273500000Y-228000000D01*
X410000000Y-374000000D02*
X324300000Y-374000000D01*
X273500000Y-228000000D02*
X308000000Y-228000000D01*
X226000000Y-272000000D02*
X213500000Y-272000000D01*
X300945000Y-354530000D02*
X301000000Y-347000000D01*
X315500000Y-194000000D02*
X535500000Y-194000000D01*
X535500000Y-194000000D02*
X535500000Y-196000000D01*
X535500000Y-196000000D02*
X315500000Y-196000000D01*
X315500000Y-196000000D02*
X315500000Y-194000000D01*
X221500000Y-262000000D02*
X289000000Y-299000000D01*
X300900000Y-374000000D02*
X226000000Y-374000000D01*
X350000000Y-229000000D02*
X315500000Y-229000000D01*
X315500000Y-60000000D02*
X535500000Y-60000000D01*
X535500000Y-60000000D02*
X535500000Y-62000000D01*
X535500000Y-62000000D02*
X315500000Y-62000000D01*
X315500000Y-62000000D02*
X315500000Y-60000000D01*
X410000000Y-272500000D02*
X403500000Y-263500000D01*
X212000000Y-272000000D02*
X234000000Y-240000000D01*
X88000000Y-60000000D02*
X308000000Y-60000000D01*
X308000000Y-60000000D02*
X308000000Y-62000000D01*
X308000000Y-62000000D02*
X88000000Y-62000000D01*
X88000000Y-62000000D02*
X88000000Y-60000000D01*
X315500000Y-229000000D02*
X315500000Y-228500000D01*
X87000000Y-133000000D02*
X307000000Y-133000000D01*
X307000000Y-133000000D02*
X307000000Y-135000000D01*
X307000000Y-135000000D02*
X87000000Y-135000000D01*
X87000000Y-135000000D02*
X87000000Y-133000000D01*
X308000000Y-228500000D02*
X273500000Y-228500000D01*
X288000000Y-231500000D02*
X289000000Y-231000000D01*
D11*
%TO.C,J1*%
X325625000Y-360010000D02*
X324325000Y-360010000D01*
X325625000Y-364510000D02*
X325625000Y-360010000D01*
X324325000Y-360010000D02*
X324325000Y-353410000D01*
X324325000Y-370610000D02*
X324325000Y-364510000D01*
X324325000Y-364510000D02*
X325625000Y-364510000D01*
%TO.C,J2*%
X300945000Y-354530000D02*
X300945000Y-360630000D01*
X300945000Y-365130000D02*
X300945000Y-371730000D01*
X300945000Y-360630000D02*
X299645000Y-360630000D01*
X299645000Y-360630000D02*
X299645000Y-365130000D01*
X299645000Y-365130000D02*
X300945000Y-365130000D01*
%TD*%
M02*
