%TF.GenerationSoftware,KiCad,Pcbnew,6.0.10-86aedd382b~118~ubuntu22.04.1*%
%TF.CreationDate,2022-12-23T12:35:11+01:00*%
%TF.ProjectId,Europe-flex,4575726f-7065-42d6-966c-65782e6b6963,rev?*%
%TF.SameCoordinates,Original*%
%TF.FileFunction,Legend,Bot*%
%TF.FilePolarity,Positive*%
%FSLAX46Y46*%
G04 Gerber Fmt 4.6, Leading zero omitted, Abs format (unit mm)*
G04 Created by KiCad (PCBNEW 6.0.10-86aedd382b~118~ubuntu22.04.1) date 2022-12-23 12:35:11*
%MOMM*%
%LPD*%
G01*
G04 APERTURE LIST*
%ADD10C,0.150000*%
%ADD11C,0.120150*%
%ADD12C,0.127000*%
%ADD13C,0.400000*%
%ADD14C,0.120000*%
%ADD15R,1.700000X1.700000*%
%ADD16O,1.700000X1.700000*%
%ADD17R,1.600000X1.600000*%
%ADD18O,1.600000X1.600000*%
%ADD19C,7.500000*%
%ADD20C,1.700000*%
%ADD21C,4.000000*%
%ADD22C,2.200000*%
%ADD23R,1.500000X1.500000*%
%ADD24O,1.500000X1.500000*%
%ADD25C,1.400000*%
%ADD26O,1.400000X1.400000*%
%ADD27R,1.800000X1.800000*%
%ADD28O,1.800000X1.800000*%
%ADD29C,1.100000*%
%ADD30R,1.650000X1.650000*%
%ADD31C,1.650000*%
%ADD32R,1.700000X3.500000*%
%ADD33R,3.500000X1.700000*%
G04 APERTURE END LIST*
D10*
%TO.C,SW48*%
X394444476Y-54627238D02*
X394587333Y-54579619D01*
X394825428Y-54579619D01*
X394920666Y-54627238D01*
X394968285Y-54674857D01*
X395015904Y-54770095D01*
X395015904Y-54865333D01*
X394968285Y-54960571D01*
X394920666Y-55008190D01*
X394825428Y-55055809D01*
X394634952Y-55103428D01*
X394539714Y-55151047D01*
X394492095Y-55198666D01*
X394444476Y-55293904D01*
X394444476Y-55389142D01*
X394492095Y-55484380D01*
X394539714Y-55532000D01*
X394634952Y-55579619D01*
X394873047Y-55579619D01*
X395015904Y-55532000D01*
X395349238Y-55579619D02*
X395587333Y-54579619D01*
X395777809Y-55293904D01*
X395968285Y-54579619D01*
X396206380Y-55579619D01*
X397015904Y-55246285D02*
X397015904Y-54579619D01*
X396777809Y-55627238D02*
X396539714Y-54912952D01*
X397158761Y-54912952D01*
X397682571Y-55151047D02*
X397587333Y-55198666D01*
X397539714Y-55246285D01*
X397492095Y-55341523D01*
X397492095Y-55389142D01*
X397539714Y-55484380D01*
X397587333Y-55532000D01*
X397682571Y-55579619D01*
X397873047Y-55579619D01*
X397968285Y-55532000D01*
X398015904Y-55484380D01*
X398063523Y-55389142D01*
X398063523Y-55341523D01*
X398015904Y-55246285D01*
X397968285Y-55198666D01*
X397873047Y-55151047D01*
X397682571Y-55151047D01*
X397587333Y-55103428D01*
X397539714Y-55055809D01*
X397492095Y-54960571D01*
X397492095Y-54770095D01*
X397539714Y-54674857D01*
X397587333Y-54627238D01*
X397682571Y-54579619D01*
X397873047Y-54579619D01*
X397968285Y-54627238D01*
X398015904Y-54674857D01*
X398063523Y-54770095D01*
X398063523Y-54960571D01*
X398015904Y-55055809D01*
X397968285Y-55103428D01*
X397873047Y-55151047D01*
D11*
%TO.C,J1*%
X327005496Y-368810085D02*
X327005496Y-369153369D01*
X327028381Y-369222026D01*
X327074153Y-369267797D01*
X327142810Y-369290683D01*
X327188581Y-369290683D01*
X326524898Y-369290683D02*
X326799525Y-369290683D01*
X326662212Y-369290683D02*
X326662212Y-368810085D01*
X326707983Y-368878742D01*
X326753754Y-368924513D01*
X326799525Y-368947399D01*
D10*
%TO.C,U2*%
X271952380Y-329318095D02*
X272761904Y-329318095D01*
X272857142Y-329365714D01*
X272904761Y-329413333D01*
X272952380Y-329508571D01*
X272952380Y-329699047D01*
X272904761Y-329794285D01*
X272857142Y-329841904D01*
X272761904Y-329889523D01*
X271952380Y-329889523D01*
X272047619Y-330318095D02*
X272000000Y-330365714D01*
X271952380Y-330460952D01*
X271952380Y-330699047D01*
X272000000Y-330794285D01*
X272047619Y-330841904D01*
X272142857Y-330889523D01*
X272238095Y-330889523D01*
X272380952Y-330841904D01*
X272952380Y-330270476D01*
X272952380Y-330889523D01*
X279940964Y-316123597D02*
X279671590Y-316392971D01*
X280156463Y-316231346D02*
X279402216Y-315854223D01*
X279779340Y-316608470D01*
X278755719Y-316554595D02*
X278782656Y-316473783D01*
X278863468Y-316392971D01*
X278971218Y-316339096D01*
X279078967Y-316339096D01*
X279159780Y-316366033D01*
X279294467Y-316446845D01*
X279375279Y-316527658D01*
X279456091Y-316662345D01*
X279483028Y-316743157D01*
X279483028Y-316850906D01*
X279429154Y-316958656D01*
X279375279Y-317012531D01*
X279267529Y-317066406D01*
X279213654Y-317066406D01*
X279025093Y-316877844D01*
X279132842Y-316770094D01*
X279025093Y-317362717D02*
X278459407Y-316797032D01*
X278701844Y-317685966D01*
X278136158Y-317120280D01*
X278432470Y-317955340D02*
X277866784Y-317389654D01*
X277732097Y-317524341D01*
X277678223Y-317632091D01*
X277678223Y-317739841D01*
X277705160Y-317820653D01*
X277785972Y-317955340D01*
X277866784Y-318036152D01*
X278001471Y-318116964D01*
X278082284Y-318143902D01*
X278190033Y-318143902D01*
X278297783Y-318090027D01*
X278432470Y-317955340D01*
X284051218Y-342193096D02*
X284078155Y-342112284D01*
X284158967Y-342031471D01*
X284266717Y-341977597D01*
X284374467Y-341977597D01*
X284455279Y-342004534D01*
X284589966Y-342085346D01*
X284670778Y-342166158D01*
X284751590Y-342300845D01*
X284778528Y-342381658D01*
X284778528Y-342489407D01*
X284724653Y-342597157D01*
X284670778Y-342651032D01*
X284563028Y-342704906D01*
X284509154Y-342704906D01*
X284320592Y-342516345D01*
X284428341Y-342408595D01*
X284320592Y-343001218D02*
X283754906Y-342435532D01*
X283539407Y-342651032D01*
X283512470Y-342731844D01*
X283512470Y-342785719D01*
X283539407Y-342866531D01*
X283620219Y-342947343D01*
X283701032Y-342974280D01*
X283754906Y-342974280D01*
X283835719Y-342947343D01*
X284051218Y-342731844D01*
X283135346Y-343432216D02*
X283512470Y-343809340D01*
X283054534Y-343082030D02*
X283593282Y-343351404D01*
X283243096Y-343701590D01*
X276431218Y-342193096D02*
X276458155Y-342112284D01*
X276538967Y-342031471D01*
X276646717Y-341977597D01*
X276754467Y-341977597D01*
X276835279Y-342004534D01*
X276969966Y-342085346D01*
X277050778Y-342166158D01*
X277131590Y-342300845D01*
X277158528Y-342381658D01*
X277158528Y-342489407D01*
X277104653Y-342597157D01*
X277050778Y-342651032D01*
X276943028Y-342704906D01*
X276889154Y-342704906D01*
X276700592Y-342516345D01*
X276808341Y-342408595D01*
X276700592Y-343001218D02*
X276134906Y-342435532D01*
X275919407Y-342651032D01*
X275892470Y-342731844D01*
X275892470Y-342785719D01*
X275919407Y-342866531D01*
X276000219Y-342947343D01*
X276081032Y-342974280D01*
X276134906Y-342974280D01*
X276215719Y-342947343D01*
X276431218Y-342731844D01*
X275326784Y-343243654D02*
X275434534Y-343135905D01*
X275515346Y-343108967D01*
X275569221Y-343108967D01*
X275703908Y-343135905D01*
X275838595Y-343216717D01*
X276054094Y-343432216D01*
X276081032Y-343513028D01*
X276081032Y-343566903D01*
X276054094Y-343647715D01*
X275946345Y-343755465D01*
X275865532Y-343782402D01*
X275811658Y-343782402D01*
X275730845Y-343755465D01*
X275596158Y-343620778D01*
X275569221Y-343539966D01*
X275569221Y-343486091D01*
X275596158Y-343405279D01*
X275703908Y-343297529D01*
X275784720Y-343270592D01*
X275838595Y-343270592D01*
X275919407Y-343297529D01*
X278998155Y-342166158D02*
X279025093Y-342085346D01*
X279105905Y-342004534D01*
X279213654Y-341950659D01*
X279321404Y-341950659D01*
X279402216Y-341977597D01*
X279536903Y-342058409D01*
X279617715Y-342139221D01*
X279698528Y-342273908D01*
X279725465Y-342354720D01*
X279725465Y-342462470D01*
X279671590Y-342570219D01*
X279617715Y-342624094D01*
X279509966Y-342677969D01*
X279456091Y-342677969D01*
X279267529Y-342489407D01*
X279375279Y-342381658D01*
X279267529Y-342974280D02*
X278701844Y-342408595D01*
X278944280Y-343297529D01*
X278378595Y-342731844D01*
X278674906Y-343566903D02*
X278109221Y-343001218D01*
X277974534Y-343135905D01*
X277920659Y-343243654D01*
X277920659Y-343351404D01*
X277947597Y-343432216D01*
X278028409Y-343566903D01*
X278109221Y-343647715D01*
X278243908Y-343728528D01*
X278324720Y-343755465D01*
X278432470Y-343755465D01*
X278540219Y-343701590D01*
X278674906Y-343566903D01*
X261460592Y-342323722D02*
X261487529Y-342242910D01*
X261568341Y-342162097D01*
X261676091Y-342108223D01*
X261783841Y-342108223D01*
X261864653Y-342135160D01*
X261999340Y-342215972D01*
X262080152Y-342296784D01*
X262160964Y-342431471D01*
X262187902Y-342512284D01*
X262187902Y-342620033D01*
X262134027Y-342727783D01*
X262080152Y-342781658D01*
X261972402Y-342835532D01*
X261918528Y-342835532D01*
X261729966Y-342646971D01*
X261837715Y-342539221D01*
X261729966Y-343131844D02*
X261164280Y-342566158D01*
X260948781Y-342781658D01*
X260921844Y-342862470D01*
X260921844Y-342916345D01*
X260948781Y-342997157D01*
X261029593Y-343077969D01*
X261110406Y-343104906D01*
X261164280Y-343104906D01*
X261245093Y-343077969D01*
X261460592Y-342862470D01*
X260867969Y-343993841D02*
X261191218Y-343670592D01*
X261029593Y-343832216D02*
X260463908Y-343266531D01*
X260598595Y-343293468D01*
X260706345Y-343293468D01*
X260787157Y-343266531D01*
X260329221Y-344532589D02*
X260652470Y-344209340D01*
X260490845Y-344370964D02*
X259925160Y-343805279D01*
X260059847Y-343832216D01*
X260167597Y-343832216D01*
X260248409Y-343805279D01*
X291698155Y-342166158D02*
X291725093Y-342085346D01*
X291805905Y-342004534D01*
X291913654Y-341950659D01*
X292021404Y-341950659D01*
X292102216Y-341977597D01*
X292236903Y-342058409D01*
X292317715Y-342139221D01*
X292398528Y-342273908D01*
X292425465Y-342354720D01*
X292425465Y-342462470D01*
X292371590Y-342570219D01*
X292317715Y-342624094D01*
X292209966Y-342677969D01*
X292156091Y-342677969D01*
X291967529Y-342489407D01*
X292075279Y-342381658D01*
X291967529Y-342974280D02*
X291401844Y-342408595D01*
X291644280Y-343297529D01*
X291078595Y-342731844D01*
X291374906Y-343566903D02*
X290809221Y-343001218D01*
X290674534Y-343135905D01*
X290620659Y-343243654D01*
X290620659Y-343351404D01*
X290647597Y-343432216D01*
X290728409Y-343566903D01*
X290809221Y-343647715D01*
X290943908Y-343728528D01*
X291024720Y-343755465D01*
X291132470Y-343755465D01*
X291240219Y-343701590D01*
X291374906Y-343566903D01*
X251300592Y-316069722D02*
X251327529Y-315988910D01*
X251408341Y-315908097D01*
X251516091Y-315854223D01*
X251623841Y-315854223D01*
X251704653Y-315881160D01*
X251839340Y-315961972D01*
X251920152Y-316042784D01*
X252000964Y-316177471D01*
X252027902Y-316258284D01*
X252027902Y-316366033D01*
X251974027Y-316473783D01*
X251920152Y-316527658D01*
X251812402Y-316581532D01*
X251758528Y-316581532D01*
X251569966Y-316392971D01*
X251677715Y-316285221D01*
X251569966Y-316877844D02*
X251004280Y-316312158D01*
X250788781Y-316527658D01*
X250761844Y-316608470D01*
X250761844Y-316662345D01*
X250788781Y-316743157D01*
X250869593Y-316823969D01*
X250950406Y-316850906D01*
X251004280Y-316850906D01*
X251085093Y-316823969D01*
X251300592Y-316608470D01*
X250707969Y-317739841D02*
X251031218Y-317416592D01*
X250869593Y-317578216D02*
X250303908Y-317012531D01*
X250438595Y-317039468D01*
X250546345Y-317039468D01*
X250627157Y-317012531D01*
X249953722Y-317362717D02*
X249576598Y-317739841D01*
X250384720Y-318063089D01*
X297427309Y-315433129D02*
X297804433Y-316187377D01*
X297050186Y-315810253D01*
X296942436Y-316456751D02*
X296888561Y-316564500D01*
X296888561Y-316618375D01*
X296915499Y-316699187D01*
X296996311Y-316780000D01*
X297077123Y-316806937D01*
X297130998Y-316806937D01*
X297211810Y-316780000D01*
X297427309Y-316564500D01*
X296861624Y-315998815D01*
X296673062Y-316187377D01*
X296646125Y-316268189D01*
X296646125Y-316322064D01*
X296673062Y-316402876D01*
X296726937Y-316456751D01*
X296807749Y-316483688D01*
X296861624Y-316483688D01*
X296942436Y-316456751D01*
X297130998Y-316268189D01*
X296295938Y-316564500D02*
X296753874Y-317022436D01*
X296780812Y-317103248D01*
X296780812Y-317157123D01*
X296753874Y-317237935D01*
X296646125Y-317345685D01*
X296565312Y-317372622D01*
X296511438Y-317372622D01*
X296430625Y-317345685D01*
X295972690Y-316887749D01*
X296269001Y-317668934D02*
X296215126Y-317776683D01*
X296080439Y-317911370D01*
X295999627Y-317938308D01*
X295945752Y-317938308D01*
X295864940Y-317911370D01*
X295811065Y-317857496D01*
X295784128Y-317776683D01*
X295784128Y-317722809D01*
X295811065Y-317641996D01*
X295891877Y-317507309D01*
X295918815Y-317426497D01*
X295918815Y-317372622D01*
X295891877Y-317291810D01*
X295838003Y-317237935D01*
X295757190Y-317210998D01*
X295703316Y-317210998D01*
X295622503Y-317237935D01*
X295487816Y-317372622D01*
X295433942Y-317480372D01*
X282034592Y-316069722D02*
X282061529Y-315988910D01*
X282142341Y-315908097D01*
X282250091Y-315854223D01*
X282357841Y-315854223D01*
X282438653Y-315881160D01*
X282573340Y-315961972D01*
X282654152Y-316042784D01*
X282734964Y-316177471D01*
X282761902Y-316258284D01*
X282761902Y-316366033D01*
X282708027Y-316473783D01*
X282654152Y-316527658D01*
X282546402Y-316581532D01*
X282492528Y-316581532D01*
X282303966Y-316392971D01*
X282411715Y-316285221D01*
X282303966Y-316877844D02*
X281738280Y-316312158D01*
X281522781Y-316527658D01*
X281495844Y-316608470D01*
X281495844Y-316662345D01*
X281522781Y-316743157D01*
X281603593Y-316823969D01*
X281684406Y-316850906D01*
X281738280Y-316850906D01*
X281819093Y-316823969D01*
X282034592Y-316608470D01*
X281253407Y-316904781D02*
X281199532Y-316904781D01*
X281118720Y-316931719D01*
X280984033Y-317066406D01*
X280957096Y-317147218D01*
X280957096Y-317201093D01*
X280984033Y-317281905D01*
X281037908Y-317335780D01*
X281145658Y-317389654D01*
X281792155Y-317389654D01*
X281441969Y-317739841D01*
X280795471Y-317739841D02*
X280822409Y-317659028D01*
X280822409Y-317605154D01*
X280795471Y-317524341D01*
X280768534Y-317497404D01*
X280687722Y-317470467D01*
X280633847Y-317470467D01*
X280553035Y-317497404D01*
X280445285Y-317605154D01*
X280418348Y-317685966D01*
X280418348Y-317739841D01*
X280445285Y-317820653D01*
X280472223Y-317847590D01*
X280553035Y-317874528D01*
X280606910Y-317874528D01*
X280687722Y-317847590D01*
X280795471Y-317739841D01*
X280876284Y-317712903D01*
X280930158Y-317712903D01*
X281010971Y-317739841D01*
X281118720Y-317847590D01*
X281145658Y-317928402D01*
X281145658Y-317982277D01*
X281118720Y-318063089D01*
X281010971Y-318170839D01*
X280930158Y-318197776D01*
X280876284Y-318197776D01*
X280795471Y-318170839D01*
X280687722Y-318063089D01*
X280660784Y-317982277D01*
X280660784Y-317928402D01*
X280687722Y-317847590D01*
X266298155Y-342166158D02*
X266325093Y-342085346D01*
X266405905Y-342004534D01*
X266513654Y-341950659D01*
X266621404Y-341950659D01*
X266702216Y-341977597D01*
X266836903Y-342058409D01*
X266917715Y-342139221D01*
X266998528Y-342273908D01*
X267025465Y-342354720D01*
X267025465Y-342462470D01*
X266971590Y-342570219D01*
X266917715Y-342624094D01*
X266809966Y-342677969D01*
X266756091Y-342677969D01*
X266567529Y-342489407D01*
X266675279Y-342381658D01*
X266567529Y-342974280D02*
X266001844Y-342408595D01*
X266244280Y-343297529D01*
X265678595Y-342731844D01*
X265974906Y-343566903D02*
X265409221Y-343001218D01*
X265274534Y-343135905D01*
X265220659Y-343243654D01*
X265220659Y-343351404D01*
X265247597Y-343432216D01*
X265328409Y-343566903D01*
X265409221Y-343647715D01*
X265543908Y-343728528D01*
X265624720Y-343755465D01*
X265732470Y-343755465D01*
X265840219Y-343701590D01*
X265974906Y-343566903D01*
X281511218Y-342193096D02*
X281538155Y-342112284D01*
X281618967Y-342031471D01*
X281726717Y-341977597D01*
X281834467Y-341977597D01*
X281915279Y-342004534D01*
X282049966Y-342085346D01*
X282130778Y-342166158D01*
X282211590Y-342300845D01*
X282238528Y-342381658D01*
X282238528Y-342489407D01*
X282184653Y-342597157D01*
X282130778Y-342651032D01*
X282023028Y-342704906D01*
X281969154Y-342704906D01*
X281780592Y-342516345D01*
X281888341Y-342408595D01*
X281780592Y-343001218D02*
X281214906Y-342435532D01*
X280999407Y-342651032D01*
X280972470Y-342731844D01*
X280972470Y-342785719D01*
X280999407Y-342866531D01*
X281080219Y-342947343D01*
X281161032Y-342974280D01*
X281214906Y-342974280D01*
X281295719Y-342947343D01*
X281511218Y-342731844D01*
X280379847Y-343270592D02*
X280649221Y-343001218D01*
X280945532Y-343243654D01*
X280891658Y-343243654D01*
X280810845Y-343270592D01*
X280676158Y-343405279D01*
X280649221Y-343486091D01*
X280649221Y-343539966D01*
X280676158Y-343620778D01*
X280810845Y-343755465D01*
X280891658Y-343782402D01*
X280945532Y-343782402D01*
X281026345Y-343755465D01*
X281161032Y-343620778D01*
X281187969Y-343539966D01*
X281187969Y-343486091D01*
X286790592Y-316169847D02*
X286440406Y-316520033D01*
X286844467Y-316546971D01*
X286763654Y-316627783D01*
X286736717Y-316708595D01*
X286736717Y-316762470D01*
X286763654Y-316843282D01*
X286898341Y-316977969D01*
X286979154Y-317004906D01*
X287033028Y-317004906D01*
X287113841Y-316977969D01*
X287275465Y-316816345D01*
X287302402Y-316735532D01*
X287302402Y-316681658D01*
X286278781Y-316681658D02*
X286655905Y-317435905D01*
X285901658Y-317058781D01*
X285766971Y-317193468D02*
X285416784Y-317543654D01*
X285820845Y-317570592D01*
X285740033Y-317651404D01*
X285713096Y-317732216D01*
X285713096Y-317786091D01*
X285740033Y-317866903D01*
X285874720Y-318001590D01*
X285955532Y-318028528D01*
X286009407Y-318028528D01*
X286090219Y-318001590D01*
X286251844Y-317839966D01*
X286278781Y-317759154D01*
X286278781Y-317705279D01*
X294221218Y-342293096D02*
X294248155Y-342212284D01*
X294328967Y-342131471D01*
X294436717Y-342077597D01*
X294544467Y-342077597D01*
X294625279Y-342104534D01*
X294759966Y-342185346D01*
X294840778Y-342266158D01*
X294921590Y-342400845D01*
X294948528Y-342481658D01*
X294948528Y-342589407D01*
X294894653Y-342697157D01*
X294840778Y-342751032D01*
X294733028Y-342804906D01*
X294679154Y-342804906D01*
X294490592Y-342616345D01*
X294598341Y-342508595D01*
X294490592Y-343101218D02*
X293924906Y-342535532D01*
X293709407Y-342751032D01*
X293682470Y-342831844D01*
X293682470Y-342885719D01*
X293709407Y-342966531D01*
X293790219Y-343047343D01*
X293871032Y-343074280D01*
X293924906Y-343074280D01*
X294005719Y-343047343D01*
X294221218Y-342831844D01*
X293628595Y-343963215D02*
X293951844Y-343639966D01*
X293790219Y-343801590D02*
X293224534Y-343235905D01*
X293359221Y-343262842D01*
X293466971Y-343262842D01*
X293547783Y-343235905D01*
X274160592Y-316069722D02*
X274187529Y-315988910D01*
X274268341Y-315908097D01*
X274376091Y-315854223D01*
X274483841Y-315854223D01*
X274564653Y-315881160D01*
X274699340Y-315961972D01*
X274780152Y-316042784D01*
X274860964Y-316177471D01*
X274887902Y-316258284D01*
X274887902Y-316366033D01*
X274834027Y-316473783D01*
X274780152Y-316527658D01*
X274672402Y-316581532D01*
X274618528Y-316581532D01*
X274429966Y-316392971D01*
X274537715Y-316285221D01*
X274429966Y-316877844D02*
X273864280Y-316312158D01*
X273648781Y-316527658D01*
X273621844Y-316608470D01*
X273621844Y-316662345D01*
X273648781Y-316743157D01*
X273729593Y-316823969D01*
X273810406Y-316850906D01*
X273864280Y-316850906D01*
X273945093Y-316823969D01*
X274160592Y-316608470D01*
X273379407Y-316904781D02*
X273325532Y-316904781D01*
X273244720Y-316931719D01*
X273110033Y-317066406D01*
X273083096Y-317147218D01*
X273083096Y-317201093D01*
X273110033Y-317281905D01*
X273163908Y-317335780D01*
X273271658Y-317389654D01*
X273918155Y-317389654D01*
X273567969Y-317739841D01*
X272517410Y-317659028D02*
X272625160Y-317551279D01*
X272705972Y-317524341D01*
X272759847Y-317524341D01*
X272894534Y-317551279D01*
X273029221Y-317632091D01*
X273244720Y-317847590D01*
X273271658Y-317928402D01*
X273271658Y-317982277D01*
X273244720Y-318063089D01*
X273136971Y-318170839D01*
X273056158Y-318197776D01*
X273002284Y-318197776D01*
X272921471Y-318170839D01*
X272786784Y-318036152D01*
X272759847Y-317955340D01*
X272759847Y-317901465D01*
X272786784Y-317820653D01*
X272894534Y-317712903D01*
X272975346Y-317685966D01*
X273029221Y-317685966D01*
X273110033Y-317712903D01*
X246623809Y-322784761D02*
X246661904Y-322899047D01*
X246661904Y-323089523D01*
X246623809Y-323165714D01*
X246585714Y-323203809D01*
X246509523Y-323241904D01*
X246433333Y-323241904D01*
X246357142Y-323203809D01*
X246319047Y-323165714D01*
X246280952Y-323089523D01*
X246242857Y-322937142D01*
X246204761Y-322860952D01*
X246166666Y-322822857D01*
X246090476Y-322784761D01*
X246014285Y-322784761D01*
X245938095Y-322822857D01*
X245900000Y-322860952D01*
X245861904Y-322937142D01*
X245861904Y-323127619D01*
X245900000Y-323241904D01*
X245861904Y-323508571D02*
X246661904Y-323699047D01*
X246090476Y-323851428D01*
X246661904Y-324003809D01*
X245861904Y-324194285D01*
X246661904Y-324499047D02*
X245861904Y-324499047D01*
X245861904Y-324689523D01*
X245900000Y-324803809D01*
X245976190Y-324880000D01*
X246052380Y-324918095D01*
X246204761Y-324956190D01*
X246319047Y-324956190D01*
X246471428Y-324918095D01*
X246547619Y-324880000D01*
X246623809Y-324803809D01*
X246661904Y-324689523D01*
X246661904Y-324499047D01*
X246661904Y-325299047D02*
X245861904Y-325299047D01*
X245861904Y-325832380D02*
X245861904Y-325984761D01*
X245900000Y-326060952D01*
X245976190Y-326137142D01*
X246128571Y-326175238D01*
X246395238Y-326175238D01*
X246547619Y-326137142D01*
X246623809Y-326060952D01*
X246661904Y-325984761D01*
X246661904Y-325832380D01*
X246623809Y-325756190D01*
X246547619Y-325680000D01*
X246395238Y-325641904D01*
X246128571Y-325641904D01*
X245976190Y-325680000D01*
X245900000Y-325756190D01*
X245861904Y-325832380D01*
X290858308Y-314602131D02*
X290508122Y-314952317D01*
X290912183Y-314979255D01*
X290831370Y-315060067D01*
X290804433Y-315140879D01*
X290804433Y-315194754D01*
X290831370Y-315275566D01*
X290966057Y-315410253D01*
X291046870Y-315437190D01*
X291100744Y-315437190D01*
X291181557Y-315410253D01*
X291343181Y-315248629D01*
X291370118Y-315167816D01*
X291370118Y-315113942D01*
X290346497Y-315113942D02*
X290723621Y-315868189D01*
X289969374Y-315491065D01*
X289834687Y-315625752D02*
X289484500Y-315975938D01*
X289888561Y-316002876D01*
X289807749Y-316083688D01*
X289780812Y-316164500D01*
X289780812Y-316218375D01*
X289807749Y-316299187D01*
X289942436Y-316433874D01*
X290023248Y-316460812D01*
X290077123Y-316460812D01*
X290157935Y-316433874D01*
X290319560Y-316272250D01*
X290346497Y-316191438D01*
X290346497Y-316137563D01*
X289996311Y-316703248D02*
X289565312Y-317134247D01*
X289080439Y-316918748D02*
X288891877Y-317107309D01*
X289107377Y-317484433D02*
X289376751Y-317215059D01*
X288811065Y-316649374D01*
X288541691Y-316918748D01*
X288864940Y-317726870D02*
X288299255Y-317161184D01*
X288541691Y-318050118D01*
X287976006Y-317484433D01*
X263990592Y-316069722D02*
X264017529Y-315988910D01*
X264098341Y-315908097D01*
X264206091Y-315854223D01*
X264313841Y-315854223D01*
X264394653Y-315881160D01*
X264529340Y-315961972D01*
X264610152Y-316042784D01*
X264690964Y-316177471D01*
X264717902Y-316258284D01*
X264717902Y-316366033D01*
X264664027Y-316473783D01*
X264610152Y-316527658D01*
X264502402Y-316581532D01*
X264448528Y-316581532D01*
X264259966Y-316392971D01*
X264367715Y-316285221D01*
X264259966Y-316877844D02*
X263694280Y-316312158D01*
X263478781Y-316527658D01*
X263451844Y-316608470D01*
X263451844Y-316662345D01*
X263478781Y-316743157D01*
X263559593Y-316823969D01*
X263640406Y-316850906D01*
X263694280Y-316850906D01*
X263775093Y-316823969D01*
X263990592Y-316608470D01*
X263209407Y-316904781D02*
X263155532Y-316904781D01*
X263074720Y-316931719D01*
X262940033Y-317066406D01*
X262913096Y-317147218D01*
X262913096Y-317201093D01*
X262940033Y-317281905D01*
X262993908Y-317335780D01*
X263101658Y-317389654D01*
X263748155Y-317389654D01*
X263397969Y-317739841D01*
X262859221Y-318278589D02*
X263182470Y-317955340D01*
X263020845Y-318116964D02*
X262455160Y-317551279D01*
X262589847Y-317578216D01*
X262697597Y-317578216D01*
X262778409Y-317551279D01*
X258920592Y-316069722D02*
X258947529Y-315988910D01*
X259028341Y-315908097D01*
X259136091Y-315854223D01*
X259243841Y-315854223D01*
X259324653Y-315881160D01*
X259459340Y-315961972D01*
X259540152Y-316042784D01*
X259620964Y-316177471D01*
X259647902Y-316258284D01*
X259647902Y-316366033D01*
X259594027Y-316473783D01*
X259540152Y-316527658D01*
X259432402Y-316581532D01*
X259378528Y-316581532D01*
X259189966Y-316392971D01*
X259297715Y-316285221D01*
X259189966Y-316877844D02*
X258624280Y-316312158D01*
X258408781Y-316527658D01*
X258381844Y-316608470D01*
X258381844Y-316662345D01*
X258408781Y-316743157D01*
X258489593Y-316823969D01*
X258570406Y-316850906D01*
X258624280Y-316850906D01*
X258705093Y-316823969D01*
X258920592Y-316608470D01*
X258327969Y-317739841D02*
X258651218Y-317416592D01*
X258489593Y-317578216D02*
X257923908Y-317012531D01*
X258058595Y-317039468D01*
X258166345Y-317039468D01*
X258247157Y-317012531D01*
X258058595Y-318009215D02*
X257950845Y-318116964D01*
X257870033Y-318143902D01*
X257816158Y-318143902D01*
X257681471Y-318116964D01*
X257546784Y-318036152D01*
X257331285Y-317820653D01*
X257304348Y-317739841D01*
X257304348Y-317685966D01*
X257331285Y-317605154D01*
X257439035Y-317497404D01*
X257519847Y-317470467D01*
X257573722Y-317470467D01*
X257654534Y-317497404D01*
X257789221Y-317632091D01*
X257816158Y-317712903D01*
X257816158Y-317766778D01*
X257789221Y-317847590D01*
X257681471Y-317955340D01*
X257600659Y-317982277D01*
X257546784Y-317982277D01*
X257465972Y-317955340D01*
X286591218Y-342193096D02*
X286618155Y-342112284D01*
X286698967Y-342031471D01*
X286806717Y-341977597D01*
X286914467Y-341977597D01*
X286995279Y-342004534D01*
X287129966Y-342085346D01*
X287210778Y-342166158D01*
X287291590Y-342300845D01*
X287318528Y-342381658D01*
X287318528Y-342489407D01*
X287264653Y-342597157D01*
X287210778Y-342651032D01*
X287103028Y-342704906D01*
X287049154Y-342704906D01*
X286860592Y-342516345D01*
X286968341Y-342408595D01*
X286860592Y-343001218D02*
X286294906Y-342435532D01*
X286079407Y-342651032D01*
X286052470Y-342731844D01*
X286052470Y-342785719D01*
X286079407Y-342866531D01*
X286160219Y-342947343D01*
X286241032Y-342974280D01*
X286294906Y-342974280D01*
X286375719Y-342947343D01*
X286591218Y-342731844D01*
X285783096Y-342947343D02*
X285432910Y-343297529D01*
X285836971Y-343324467D01*
X285756158Y-343405279D01*
X285729221Y-343486091D01*
X285729221Y-343539966D01*
X285756158Y-343620778D01*
X285890845Y-343755465D01*
X285971658Y-343782402D01*
X286025532Y-343782402D01*
X286106345Y-343755465D01*
X286267969Y-343593841D01*
X286294906Y-343513028D01*
X286294906Y-343459154D01*
X253598155Y-316566158D02*
X253625093Y-316485346D01*
X253705905Y-316404534D01*
X253813654Y-316350659D01*
X253921404Y-316350659D01*
X254002216Y-316377597D01*
X254136903Y-316458409D01*
X254217715Y-316539221D01*
X254298528Y-316673908D01*
X254325465Y-316754720D01*
X254325465Y-316862470D01*
X254271590Y-316970219D01*
X254217715Y-317024094D01*
X254109966Y-317077969D01*
X254056091Y-317077969D01*
X253867529Y-316889407D01*
X253975279Y-316781658D01*
X253867529Y-317374280D02*
X253301844Y-316808595D01*
X253544280Y-317697529D01*
X252978595Y-317131844D01*
X253274906Y-317966903D02*
X252709221Y-317401218D01*
X252574534Y-317535905D01*
X252520659Y-317643654D01*
X252520659Y-317751404D01*
X252547597Y-317832216D01*
X252628409Y-317966903D01*
X252709221Y-318047715D01*
X252843908Y-318128528D01*
X252924720Y-318155465D01*
X253032470Y-318155465D01*
X253140219Y-318101590D01*
X253274906Y-317966903D01*
X258920592Y-342323722D02*
X258947529Y-342242910D01*
X259028341Y-342162097D01*
X259136091Y-342108223D01*
X259243841Y-342108223D01*
X259324653Y-342135160D01*
X259459340Y-342215972D01*
X259540152Y-342296784D01*
X259620964Y-342431471D01*
X259647902Y-342512284D01*
X259647902Y-342620033D01*
X259594027Y-342727783D01*
X259540152Y-342781658D01*
X259432402Y-342835532D01*
X259378528Y-342835532D01*
X259189966Y-342646971D01*
X259297715Y-342539221D01*
X259189966Y-343131844D02*
X258624280Y-342566158D01*
X258408781Y-342781658D01*
X258381844Y-342862470D01*
X258381844Y-342916345D01*
X258408781Y-342997157D01*
X258489593Y-343077969D01*
X258570406Y-343104906D01*
X258624280Y-343104906D01*
X258705093Y-343077969D01*
X258920592Y-342862470D01*
X258327969Y-343993841D02*
X258651218Y-343670592D01*
X258489593Y-343832216D02*
X257923908Y-343266531D01*
X258058595Y-343293468D01*
X258166345Y-343293468D01*
X258247157Y-343266531D01*
X257600659Y-343697529D02*
X257546784Y-343697529D01*
X257465972Y-343724467D01*
X257331285Y-343859154D01*
X257304348Y-343939966D01*
X257304348Y-343993841D01*
X257331285Y-344074653D01*
X257385160Y-344128528D01*
X257492910Y-344182402D01*
X258139407Y-344182402D01*
X257789221Y-344532589D01*
X291698155Y-316566158D02*
X291725093Y-316485346D01*
X291805905Y-316404534D01*
X291913654Y-316350659D01*
X292021404Y-316350659D01*
X292102216Y-316377597D01*
X292236903Y-316458409D01*
X292317715Y-316539221D01*
X292398528Y-316673908D01*
X292425465Y-316754720D01*
X292425465Y-316862470D01*
X292371590Y-316970219D01*
X292317715Y-317024094D01*
X292209966Y-317077969D01*
X292156091Y-317077969D01*
X291967529Y-316889407D01*
X292075279Y-316781658D01*
X291967529Y-317374280D02*
X291401844Y-316808595D01*
X291644280Y-317697529D01*
X291078595Y-317131844D01*
X291374906Y-317966903D02*
X290809221Y-317401218D01*
X290674534Y-317535905D01*
X290620659Y-317643654D01*
X290620659Y-317751404D01*
X290647597Y-317832216D01*
X290728409Y-317966903D01*
X290809221Y-318047715D01*
X290943908Y-318128528D01*
X291024720Y-318155465D01*
X291132470Y-318155465D01*
X291240219Y-318101590D01*
X291374906Y-317966903D01*
X261460592Y-316069722D02*
X261487529Y-315988910D01*
X261568341Y-315908097D01*
X261676091Y-315854223D01*
X261783841Y-315854223D01*
X261864653Y-315881160D01*
X261999340Y-315961972D01*
X262080152Y-316042784D01*
X262160964Y-316177471D01*
X262187902Y-316258284D01*
X262187902Y-316366033D01*
X262134027Y-316473783D01*
X262080152Y-316527658D01*
X261972402Y-316581532D01*
X261918528Y-316581532D01*
X261729966Y-316392971D01*
X261837715Y-316285221D01*
X261729966Y-316877844D02*
X261164280Y-316312158D01*
X260948781Y-316527658D01*
X260921844Y-316608470D01*
X260921844Y-316662345D01*
X260948781Y-316743157D01*
X261029593Y-316823969D01*
X261110406Y-316850906D01*
X261164280Y-316850906D01*
X261245093Y-316823969D01*
X261460592Y-316608470D01*
X260679407Y-316904781D02*
X260625532Y-316904781D01*
X260544720Y-316931719D01*
X260410033Y-317066406D01*
X260383096Y-317147218D01*
X260383096Y-317201093D01*
X260410033Y-317281905D01*
X260463908Y-317335780D01*
X260571658Y-317389654D01*
X261218155Y-317389654D01*
X260867969Y-317739841D01*
X259952097Y-317524341D02*
X259898223Y-317578216D01*
X259871285Y-317659028D01*
X259871285Y-317712903D01*
X259898223Y-317793715D01*
X259979035Y-317928402D01*
X260113722Y-318063089D01*
X260248409Y-318143902D01*
X260329221Y-318170839D01*
X260383096Y-318170839D01*
X260463908Y-318143902D01*
X260517783Y-318090027D01*
X260544720Y-318009215D01*
X260544720Y-317955340D01*
X260517783Y-317874528D01*
X260436971Y-317739841D01*
X260302284Y-317605154D01*
X260167597Y-317524341D01*
X260086784Y-317497404D01*
X260032910Y-317497404D01*
X259952097Y-317524341D01*
X266298155Y-316566158D02*
X266325093Y-316485346D01*
X266405905Y-316404534D01*
X266513654Y-316350659D01*
X266621404Y-316350659D01*
X266702216Y-316377597D01*
X266836903Y-316458409D01*
X266917715Y-316539221D01*
X266998528Y-316673908D01*
X267025465Y-316754720D01*
X267025465Y-316862470D01*
X266971590Y-316970219D01*
X266917715Y-317024094D01*
X266809966Y-317077969D01*
X266756091Y-317077969D01*
X266567529Y-316889407D01*
X266675279Y-316781658D01*
X266567529Y-317374280D02*
X266001844Y-316808595D01*
X266244280Y-317697529D01*
X265678595Y-317131844D01*
X265974906Y-317966903D02*
X265409221Y-317401218D01*
X265274534Y-317535905D01*
X265220659Y-317643654D01*
X265220659Y-317751404D01*
X265247597Y-317832216D01*
X265328409Y-317966903D01*
X265409221Y-318047715D01*
X265543908Y-318128528D01*
X265624720Y-318155465D01*
X265732470Y-318155465D01*
X265840219Y-318101590D01*
X265974906Y-317966903D01*
X248760592Y-342177722D02*
X248787529Y-342096910D01*
X248868341Y-342016097D01*
X248976091Y-341962223D01*
X249083841Y-341962223D01*
X249164653Y-341989160D01*
X249299340Y-342069972D01*
X249380152Y-342150784D01*
X249460964Y-342285471D01*
X249487902Y-342366284D01*
X249487902Y-342474033D01*
X249434027Y-342581783D01*
X249380152Y-342635658D01*
X249272402Y-342689532D01*
X249218528Y-342689532D01*
X249029966Y-342500971D01*
X249137715Y-342393221D01*
X249029966Y-342985844D02*
X248464280Y-342420158D01*
X248248781Y-342635658D01*
X248221844Y-342716470D01*
X248221844Y-342770345D01*
X248248781Y-342851157D01*
X248329593Y-342931969D01*
X248410406Y-342958906D01*
X248464280Y-342958906D01*
X248545093Y-342931969D01*
X248760592Y-342716470D01*
X248167969Y-343847841D02*
X248491218Y-343524592D01*
X248329593Y-343686216D02*
X247763908Y-343120531D01*
X247898595Y-343147468D01*
X248006345Y-343147468D01*
X248087157Y-343120531D01*
X247090473Y-343793966D02*
X247359847Y-343524592D01*
X247656158Y-343767028D01*
X247602284Y-343767028D01*
X247521471Y-343793966D01*
X247386784Y-343928653D01*
X247359847Y-344009465D01*
X247359847Y-344063340D01*
X247386784Y-344144152D01*
X247521471Y-344278839D01*
X247602284Y-344305776D01*
X247656158Y-344305776D01*
X247736971Y-344278839D01*
X247871658Y-344144152D01*
X247898595Y-344063340D01*
X247898595Y-344009465D01*
X296751218Y-342193096D02*
X296778155Y-342112284D01*
X296858967Y-342031471D01*
X296966717Y-341977597D01*
X297074467Y-341977597D01*
X297155279Y-342004534D01*
X297289966Y-342085346D01*
X297370778Y-342166158D01*
X297451590Y-342300845D01*
X297478528Y-342381658D01*
X297478528Y-342489407D01*
X297424653Y-342597157D01*
X297370778Y-342651032D01*
X297263028Y-342704906D01*
X297209154Y-342704906D01*
X297020592Y-342516345D01*
X297128341Y-342408595D01*
X297020592Y-343001218D02*
X296454906Y-342435532D01*
X296239407Y-342651032D01*
X296212470Y-342731844D01*
X296212470Y-342785719D01*
X296239407Y-342866531D01*
X296320219Y-342947343D01*
X296401032Y-342974280D01*
X296454906Y-342974280D01*
X296535719Y-342947343D01*
X296751218Y-342731844D01*
X295781471Y-343108967D02*
X295727597Y-343162842D01*
X295700659Y-343243654D01*
X295700659Y-343297529D01*
X295727597Y-343378341D01*
X295808409Y-343513028D01*
X295943096Y-343647715D01*
X296077783Y-343728528D01*
X296158595Y-343755465D01*
X296212470Y-343755465D01*
X296293282Y-343728528D01*
X296347157Y-343674653D01*
X296374094Y-343593841D01*
X296374094Y-343539966D01*
X296347157Y-343459154D01*
X296266345Y-343324467D01*
X296131658Y-343189780D01*
X295996971Y-343108967D01*
X295916158Y-343082030D01*
X295862284Y-343082030D01*
X295781471Y-343108967D01*
X253598155Y-342166158D02*
X253625093Y-342085346D01*
X253705905Y-342004534D01*
X253813654Y-341950659D01*
X253921404Y-341950659D01*
X254002216Y-341977597D01*
X254136903Y-342058409D01*
X254217715Y-342139221D01*
X254298528Y-342273908D01*
X254325465Y-342354720D01*
X254325465Y-342462470D01*
X254271590Y-342570219D01*
X254217715Y-342624094D01*
X254109966Y-342677969D01*
X254056091Y-342677969D01*
X253867529Y-342489407D01*
X253975279Y-342381658D01*
X253867529Y-342974280D02*
X253301844Y-342408595D01*
X253544280Y-343297529D01*
X252978595Y-342731844D01*
X253274906Y-343566903D02*
X252709221Y-343001218D01*
X252574534Y-343135905D01*
X252520659Y-343243654D01*
X252520659Y-343351404D01*
X252547597Y-343432216D01*
X252628409Y-343566903D01*
X252709221Y-343647715D01*
X252843908Y-343728528D01*
X252924720Y-343755465D01*
X253032470Y-343755465D01*
X253140219Y-343701590D01*
X253274906Y-343566903D01*
X276690592Y-316069722D02*
X276717529Y-315988910D01*
X276798341Y-315908097D01*
X276906091Y-315854223D01*
X277013841Y-315854223D01*
X277094653Y-315881160D01*
X277229340Y-315961972D01*
X277310152Y-316042784D01*
X277390964Y-316177471D01*
X277417902Y-316258284D01*
X277417902Y-316366033D01*
X277364027Y-316473783D01*
X277310152Y-316527658D01*
X277202402Y-316581532D01*
X277148528Y-316581532D01*
X276959966Y-316392971D01*
X277067715Y-316285221D01*
X276959966Y-316877844D02*
X276394280Y-316312158D01*
X276178781Y-316527658D01*
X276151844Y-316608470D01*
X276151844Y-316662345D01*
X276178781Y-316743157D01*
X276259593Y-316823969D01*
X276340406Y-316850906D01*
X276394280Y-316850906D01*
X276475093Y-316823969D01*
X276690592Y-316608470D01*
X275909407Y-316904781D02*
X275855532Y-316904781D01*
X275774720Y-316931719D01*
X275640033Y-317066406D01*
X275613096Y-317147218D01*
X275613096Y-317201093D01*
X275640033Y-317281905D01*
X275693908Y-317335780D01*
X275801658Y-317389654D01*
X276448155Y-317389654D01*
X276097969Y-317739841D01*
X275343722Y-317362717D02*
X274966598Y-317739841D01*
X275774720Y-318063089D01*
X271351218Y-342193096D02*
X271378155Y-342112284D01*
X271458967Y-342031471D01*
X271566717Y-341977597D01*
X271674467Y-341977597D01*
X271755279Y-342004534D01*
X271889966Y-342085346D01*
X271970778Y-342166158D01*
X272051590Y-342300845D01*
X272078528Y-342381658D01*
X272078528Y-342489407D01*
X272024653Y-342597157D01*
X271970778Y-342651032D01*
X271863028Y-342704906D01*
X271809154Y-342704906D01*
X271620592Y-342516345D01*
X271728341Y-342408595D01*
X271620592Y-343001218D02*
X271054906Y-342435532D01*
X270839407Y-342651032D01*
X270812470Y-342731844D01*
X270812470Y-342785719D01*
X270839407Y-342866531D01*
X270920219Y-342947343D01*
X271001032Y-342974280D01*
X271054906Y-342974280D01*
X271135719Y-342947343D01*
X271351218Y-342731844D01*
X270650845Y-343324467D02*
X270677783Y-343243654D01*
X270677783Y-343189780D01*
X270650845Y-343108967D01*
X270623908Y-343082030D01*
X270543096Y-343055093D01*
X270489221Y-343055093D01*
X270408409Y-343082030D01*
X270300659Y-343189780D01*
X270273722Y-343270592D01*
X270273722Y-343324467D01*
X270300659Y-343405279D01*
X270327597Y-343432216D01*
X270408409Y-343459154D01*
X270462284Y-343459154D01*
X270543096Y-343432216D01*
X270650845Y-343324467D01*
X270731658Y-343297529D01*
X270785532Y-343297529D01*
X270866345Y-343324467D01*
X270974094Y-343432216D01*
X271001032Y-343513028D01*
X271001032Y-343566903D01*
X270974094Y-343647715D01*
X270866345Y-343755465D01*
X270785532Y-343782402D01*
X270731658Y-343782402D01*
X270650845Y-343755465D01*
X270543096Y-343647715D01*
X270516158Y-343566903D01*
X270516158Y-343513028D01*
X270543096Y-343432216D01*
X273921218Y-342093096D02*
X273948155Y-342012284D01*
X274028967Y-341931471D01*
X274136717Y-341877597D01*
X274244467Y-341877597D01*
X274325279Y-341904534D01*
X274459966Y-341985346D01*
X274540778Y-342066158D01*
X274621590Y-342200845D01*
X274648528Y-342281658D01*
X274648528Y-342389407D01*
X274594653Y-342497157D01*
X274540778Y-342551032D01*
X274433028Y-342604906D01*
X274379154Y-342604906D01*
X274190592Y-342416345D01*
X274298341Y-342308595D01*
X274190592Y-342901218D02*
X273624906Y-342335532D01*
X273409407Y-342551032D01*
X273382470Y-342631844D01*
X273382470Y-342685719D01*
X273409407Y-342766531D01*
X273490219Y-342847343D01*
X273571032Y-342874280D01*
X273624906Y-342874280D01*
X273705719Y-342847343D01*
X273921218Y-342631844D01*
X273113096Y-342847343D02*
X272735972Y-343224467D01*
X273544094Y-343547715D01*
X248760592Y-316069722D02*
X248787529Y-315988910D01*
X248868341Y-315908097D01*
X248976091Y-315854223D01*
X249083841Y-315854223D01*
X249164653Y-315881160D01*
X249299340Y-315961972D01*
X249380152Y-316042784D01*
X249460964Y-316177471D01*
X249487902Y-316258284D01*
X249487902Y-316366033D01*
X249434027Y-316473783D01*
X249380152Y-316527658D01*
X249272402Y-316581532D01*
X249218528Y-316581532D01*
X249029966Y-316392971D01*
X249137715Y-316285221D01*
X249029966Y-316877844D02*
X248464280Y-316312158D01*
X248248781Y-316527658D01*
X248221844Y-316608470D01*
X248221844Y-316662345D01*
X248248781Y-316743157D01*
X248329593Y-316823969D01*
X248410406Y-316850906D01*
X248464280Y-316850906D01*
X248545093Y-316823969D01*
X248760592Y-316608470D01*
X248167969Y-317739841D02*
X248491218Y-317416592D01*
X248329593Y-317578216D02*
X247763908Y-317012531D01*
X247898595Y-317039468D01*
X248006345Y-317039468D01*
X248087157Y-317012531D01*
X247117410Y-317659028D02*
X247225160Y-317551279D01*
X247305972Y-317524341D01*
X247359847Y-317524341D01*
X247494534Y-317551279D01*
X247629221Y-317632091D01*
X247844720Y-317847590D01*
X247871658Y-317928402D01*
X247871658Y-317982277D01*
X247844720Y-318063089D01*
X247736971Y-318170839D01*
X247656158Y-318197776D01*
X247602284Y-318197776D01*
X247521471Y-318170839D01*
X247386784Y-318036152D01*
X247359847Y-317955340D01*
X247359847Y-317901465D01*
X247386784Y-317820653D01*
X247494534Y-317712903D01*
X247575346Y-317685966D01*
X247629221Y-317685966D01*
X247710033Y-317712903D01*
X271903435Y-316918375D02*
X271822622Y-316460439D01*
X272226683Y-316595126D02*
X271660998Y-316029441D01*
X271445499Y-316244940D01*
X271418561Y-316325752D01*
X271418561Y-316379627D01*
X271445499Y-316460439D01*
X271526311Y-316541251D01*
X271607123Y-316568189D01*
X271660998Y-316568189D01*
X271741810Y-316541251D01*
X271957309Y-316325752D01*
X271095312Y-316595126D02*
X271553248Y-317053062D01*
X271580186Y-317133874D01*
X271580186Y-317187749D01*
X271553248Y-317268561D01*
X271445499Y-317376311D01*
X271364687Y-317403248D01*
X271310812Y-317403248D01*
X271230000Y-317376311D01*
X270772064Y-316918375D01*
X271068375Y-317753435D02*
X270502690Y-317187749D01*
X270745126Y-318076683D01*
X270179441Y-317510998D01*
X256380592Y-316069722D02*
X256407529Y-315988910D01*
X256488341Y-315908097D01*
X256596091Y-315854223D01*
X256703841Y-315854223D01*
X256784653Y-315881160D01*
X256919340Y-315961972D01*
X257000152Y-316042784D01*
X257080964Y-316177471D01*
X257107902Y-316258284D01*
X257107902Y-316366033D01*
X257054027Y-316473783D01*
X257000152Y-316527658D01*
X256892402Y-316581532D01*
X256838528Y-316581532D01*
X256649966Y-316392971D01*
X256757715Y-316285221D01*
X256649966Y-316877844D02*
X256084280Y-316312158D01*
X255868781Y-316527658D01*
X255841844Y-316608470D01*
X255841844Y-316662345D01*
X255868781Y-316743157D01*
X255949593Y-316823969D01*
X256030406Y-316850906D01*
X256084280Y-316850906D01*
X256165093Y-316823969D01*
X256380592Y-316608470D01*
X255787969Y-317739841D02*
X256111218Y-317416592D01*
X255949593Y-317578216D02*
X255383908Y-317012531D01*
X255518595Y-317039468D01*
X255626345Y-317039468D01*
X255707157Y-317012531D01*
X255141471Y-317739841D02*
X255168409Y-317659028D01*
X255168409Y-317605154D01*
X255141471Y-317524341D01*
X255114534Y-317497404D01*
X255033722Y-317470467D01*
X254979847Y-317470467D01*
X254899035Y-317497404D01*
X254791285Y-317605154D01*
X254764348Y-317685966D01*
X254764348Y-317739841D01*
X254791285Y-317820653D01*
X254818223Y-317847590D01*
X254899035Y-317874528D01*
X254952910Y-317874528D01*
X255033722Y-317847590D01*
X255141471Y-317739841D01*
X255222284Y-317712903D01*
X255276158Y-317712903D01*
X255356971Y-317739841D01*
X255464720Y-317847590D01*
X255491658Y-317928402D01*
X255491658Y-317982277D01*
X255464720Y-318063089D01*
X255356971Y-318170839D01*
X255276158Y-318197776D01*
X255222284Y-318197776D01*
X255141471Y-318170839D01*
X255033722Y-318063089D01*
X255006784Y-317982277D01*
X255006784Y-317928402D01*
X255033722Y-317847590D01*
X251300592Y-342223722D02*
X251327529Y-342142910D01*
X251408341Y-342062097D01*
X251516091Y-342008223D01*
X251623841Y-342008223D01*
X251704653Y-342035160D01*
X251839340Y-342115972D01*
X251920152Y-342196784D01*
X252000964Y-342331471D01*
X252027902Y-342412284D01*
X252027902Y-342520033D01*
X251974027Y-342627783D01*
X251920152Y-342681658D01*
X251812402Y-342735532D01*
X251758528Y-342735532D01*
X251569966Y-342546971D01*
X251677715Y-342439221D01*
X251569966Y-343031844D02*
X251004280Y-342466158D01*
X250788781Y-342681658D01*
X250761844Y-342762470D01*
X250761844Y-342816345D01*
X250788781Y-342897157D01*
X250869593Y-342977969D01*
X250950406Y-343004906D01*
X251004280Y-343004906D01*
X251085093Y-342977969D01*
X251300592Y-342762470D01*
X250707969Y-343893841D02*
X251031218Y-343570592D01*
X250869593Y-343732216D02*
X250303908Y-343166531D01*
X250438595Y-343193468D01*
X250546345Y-343193468D01*
X250627157Y-343166531D01*
X249845972Y-344001590D02*
X250223096Y-344378714D01*
X249765160Y-343651404D02*
X250303908Y-343920778D01*
X249953722Y-344270964D01*
X287033773Y-314234788D02*
X286764399Y-314504162D01*
X287249272Y-314342537D02*
X286495025Y-313965414D01*
X286872149Y-314719661D01*
X286683587Y-314908223D02*
X286117902Y-314342537D01*
X285983215Y-314477224D01*
X285929340Y-314584974D01*
X285929340Y-314692723D01*
X285956277Y-314773536D01*
X286037089Y-314908223D01*
X286117902Y-314989035D01*
X286252589Y-315069847D01*
X286333401Y-315096784D01*
X286441150Y-315096784D01*
X286548900Y-315042910D01*
X286683587Y-314908223D01*
X285740778Y-315743282D02*
X285794653Y-315743282D01*
X285902402Y-315689407D01*
X285956277Y-315635532D01*
X286010152Y-315527783D01*
X286010152Y-315420033D01*
X285983215Y-315339221D01*
X285902402Y-315204534D01*
X285821590Y-315123722D01*
X285686903Y-315042910D01*
X285606091Y-315015972D01*
X285498341Y-315015972D01*
X285390592Y-315069847D01*
X285336717Y-315123722D01*
X285282842Y-315231471D01*
X285282842Y-315285346D01*
X285740778Y-315958781D02*
X285309780Y-316389780D01*
X284636345Y-315824094D02*
X285013468Y-316578341D01*
X284259221Y-316201218D01*
X284313096Y-317278714D02*
X284232284Y-316820778D01*
X284636345Y-316955465D02*
X284070659Y-316389780D01*
X283855160Y-316605279D01*
X283828223Y-316686091D01*
X283828223Y-316739966D01*
X283855160Y-316820778D01*
X283935972Y-316901590D01*
X284016784Y-316928528D01*
X284070659Y-316928528D01*
X284151471Y-316901590D01*
X284366971Y-316686091D01*
X283774348Y-317224839D02*
X283585786Y-317413401D01*
X283801285Y-317790524D02*
X284070659Y-317521150D01*
X283504974Y-316955465D01*
X283235600Y-317224839D01*
X283073975Y-317925211D02*
X283262537Y-317736650D01*
X283558849Y-318032961D02*
X282993163Y-317467276D01*
X282723789Y-317736650D01*
X289131218Y-342293096D02*
X289158155Y-342212284D01*
X289238967Y-342131471D01*
X289346717Y-342077597D01*
X289454467Y-342077597D01*
X289535279Y-342104534D01*
X289669966Y-342185346D01*
X289750778Y-342266158D01*
X289831590Y-342400845D01*
X289858528Y-342481658D01*
X289858528Y-342589407D01*
X289804653Y-342697157D01*
X289750778Y-342751032D01*
X289643028Y-342804906D01*
X289589154Y-342804906D01*
X289400592Y-342616345D01*
X289508341Y-342508595D01*
X289400592Y-343101218D02*
X288834906Y-342535532D01*
X288619407Y-342751032D01*
X288592470Y-342831844D01*
X288592470Y-342885719D01*
X288619407Y-342966531D01*
X288700219Y-343047343D01*
X288781032Y-343074280D01*
X288834906Y-343074280D01*
X288915719Y-343047343D01*
X289131218Y-342831844D01*
X288350033Y-343128155D02*
X288296158Y-343128155D01*
X288215346Y-343155093D01*
X288080659Y-343289780D01*
X288053722Y-343370592D01*
X288053722Y-343424467D01*
X288080659Y-343505279D01*
X288134534Y-343559154D01*
X288242284Y-343613028D01*
X288888781Y-343613028D01*
X288538595Y-343963215D01*
X268811218Y-342193096D02*
X268838155Y-342112284D01*
X268918967Y-342031471D01*
X269026717Y-341977597D01*
X269134467Y-341977597D01*
X269215279Y-342004534D01*
X269349966Y-342085346D01*
X269430778Y-342166158D01*
X269511590Y-342300845D01*
X269538528Y-342381658D01*
X269538528Y-342489407D01*
X269484653Y-342597157D01*
X269430778Y-342651032D01*
X269323028Y-342704906D01*
X269269154Y-342704906D01*
X269080592Y-342516345D01*
X269188341Y-342408595D01*
X269080592Y-343001218D02*
X268514906Y-342435532D01*
X268299407Y-342651032D01*
X268272470Y-342731844D01*
X268272470Y-342785719D01*
X268299407Y-342866531D01*
X268380219Y-342947343D01*
X268461032Y-342974280D01*
X268514906Y-342974280D01*
X268595719Y-342947343D01*
X268811218Y-342731844D01*
X268487969Y-343593841D02*
X268380219Y-343701590D01*
X268299407Y-343728528D01*
X268245532Y-343728528D01*
X268110845Y-343701590D01*
X267976158Y-343620778D01*
X267760659Y-343405279D01*
X267733722Y-343324467D01*
X267733722Y-343270592D01*
X267760659Y-343189780D01*
X267868409Y-343082030D01*
X267949221Y-343055093D01*
X268003096Y-343055093D01*
X268083908Y-343082030D01*
X268218595Y-343216717D01*
X268245532Y-343297529D01*
X268245532Y-343351404D01*
X268218595Y-343432216D01*
X268110845Y-343539966D01*
X268030033Y-343566903D01*
X267976158Y-343566903D01*
X267895346Y-343539966D01*
X256380592Y-342177722D02*
X256407529Y-342096910D01*
X256488341Y-342016097D01*
X256596091Y-341962223D01*
X256703841Y-341962223D01*
X256784653Y-341989160D01*
X256919340Y-342069972D01*
X257000152Y-342150784D01*
X257080964Y-342285471D01*
X257107902Y-342366284D01*
X257107902Y-342474033D01*
X257054027Y-342581783D01*
X257000152Y-342635658D01*
X256892402Y-342689532D01*
X256838528Y-342689532D01*
X256649966Y-342500971D01*
X256757715Y-342393221D01*
X256649966Y-342985844D02*
X256084280Y-342420158D01*
X255868781Y-342635658D01*
X255841844Y-342716470D01*
X255841844Y-342770345D01*
X255868781Y-342851157D01*
X255949593Y-342931969D01*
X256030406Y-342958906D01*
X256084280Y-342958906D01*
X256165093Y-342931969D01*
X256380592Y-342716470D01*
X255787969Y-343847841D02*
X256111218Y-343524592D01*
X255949593Y-343686216D02*
X255383908Y-343120531D01*
X255518595Y-343147468D01*
X255626345Y-343147468D01*
X255707157Y-343120531D01*
X255033722Y-343470717D02*
X254683536Y-343820903D01*
X255087597Y-343847841D01*
X255006784Y-343928653D01*
X254979847Y-344009465D01*
X254979847Y-344063340D01*
X255006784Y-344144152D01*
X255141471Y-344278839D01*
X255222284Y-344305776D01*
X255276158Y-344305776D01*
X255356971Y-344278839D01*
X255518595Y-344117215D01*
X255545532Y-344036402D01*
X255545532Y-343982528D01*
X269080592Y-316069722D02*
X269107529Y-315988910D01*
X269188341Y-315908097D01*
X269296091Y-315854223D01*
X269403841Y-315854223D01*
X269484653Y-315881160D01*
X269619340Y-315961972D01*
X269700152Y-316042784D01*
X269780964Y-316177471D01*
X269807902Y-316258284D01*
X269807902Y-316366033D01*
X269754027Y-316473783D01*
X269700152Y-316527658D01*
X269592402Y-316581532D01*
X269538528Y-316581532D01*
X269349966Y-316392971D01*
X269457715Y-316285221D01*
X269349966Y-316877844D02*
X268784280Y-316312158D01*
X268568781Y-316527658D01*
X268541844Y-316608470D01*
X268541844Y-316662345D01*
X268568781Y-316743157D01*
X268649593Y-316823969D01*
X268730406Y-316850906D01*
X268784280Y-316850906D01*
X268865093Y-316823969D01*
X269080592Y-316608470D01*
X268299407Y-316904781D02*
X268245532Y-316904781D01*
X268164720Y-316931719D01*
X268030033Y-317066406D01*
X268003096Y-317147218D01*
X268003096Y-317201093D01*
X268030033Y-317281905D01*
X268083908Y-317335780D01*
X268191658Y-317389654D01*
X268838155Y-317389654D01*
X268487969Y-317739841D01*
X267760659Y-317443529D02*
X267706784Y-317443529D01*
X267625972Y-317470467D01*
X267491285Y-317605154D01*
X267464348Y-317685966D01*
X267464348Y-317739841D01*
X267491285Y-317820653D01*
X267545160Y-317874528D01*
X267652910Y-317928402D01*
X268299407Y-317928402D01*
X267949221Y-318278589D01*
X294749966Y-315600473D02*
X295127089Y-316354720D01*
X294372842Y-315977597D01*
X294749966Y-316677969D02*
X294696091Y-316785719D01*
X294561404Y-316920406D01*
X294480592Y-316947343D01*
X294426717Y-316947343D01*
X294345905Y-316920406D01*
X294292030Y-316866531D01*
X294265093Y-316785719D01*
X294265093Y-316731844D01*
X294292030Y-316651032D01*
X294372842Y-316516345D01*
X294399780Y-316435532D01*
X294399780Y-316381658D01*
X294372842Y-316300845D01*
X294318967Y-316246971D01*
X294238155Y-316220033D01*
X294184280Y-316220033D01*
X294103468Y-316246971D01*
X293968781Y-316381658D01*
X293914906Y-316489407D01*
X293834094Y-317108967D02*
X294103468Y-317378341D01*
X293726345Y-316624094D02*
X293834094Y-317108967D01*
X293349221Y-317001218D01*
X293726345Y-317701590D02*
X293672470Y-317809340D01*
X293537783Y-317944027D01*
X293456971Y-317970964D01*
X293403096Y-317970964D01*
X293322284Y-317944027D01*
X293268409Y-317890152D01*
X293241471Y-317809340D01*
X293241471Y-317755465D01*
X293268409Y-317674653D01*
X293349221Y-317539966D01*
X293376158Y-317459154D01*
X293376158Y-317405279D01*
X293349221Y-317324467D01*
X293295346Y-317270592D01*
X293214534Y-317243654D01*
X293160659Y-317243654D01*
X293079847Y-317270592D01*
X292945160Y-317405279D01*
X292891285Y-317513028D01*
X264000592Y-342177722D02*
X264027529Y-342096910D01*
X264108341Y-342016097D01*
X264216091Y-341962223D01*
X264323841Y-341962223D01*
X264404653Y-341989160D01*
X264539340Y-342069972D01*
X264620152Y-342150784D01*
X264700964Y-342285471D01*
X264727902Y-342366284D01*
X264727902Y-342474033D01*
X264674027Y-342581783D01*
X264620152Y-342635658D01*
X264512402Y-342689532D01*
X264458528Y-342689532D01*
X264269966Y-342500971D01*
X264377715Y-342393221D01*
X264269966Y-342985844D02*
X263704280Y-342420158D01*
X263488781Y-342635658D01*
X263461844Y-342716470D01*
X263461844Y-342770345D01*
X263488781Y-342851157D01*
X263569593Y-342931969D01*
X263650406Y-342958906D01*
X263704280Y-342958906D01*
X263785093Y-342931969D01*
X264000592Y-342716470D01*
X263407969Y-343847841D02*
X263731218Y-343524592D01*
X263569593Y-343686216D02*
X263003908Y-343120531D01*
X263138595Y-343147468D01*
X263246345Y-343147468D01*
X263327157Y-343120531D01*
X262492097Y-343632341D02*
X262438223Y-343686216D01*
X262411285Y-343767028D01*
X262411285Y-343820903D01*
X262438223Y-343901715D01*
X262519035Y-344036402D01*
X262653722Y-344171089D01*
X262788409Y-344251902D01*
X262869221Y-344278839D01*
X262923096Y-344278839D01*
X263003908Y-344251902D01*
X263057783Y-344198027D01*
X263084720Y-344117215D01*
X263084720Y-344063340D01*
X263057783Y-343982528D01*
X262976971Y-343847841D01*
X262842284Y-343713154D01*
X262707597Y-343632341D01*
X262626784Y-343605404D01*
X262572910Y-343605404D01*
X262492097Y-343632341D01*
X246623809Y-333970476D02*
X246661904Y-334084761D01*
X246661904Y-334275238D01*
X246623809Y-334351428D01*
X246585714Y-334389523D01*
X246509523Y-334427619D01*
X246433333Y-334427619D01*
X246357142Y-334389523D01*
X246319047Y-334351428D01*
X246280952Y-334275238D01*
X246242857Y-334122857D01*
X246204761Y-334046666D01*
X246166666Y-334008571D01*
X246090476Y-333970476D01*
X246014285Y-333970476D01*
X245938095Y-334008571D01*
X245900000Y-334046666D01*
X245861904Y-334122857D01*
X245861904Y-334313333D01*
X245900000Y-334427619D01*
X245861904Y-334694285D02*
X246661904Y-334884761D01*
X246090476Y-335037142D01*
X246661904Y-335189523D01*
X245861904Y-335380000D01*
X246585714Y-336141904D02*
X246623809Y-336103809D01*
X246661904Y-335989523D01*
X246661904Y-335913333D01*
X246623809Y-335799047D01*
X246547619Y-335722857D01*
X246471428Y-335684761D01*
X246319047Y-335646666D01*
X246204761Y-335646666D01*
X246052380Y-335684761D01*
X245976190Y-335722857D01*
X245900000Y-335799047D01*
X245861904Y-335913333D01*
X245861904Y-335989523D01*
X245900000Y-336103809D01*
X245938095Y-336141904D01*
X246661904Y-336865714D02*
X246661904Y-336484761D01*
X245861904Y-336484761D01*
X246661904Y-337132380D02*
X245861904Y-337132380D01*
X246661904Y-337589523D02*
X246204761Y-337246666D01*
X245861904Y-337589523D02*
X246319047Y-337132380D01*
%TO.C,U1*%
X351952380Y-329318095D02*
X352761904Y-329318095D01*
X352857142Y-329365714D01*
X352904761Y-329413333D01*
X352952380Y-329508571D01*
X352952380Y-329699047D01*
X352904761Y-329794285D01*
X352857142Y-329841904D01*
X352761904Y-329889523D01*
X351952380Y-329889523D01*
X352952380Y-330889523D02*
X352952380Y-330318095D01*
X352952380Y-330603809D02*
X351952380Y-330603809D01*
X352095238Y-330508571D01*
X352190476Y-330413333D01*
X352238095Y-330318095D01*
X351620592Y-342177722D02*
X351647529Y-342096910D01*
X351728341Y-342016097D01*
X351836091Y-341962223D01*
X351943841Y-341962223D01*
X352024653Y-341989160D01*
X352159340Y-342069972D01*
X352240152Y-342150784D01*
X352320964Y-342285471D01*
X352347902Y-342366284D01*
X352347902Y-342474033D01*
X352294027Y-342581783D01*
X352240152Y-342635658D01*
X352132402Y-342689532D01*
X352078528Y-342689532D01*
X351889966Y-342500971D01*
X351997715Y-342393221D01*
X351889966Y-342985844D02*
X351324280Y-342420158D01*
X351108781Y-342635658D01*
X351081844Y-342716470D01*
X351081844Y-342770345D01*
X351108781Y-342851157D01*
X351189593Y-342931969D01*
X351270406Y-342958906D01*
X351324280Y-342958906D01*
X351405093Y-342931969D01*
X351620592Y-342716470D01*
X350839407Y-343012781D02*
X350785532Y-343012781D01*
X350704720Y-343039719D01*
X350570033Y-343174406D01*
X350543096Y-343255218D01*
X350543096Y-343309093D01*
X350570033Y-343389905D01*
X350623908Y-343443780D01*
X350731658Y-343497654D01*
X351378155Y-343497654D01*
X351027969Y-343847841D01*
X349977410Y-343767028D02*
X350085160Y-343659279D01*
X350165972Y-343632341D01*
X350219847Y-343632341D01*
X350354534Y-343659279D01*
X350489221Y-343740091D01*
X350704720Y-343955590D01*
X350731658Y-344036402D01*
X350731658Y-344090277D01*
X350704720Y-344171089D01*
X350596971Y-344278839D01*
X350516158Y-344305776D01*
X350462284Y-344305776D01*
X350381471Y-344278839D01*
X350246784Y-344144152D01*
X350219847Y-344063340D01*
X350219847Y-344009465D01*
X350246784Y-343928653D01*
X350354534Y-343820903D01*
X350435346Y-343793966D01*
X350489221Y-343793966D01*
X350570033Y-343820903D01*
X338651218Y-316593096D02*
X338678155Y-316512284D01*
X338758967Y-316431471D01*
X338866717Y-316377597D01*
X338974467Y-316377597D01*
X339055279Y-316404534D01*
X339189966Y-316485346D01*
X339270778Y-316566158D01*
X339351590Y-316700845D01*
X339378528Y-316781658D01*
X339378528Y-316889407D01*
X339324653Y-316997157D01*
X339270778Y-317051032D01*
X339163028Y-317104906D01*
X339109154Y-317104906D01*
X338920592Y-316916345D01*
X339028341Y-316808595D01*
X338920592Y-317401218D02*
X338354906Y-316835532D01*
X338139407Y-317051032D01*
X338112470Y-317131844D01*
X338112470Y-317185719D01*
X338139407Y-317266531D01*
X338220219Y-317347343D01*
X338301032Y-317374280D01*
X338354906Y-317374280D01*
X338435719Y-317347343D01*
X338651218Y-317131844D01*
X337843096Y-317347343D02*
X337492910Y-317697529D01*
X337896971Y-317724467D01*
X337816158Y-317805279D01*
X337789221Y-317886091D01*
X337789221Y-317939966D01*
X337816158Y-318020778D01*
X337950845Y-318155465D01*
X338031658Y-318182402D01*
X338085532Y-318182402D01*
X338166345Y-318155465D01*
X338327969Y-317993841D01*
X338354906Y-317913028D01*
X338354906Y-317859154D01*
X374480592Y-316023722D02*
X374507529Y-315942910D01*
X374588341Y-315862097D01*
X374696091Y-315808223D01*
X374803841Y-315808223D01*
X374884653Y-315835160D01*
X375019340Y-315915972D01*
X375100152Y-315996784D01*
X375180964Y-316131471D01*
X375207902Y-316212284D01*
X375207902Y-316320033D01*
X375154027Y-316427783D01*
X375100152Y-316481658D01*
X374992402Y-316535532D01*
X374938528Y-316535532D01*
X374749966Y-316346971D01*
X374857715Y-316239221D01*
X374749966Y-316831844D02*
X374184280Y-316266158D01*
X373968781Y-316481658D01*
X373941844Y-316562470D01*
X373941844Y-316616345D01*
X373968781Y-316697157D01*
X374049593Y-316777969D01*
X374130406Y-316804906D01*
X374184280Y-316804906D01*
X374265093Y-316777969D01*
X374480592Y-316562470D01*
X373887969Y-317693841D02*
X374211218Y-317370592D01*
X374049593Y-317532216D02*
X373483908Y-316966531D01*
X373618595Y-316993468D01*
X373726345Y-316993468D01*
X373807157Y-316966531D01*
X373025972Y-317801590D02*
X373403096Y-318178714D01*
X372945160Y-317451404D02*
X373483908Y-317720778D01*
X373133722Y-318070964D01*
X328491218Y-316593096D02*
X328518155Y-316512284D01*
X328598967Y-316431471D01*
X328706717Y-316377597D01*
X328814467Y-316377597D01*
X328895279Y-316404534D01*
X329029966Y-316485346D01*
X329110778Y-316566158D01*
X329191590Y-316700845D01*
X329218528Y-316781658D01*
X329218528Y-316889407D01*
X329164653Y-316997157D01*
X329110778Y-317051032D01*
X329003028Y-317104906D01*
X328949154Y-317104906D01*
X328760592Y-316916345D01*
X328868341Y-316808595D01*
X328760592Y-317401218D02*
X328194906Y-316835532D01*
X327979407Y-317051032D01*
X327952470Y-317131844D01*
X327952470Y-317185719D01*
X327979407Y-317266531D01*
X328060219Y-317347343D01*
X328141032Y-317374280D01*
X328194906Y-317374280D01*
X328275719Y-317347343D01*
X328491218Y-317131844D01*
X327521471Y-317508967D02*
X327467597Y-317562842D01*
X327440659Y-317643654D01*
X327440659Y-317697529D01*
X327467597Y-317778341D01*
X327548409Y-317913028D01*
X327683096Y-318047715D01*
X327817783Y-318128528D01*
X327898595Y-318155465D01*
X327952470Y-318155465D01*
X328033282Y-318128528D01*
X328087157Y-318074653D01*
X328114094Y-317993841D01*
X328114094Y-317939966D01*
X328087157Y-317859154D01*
X328006345Y-317724467D01*
X327871658Y-317589780D01*
X327736971Y-317508967D01*
X327656158Y-317482030D01*
X327602284Y-317482030D01*
X327521471Y-317508967D01*
X336458308Y-342002131D02*
X336108122Y-342352317D01*
X336512183Y-342379255D01*
X336431370Y-342460067D01*
X336404433Y-342540879D01*
X336404433Y-342594754D01*
X336431370Y-342675566D01*
X336566057Y-342810253D01*
X336646870Y-342837190D01*
X336700744Y-342837190D01*
X336781557Y-342810253D01*
X336943181Y-342648629D01*
X336970118Y-342567816D01*
X336970118Y-342513942D01*
X335946497Y-342513942D02*
X336323621Y-343268189D01*
X335569374Y-342891065D01*
X335434687Y-343025752D02*
X335084500Y-343375938D01*
X335488561Y-343402876D01*
X335407749Y-343483688D01*
X335380812Y-343564500D01*
X335380812Y-343618375D01*
X335407749Y-343699187D01*
X335542436Y-343833874D01*
X335623248Y-343860812D01*
X335677123Y-343860812D01*
X335757935Y-343833874D01*
X335919560Y-343672250D01*
X335946497Y-343591438D01*
X335946497Y-343537563D01*
X335596311Y-344103248D02*
X335165312Y-344534247D01*
X334680439Y-344318748D02*
X334491877Y-344507309D01*
X334707377Y-344884433D02*
X334976751Y-344615059D01*
X334411065Y-344049374D01*
X334141691Y-344318748D01*
X334464940Y-345126870D02*
X333899255Y-344561184D01*
X334141691Y-345450118D01*
X333576006Y-344884433D01*
X342033773Y-342234788D02*
X341764399Y-342504162D01*
X342249272Y-342342537D02*
X341495025Y-341965414D01*
X341872149Y-342719661D01*
X341683587Y-342908223D02*
X341117902Y-342342537D01*
X340983215Y-342477224D01*
X340929340Y-342584974D01*
X340929340Y-342692723D01*
X340956277Y-342773536D01*
X341037089Y-342908223D01*
X341117902Y-342989035D01*
X341252589Y-343069847D01*
X341333401Y-343096784D01*
X341441150Y-343096784D01*
X341548900Y-343042910D01*
X341683587Y-342908223D01*
X340740778Y-343743282D02*
X340794653Y-343743282D01*
X340902402Y-343689407D01*
X340956277Y-343635532D01*
X341010152Y-343527783D01*
X341010152Y-343420033D01*
X340983215Y-343339221D01*
X340902402Y-343204534D01*
X340821590Y-343123722D01*
X340686903Y-343042910D01*
X340606091Y-343015972D01*
X340498341Y-343015972D01*
X340390592Y-343069847D01*
X340336717Y-343123722D01*
X340282842Y-343231471D01*
X340282842Y-343285346D01*
X340740778Y-343958781D02*
X340309780Y-344389780D01*
X339636345Y-343824094D02*
X340013468Y-344578341D01*
X339259221Y-344201218D01*
X339313096Y-345278714D02*
X339232284Y-344820778D01*
X339636345Y-344955465D02*
X339070659Y-344389780D01*
X338855160Y-344605279D01*
X338828223Y-344686091D01*
X338828223Y-344739966D01*
X338855160Y-344820778D01*
X338935972Y-344901590D01*
X339016784Y-344928528D01*
X339070659Y-344928528D01*
X339151471Y-344901590D01*
X339366971Y-344686091D01*
X338774348Y-345224839D02*
X338585786Y-345413401D01*
X338801285Y-345790524D02*
X339070659Y-345521150D01*
X338504974Y-344955465D01*
X338235600Y-345224839D01*
X338073975Y-345925211D02*
X338262537Y-345736650D01*
X338558849Y-346032961D02*
X337993163Y-345467276D01*
X337723789Y-345736650D01*
X331021218Y-316493096D02*
X331048155Y-316412284D01*
X331128967Y-316331471D01*
X331236717Y-316277597D01*
X331344467Y-316277597D01*
X331425279Y-316304534D01*
X331559966Y-316385346D01*
X331640778Y-316466158D01*
X331721590Y-316600845D01*
X331748528Y-316681658D01*
X331748528Y-316789407D01*
X331694653Y-316897157D01*
X331640778Y-316951032D01*
X331533028Y-317004906D01*
X331479154Y-317004906D01*
X331290592Y-316816345D01*
X331398341Y-316708595D01*
X331290592Y-317301218D02*
X330724906Y-316735532D01*
X330509407Y-316951032D01*
X330482470Y-317031844D01*
X330482470Y-317085719D01*
X330509407Y-317166531D01*
X330590219Y-317247343D01*
X330671032Y-317274280D01*
X330724906Y-317274280D01*
X330805719Y-317247343D01*
X331021218Y-317031844D01*
X330428595Y-318163215D02*
X330751844Y-317839966D01*
X330590219Y-318001590D02*
X330024534Y-317435905D01*
X330159221Y-317462842D01*
X330266971Y-317462842D01*
X330347783Y-317435905D01*
X353891218Y-316593096D02*
X353918155Y-316512284D01*
X353998967Y-316431471D01*
X354106717Y-316377597D01*
X354214467Y-316377597D01*
X354295279Y-316404534D01*
X354429966Y-316485346D01*
X354510778Y-316566158D01*
X354591590Y-316700845D01*
X354618528Y-316781658D01*
X354618528Y-316889407D01*
X354564653Y-316997157D01*
X354510778Y-317051032D01*
X354403028Y-317104906D01*
X354349154Y-317104906D01*
X354160592Y-316916345D01*
X354268341Y-316808595D01*
X354160592Y-317401218D02*
X353594906Y-316835532D01*
X353379407Y-317051032D01*
X353352470Y-317131844D01*
X353352470Y-317185719D01*
X353379407Y-317266531D01*
X353460219Y-317347343D01*
X353541032Y-317374280D01*
X353594906Y-317374280D01*
X353675719Y-317347343D01*
X353891218Y-317131844D01*
X353190845Y-317724467D02*
X353217783Y-317643654D01*
X353217783Y-317589780D01*
X353190845Y-317508967D01*
X353163908Y-317482030D01*
X353083096Y-317455093D01*
X353029221Y-317455093D01*
X352948409Y-317482030D01*
X352840659Y-317589780D01*
X352813722Y-317670592D01*
X352813722Y-317724467D01*
X352840659Y-317805279D01*
X352867597Y-317832216D01*
X352948409Y-317859154D01*
X353002284Y-317859154D01*
X353083096Y-317832216D01*
X353190845Y-317724467D01*
X353271658Y-317697529D01*
X353325532Y-317697529D01*
X353406345Y-317724467D01*
X353514094Y-317832216D01*
X353541032Y-317913028D01*
X353541032Y-317966903D01*
X353514094Y-318047715D01*
X353406345Y-318155465D01*
X353325532Y-318182402D01*
X353271658Y-318182402D01*
X353190845Y-318155465D01*
X353083096Y-318047715D01*
X353056158Y-317966903D01*
X353056158Y-317913028D01*
X353083096Y-317832216D01*
X348811218Y-316593096D02*
X348838155Y-316512284D01*
X348918967Y-316431471D01*
X349026717Y-316377597D01*
X349134467Y-316377597D01*
X349215279Y-316404534D01*
X349349966Y-316485346D01*
X349430778Y-316566158D01*
X349511590Y-316700845D01*
X349538528Y-316781658D01*
X349538528Y-316889407D01*
X349484653Y-316997157D01*
X349430778Y-317051032D01*
X349323028Y-317104906D01*
X349269154Y-317104906D01*
X349080592Y-316916345D01*
X349188341Y-316808595D01*
X349080592Y-317401218D02*
X348514906Y-316835532D01*
X348299407Y-317051032D01*
X348272470Y-317131844D01*
X348272470Y-317185719D01*
X348299407Y-317266531D01*
X348380219Y-317347343D01*
X348461032Y-317374280D01*
X348514906Y-317374280D01*
X348595719Y-317347343D01*
X348811218Y-317131844D01*
X347706784Y-317643654D02*
X347814534Y-317535905D01*
X347895346Y-317508967D01*
X347949221Y-317508967D01*
X348083908Y-317535905D01*
X348218595Y-317616717D01*
X348434094Y-317832216D01*
X348461032Y-317913028D01*
X348461032Y-317966903D01*
X348434094Y-318047715D01*
X348326345Y-318155465D01*
X348245532Y-318182402D01*
X348191658Y-318182402D01*
X348110845Y-318155465D01*
X347976158Y-318020778D01*
X347949221Y-317939966D01*
X347949221Y-317886091D01*
X347976158Y-317805279D01*
X348083908Y-317697529D01*
X348164720Y-317670592D01*
X348218595Y-317670592D01*
X348299407Y-317697529D01*
X369400592Y-316069722D02*
X369427529Y-315988910D01*
X369508341Y-315908097D01*
X369616091Y-315854223D01*
X369723841Y-315854223D01*
X369804653Y-315881160D01*
X369939340Y-315961972D01*
X370020152Y-316042784D01*
X370100964Y-316177471D01*
X370127902Y-316258284D01*
X370127902Y-316366033D01*
X370074027Y-316473783D01*
X370020152Y-316527658D01*
X369912402Y-316581532D01*
X369858528Y-316581532D01*
X369669966Y-316392971D01*
X369777715Y-316285221D01*
X369669966Y-316877844D02*
X369104280Y-316312158D01*
X368888781Y-316527658D01*
X368861844Y-316608470D01*
X368861844Y-316662345D01*
X368888781Y-316743157D01*
X368969593Y-316823969D01*
X369050406Y-316850906D01*
X369104280Y-316850906D01*
X369185093Y-316823969D01*
X369400592Y-316608470D01*
X368807969Y-317739841D02*
X369131218Y-317416592D01*
X368969593Y-317578216D02*
X368403908Y-317012531D01*
X368538595Y-317039468D01*
X368646345Y-317039468D01*
X368727157Y-317012531D01*
X368053722Y-317362717D02*
X367703536Y-317712903D01*
X368107597Y-317739841D01*
X368026784Y-317820653D01*
X367999847Y-317901465D01*
X367999847Y-317955340D01*
X368026784Y-318036152D01*
X368161471Y-318170839D01*
X368242284Y-318197776D01*
X368296158Y-318197776D01*
X368376971Y-318170839D01*
X368538595Y-318009215D01*
X368565532Y-317928402D01*
X368565532Y-317874528D01*
X364320592Y-342177722D02*
X364347529Y-342096910D01*
X364428341Y-342016097D01*
X364536091Y-341962223D01*
X364643841Y-341962223D01*
X364724653Y-341989160D01*
X364859340Y-342069972D01*
X364940152Y-342150784D01*
X365020964Y-342285471D01*
X365047902Y-342366284D01*
X365047902Y-342474033D01*
X364994027Y-342581783D01*
X364940152Y-342635658D01*
X364832402Y-342689532D01*
X364778528Y-342689532D01*
X364589966Y-342500971D01*
X364697715Y-342393221D01*
X364589966Y-342985844D02*
X364024280Y-342420158D01*
X363808781Y-342635658D01*
X363781844Y-342716470D01*
X363781844Y-342770345D01*
X363808781Y-342851157D01*
X363889593Y-342931969D01*
X363970406Y-342958906D01*
X364024280Y-342958906D01*
X364105093Y-342931969D01*
X364320592Y-342716470D01*
X363539407Y-343012781D02*
X363485532Y-343012781D01*
X363404720Y-343039719D01*
X363270033Y-343174406D01*
X363243096Y-343255218D01*
X363243096Y-343309093D01*
X363270033Y-343389905D01*
X363323908Y-343443780D01*
X363431658Y-343497654D01*
X364078155Y-343497654D01*
X363727969Y-343847841D01*
X362812097Y-343632341D02*
X362758223Y-343686216D01*
X362731285Y-343767028D01*
X362731285Y-343820903D01*
X362758223Y-343901715D01*
X362839035Y-344036402D01*
X362973722Y-344171089D01*
X363108409Y-344251902D01*
X363189221Y-344278839D01*
X363243096Y-344278839D01*
X363323908Y-344251902D01*
X363377783Y-344198027D01*
X363404720Y-344117215D01*
X363404720Y-344063340D01*
X363377783Y-343982528D01*
X363296971Y-343847841D01*
X363162284Y-343713154D01*
X363027597Y-343632341D01*
X362946784Y-343605404D01*
X362892910Y-343605404D01*
X362812097Y-343632341D01*
X358998155Y-316566158D02*
X359025093Y-316485346D01*
X359105905Y-316404534D01*
X359213654Y-316350659D01*
X359321404Y-316350659D01*
X359402216Y-316377597D01*
X359536903Y-316458409D01*
X359617715Y-316539221D01*
X359698528Y-316673908D01*
X359725465Y-316754720D01*
X359725465Y-316862470D01*
X359671590Y-316970219D01*
X359617715Y-317024094D01*
X359509966Y-317077969D01*
X359456091Y-317077969D01*
X359267529Y-316889407D01*
X359375279Y-316781658D01*
X359267529Y-317374280D02*
X358701844Y-316808595D01*
X358944280Y-317697529D01*
X358378595Y-317131844D01*
X358674906Y-317966903D02*
X358109221Y-317401218D01*
X357974534Y-317535905D01*
X357920659Y-317643654D01*
X357920659Y-317751404D01*
X357947597Y-317832216D01*
X358028409Y-317966903D01*
X358109221Y-318047715D01*
X358243908Y-318128528D01*
X358324720Y-318155465D01*
X358432470Y-318155465D01*
X358540219Y-318101590D01*
X358674906Y-317966903D01*
X369400592Y-342177722D02*
X369427529Y-342096910D01*
X369508341Y-342016097D01*
X369616091Y-341962223D01*
X369723841Y-341962223D01*
X369804653Y-341989160D01*
X369939340Y-342069972D01*
X370020152Y-342150784D01*
X370100964Y-342285471D01*
X370127902Y-342366284D01*
X370127902Y-342474033D01*
X370074027Y-342581783D01*
X370020152Y-342635658D01*
X369912402Y-342689532D01*
X369858528Y-342689532D01*
X369669966Y-342500971D01*
X369777715Y-342393221D01*
X369669966Y-342985844D02*
X369104280Y-342420158D01*
X368888781Y-342635658D01*
X368861844Y-342716470D01*
X368861844Y-342770345D01*
X368888781Y-342851157D01*
X368969593Y-342931969D01*
X369050406Y-342958906D01*
X369104280Y-342958906D01*
X369185093Y-342931969D01*
X369400592Y-342716470D01*
X368807969Y-343847841D02*
X369131218Y-343524592D01*
X368969593Y-343686216D02*
X368403908Y-343120531D01*
X368538595Y-343147468D01*
X368646345Y-343147468D01*
X368727157Y-343120531D01*
X368161471Y-343847841D02*
X368188409Y-343767028D01*
X368188409Y-343713154D01*
X368161471Y-343632341D01*
X368134534Y-343605404D01*
X368053722Y-343578467D01*
X367999847Y-343578467D01*
X367919035Y-343605404D01*
X367811285Y-343713154D01*
X367784348Y-343793966D01*
X367784348Y-343847841D01*
X367811285Y-343928653D01*
X367838223Y-343955590D01*
X367919035Y-343982528D01*
X367972910Y-343982528D01*
X368053722Y-343955590D01*
X368161471Y-343847841D01*
X368242284Y-343820903D01*
X368296158Y-343820903D01*
X368376971Y-343847841D01*
X368484720Y-343955590D01*
X368511658Y-344036402D01*
X368511658Y-344090277D01*
X368484720Y-344171089D01*
X368376971Y-344278839D01*
X368296158Y-344305776D01*
X368242284Y-344305776D01*
X368161471Y-344278839D01*
X368053722Y-344171089D01*
X368026784Y-344090277D01*
X368026784Y-344036402D01*
X368053722Y-343955590D01*
X377020592Y-316069722D02*
X377047529Y-315988910D01*
X377128341Y-315908097D01*
X377236091Y-315854223D01*
X377343841Y-315854223D01*
X377424653Y-315881160D01*
X377559340Y-315961972D01*
X377640152Y-316042784D01*
X377720964Y-316177471D01*
X377747902Y-316258284D01*
X377747902Y-316366033D01*
X377694027Y-316473783D01*
X377640152Y-316527658D01*
X377532402Y-316581532D01*
X377478528Y-316581532D01*
X377289966Y-316392971D01*
X377397715Y-316285221D01*
X377289966Y-316877844D02*
X376724280Y-316312158D01*
X376508781Y-316527658D01*
X376481844Y-316608470D01*
X376481844Y-316662345D01*
X376508781Y-316743157D01*
X376589593Y-316823969D01*
X376670406Y-316850906D01*
X376724280Y-316850906D01*
X376805093Y-316823969D01*
X377020592Y-316608470D01*
X376427969Y-317739841D02*
X376751218Y-317416592D01*
X376589593Y-317578216D02*
X376023908Y-317012531D01*
X376158595Y-317039468D01*
X376266345Y-317039468D01*
X376347157Y-317012531D01*
X375350473Y-317685966D02*
X375619847Y-317416592D01*
X375916158Y-317659028D01*
X375862284Y-317659028D01*
X375781471Y-317685966D01*
X375646784Y-317820653D01*
X375619847Y-317901465D01*
X375619847Y-317955340D01*
X375646784Y-318036152D01*
X375781471Y-318170839D01*
X375862284Y-318197776D01*
X375916158Y-318197776D01*
X375996971Y-318170839D01*
X376131658Y-318036152D01*
X376158595Y-317955340D01*
X376158595Y-317901465D01*
X331569966Y-342000473D02*
X331947089Y-342754720D01*
X331192842Y-342377597D01*
X331569966Y-343077969D02*
X331516091Y-343185719D01*
X331381404Y-343320406D01*
X331300592Y-343347343D01*
X331246717Y-343347343D01*
X331165905Y-343320406D01*
X331112030Y-343266531D01*
X331085093Y-343185719D01*
X331085093Y-343131844D01*
X331112030Y-343051032D01*
X331192842Y-342916345D01*
X331219780Y-342835532D01*
X331219780Y-342781658D01*
X331192842Y-342700845D01*
X331138967Y-342646971D01*
X331058155Y-342620033D01*
X331004280Y-342620033D01*
X330923468Y-342646971D01*
X330788781Y-342781658D01*
X330734906Y-342889407D01*
X330654094Y-343508967D02*
X330923468Y-343778341D01*
X330546345Y-343024094D02*
X330654094Y-343508967D01*
X330169221Y-343401218D01*
X330546345Y-344101590D02*
X330492470Y-344209340D01*
X330357783Y-344344027D01*
X330276971Y-344370964D01*
X330223096Y-344370964D01*
X330142284Y-344344027D01*
X330088409Y-344290152D01*
X330061471Y-344209340D01*
X330061471Y-344155465D01*
X330088409Y-344074653D01*
X330169221Y-343939966D01*
X330196158Y-343859154D01*
X330196158Y-343805279D01*
X330169221Y-343724467D01*
X330115346Y-343670592D01*
X330034534Y-343643654D01*
X329980659Y-343643654D01*
X329899847Y-343670592D01*
X329765160Y-343805279D01*
X329711285Y-343913028D01*
X366860592Y-315923722D02*
X366887529Y-315842910D01*
X366968341Y-315762097D01*
X367076091Y-315708223D01*
X367183841Y-315708223D01*
X367264653Y-315735160D01*
X367399340Y-315815972D01*
X367480152Y-315896784D01*
X367560964Y-316031471D01*
X367587902Y-316112284D01*
X367587902Y-316220033D01*
X367534027Y-316327783D01*
X367480152Y-316381658D01*
X367372402Y-316435532D01*
X367318528Y-316435532D01*
X367129966Y-316246971D01*
X367237715Y-316139221D01*
X367129966Y-316731844D02*
X366564280Y-316166158D01*
X366348781Y-316381658D01*
X366321844Y-316462470D01*
X366321844Y-316516345D01*
X366348781Y-316597157D01*
X366429593Y-316677969D01*
X366510406Y-316704906D01*
X366564280Y-316704906D01*
X366645093Y-316677969D01*
X366860592Y-316462470D01*
X366267969Y-317593841D02*
X366591218Y-317270592D01*
X366429593Y-317432216D02*
X365863908Y-316866531D01*
X365998595Y-316893468D01*
X366106345Y-316893468D01*
X366187157Y-316866531D01*
X365540659Y-317297529D02*
X365486784Y-317297529D01*
X365405972Y-317324467D01*
X365271285Y-317459154D01*
X365244348Y-317539966D01*
X365244348Y-317593841D01*
X365271285Y-317674653D01*
X365325160Y-317728528D01*
X365432910Y-317782402D01*
X366079407Y-317782402D01*
X365729221Y-318132589D01*
X343746592Y-342177722D02*
X343773529Y-342096910D01*
X343854341Y-342016097D01*
X343962091Y-341962223D01*
X344069841Y-341962223D01*
X344150653Y-341989160D01*
X344285340Y-342069972D01*
X344366152Y-342150784D01*
X344446964Y-342285471D01*
X344473902Y-342366284D01*
X344473902Y-342474033D01*
X344420027Y-342581783D01*
X344366152Y-342635658D01*
X344258402Y-342689532D01*
X344204528Y-342689532D01*
X344015966Y-342500971D01*
X344123715Y-342393221D01*
X344015966Y-342985844D02*
X343450280Y-342420158D01*
X343234781Y-342635658D01*
X343207844Y-342716470D01*
X343207844Y-342770345D01*
X343234781Y-342851157D01*
X343315593Y-342931969D01*
X343396406Y-342958906D01*
X343450280Y-342958906D01*
X343531093Y-342931969D01*
X343746592Y-342716470D01*
X342965407Y-343012781D02*
X342911532Y-343012781D01*
X342830720Y-343039719D01*
X342696033Y-343174406D01*
X342669096Y-343255218D01*
X342669096Y-343309093D01*
X342696033Y-343389905D01*
X342749908Y-343443780D01*
X342857658Y-343497654D01*
X343504155Y-343497654D01*
X343153969Y-343847841D01*
X342507471Y-343847841D02*
X342534409Y-343767028D01*
X342534409Y-343713154D01*
X342507471Y-343632341D01*
X342480534Y-343605404D01*
X342399722Y-343578467D01*
X342345847Y-343578467D01*
X342265035Y-343605404D01*
X342157285Y-343713154D01*
X342130348Y-343793966D01*
X342130348Y-343847841D01*
X342157285Y-343928653D01*
X342184223Y-343955590D01*
X342265035Y-343982528D01*
X342318910Y-343982528D01*
X342399722Y-343955590D01*
X342507471Y-343847841D01*
X342588284Y-343820903D01*
X342642158Y-343820903D01*
X342722971Y-343847841D01*
X342830720Y-343955590D01*
X342857658Y-344036402D01*
X342857658Y-344090277D01*
X342830720Y-344171089D01*
X342722971Y-344278839D01*
X342642158Y-344305776D01*
X342588284Y-344305776D01*
X342507471Y-344278839D01*
X342399722Y-344171089D01*
X342372784Y-344090277D01*
X342372784Y-344036402D01*
X342399722Y-343955590D01*
X356431218Y-316593096D02*
X356458155Y-316512284D01*
X356538967Y-316431471D01*
X356646717Y-316377597D01*
X356754467Y-316377597D01*
X356835279Y-316404534D01*
X356969966Y-316485346D01*
X357050778Y-316566158D01*
X357131590Y-316700845D01*
X357158528Y-316781658D01*
X357158528Y-316889407D01*
X357104653Y-316997157D01*
X357050778Y-317051032D01*
X356943028Y-317104906D01*
X356889154Y-317104906D01*
X356700592Y-316916345D01*
X356808341Y-316808595D01*
X356700592Y-317401218D02*
X356134906Y-316835532D01*
X355919407Y-317051032D01*
X355892470Y-317131844D01*
X355892470Y-317185719D01*
X355919407Y-317266531D01*
X356000219Y-317347343D01*
X356081032Y-317374280D01*
X356134906Y-317374280D01*
X356215719Y-317347343D01*
X356431218Y-317131844D01*
X356107969Y-317993841D02*
X356000219Y-318101590D01*
X355919407Y-318128528D01*
X355865532Y-318128528D01*
X355730845Y-318101590D01*
X355596158Y-318020778D01*
X355380659Y-317805279D01*
X355353722Y-317724467D01*
X355353722Y-317670592D01*
X355380659Y-317589780D01*
X355488409Y-317482030D01*
X355569221Y-317455093D01*
X355623096Y-317455093D01*
X355703908Y-317482030D01*
X355838595Y-317616717D01*
X355865532Y-317697529D01*
X355865532Y-317751404D01*
X355838595Y-317832216D01*
X355730845Y-317939966D01*
X355650033Y-317966903D01*
X355596158Y-317966903D01*
X355515346Y-317939966D01*
X351321218Y-316693096D02*
X351348155Y-316612284D01*
X351428967Y-316531471D01*
X351536717Y-316477597D01*
X351644467Y-316477597D01*
X351725279Y-316504534D01*
X351859966Y-316585346D01*
X351940778Y-316666158D01*
X352021590Y-316800845D01*
X352048528Y-316881658D01*
X352048528Y-316989407D01*
X351994653Y-317097157D01*
X351940778Y-317151032D01*
X351833028Y-317204906D01*
X351779154Y-317204906D01*
X351590592Y-317016345D01*
X351698341Y-316908595D01*
X351590592Y-317501218D02*
X351024906Y-316935532D01*
X350809407Y-317151032D01*
X350782470Y-317231844D01*
X350782470Y-317285719D01*
X350809407Y-317366531D01*
X350890219Y-317447343D01*
X350971032Y-317474280D01*
X351024906Y-317474280D01*
X351105719Y-317447343D01*
X351321218Y-317231844D01*
X350513096Y-317447343D02*
X350135972Y-317824467D01*
X350944094Y-318147715D01*
X329027309Y-342033129D02*
X329404433Y-342787377D01*
X328650186Y-342410253D01*
X328542436Y-343056751D02*
X328488561Y-343164500D01*
X328488561Y-343218375D01*
X328515499Y-343299187D01*
X328596311Y-343380000D01*
X328677123Y-343406937D01*
X328730998Y-343406937D01*
X328811810Y-343380000D01*
X329027309Y-343164500D01*
X328461624Y-342598815D01*
X328273062Y-342787377D01*
X328246125Y-342868189D01*
X328246125Y-342922064D01*
X328273062Y-343002876D01*
X328326937Y-343056751D01*
X328407749Y-343083688D01*
X328461624Y-343083688D01*
X328542436Y-343056751D01*
X328730998Y-342868189D01*
X327895938Y-343164500D02*
X328353874Y-343622436D01*
X328380812Y-343703248D01*
X328380812Y-343757123D01*
X328353874Y-343837935D01*
X328246125Y-343945685D01*
X328165312Y-343972622D01*
X328111438Y-343972622D01*
X328030625Y-343945685D01*
X327572690Y-343487749D01*
X327869001Y-344268934D02*
X327815126Y-344376683D01*
X327680439Y-344511370D01*
X327599627Y-344538308D01*
X327545752Y-344538308D01*
X327464940Y-344511370D01*
X327411065Y-344457496D01*
X327384128Y-344376683D01*
X327384128Y-344322809D01*
X327411065Y-344241996D01*
X327491877Y-344107309D01*
X327518815Y-344026497D01*
X327518815Y-343972622D01*
X327491877Y-343891810D01*
X327438003Y-343837935D01*
X327357190Y-343810998D01*
X327303316Y-343810998D01*
X327222503Y-343837935D01*
X327087816Y-343972622D01*
X327033942Y-344080372D01*
X356700592Y-342177722D02*
X356727529Y-342096910D01*
X356808341Y-342016097D01*
X356916091Y-341962223D01*
X357023841Y-341962223D01*
X357104653Y-341989160D01*
X357239340Y-342069972D01*
X357320152Y-342150784D01*
X357400964Y-342285471D01*
X357427902Y-342366284D01*
X357427902Y-342474033D01*
X357374027Y-342581783D01*
X357320152Y-342635658D01*
X357212402Y-342689532D01*
X357158528Y-342689532D01*
X356969966Y-342500971D01*
X357077715Y-342393221D01*
X356969966Y-342985844D02*
X356404280Y-342420158D01*
X356188781Y-342635658D01*
X356161844Y-342716470D01*
X356161844Y-342770345D01*
X356188781Y-342851157D01*
X356269593Y-342931969D01*
X356350406Y-342958906D01*
X356404280Y-342958906D01*
X356485093Y-342931969D01*
X356700592Y-342716470D01*
X355919407Y-343012781D02*
X355865532Y-343012781D01*
X355784720Y-343039719D01*
X355650033Y-343174406D01*
X355623096Y-343255218D01*
X355623096Y-343309093D01*
X355650033Y-343389905D01*
X355703908Y-343443780D01*
X355811658Y-343497654D01*
X356458155Y-343497654D01*
X356107969Y-343847841D01*
X355380659Y-343551529D02*
X355326784Y-343551529D01*
X355245972Y-343578467D01*
X355111285Y-343713154D01*
X355084348Y-343793966D01*
X355084348Y-343847841D01*
X355111285Y-343928653D01*
X355165160Y-343982528D01*
X355272910Y-344036402D01*
X355919407Y-344036402D01*
X355569221Y-344386589D01*
X364320592Y-315923722D02*
X364347529Y-315842910D01*
X364428341Y-315762097D01*
X364536091Y-315708223D01*
X364643841Y-315708223D01*
X364724653Y-315735160D01*
X364859340Y-315815972D01*
X364940152Y-315896784D01*
X365020964Y-316031471D01*
X365047902Y-316112284D01*
X365047902Y-316220033D01*
X364994027Y-316327783D01*
X364940152Y-316381658D01*
X364832402Y-316435532D01*
X364778528Y-316435532D01*
X364589966Y-316246971D01*
X364697715Y-316139221D01*
X364589966Y-316731844D02*
X364024280Y-316166158D01*
X363808781Y-316381658D01*
X363781844Y-316462470D01*
X363781844Y-316516345D01*
X363808781Y-316597157D01*
X363889593Y-316677969D01*
X363970406Y-316704906D01*
X364024280Y-316704906D01*
X364105093Y-316677969D01*
X364320592Y-316462470D01*
X363727969Y-317593841D02*
X364051218Y-317270592D01*
X363889593Y-317432216D02*
X363323908Y-316866531D01*
X363458595Y-316893468D01*
X363566345Y-316893468D01*
X363647157Y-316866531D01*
X363189221Y-318132589D02*
X363512470Y-317809340D01*
X363350845Y-317970964D02*
X362785160Y-317405279D01*
X362919847Y-317432216D01*
X363027597Y-317432216D01*
X363108409Y-317405279D01*
X338990592Y-341969847D02*
X338640406Y-342320033D01*
X339044467Y-342346971D01*
X338963654Y-342427783D01*
X338936717Y-342508595D01*
X338936717Y-342562470D01*
X338963654Y-342643282D01*
X339098341Y-342777969D01*
X339179154Y-342804906D01*
X339233028Y-342804906D01*
X339313841Y-342777969D01*
X339475465Y-342616345D01*
X339502402Y-342535532D01*
X339502402Y-342481658D01*
X338478781Y-342481658D02*
X338855905Y-343235905D01*
X338101658Y-342858781D01*
X337966971Y-342993468D02*
X337616784Y-343343654D01*
X338020845Y-343370592D01*
X337940033Y-343451404D01*
X337913096Y-343532216D01*
X337913096Y-343586091D01*
X337940033Y-343666903D01*
X338074720Y-343801590D01*
X338155532Y-343828528D01*
X338209407Y-343828528D01*
X338290219Y-343801590D01*
X338451844Y-343639966D01*
X338478781Y-343559154D01*
X338478781Y-343505279D01*
X374480592Y-342177722D02*
X374507529Y-342096910D01*
X374588341Y-342016097D01*
X374696091Y-341962223D01*
X374803841Y-341962223D01*
X374884653Y-341989160D01*
X375019340Y-342069972D01*
X375100152Y-342150784D01*
X375180964Y-342285471D01*
X375207902Y-342366284D01*
X375207902Y-342474033D01*
X375154027Y-342581783D01*
X375100152Y-342635658D01*
X374992402Y-342689532D01*
X374938528Y-342689532D01*
X374749966Y-342500971D01*
X374857715Y-342393221D01*
X374749966Y-342985844D02*
X374184280Y-342420158D01*
X373968781Y-342635658D01*
X373941844Y-342716470D01*
X373941844Y-342770345D01*
X373968781Y-342851157D01*
X374049593Y-342931969D01*
X374130406Y-342958906D01*
X374184280Y-342958906D01*
X374265093Y-342931969D01*
X374480592Y-342716470D01*
X373887969Y-343847841D02*
X374211218Y-343524592D01*
X374049593Y-343686216D02*
X373483908Y-343120531D01*
X373618595Y-343147468D01*
X373726345Y-343147468D01*
X373807157Y-343120531D01*
X373133722Y-343470717D02*
X372756598Y-343847841D01*
X373564720Y-344171089D01*
X347240964Y-342231597D02*
X346971590Y-342500971D01*
X347456463Y-342339346D02*
X346702216Y-341962223D01*
X347079340Y-342716470D01*
X346055719Y-342662595D02*
X346082656Y-342581783D01*
X346163468Y-342500971D01*
X346271218Y-342447096D01*
X346378967Y-342447096D01*
X346459780Y-342474033D01*
X346594467Y-342554845D01*
X346675279Y-342635658D01*
X346756091Y-342770345D01*
X346783028Y-342851157D01*
X346783028Y-342958906D01*
X346729154Y-343066656D01*
X346675279Y-343120531D01*
X346567529Y-343174406D01*
X346513654Y-343174406D01*
X346325093Y-342985844D01*
X346432842Y-342878094D01*
X346325093Y-343470717D02*
X345759407Y-342905032D01*
X346001844Y-343793966D01*
X345436158Y-343228280D01*
X345732470Y-344063340D02*
X345166784Y-343497654D01*
X345032097Y-343632341D01*
X344978223Y-343740091D01*
X344978223Y-343847841D01*
X345005160Y-343928653D01*
X345085972Y-344063340D01*
X345166784Y-344144152D01*
X345301471Y-344224964D01*
X345382284Y-344251902D01*
X345490033Y-344251902D01*
X345597783Y-344198027D01*
X345732470Y-344063340D01*
X358998155Y-342166158D02*
X359025093Y-342085346D01*
X359105905Y-342004534D01*
X359213654Y-341950659D01*
X359321404Y-341950659D01*
X359402216Y-341977597D01*
X359536903Y-342058409D01*
X359617715Y-342139221D01*
X359698528Y-342273908D01*
X359725465Y-342354720D01*
X359725465Y-342462470D01*
X359671590Y-342570219D01*
X359617715Y-342624094D01*
X359509966Y-342677969D01*
X359456091Y-342677969D01*
X359267529Y-342489407D01*
X359375279Y-342381658D01*
X359267529Y-342974280D02*
X358701844Y-342408595D01*
X358944280Y-343297529D01*
X358378595Y-342731844D01*
X358674906Y-343566903D02*
X358109221Y-343001218D01*
X357974534Y-343135905D01*
X357920659Y-343243654D01*
X357920659Y-343351404D01*
X357947597Y-343432216D01*
X358028409Y-343566903D01*
X358109221Y-343647715D01*
X358243908Y-343728528D01*
X358324720Y-343755465D01*
X358432470Y-343755465D01*
X358540219Y-343701590D01*
X358674906Y-343566903D01*
X341191218Y-316593096D02*
X341218155Y-316512284D01*
X341298967Y-316431471D01*
X341406717Y-316377597D01*
X341514467Y-316377597D01*
X341595279Y-316404534D01*
X341729966Y-316485346D01*
X341810778Y-316566158D01*
X341891590Y-316700845D01*
X341918528Y-316781658D01*
X341918528Y-316889407D01*
X341864653Y-316997157D01*
X341810778Y-317051032D01*
X341703028Y-317104906D01*
X341649154Y-317104906D01*
X341460592Y-316916345D01*
X341568341Y-316808595D01*
X341460592Y-317401218D02*
X340894906Y-316835532D01*
X340679407Y-317051032D01*
X340652470Y-317131844D01*
X340652470Y-317185719D01*
X340679407Y-317266531D01*
X340760219Y-317347343D01*
X340841032Y-317374280D01*
X340894906Y-317374280D01*
X340975719Y-317347343D01*
X341191218Y-317131844D01*
X340275346Y-317832216D02*
X340652470Y-318209340D01*
X340194534Y-317482030D02*
X340733282Y-317751404D01*
X340383096Y-318101590D01*
X361780592Y-316069722D02*
X361807529Y-315988910D01*
X361888341Y-315908097D01*
X361996091Y-315854223D01*
X362103841Y-315854223D01*
X362184653Y-315881160D01*
X362319340Y-315961972D01*
X362400152Y-316042784D01*
X362480964Y-316177471D01*
X362507902Y-316258284D01*
X362507902Y-316366033D01*
X362454027Y-316473783D01*
X362400152Y-316527658D01*
X362292402Y-316581532D01*
X362238528Y-316581532D01*
X362049966Y-316392971D01*
X362157715Y-316285221D01*
X362049966Y-316877844D02*
X361484280Y-316312158D01*
X361268781Y-316527658D01*
X361241844Y-316608470D01*
X361241844Y-316662345D01*
X361268781Y-316743157D01*
X361349593Y-316823969D01*
X361430406Y-316850906D01*
X361484280Y-316850906D01*
X361565093Y-316823969D01*
X361780592Y-316608470D01*
X361187969Y-317739841D02*
X361511218Y-317416592D01*
X361349593Y-317578216D02*
X360783908Y-317012531D01*
X360918595Y-317039468D01*
X361026345Y-317039468D01*
X361107157Y-317012531D01*
X360272097Y-317524341D02*
X360218223Y-317578216D01*
X360191285Y-317659028D01*
X360191285Y-317712903D01*
X360218223Y-317793715D01*
X360299035Y-317928402D01*
X360433722Y-318063089D01*
X360568409Y-318143902D01*
X360649221Y-318170839D01*
X360703096Y-318170839D01*
X360783908Y-318143902D01*
X360837783Y-318090027D01*
X360864720Y-318009215D01*
X360864720Y-317955340D01*
X360837783Y-317874528D01*
X360756971Y-317739841D01*
X360622284Y-317605154D01*
X360487597Y-317524341D01*
X360406784Y-317497404D01*
X360352910Y-317497404D01*
X360272097Y-317524341D01*
X349090592Y-342177722D02*
X349117529Y-342096910D01*
X349198341Y-342016097D01*
X349306091Y-341962223D01*
X349413841Y-341962223D01*
X349494653Y-341989160D01*
X349629340Y-342069972D01*
X349710152Y-342150784D01*
X349790964Y-342285471D01*
X349817902Y-342366284D01*
X349817902Y-342474033D01*
X349764027Y-342581783D01*
X349710152Y-342635658D01*
X349602402Y-342689532D01*
X349548528Y-342689532D01*
X349359966Y-342500971D01*
X349467715Y-342393221D01*
X349359966Y-342985844D02*
X348794280Y-342420158D01*
X348578781Y-342635658D01*
X348551844Y-342716470D01*
X348551844Y-342770345D01*
X348578781Y-342851157D01*
X348659593Y-342931969D01*
X348740406Y-342958906D01*
X348794280Y-342958906D01*
X348875093Y-342931969D01*
X349090592Y-342716470D01*
X348309407Y-343012781D02*
X348255532Y-343012781D01*
X348174720Y-343039719D01*
X348040033Y-343174406D01*
X348013096Y-343255218D01*
X348013096Y-343309093D01*
X348040033Y-343389905D01*
X348093908Y-343443780D01*
X348201658Y-343497654D01*
X348848155Y-343497654D01*
X348497969Y-343847841D01*
X347743722Y-343470717D02*
X347366598Y-343847841D01*
X348174720Y-344171089D01*
X361790592Y-342177722D02*
X361817529Y-342096910D01*
X361898341Y-342016097D01*
X362006091Y-341962223D01*
X362113841Y-341962223D01*
X362194653Y-341989160D01*
X362329340Y-342069972D01*
X362410152Y-342150784D01*
X362490964Y-342285471D01*
X362517902Y-342366284D01*
X362517902Y-342474033D01*
X362464027Y-342581783D01*
X362410152Y-342635658D01*
X362302402Y-342689532D01*
X362248528Y-342689532D01*
X362059966Y-342500971D01*
X362167715Y-342393221D01*
X362059966Y-342985844D02*
X361494280Y-342420158D01*
X361278781Y-342635658D01*
X361251844Y-342716470D01*
X361251844Y-342770345D01*
X361278781Y-342851157D01*
X361359593Y-342931969D01*
X361440406Y-342958906D01*
X361494280Y-342958906D01*
X361575093Y-342931969D01*
X361790592Y-342716470D01*
X361009407Y-343012781D02*
X360955532Y-343012781D01*
X360874720Y-343039719D01*
X360740033Y-343174406D01*
X360713096Y-343255218D01*
X360713096Y-343309093D01*
X360740033Y-343389905D01*
X360793908Y-343443780D01*
X360901658Y-343497654D01*
X361548155Y-343497654D01*
X361197969Y-343847841D01*
X360659221Y-344386589D02*
X360982470Y-344063340D01*
X360820845Y-344224964D02*
X360255160Y-343659279D01*
X360389847Y-343686216D01*
X360497597Y-343686216D01*
X360578409Y-343659279D01*
X333598155Y-316566158D02*
X333625093Y-316485346D01*
X333705905Y-316404534D01*
X333813654Y-316350659D01*
X333921404Y-316350659D01*
X334002216Y-316377597D01*
X334136903Y-316458409D01*
X334217715Y-316539221D01*
X334298528Y-316673908D01*
X334325465Y-316754720D01*
X334325465Y-316862470D01*
X334271590Y-316970219D01*
X334217715Y-317024094D01*
X334109966Y-317077969D01*
X334056091Y-317077969D01*
X333867529Y-316889407D01*
X333975279Y-316781658D01*
X333867529Y-317374280D02*
X333301844Y-316808595D01*
X333544280Y-317697529D01*
X332978595Y-317131844D01*
X333274906Y-317966903D02*
X332709221Y-317401218D01*
X332574534Y-317535905D01*
X332520659Y-317643654D01*
X332520659Y-317751404D01*
X332547597Y-317832216D01*
X332628409Y-317966903D01*
X332709221Y-318047715D01*
X332843908Y-318128528D01*
X332924720Y-318155465D01*
X333032470Y-318155465D01*
X333140219Y-318101590D01*
X333274906Y-317966903D01*
X379023809Y-333984761D02*
X379061904Y-334099047D01*
X379061904Y-334289523D01*
X379023809Y-334365714D01*
X378985714Y-334403809D01*
X378909523Y-334441904D01*
X378833333Y-334441904D01*
X378757142Y-334403809D01*
X378719047Y-334365714D01*
X378680952Y-334289523D01*
X378642857Y-334137142D01*
X378604761Y-334060952D01*
X378566666Y-334022857D01*
X378490476Y-333984761D01*
X378414285Y-333984761D01*
X378338095Y-334022857D01*
X378300000Y-334060952D01*
X378261904Y-334137142D01*
X378261904Y-334327619D01*
X378300000Y-334441904D01*
X378261904Y-334708571D02*
X379061904Y-334899047D01*
X378490476Y-335051428D01*
X379061904Y-335203809D01*
X378261904Y-335394285D01*
X379061904Y-335699047D02*
X378261904Y-335699047D01*
X378261904Y-335889523D01*
X378300000Y-336003809D01*
X378376190Y-336080000D01*
X378452380Y-336118095D01*
X378604761Y-336156190D01*
X378719047Y-336156190D01*
X378871428Y-336118095D01*
X378947619Y-336080000D01*
X379023809Y-336003809D01*
X379061904Y-335889523D01*
X379061904Y-335699047D01*
X379061904Y-336499047D02*
X378261904Y-336499047D01*
X378261904Y-337032380D02*
X378261904Y-337184761D01*
X378300000Y-337260952D01*
X378376190Y-337337142D01*
X378528571Y-337375238D01*
X378795238Y-337375238D01*
X378947619Y-337337142D01*
X379023809Y-337260952D01*
X379061904Y-337184761D01*
X379061904Y-337032380D01*
X379023809Y-336956190D01*
X378947619Y-336880000D01*
X378795238Y-336841904D01*
X378528571Y-336841904D01*
X378376190Y-336880000D01*
X378300000Y-336956190D01*
X378261904Y-337032380D01*
X333598155Y-342166158D02*
X333625093Y-342085346D01*
X333705905Y-342004534D01*
X333813654Y-341950659D01*
X333921404Y-341950659D01*
X334002216Y-341977597D01*
X334136903Y-342058409D01*
X334217715Y-342139221D01*
X334298528Y-342273908D01*
X334325465Y-342354720D01*
X334325465Y-342462470D01*
X334271590Y-342570219D01*
X334217715Y-342624094D01*
X334109966Y-342677969D01*
X334056091Y-342677969D01*
X333867529Y-342489407D01*
X333975279Y-342381658D01*
X333867529Y-342974280D02*
X333301844Y-342408595D01*
X333544280Y-343297529D01*
X332978595Y-342731844D01*
X333274906Y-343566903D02*
X332709221Y-343001218D01*
X332574534Y-343135905D01*
X332520659Y-343243654D01*
X332520659Y-343351404D01*
X332547597Y-343432216D01*
X332628409Y-343566903D01*
X332709221Y-343647715D01*
X332843908Y-343728528D01*
X332924720Y-343755465D01*
X333032470Y-343755465D01*
X333140219Y-343701590D01*
X333274906Y-343566903D01*
X336111218Y-316493096D02*
X336138155Y-316412284D01*
X336218967Y-316331471D01*
X336326717Y-316277597D01*
X336434467Y-316277597D01*
X336515279Y-316304534D01*
X336649966Y-316385346D01*
X336730778Y-316466158D01*
X336811590Y-316600845D01*
X336838528Y-316681658D01*
X336838528Y-316789407D01*
X336784653Y-316897157D01*
X336730778Y-316951032D01*
X336623028Y-317004906D01*
X336569154Y-317004906D01*
X336380592Y-316816345D01*
X336488341Y-316708595D01*
X336380592Y-317301218D02*
X335814906Y-316735532D01*
X335599407Y-316951032D01*
X335572470Y-317031844D01*
X335572470Y-317085719D01*
X335599407Y-317166531D01*
X335680219Y-317247343D01*
X335761032Y-317274280D01*
X335814906Y-317274280D01*
X335895719Y-317247343D01*
X336111218Y-317031844D01*
X335330033Y-317328155D02*
X335276158Y-317328155D01*
X335195346Y-317355093D01*
X335060659Y-317489780D01*
X335033722Y-317570592D01*
X335033722Y-317624467D01*
X335060659Y-317705279D01*
X335114534Y-317759154D01*
X335222284Y-317813028D01*
X335868781Y-317813028D01*
X335518595Y-318163215D01*
X346298155Y-316566158D02*
X346325093Y-316485346D01*
X346405905Y-316404534D01*
X346513654Y-316350659D01*
X346621404Y-316350659D01*
X346702216Y-316377597D01*
X346836903Y-316458409D01*
X346917715Y-316539221D01*
X346998528Y-316673908D01*
X347025465Y-316754720D01*
X347025465Y-316862470D01*
X346971590Y-316970219D01*
X346917715Y-317024094D01*
X346809966Y-317077969D01*
X346756091Y-317077969D01*
X346567529Y-316889407D01*
X346675279Y-316781658D01*
X346567529Y-317374280D02*
X346001844Y-316808595D01*
X346244280Y-317697529D01*
X345678595Y-317131844D01*
X345974906Y-317966903D02*
X345409221Y-317401218D01*
X345274534Y-317535905D01*
X345220659Y-317643654D01*
X345220659Y-317751404D01*
X345247597Y-317832216D01*
X345328409Y-317966903D01*
X345409221Y-318047715D01*
X345543908Y-318128528D01*
X345624720Y-318155465D01*
X345732470Y-318155465D01*
X345840219Y-318101590D01*
X345974906Y-317966903D01*
X354443435Y-342918375D02*
X354362622Y-342460439D01*
X354766683Y-342595126D02*
X354200998Y-342029441D01*
X353985499Y-342244940D01*
X353958561Y-342325752D01*
X353958561Y-342379627D01*
X353985499Y-342460439D01*
X354066311Y-342541251D01*
X354147123Y-342568189D01*
X354200998Y-342568189D01*
X354281810Y-342541251D01*
X354497309Y-342325752D01*
X353635312Y-342595126D02*
X354093248Y-343053062D01*
X354120186Y-343133874D01*
X354120186Y-343187749D01*
X354093248Y-343268561D01*
X353985499Y-343376311D01*
X353904687Y-343403248D01*
X353850812Y-343403248D01*
X353770000Y-343376311D01*
X353312064Y-342918375D01*
X353608375Y-343753435D02*
X353042690Y-343187749D01*
X353285126Y-344076683D01*
X352719441Y-343510998D01*
X343731218Y-316593096D02*
X343758155Y-316512284D01*
X343838967Y-316431471D01*
X343946717Y-316377597D01*
X344054467Y-316377597D01*
X344135279Y-316404534D01*
X344269966Y-316485346D01*
X344350778Y-316566158D01*
X344431590Y-316700845D01*
X344458528Y-316781658D01*
X344458528Y-316889407D01*
X344404653Y-316997157D01*
X344350778Y-317051032D01*
X344243028Y-317104906D01*
X344189154Y-317104906D01*
X344000592Y-316916345D01*
X344108341Y-316808595D01*
X344000592Y-317401218D02*
X343434906Y-316835532D01*
X343219407Y-317051032D01*
X343192470Y-317131844D01*
X343192470Y-317185719D01*
X343219407Y-317266531D01*
X343300219Y-317347343D01*
X343381032Y-317374280D01*
X343434906Y-317374280D01*
X343515719Y-317347343D01*
X343731218Y-317131844D01*
X342599847Y-317670592D02*
X342869221Y-317401218D01*
X343165532Y-317643654D01*
X343111658Y-317643654D01*
X343030845Y-317670592D01*
X342896158Y-317805279D01*
X342869221Y-317886091D01*
X342869221Y-317939966D01*
X342896158Y-318020778D01*
X343030845Y-318155465D01*
X343111658Y-318182402D01*
X343165532Y-318182402D01*
X343246345Y-318155465D01*
X343381032Y-318020778D01*
X343407969Y-317939966D01*
X343407969Y-317886091D01*
X371698155Y-342166158D02*
X371725093Y-342085346D01*
X371805905Y-342004534D01*
X371913654Y-341950659D01*
X372021404Y-341950659D01*
X372102216Y-341977597D01*
X372236903Y-342058409D01*
X372317715Y-342139221D01*
X372398528Y-342273908D01*
X372425465Y-342354720D01*
X372425465Y-342462470D01*
X372371590Y-342570219D01*
X372317715Y-342624094D01*
X372209966Y-342677969D01*
X372156091Y-342677969D01*
X371967529Y-342489407D01*
X372075279Y-342381658D01*
X371967529Y-342974280D02*
X371401844Y-342408595D01*
X371644280Y-343297529D01*
X371078595Y-342731844D01*
X371374906Y-343566903D02*
X370809221Y-343001218D01*
X370674534Y-343135905D01*
X370620659Y-343243654D01*
X370620659Y-343351404D01*
X370647597Y-343432216D01*
X370728409Y-343566903D01*
X370809221Y-343647715D01*
X370943908Y-343728528D01*
X371024720Y-343755465D01*
X371132470Y-343755465D01*
X371240219Y-343701590D01*
X371374906Y-343566903D01*
X366860592Y-342177722D02*
X366887529Y-342096910D01*
X366968341Y-342016097D01*
X367076091Y-341962223D01*
X367183841Y-341962223D01*
X367264653Y-341989160D01*
X367399340Y-342069972D01*
X367480152Y-342150784D01*
X367560964Y-342285471D01*
X367587902Y-342366284D01*
X367587902Y-342474033D01*
X367534027Y-342581783D01*
X367480152Y-342635658D01*
X367372402Y-342689532D01*
X367318528Y-342689532D01*
X367129966Y-342500971D01*
X367237715Y-342393221D01*
X367129966Y-342985844D02*
X366564280Y-342420158D01*
X366348781Y-342635658D01*
X366321844Y-342716470D01*
X366321844Y-342770345D01*
X366348781Y-342851157D01*
X366429593Y-342931969D01*
X366510406Y-342958906D01*
X366564280Y-342958906D01*
X366645093Y-342931969D01*
X366860592Y-342716470D01*
X366267969Y-343847841D02*
X366591218Y-343524592D01*
X366429593Y-343686216D02*
X365863908Y-343120531D01*
X365998595Y-343147468D01*
X366106345Y-343147468D01*
X366187157Y-343120531D01*
X365998595Y-344117215D02*
X365890845Y-344224964D01*
X365810033Y-344251902D01*
X365756158Y-344251902D01*
X365621471Y-344224964D01*
X365486784Y-344144152D01*
X365271285Y-343928653D01*
X365244348Y-343847841D01*
X365244348Y-343793966D01*
X365271285Y-343713154D01*
X365379035Y-343605404D01*
X365459847Y-343578467D01*
X365513722Y-343578467D01*
X365594534Y-343605404D01*
X365729221Y-343740091D01*
X365756158Y-343820903D01*
X365756158Y-343874778D01*
X365729221Y-343955590D01*
X365621471Y-344063340D01*
X365540659Y-344090277D01*
X365486784Y-344090277D01*
X365405972Y-344063340D01*
X371698155Y-316566158D02*
X371725093Y-316485346D01*
X371805905Y-316404534D01*
X371913654Y-316350659D01*
X372021404Y-316350659D01*
X372102216Y-316377597D01*
X372236903Y-316458409D01*
X372317715Y-316539221D01*
X372398528Y-316673908D01*
X372425465Y-316754720D01*
X372425465Y-316862470D01*
X372371590Y-316970219D01*
X372317715Y-317024094D01*
X372209966Y-317077969D01*
X372156091Y-317077969D01*
X371967529Y-316889407D01*
X372075279Y-316781658D01*
X371967529Y-317374280D02*
X371401844Y-316808595D01*
X371644280Y-317697529D01*
X371078595Y-317131844D01*
X371374906Y-317966903D02*
X370809221Y-317401218D01*
X370674534Y-317535905D01*
X370620659Y-317643654D01*
X370620659Y-317751404D01*
X370647597Y-317832216D01*
X370728409Y-317966903D01*
X370809221Y-318047715D01*
X370943908Y-318128528D01*
X371024720Y-318155465D01*
X371132470Y-318155465D01*
X371240219Y-318101590D01*
X371374906Y-317966903D01*
X379023809Y-322570476D02*
X379061904Y-322684761D01*
X379061904Y-322875238D01*
X379023809Y-322951428D01*
X378985714Y-322989523D01*
X378909523Y-323027619D01*
X378833333Y-323027619D01*
X378757142Y-322989523D01*
X378719047Y-322951428D01*
X378680952Y-322875238D01*
X378642857Y-322722857D01*
X378604761Y-322646666D01*
X378566666Y-322608571D01*
X378490476Y-322570476D01*
X378414285Y-322570476D01*
X378338095Y-322608571D01*
X378300000Y-322646666D01*
X378261904Y-322722857D01*
X378261904Y-322913333D01*
X378300000Y-323027619D01*
X378261904Y-323294285D02*
X379061904Y-323484761D01*
X378490476Y-323637142D01*
X379061904Y-323789523D01*
X378261904Y-323980000D01*
X378985714Y-324741904D02*
X379023809Y-324703809D01*
X379061904Y-324589523D01*
X379061904Y-324513333D01*
X379023809Y-324399047D01*
X378947619Y-324322857D01*
X378871428Y-324284761D01*
X378719047Y-324246666D01*
X378604761Y-324246666D01*
X378452380Y-324284761D01*
X378376190Y-324322857D01*
X378300000Y-324399047D01*
X378261904Y-324513333D01*
X378261904Y-324589523D01*
X378300000Y-324703809D01*
X378338095Y-324741904D01*
X379061904Y-325465714D02*
X379061904Y-325084761D01*
X378261904Y-325084761D01*
X379061904Y-325732380D02*
X378261904Y-325732380D01*
X379061904Y-326189523D02*
X378604761Y-325846666D01*
X378261904Y-326189523D02*
X378719047Y-325732380D01*
X377020592Y-342177722D02*
X377047529Y-342096910D01*
X377128341Y-342016097D01*
X377236091Y-341962223D01*
X377343841Y-341962223D01*
X377424653Y-341989160D01*
X377559340Y-342069972D01*
X377640152Y-342150784D01*
X377720964Y-342285471D01*
X377747902Y-342366284D01*
X377747902Y-342474033D01*
X377694027Y-342581783D01*
X377640152Y-342635658D01*
X377532402Y-342689532D01*
X377478528Y-342689532D01*
X377289966Y-342500971D01*
X377397715Y-342393221D01*
X377289966Y-342985844D02*
X376724280Y-342420158D01*
X376508781Y-342635658D01*
X376481844Y-342716470D01*
X376481844Y-342770345D01*
X376508781Y-342851157D01*
X376589593Y-342931969D01*
X376670406Y-342958906D01*
X376724280Y-342958906D01*
X376805093Y-342931969D01*
X377020592Y-342716470D01*
X376427969Y-343847841D02*
X376751218Y-343524592D01*
X376589593Y-343686216D02*
X376023908Y-343120531D01*
X376158595Y-343147468D01*
X376266345Y-343147468D01*
X376347157Y-343120531D01*
X375377410Y-343767028D02*
X375485160Y-343659279D01*
X375565972Y-343632341D01*
X375619847Y-343632341D01*
X375754534Y-343659279D01*
X375889221Y-343740091D01*
X376104720Y-343955590D01*
X376131658Y-344036402D01*
X376131658Y-344090277D01*
X376104720Y-344171089D01*
X375996971Y-344278839D01*
X375916158Y-344305776D01*
X375862284Y-344305776D01*
X375781471Y-344278839D01*
X375646784Y-344144152D01*
X375619847Y-344063340D01*
X375619847Y-344009465D01*
X375646784Y-343928653D01*
X375754534Y-343820903D01*
X375835346Y-343793966D01*
X375889221Y-343793966D01*
X375970033Y-343820903D01*
%TO.C,SW49*%
X228015523Y-51372761D02*
X227872666Y-51420380D01*
X227634571Y-51420380D01*
X227539333Y-51372761D01*
X227491714Y-51325142D01*
X227444095Y-51229904D01*
X227444095Y-51134666D01*
X227491714Y-51039428D01*
X227539333Y-50991809D01*
X227634571Y-50944190D01*
X227825047Y-50896571D01*
X227920285Y-50848952D01*
X227967904Y-50801333D01*
X228015523Y-50706095D01*
X228015523Y-50610857D01*
X227967904Y-50515619D01*
X227920285Y-50468000D01*
X227825047Y-50420380D01*
X227586952Y-50420380D01*
X227444095Y-50468000D01*
X227110761Y-50420380D02*
X226872666Y-51420380D01*
X226682190Y-50706095D01*
X226491714Y-51420380D01*
X226253619Y-50420380D01*
X225444095Y-50753714D02*
X225444095Y-51420380D01*
X225682190Y-50372761D02*
X225920285Y-51087047D01*
X225301238Y-51087047D01*
X224872666Y-51420380D02*
X224682190Y-51420380D01*
X224586952Y-51372761D01*
X224539333Y-51325142D01*
X224444095Y-51182285D01*
X224396476Y-50991809D01*
X224396476Y-50610857D01*
X224444095Y-50515619D01*
X224491714Y-50468000D01*
X224586952Y-50420380D01*
X224777428Y-50420380D01*
X224872666Y-50468000D01*
X224920285Y-50515619D01*
X224967904Y-50610857D01*
X224967904Y-50848952D01*
X224920285Y-50944190D01*
X224872666Y-50991809D01*
X224777428Y-51039428D01*
X224586952Y-51039428D01*
X224491714Y-50991809D01*
X224444095Y-50944190D01*
X224396476Y-50848952D01*
D11*
%TO.C,J2*%
X298584902Y-355803545D02*
X298584902Y-356146829D01*
X298607787Y-356215486D01*
X298653559Y-356261257D01*
X298722216Y-356284143D01*
X298767987Y-356284143D01*
X298378931Y-355849316D02*
X298356046Y-355826431D01*
X298310274Y-355803545D01*
X298195846Y-355803545D01*
X298150075Y-355826431D01*
X298127189Y-355849316D01*
X298104304Y-355895087D01*
X298104304Y-355940859D01*
X298127189Y-356009515D01*
X298401817Y-356284143D01*
X298104304Y-356284143D01*
D12*
%TO.C,J1*%
X324325000Y-366960000D02*
X324325000Y-365260000D01*
X324325000Y-365260000D02*
X324325000Y-364510000D01*
X335325000Y-357960000D02*
X333225000Y-357960000D01*
X326025000Y-366960000D02*
X324325000Y-366960000D01*
X325625000Y-360010000D02*
X324325000Y-360010000D01*
X324325000Y-359260000D02*
X324325000Y-357960000D01*
X321325000Y-365260000D02*
X324325000Y-365260000D01*
X324325000Y-360010000D02*
X324325000Y-359260000D01*
X331325000Y-357960000D02*
X328275000Y-357960000D01*
X324325000Y-357960000D02*
X326075000Y-357960000D01*
X321325000Y-359260000D02*
X321325000Y-365260000D01*
X335325000Y-366960000D02*
X335325000Y-364960000D01*
X324325000Y-359260000D02*
X321325000Y-359260000D01*
X328425000Y-366960000D02*
X335325000Y-366960000D01*
X335325000Y-362610000D02*
X335325000Y-357960000D01*
X325625000Y-364510000D02*
X325625000Y-360010000D01*
X324325000Y-364510000D02*
X325625000Y-364510000D01*
D13*
X326025000Y-367760000D02*
G75*
G03*
X326025000Y-367760000I-200000J0D01*
G01*
D14*
%TO.C,U2*%
X262500000Y-319580000D02*
X262100000Y-319580000D01*
X270200000Y-340580000D02*
X269800000Y-340580000D01*
X257400000Y-319580000D02*
X257000000Y-319580000D01*
X270200000Y-319580000D02*
X269800000Y-319580000D01*
X265100000Y-319580000D02*
X264700000Y-319580000D01*
X295333000Y-340580000D02*
X295333000Y-337573000D01*
X287900000Y-340580000D02*
X287500000Y-340580000D01*
X277800000Y-319580000D02*
X277400000Y-319580000D01*
X262500000Y-340580000D02*
X262100000Y-340580000D01*
X295600000Y-340580000D02*
X295200000Y-340580000D01*
X272700000Y-319580000D02*
X272300000Y-319580000D01*
X282900000Y-319580000D02*
X282500000Y-319580000D01*
X260000000Y-319580000D02*
X259600000Y-319580000D01*
X275200000Y-319580000D02*
X274800000Y-319580000D01*
X247000000Y-328980000D02*
X247000000Y-328580000D01*
X249800000Y-340580000D02*
X249400000Y-340580000D01*
X254900000Y-319580000D02*
X254500000Y-319580000D01*
X298000000Y-319580000D02*
X297700000Y-319580000D01*
X298000000Y-340580000D02*
X297700000Y-340580000D01*
X280300000Y-319580000D02*
X279900000Y-319580000D01*
X282900000Y-340580000D02*
X282500000Y-340580000D01*
X290500000Y-340580000D02*
X290100000Y-340580000D01*
X265100000Y-340580000D02*
X264700000Y-340580000D01*
X252400000Y-319580000D02*
X252000000Y-319580000D01*
X260000000Y-340580000D02*
X259600000Y-340580000D01*
X295600000Y-319580000D02*
X295200000Y-319580000D01*
X290500000Y-319580000D02*
X290100000Y-319580000D01*
X298000000Y-340580000D02*
X298000000Y-319580000D01*
X287900000Y-319580000D02*
X287500000Y-319580000D01*
X254900000Y-340580000D02*
X254500000Y-340580000D01*
X257400000Y-340580000D02*
X257000000Y-340580000D01*
X293000000Y-340580000D02*
X292600000Y-340580000D01*
X280300000Y-340580000D02*
X279900000Y-340580000D01*
X267600000Y-340580000D02*
X267200000Y-340580000D01*
X272700000Y-340580000D02*
X272300000Y-340580000D01*
X247000000Y-333780000D02*
X247000000Y-340580000D01*
X285400000Y-319580000D02*
X285000000Y-319580000D01*
X285400000Y-340580000D02*
X285000000Y-340580000D01*
X293000000Y-319580000D02*
X292600000Y-319580000D01*
X249800000Y-319580000D02*
X249400000Y-319580000D01*
X267600000Y-319580000D02*
X267200000Y-319580000D01*
X295333000Y-337573000D02*
X298000000Y-337573000D01*
X277800000Y-340580000D02*
X277400000Y-340580000D01*
X247000000Y-319580000D02*
X247000000Y-326380000D01*
X275200000Y-340580000D02*
X274800000Y-340580000D01*
X247000000Y-331580000D02*
X247000000Y-331180000D01*
X252400000Y-340580000D02*
X252000000Y-340580000D01*
%TO.C,U1*%
X365000000Y-319580000D02*
X365400000Y-319580000D01*
X378000000Y-340580000D02*
X378000000Y-333780000D01*
X352300000Y-319580000D02*
X352700000Y-319580000D01*
X362500000Y-340580000D02*
X362900000Y-340580000D01*
X332000000Y-319580000D02*
X332400000Y-319580000D01*
X354800000Y-319580000D02*
X355200000Y-319580000D01*
X332000000Y-340580000D02*
X332400000Y-340580000D01*
X354800000Y-340580000D02*
X355200000Y-340580000D01*
X327000000Y-319580000D02*
X327000000Y-340580000D01*
X327000000Y-340580000D02*
X327300000Y-340580000D01*
X378000000Y-326380000D02*
X378000000Y-319580000D01*
X357400000Y-340580000D02*
X357800000Y-340580000D01*
X365000000Y-340580000D02*
X365400000Y-340580000D01*
X357400000Y-319580000D02*
X357800000Y-319580000D01*
X334500000Y-340580000D02*
X334900000Y-340580000D01*
X370100000Y-340580000D02*
X370500000Y-340580000D01*
X372600000Y-319580000D02*
X373000000Y-319580000D01*
X329667000Y-322587000D02*
X327000000Y-322587000D01*
X367600000Y-340580000D02*
X368000000Y-340580000D01*
X378000000Y-328580000D02*
X378000000Y-328980000D01*
X342100000Y-319580000D02*
X342500000Y-319580000D01*
X339600000Y-319580000D02*
X340000000Y-319580000D01*
X344700000Y-340580000D02*
X345100000Y-340580000D01*
X375200000Y-340580000D02*
X375600000Y-340580000D01*
X378000000Y-331180000D02*
X378000000Y-331580000D01*
X347200000Y-340580000D02*
X347600000Y-340580000D01*
X329400000Y-319580000D02*
X329800000Y-319580000D01*
X342100000Y-340580000D02*
X342500000Y-340580000D01*
X362500000Y-319580000D02*
X362900000Y-319580000D01*
X327000000Y-319580000D02*
X327300000Y-319580000D01*
X349800000Y-340580000D02*
X350200000Y-340580000D01*
X337100000Y-340580000D02*
X337500000Y-340580000D01*
X329667000Y-319580000D02*
X329667000Y-322587000D01*
X347200000Y-319580000D02*
X347600000Y-319580000D01*
X359900000Y-340580000D02*
X360300000Y-340580000D01*
X344700000Y-319580000D02*
X345100000Y-319580000D01*
X334500000Y-319580000D02*
X334900000Y-319580000D01*
X367600000Y-319580000D02*
X368000000Y-319580000D01*
X370100000Y-319580000D02*
X370500000Y-319580000D01*
X375200000Y-319580000D02*
X375600000Y-319580000D01*
X359900000Y-319580000D02*
X360300000Y-319580000D01*
X339600000Y-340580000D02*
X340000000Y-340580000D01*
X337100000Y-319580000D02*
X337500000Y-319580000D01*
X349800000Y-319580000D02*
X350200000Y-319580000D01*
X352300000Y-340580000D02*
X352700000Y-340580000D01*
X372600000Y-340580000D02*
X373000000Y-340580000D01*
X329400000Y-340580000D02*
X329800000Y-340580000D01*
D12*
%TO.C,J2*%
X300945000Y-365880000D02*
X300945000Y-367180000D01*
X289945000Y-367180000D02*
X292045000Y-367180000D01*
X303945000Y-359880000D02*
X300945000Y-359880000D01*
X300945000Y-367180000D02*
X299195000Y-367180000D01*
X293945000Y-367180000D02*
X296995000Y-367180000D01*
X299245000Y-358180000D02*
X300945000Y-358180000D01*
X300945000Y-358180000D02*
X300945000Y-359880000D01*
X300945000Y-360630000D02*
X299645000Y-360630000D01*
X299645000Y-360630000D02*
X299645000Y-365130000D01*
X303945000Y-365880000D02*
X303945000Y-359880000D01*
X296845000Y-358180000D02*
X289945000Y-358180000D01*
X300945000Y-365880000D02*
X303945000Y-365880000D01*
X300945000Y-359880000D02*
X300945000Y-360630000D01*
X289945000Y-362530000D02*
X289945000Y-367180000D01*
X300945000Y-365130000D02*
X300945000Y-365880000D01*
X299645000Y-365130000D02*
X300945000Y-365130000D01*
X289945000Y-358180000D02*
X289945000Y-360180000D01*
D13*
X299645000Y-357380000D02*
G75*
G03*
X299645000Y-357380000I-200000J0D01*
G01*
%TD*%
%LPC*%
D15*
%TO.C,J37*%
X333500000Y-250000000D03*
D16*
X333500000Y-252540000D03*
X333500000Y-255080000D03*
%TD*%
D15*
%TO.C,J24*%
X405000000Y-253000000D03*
D16*
X407540000Y-253000000D03*
X410080000Y-253000000D03*
%TD*%
D15*
%TO.C,J22*%
X195500000Y-253000000D03*
D16*
X198040000Y-253000000D03*
X200580000Y-253000000D03*
%TD*%
D15*
%TO.C,J14*%
X289500000Y-250000000D03*
D16*
X289500000Y-252540000D03*
X289500000Y-255080000D03*
%TD*%
D15*
%TO.C,J45*%
X222850000Y-109650000D03*
%TD*%
%TO.C,J36*%
X125240000Y-110060000D03*
%TD*%
%TO.C,J35*%
X293260000Y-147110000D03*
%TD*%
%TO.C,J34*%
X126330000Y-174000000D03*
%TD*%
%TO.C,J33*%
X124180000Y-82780000D03*
%TD*%
%TO.C,J32*%
X127065000Y-213095000D03*
%TD*%
%TO.C,J31*%
X400000000Y-238240000D03*
%TD*%
%TO.C,J30*%
X328000000Y-210000000D03*
%TD*%
%TO.C,J29*%
X351920000Y-177950000D03*
%TD*%
%TO.C,J28*%
X328200000Y-162820000D03*
%TD*%
%TO.C,J27*%
X327420000Y-113930000D03*
%TD*%
%TO.C,J26*%
X326985000Y-86465000D03*
%TD*%
%TO.C,J20*%
X284000000Y-264500000D03*
%TD*%
%TO.C,J18*%
X261000000Y-252500000D03*
%TD*%
%TO.C,J16*%
X294000000Y-213500000D03*
%TD*%
%TO.C,J12*%
X270000000Y-216000000D03*
%TD*%
%TO.C,J9*%
X254500000Y-241000000D03*
%TD*%
%TO.C,J4*%
X126975000Y-238145000D03*
%TD*%
D17*
%TO.C,D23*%
X432100000Y-222000000D03*
D18*
X439720000Y-222000000D03*
%TD*%
D15*
%TO.C,J83*%
X398210000Y-112590000D03*
D16*
X398210000Y-115130000D03*
%TD*%
D17*
%TO.C,D91*%
X135190000Y-252930000D03*
D18*
X142810000Y-252930000D03*
%TD*%
D15*
%TO.C,J137*%
X261000000Y-310660000D03*
%TD*%
D19*
%TO.C,H34*%
X303500000Y-47500000D03*
%TD*%
D15*
%TO.C,J112*%
X527000000Y-115190000D03*
D16*
X527000000Y-117730000D03*
%TD*%
D17*
%TO.C,D61*%
X267614000Y-258312000D03*
D18*
X275234000Y-258312000D03*
%TD*%
D19*
%TO.C,H15*%
X295500000Y-311080000D03*
%TD*%
D15*
%TO.C,J39*%
X199080000Y-107460000D03*
D16*
X199080000Y-110000000D03*
%TD*%
D17*
%TO.C,D90*%
X165000000Y-98700000D03*
D18*
X172620000Y-98700000D03*
%TD*%
D19*
%TO.C,H24*%
X335580000Y-262000000D03*
%TD*%
D17*
%TO.C,D79*%
X183380000Y-120180000D03*
D18*
X191000000Y-120180000D03*
%TD*%
D20*
%TO.C,SW43*%
X340000000Y-168080000D03*
D21*
X340000000Y-163000000D03*
D20*
X340000000Y-157920000D03*
D22*
X334920000Y-160460000D03*
X337460000Y-166810000D03*
%TD*%
D21*
%TO.C,SW89*%
X139190000Y-218830000D03*
D20*
X144270000Y-218830000D03*
X134110000Y-218830000D03*
D22*
X141730000Y-213750000D03*
X135380000Y-216290000D03*
%TD*%
D21*
%TO.C,SW3*%
X511480000Y-155840000D03*
D20*
X506400000Y-155840000D03*
X516560000Y-155840000D03*
D22*
X514020000Y-150760000D03*
X507670000Y-153300000D03*
%TD*%
D15*
%TO.C,J141*%
X366736000Y-309672000D03*
%TD*%
D17*
%TO.C,D44*%
X351780000Y-259400000D03*
D18*
X359400000Y-259400000D03*
%TD*%
D17*
%TO.C,D47*%
X330780000Y-269880000D03*
D18*
X338400000Y-269880000D03*
%TD*%
D23*
%TO.C,D51*%
X509180000Y-50440000D03*
D24*
X511720000Y-50440000D03*
%TD*%
D20*
%TO.C,SW21*%
X440460000Y-148840000D03*
D21*
X435380000Y-148840000D03*
D20*
X430300000Y-148840000D03*
D22*
X437920000Y-143760000D03*
X431570000Y-146300000D03*
%TD*%
D19*
%TO.C,H9*%
X304500000Y-154500000D03*
%TD*%
D15*
%TO.C,J53*%
X245250000Y-175870000D03*
D16*
X245250000Y-178410000D03*
%TD*%
D20*
%TO.C,SW28*%
X416460000Y-214440000D03*
D21*
X411380000Y-214440000D03*
D20*
X406300000Y-214440000D03*
D22*
X413920000Y-209360000D03*
X407570000Y-211900000D03*
%TD*%
D17*
%TO.C,D26*%
X408100000Y-161300000D03*
D18*
X415720000Y-161300000D03*
%TD*%
D17*
%TO.C,D95*%
X135190000Y-228930000D03*
D18*
X142810000Y-228930000D03*
%TD*%
D15*
%TO.C,J110*%
X528000000Y-220500000D03*
%TD*%
D20*
%TO.C,SW80*%
X157910000Y-238030000D03*
X168070000Y-238030000D03*
D21*
X162990000Y-238030000D03*
D22*
X165530000Y-232950000D03*
X159180000Y-235490000D03*
%TD*%
D15*
%TO.C,J152*%
X389636000Y-52832000D03*
%TD*%
D17*
%TO.C,D43*%
X337100000Y-173300000D03*
D18*
X344720000Y-173300000D03*
%TD*%
D20*
%TO.C,SW5*%
X506300000Y-179740000D03*
X516460000Y-179740000D03*
D21*
X511380000Y-179740000D03*
D22*
X513920000Y-174660000D03*
X507570000Y-177200000D03*
%TD*%
D25*
%TO.C,R10*%
X136920000Y-56000000D03*
D26*
X142000000Y-56000000D03*
%TD*%
D21*
%TO.C,SW9*%
X482980000Y-155940000D03*
D20*
X488060000Y-155940000D03*
X477900000Y-155940000D03*
D22*
X485520000Y-150860000D03*
X479170000Y-153400000D03*
%TD*%
D20*
%TO.C,SW35*%
X384699405Y-255620009D03*
X375900586Y-260700009D03*
D21*
X380299995Y-258160009D03*
D22*
X379959700Y-252490600D03*
X375730439Y-257865305D03*
%TD*%
D21*
%TO.C,SW34*%
X387680000Y-216540000D03*
D20*
X382600000Y-216540000D03*
X392760000Y-216540000D03*
D22*
X390220000Y-211460000D03*
X383870000Y-214000000D03*
%TD*%
D15*
%TO.C,J102*%
X471000000Y-174144000D03*
D16*
X471000000Y-176684000D03*
%TD*%
D19*
%TO.C,H4*%
X91500000Y-154500000D03*
%TD*%
D25*
%TO.C,R11*%
X290830000Y-354340000D03*
D26*
X295910000Y-354340000D03*
%TD*%
D21*
%TO.C,SW53*%
X281420000Y-162960000D03*
D20*
X281420000Y-157880000D03*
X281420000Y-168040000D03*
D22*
X276340000Y-160420000D03*
X278880000Y-166770000D03*
%TD*%
D15*
%TO.C,J76*%
X374370000Y-112810000D03*
D16*
X374370000Y-115350000D03*
%TD*%
D17*
%TO.C,D93*%
X134600000Y-167500000D03*
D18*
X142220000Y-167500000D03*
%TD*%
D20*
%TO.C,SW11*%
X477600000Y-179640000D03*
D21*
X482680000Y-179640000D03*
D20*
X487760000Y-179640000D03*
D22*
X485220000Y-174560000D03*
X478870000Y-177100000D03*
%TD*%
D15*
%TO.C,J148*%
X515366000Y-50546000D03*
%TD*%
D25*
%TO.C,R8*%
X171000000Y-56000000D03*
D26*
X165920000Y-56000000D03*
%TD*%
D17*
%TO.C,D88*%
X158790000Y-163500000D03*
D18*
X166410000Y-163500000D03*
%TD*%
D21*
%TO.C,SW7*%
X481480000Y-86540000D03*
D20*
X476400000Y-86540000D03*
X486560000Y-86540000D03*
D22*
X484020000Y-81460000D03*
X477670000Y-84000000D03*
%TD*%
D15*
%TO.C,J120*%
X346500000Y-235000000D03*
%TD*%
D20*
%TO.C,SW58*%
X262680000Y-153500000D03*
X252520000Y-153500000D03*
D21*
X257600000Y-153500000D03*
D22*
X260140000Y-148420000D03*
X253790000Y-150960000D03*
%TD*%
D20*
%TO.C,SW76*%
X181120000Y-148700000D03*
D21*
X186200000Y-148700000D03*
D20*
X191280000Y-148700000D03*
D22*
X188740000Y-143620000D03*
X182390000Y-146160000D03*
%TD*%
D17*
%TO.C,D35*%
X384480000Y-227000000D03*
D18*
X392100000Y-227000000D03*
%TD*%
D15*
%TO.C,J78*%
X376010000Y-175840000D03*
D16*
X376010000Y-178380000D03*
%TD*%
D17*
%TO.C,D83*%
X183190000Y-245930000D03*
D18*
X190810000Y-245930000D03*
%TD*%
D19*
%TO.C,H23*%
X376000000Y-232000000D03*
%TD*%
D15*
%TO.C,J47*%
X221410000Y-173680000D03*
D16*
X221410000Y-176220000D03*
%TD*%
D17*
%TO.C,D66*%
X280000000Y-97700000D03*
D18*
X287620000Y-97700000D03*
%TD*%
D19*
%TO.C,H27*%
X537000000Y-86500000D03*
%TD*%
D21*
%TO.C,SW20*%
X433980000Y-109400000D03*
D20*
X428900000Y-109400000D03*
X439060000Y-109400000D03*
D22*
X436520000Y-104320000D03*
X430170000Y-106860000D03*
%TD*%
D19*
%TO.C,H19*%
X289800000Y-261700000D03*
%TD*%
D17*
%TO.C,D81*%
X182600000Y-184500000D03*
D18*
X190220000Y-184500000D03*
%TD*%
D20*
%TO.C,SW29*%
X416660000Y-175040000D03*
D21*
X411580000Y-175040000D03*
D20*
X406500000Y-175040000D03*
D22*
X414120000Y-169960000D03*
X407770000Y-172500000D03*
%TD*%
D21*
%TO.C,SW17*%
X459180000Y-174940000D03*
D20*
X464260000Y-174940000D03*
X454100000Y-174940000D03*
D22*
X461720000Y-169860000D03*
X455370000Y-172400000D03*
%TD*%
D17*
%TO.C,D86*%
X159190000Y-247930000D03*
D18*
X166810000Y-247930000D03*
%TD*%
D15*
%TO.C,J6*%
X195578000Y-257463000D03*
D16*
X198118000Y-257463000D03*
X200658000Y-257463000D03*
X203198000Y-257463000D03*
X205738000Y-257463000D03*
X208278000Y-257463000D03*
X210818000Y-257463000D03*
X213358000Y-257463000D03*
X215898000Y-257463000D03*
%TD*%
D20*
%TO.C,SW74*%
X191770000Y-235730000D03*
X181610000Y-235730000D03*
D21*
X186690000Y-235730000D03*
D22*
X189230000Y-230650000D03*
X182880000Y-233190000D03*
%TD*%
D20*
%TO.C,SW66*%
X259180000Y-86500000D03*
D21*
X254100000Y-86500000D03*
D20*
X249020000Y-86500000D03*
D22*
X256640000Y-81420000D03*
X250290000Y-83960000D03*
%TD*%
D15*
%TO.C,J63*%
X293000000Y-160420000D03*
D16*
X293000000Y-162960000D03*
%TD*%
D17*
%TO.C,D40*%
X360100000Y-164300000D03*
D18*
X367720000Y-164300000D03*
%TD*%
D20*
%TO.C,SW85*%
X133820000Y-179700000D03*
D21*
X138900000Y-179700000D03*
D20*
X143980000Y-179700000D03*
D22*
X141440000Y-174620000D03*
X135090000Y-177160000D03*
%TD*%
D19*
%TO.C,H16*%
X304500000Y-179500000D03*
%TD*%
D17*
%TO.C,D62*%
X254600000Y-165500000D03*
D18*
X262220000Y-165500000D03*
%TD*%
D15*
%TO.C,J70*%
X350776000Y-263856000D03*
%TD*%
D21*
%TO.C,SW15*%
X459080000Y-153440000D03*
D20*
X454000000Y-153440000D03*
X464160000Y-153440000D03*
D22*
X461620000Y-148360000D03*
X455270000Y-150900000D03*
%TD*%
D17*
%TO.C,D92*%
X135600000Y-127500000D03*
D18*
X143220000Y-127500000D03*
%TD*%
D17*
%TO.C,D82*%
X183190000Y-221930000D03*
D18*
X190810000Y-221930000D03*
%TD*%
D15*
%TO.C,J133*%
X202438000Y-56388000D03*
%TD*%
%TO.C,J142*%
X458216000Y-50292000D03*
%TD*%
D25*
%TO.C,R1*%
X421920000Y-54000000D03*
D26*
X427000000Y-54000000D03*
%TD*%
D20*
%TO.C,SW6*%
X511660000Y-243240000D03*
D21*
X506580000Y-243240000D03*
D20*
X501500000Y-243240000D03*
D22*
X509120000Y-238160000D03*
X502770000Y-240700000D03*
%TD*%
D17*
%TO.C,D56*%
X286234000Y-268312000D03*
D18*
X293854000Y-268312000D03*
%TD*%
D15*
%TO.C,J98*%
X471000000Y-216000000D03*
%TD*%
D17*
%TO.C,D73*%
X208000000Y-122180000D03*
D18*
X215620000Y-122180000D03*
%TD*%
D21*
%TO.C,SW27*%
X411580000Y-151040000D03*
D20*
X406500000Y-151040000D03*
X416660000Y-151040000D03*
D22*
X414120000Y-145960000D03*
X407770000Y-148500000D03*
%TD*%
D17*
%TO.C,D42*%
X335000000Y-124660000D03*
D18*
X342620000Y-124660000D03*
%TD*%
D20*
%TO.C,SW88*%
X143580000Y-156000000D03*
D21*
X138500000Y-156000000D03*
D20*
X133420000Y-156000000D03*
D22*
X141040000Y-150920000D03*
X134690000Y-153460000D03*
%TD*%
D21*
%TO.C,SW62*%
X235100000Y-113280000D03*
D20*
X240180000Y-113280000D03*
X230020000Y-113280000D03*
D22*
X237640000Y-108200000D03*
X231290000Y-110740000D03*
%TD*%
D19*
%TO.C,H18*%
X92000000Y-244000000D03*
%TD*%
D15*
%TO.C,J119*%
X286913700Y-240222600D03*
%TD*%
D20*
%TO.C,SW87*%
X134920000Y-115980000D03*
X145080000Y-115980000D03*
D21*
X140000000Y-115980000D03*
D22*
X142540000Y-110900000D03*
X136190000Y-113440000D03*
%TD*%
D15*
%TO.C,J108*%
X496710000Y-178550000D03*
D16*
X496710000Y-181090000D03*
%TD*%
D19*
%TO.C,H25*%
X533000000Y-154500000D03*
%TD*%
D15*
%TO.C,J139*%
X370546000Y-309672000D03*
%TD*%
D19*
%TO.C,H10*%
X260300000Y-245700000D03*
%TD*%
D15*
%TO.C,J146*%
X487680000Y-50292000D03*
%TD*%
D17*
%TO.C,D98*%
X106190000Y-192500000D03*
D18*
X113810000Y-192500000D03*
%TD*%
D19*
%TO.C,H17*%
X246100000Y-232100000D03*
%TD*%
D20*
%TO.C,SW4*%
X506600000Y-219140000D03*
X516760000Y-219140000D03*
D21*
X511680000Y-219140000D03*
D22*
X514220000Y-214060000D03*
X507870000Y-216600000D03*
%TD*%
D21*
%TO.C,SW93*%
X111400000Y-115780000D03*
D20*
X106320000Y-115780000D03*
X116480000Y-115780000D03*
D22*
X113940000Y-110700000D03*
X107590000Y-113240000D03*
%TD*%
D17*
%TO.C,D10*%
X479480000Y-190300000D03*
D18*
X487100000Y-190300000D03*
%TD*%
D21*
%TO.C,SW90*%
X139800000Y-86400000D03*
D20*
X134720000Y-86400000D03*
X144880000Y-86400000D03*
D22*
X142340000Y-81320000D03*
X135990000Y-83860000D03*
%TD*%
D17*
%TO.C,D70*%
X229980000Y-188500000D03*
D18*
X237600000Y-188500000D03*
%TD*%
D17*
%TO.C,D39*%
X360480000Y-227000000D03*
D18*
X368100000Y-227000000D03*
%TD*%
D20*
%TO.C,SW39*%
X358900000Y-153540000D03*
X369060000Y-153540000D03*
D21*
X363980000Y-153540000D03*
D22*
X366520000Y-148460000D03*
X360170000Y-151000000D03*
%TD*%
D17*
%TO.C,D69*%
X230600000Y-164500000D03*
D18*
X238220000Y-164500000D03*
%TD*%
D17*
%TO.C,D100*%
X106600000Y-127500000D03*
D18*
X114220000Y-127500000D03*
%TD*%
D19*
%TO.C,H37*%
X319500000Y-154500000D03*
%TD*%
D15*
%TO.C,J85*%
X399850000Y-175740000D03*
D16*
X399850000Y-178280000D03*
%TD*%
D17*
%TO.C,D99*%
X107190000Y-228930000D03*
D18*
X114810000Y-228930000D03*
%TD*%
D19*
%TO.C,H1*%
X92000000Y-87000000D03*
%TD*%
D15*
%TO.C,J92*%
X447500000Y-214000000D03*
%TD*%
%TO.C,J43*%
X174600000Y-212920000D03*
%TD*%
D25*
%TO.C,R4*%
X486080000Y-54000000D03*
D26*
X481000000Y-54000000D03*
%TD*%
D15*
%TO.C,J130*%
X117348000Y-50800000D03*
%TD*%
D17*
%TO.C,D80*%
X182410000Y-160500000D03*
D18*
X190030000Y-160500000D03*
%TD*%
D20*
%TO.C,SW31*%
X362000000Y-86540000D03*
X372160000Y-86540000D03*
D21*
X367080000Y-86540000D03*
D22*
X369620000Y-81460000D03*
X363270000Y-84000000D03*
%TD*%
D17*
%TO.C,D2*%
X507380000Y-126660000D03*
D18*
X515000000Y-126660000D03*
%TD*%
D20*
%TO.C,SW81*%
X169080000Y-111180000D03*
X158920000Y-111180000D03*
D21*
X164000000Y-111180000D03*
D22*
X166540000Y-106100000D03*
X160190000Y-108640000D03*
%TD*%
D15*
%TO.C,J147*%
X359116000Y-309672000D03*
%TD*%
D19*
%TO.C,H12*%
X303400000Y-86500000D03*
%TD*%
%TO.C,H5*%
X329500000Y-310000000D03*
%TD*%
D15*
%TO.C,J114*%
X524180000Y-178600000D03*
D16*
X524180000Y-181140000D03*
%TD*%
D17*
%TO.C,D41*%
X359480000Y-187300000D03*
D18*
X367100000Y-187300000D03*
%TD*%
D17*
%TO.C,D34*%
X384480000Y-187300000D03*
D18*
X392100000Y-187300000D03*
%TD*%
D17*
%TO.C,D24*%
X431480000Y-246000000D03*
D18*
X439100000Y-246000000D03*
%TD*%
D21*
%TO.C,SW54*%
X282230000Y-211650000D03*
D20*
X282230000Y-206570000D03*
X282230000Y-216730000D03*
D22*
X277150000Y-209110000D03*
X279690000Y-215460000D03*
%TD*%
D17*
%TO.C,D58*%
X277570000Y-222930000D03*
D18*
X285190000Y-222930000D03*
%TD*%
D17*
%TO.C,D16*%
X456100000Y-225000000D03*
D18*
X463720000Y-225000000D03*
%TD*%
D19*
%TO.C,H32*%
X536000000Y-114000000D03*
%TD*%
%TO.C,H30*%
X364280000Y-245900000D03*
%TD*%
D20*
%TO.C,SW19*%
X429300000Y-86660000D03*
X419140000Y-86660000D03*
D21*
X424220000Y-86660000D03*
D22*
X426760000Y-81580000D03*
X420410000Y-84120000D03*
%TD*%
D17*
%TO.C,D27*%
X406380000Y-121660000D03*
D18*
X414000000Y-121660000D03*
%TD*%
D25*
%TO.C,R12*%
X107920000Y-56000000D03*
D26*
X113000000Y-56000000D03*
%TD*%
D15*
%TO.C,J134*%
X278866000Y-346372000D03*
%TD*%
D20*
%TO.C,SW47*%
X334600586Y-284540009D03*
D21*
X338999995Y-282000009D03*
D20*
X343399405Y-279460009D03*
D22*
X338659700Y-276330600D03*
X334430439Y-281705305D03*
%TD*%
D15*
%TO.C,J3*%
X281630000Y-310660000D03*
D16*
X279090000Y-310660000D03*
X276550000Y-310660000D03*
X274010000Y-310660000D03*
X271470000Y-310660000D03*
X268930000Y-310660000D03*
%TD*%
D15*
%TO.C,J25*%
X174370000Y-173450000D03*
D16*
X174370000Y-175990000D03*
%TD*%
D23*
%TO.C,D49*%
X452064700Y-50440000D03*
D24*
X454604700Y-50440000D03*
%TD*%
D15*
%TO.C,J144*%
X371562000Y-347106000D03*
%TD*%
D21*
%TO.C,SW18*%
X458880000Y-238340000D03*
D20*
X453800000Y-238340000D03*
X463960000Y-238340000D03*
D22*
X461420000Y-233260000D03*
X455070000Y-235800000D03*
%TD*%
D17*
%TO.C,D14*%
X454380000Y-124660000D03*
D18*
X462000000Y-124660000D03*
%TD*%
D15*
%TO.C,J65*%
X246000000Y-214500000D03*
%TD*%
%TO.C,J19*%
X150310000Y-178270000D03*
D16*
X150310000Y-180810000D03*
%TD*%
D20*
%TO.C,SW96*%
X116280000Y-86300000D03*
D21*
X111200000Y-86300000D03*
D20*
X106120000Y-86300000D03*
D22*
X113740000Y-81220000D03*
X107390000Y-83760000D03*
%TD*%
D21*
%TO.C,SW67*%
X209800000Y-175000000D03*
D20*
X204720000Y-175000000D03*
X214880000Y-175000000D03*
D22*
X212340000Y-169920000D03*
X205990000Y-172460000D03*
%TD*%
D20*
%TO.C,SW41*%
X358600000Y-177340000D03*
D21*
X363680000Y-177340000D03*
D20*
X368760000Y-177340000D03*
D22*
X366220000Y-172260000D03*
X359870000Y-174800000D03*
%TD*%
D19*
%TO.C,H21*%
X319000000Y-87000000D03*
%TD*%
%TO.C,H28*%
X533000000Y-179500000D03*
%TD*%
D17*
%TO.C,D4*%
X508100000Y-190300000D03*
D18*
X515720000Y-190300000D03*
%TD*%
D20*
%TO.C,SW46*%
X343200586Y-251969409D03*
X351999405Y-246889409D03*
D21*
X347599995Y-249429409D03*
D22*
X347259700Y-243760000D03*
X343030439Y-249134705D03*
%TD*%
D15*
%TO.C,J151*%
X374610000Y-309672000D03*
%TD*%
%TO.C,J143*%
X435500000Y-54000000D03*
%TD*%
D21*
%TO.C,SW16*%
X459480000Y-214540000D03*
D20*
X464560000Y-214540000D03*
X454400000Y-214540000D03*
D22*
X462020000Y-209460000D03*
X455670000Y-212000000D03*
%TD*%
D19*
%TO.C,H36*%
X528000000Y-48000000D03*
%TD*%
D17*
%TO.C,D63*%
X253600000Y-188500000D03*
D18*
X261220000Y-188500000D03*
%TD*%
D17*
%TO.C,D33*%
X384100000Y-163300000D03*
D18*
X391720000Y-163300000D03*
%TD*%
D15*
%TO.C,J145*%
X362926000Y-309672000D03*
%TD*%
D20*
%TO.C,SW22*%
X430160000Y-211960000D03*
X440320000Y-211960000D03*
D21*
X435240000Y-211960000D03*
D22*
X437780000Y-206880000D03*
X431430000Y-209420000D03*
%TD*%
D15*
%TO.C,J10*%
X342320000Y-309720000D03*
D16*
X344860000Y-309720000D03*
X347400000Y-309720000D03*
X349940000Y-309720000D03*
X352480000Y-309720000D03*
X355020000Y-309720000D03*
%TD*%
D21*
%TO.C,SW26*%
X410380000Y-111700000D03*
D20*
X405300000Y-111700000D03*
X415460000Y-111700000D03*
D22*
X412920000Y-106620000D03*
X406570000Y-109160000D03*
%TD*%
D17*
%TO.C,D25*%
X392700000Y-96800000D03*
D18*
X400320000Y-96800000D03*
%TD*%
D27*
%TO.C,D54*%
X138100000Y-51200000D03*
D28*
X140640000Y-51200000D03*
%TD*%
D20*
%TO.C,SW12*%
X477600000Y-243140000D03*
D21*
X482680000Y-243140000D03*
D20*
X487760000Y-243140000D03*
D22*
X485220000Y-238060000D03*
X478870000Y-240600000D03*
%TD*%
D15*
%TO.C,J128*%
X416010000Y-253350000D03*
%TD*%
D20*
%TO.C,SW84*%
X163520000Y-86400000D03*
X173680000Y-86400000D03*
D21*
X168600000Y-86400000D03*
D22*
X171140000Y-81320000D03*
X164790000Y-83860000D03*
%TD*%
D15*
%TO.C,J131*%
X253500000Y-310740000D03*
%TD*%
D17*
%TO.C,D5*%
X508100000Y-229000000D03*
D18*
X515720000Y-229000000D03*
%TD*%
D17*
%TO.C,D78*%
X221000000Y-97700000D03*
D18*
X228620000Y-97700000D03*
%TD*%
D17*
%TO.C,D96*%
X135380000Y-99700000D03*
D18*
X143000000Y-99700000D03*
%TD*%
D20*
%TO.C,SW60*%
X277720000Y-86400000D03*
D21*
X282800000Y-86400000D03*
D20*
X287880000Y-86400000D03*
D22*
X285340000Y-81320000D03*
X278990000Y-83860000D03*
%TD*%
D15*
%TO.C,J60*%
X268856000Y-175360000D03*
D16*
X268856000Y-177900000D03*
%TD*%
D19*
%TO.C,H38*%
X319500000Y-211500000D03*
%TD*%
D20*
%TO.C,SW56*%
X262580000Y-177400000D03*
D21*
X257500000Y-177400000D03*
D20*
X252420000Y-177400000D03*
D22*
X260040000Y-172320000D03*
X253690000Y-174860000D03*
%TD*%
D25*
%TO.C,R6*%
X509460000Y-54000000D03*
D26*
X514540000Y-54000000D03*
%TD*%
D17*
%TO.C,D65*%
X255190000Y-226930000D03*
D18*
X262810000Y-226930000D03*
%TD*%
D15*
%TO.C,J8*%
X403025000Y-319350000D03*
D16*
X403025000Y-321890000D03*
X403025000Y-324430000D03*
X403025000Y-326970000D03*
X403025000Y-329510000D03*
X403025000Y-332050000D03*
X403025000Y-334590000D03*
X403025000Y-337130000D03*
X403025000Y-339670000D03*
%TD*%
D15*
%TO.C,J86*%
X423500000Y-215000000D03*
%TD*%
%TO.C,J150*%
X232410000Y-53086000D03*
%TD*%
D17*
%TO.C,D77*%
X206600000Y-162500000D03*
D18*
X214220000Y-162500000D03*
%TD*%
D15*
%TO.C,J117*%
X281130000Y-260386000D03*
%TD*%
D20*
%TO.C,SW36*%
X382600000Y-177240000D03*
D21*
X387680000Y-177240000D03*
D20*
X392760000Y-177240000D03*
D22*
X390220000Y-172160000D03*
X383870000Y-174700000D03*
%TD*%
D25*
%TO.C,R3*%
X334000000Y-371080000D03*
D26*
X328920000Y-371080000D03*
%TD*%
D15*
%TO.C,J41*%
X197250000Y-171310000D03*
D16*
X197250000Y-173850000D03*
%TD*%
D19*
%TO.C,H13*%
X280780000Y-364260000D03*
%TD*%
D15*
%TO.C,J149*%
X264500000Y-310558000D03*
%TD*%
D17*
%TO.C,D3*%
X508480000Y-165300000D03*
D18*
X516100000Y-165300000D03*
%TD*%
D19*
%TO.C,H8*%
X91000000Y-219000000D03*
%TD*%
D17*
%TO.C,D72*%
X251000000Y-97700000D03*
D18*
X258620000Y-97700000D03*
%TD*%
D17*
%TO.C,D18*%
X455100000Y-248000000D03*
D18*
X462720000Y-248000000D03*
%TD*%
D17*
%TO.C,D28*%
X408480000Y-185300000D03*
D18*
X416100000Y-185300000D03*
%TD*%
D15*
%TO.C,J118*%
X294000000Y-207554000D03*
%TD*%
D17*
%TO.C,D71*%
X230570000Y-226930000D03*
D18*
X238190000Y-226930000D03*
%TD*%
D15*
%TO.C,J74*%
X375500000Y-218000000D03*
%TD*%
D19*
%TO.C,H22*%
X319000000Y-179500000D03*
%TD*%
%TO.C,H2*%
X91500000Y-179500000D03*
%TD*%
D20*
%TO.C,SW1*%
X515260000Y-86640000D03*
D21*
X510180000Y-86640000D03*
D20*
X505100000Y-86640000D03*
D22*
X512720000Y-81560000D03*
X506370000Y-84100000D03*
%TD*%
D17*
%TO.C,D8*%
X478380000Y-126660000D03*
D18*
X486000000Y-126660000D03*
%TD*%
D21*
%TO.C,SW73*%
X186100000Y-172600000D03*
D20*
X191180000Y-172600000D03*
X181020000Y-172600000D03*
D22*
X188640000Y-167520000D03*
X182290000Y-170060000D03*
%TD*%
D17*
%TO.C,D1*%
X506700000Y-96800000D03*
D18*
X514320000Y-96800000D03*
%TD*%
D17*
%TO.C,D22*%
X431480000Y-182300000D03*
D18*
X439100000Y-182300000D03*
%TD*%
D19*
%TO.C,H31*%
X535000000Y-219000000D03*
%TD*%
D17*
%TO.C,D46*%
X339160000Y-239400000D03*
D18*
X346780000Y-239400000D03*
%TD*%
D23*
%TO.C,D48*%
X423364700Y-50340000D03*
D24*
X425904700Y-50340000D03*
%TD*%
D20*
%TO.C,SW51*%
X281973405Y-249972009D03*
D21*
X277573995Y-247432009D03*
D20*
X273174586Y-244892009D03*
D22*
X282313700Y-244302600D03*
X275544439Y-243327305D03*
%TD*%
D15*
%TO.C,J21*%
X150000000Y-217500000D03*
%TD*%
D21*
%TO.C,SW71*%
X210590000Y-214330000D03*
D20*
X205510000Y-214330000D03*
X215670000Y-214330000D03*
D22*
X213130000Y-209250000D03*
X206780000Y-211790000D03*
%TD*%
D20*
%TO.C,SW91*%
X115080000Y-179800000D03*
X104920000Y-179800000D03*
D21*
X110000000Y-179800000D03*
D22*
X112540000Y-174720000D03*
X106190000Y-177260000D03*
%TD*%
D21*
%TO.C,SW69*%
X211500000Y-111080000D03*
D20*
X206420000Y-111080000D03*
X216580000Y-111080000D03*
D22*
X214040000Y-106000000D03*
X207690000Y-108540000D03*
%TD*%
D20*
%TO.C,SW86*%
X133910000Y-242830000D03*
D21*
X138990000Y-242830000D03*
D20*
X144070000Y-242830000D03*
D22*
X141530000Y-237750000D03*
X135180000Y-240290000D03*
%TD*%
D19*
%TO.C,H7*%
X384500000Y-310000000D03*
%TD*%
D15*
%TO.C,J116*%
X274500000Y-233500000D03*
%TD*%
%TO.C,J58*%
X270020000Y-113220000D03*
D16*
X270020000Y-115760000D03*
%TD*%
D17*
%TO.C,D11*%
X479100000Y-229000000D03*
D18*
X486720000Y-229000000D03*
%TD*%
D17*
%TO.C,D89*%
X159190000Y-223930000D03*
D18*
X166810000Y-223930000D03*
%TD*%
D20*
%TO.C,SW32*%
X381400000Y-114100000D03*
D21*
X386480000Y-114100000D03*
D20*
X391560000Y-114100000D03*
D22*
X389020000Y-109020000D03*
X382670000Y-111560000D03*
%TD*%
D27*
%TO.C,D55*%
X109900000Y-50700000D03*
D28*
X112440000Y-50700000D03*
%TD*%
D25*
%TO.C,R2*%
X456000000Y-54000000D03*
D26*
X450920000Y-54000000D03*
%TD*%
D17*
%TO.C,D67*%
X246614000Y-245312000D03*
D18*
X254234000Y-245312000D03*
%TD*%
D25*
%TO.C,R7*%
X199000000Y-56000000D03*
D26*
X193920000Y-56000000D03*
%TD*%
D19*
%TO.C,H29*%
X535000000Y-244000000D03*
%TD*%
D17*
%TO.C,D21*%
X432480000Y-159300000D03*
D18*
X440100000Y-159300000D03*
%TD*%
D15*
%TO.C,J122*%
X219700000Y-52900000D03*
%TD*%
D25*
%TO.C,R9*%
X290910000Y-371340000D03*
D26*
X295990000Y-371340000D03*
%TD*%
D21*
%TO.C,SW2*%
X510380000Y-116400000D03*
D20*
X505300000Y-116400000D03*
X515460000Y-116400000D03*
D22*
X512920000Y-111320000D03*
X506570000Y-113860000D03*
%TD*%
D19*
%TO.C,H11*%
X91200000Y-115400000D03*
%TD*%
D15*
%TO.C,J72*%
X351550000Y-161480000D03*
D16*
X351550000Y-164020000D03*
%TD*%
D15*
%TO.C,J96*%
X447340000Y-171420000D03*
D16*
X447340000Y-173960000D03*
%TD*%
D20*
%TO.C,SW10*%
X477700000Y-219040000D03*
X487860000Y-219040000D03*
D21*
X482780000Y-219040000D03*
D22*
X485320000Y-213960000D03*
X478970000Y-216500000D03*
%TD*%
D17*
%TO.C,D97*%
X111190000Y-252930000D03*
D18*
X118810000Y-252930000D03*
%TD*%
D15*
%TO.C,J17*%
X151610000Y-114420000D03*
D16*
X151610000Y-116960000D03*
%TD*%
D20*
%TO.C,SW77*%
X181610000Y-211730000D03*
D21*
X186690000Y-211730000D03*
D20*
X191770000Y-211730000D03*
D22*
X189230000Y-206650000D03*
X182880000Y-209190000D03*
%TD*%
D20*
%TO.C,SW95*%
X115570000Y-219030000D03*
X105410000Y-219030000D03*
D21*
X110490000Y-219030000D03*
D22*
X113030000Y-213950000D03*
X106680000Y-216490000D03*
%TD*%
D15*
%TO.C,J106*%
X493670000Y-114900000D03*
D16*
X493670000Y-117440000D03*
%TD*%
D25*
%TO.C,R5*%
X333960000Y-354000000D03*
D26*
X328880000Y-354000000D03*
%TD*%
D20*
%TO.C,SW45*%
X364099405Y-267620009D03*
D21*
X359699995Y-270160009D03*
D20*
X355300586Y-272700009D03*
D22*
X359359700Y-264490600D03*
X355130439Y-269865305D03*
%TD*%
D20*
%TO.C,SW30*%
X406400000Y-238240000D03*
X416560000Y-238240000D03*
D21*
X411480000Y-238240000D03*
D22*
X414020000Y-233160000D03*
X407670000Y-235700000D03*
%TD*%
D20*
%TO.C,SW55*%
X270173405Y-270572009D03*
X261374586Y-265492009D03*
D21*
X265773995Y-268032009D03*
D22*
X270513700Y-264902600D03*
X263744439Y-263927305D03*
%TD*%
D17*
%TO.C,D75*%
X207190000Y-223930000D03*
D18*
X214810000Y-223930000D03*
%TD*%
D15*
%TO.C,J49*%
X198000000Y-211000000D03*
%TD*%
%TO.C,J55*%
X222000000Y-213000000D03*
%TD*%
D21*
%TO.C,SW78*%
X197200000Y-86300000D03*
D20*
X202280000Y-86300000D03*
X192120000Y-86300000D03*
D22*
X199740000Y-81220000D03*
X193390000Y-83760000D03*
%TD*%
D15*
%TO.C,J7*%
X405110000Y-256920000D03*
D16*
X407650000Y-256920000D03*
X410190000Y-256920000D03*
X412730000Y-256920000D03*
X415270000Y-256920000D03*
X417810000Y-256920000D03*
X420350000Y-256920000D03*
X422890000Y-256920000D03*
X425430000Y-256920000D03*
%TD*%
D20*
%TO.C,SW70*%
X204920000Y-151200000D03*
D21*
X210000000Y-151200000D03*
D20*
X215080000Y-151200000D03*
D22*
X212540000Y-146120000D03*
X206190000Y-148660000D03*
%TD*%
D15*
%TO.C,J104*%
X495000000Y-220000000D03*
%TD*%
D20*
%TO.C,SW94*%
X115280000Y-156000000D03*
X105120000Y-156000000D03*
D21*
X110200000Y-156000000D03*
D22*
X112740000Y-150920000D03*
X106390000Y-153460000D03*
%TD*%
D20*
%TO.C,SW79*%
X167580000Y-175000000D03*
D21*
X162500000Y-175000000D03*
D20*
X157420000Y-175000000D03*
D22*
X165040000Y-169920000D03*
X158690000Y-172460000D03*
%TD*%
D20*
%TO.C,SW72*%
X230980000Y-86200000D03*
X220820000Y-86200000D03*
D21*
X225900000Y-86200000D03*
D22*
X228440000Y-81120000D03*
X222090000Y-83660000D03*
%TD*%
D17*
%TO.C,D19*%
X420080000Y-96800000D03*
D18*
X427700000Y-96800000D03*
%TD*%
D15*
%TO.C,J138*%
X202438000Y-51308000D03*
%TD*%
D17*
%TO.C,D74*%
X205980000Y-186500000D03*
D18*
X213600000Y-186500000D03*
%TD*%
D20*
%TO.C,SW13*%
X447800000Y-86740000D03*
D21*
X452880000Y-86740000D03*
D20*
X457960000Y-86740000D03*
D22*
X455420000Y-81660000D03*
X449070000Y-84200000D03*
%TD*%
D17*
%TO.C,D36*%
X371160000Y-248400000D03*
D18*
X378780000Y-248400000D03*
%TD*%
D17*
%TO.C,D59*%
X276980000Y-173500000D03*
D18*
X284600000Y-173500000D03*
%TD*%
D15*
%TO.C,J140*%
X429514000Y-50292000D03*
%TD*%
%TO.C,J62*%
X294600000Y-112180000D03*
D16*
X294600000Y-114720000D03*
%TD*%
D19*
%TO.C,H14*%
X238500000Y-311080000D03*
%TD*%
D20*
%TO.C,SW8*%
X476600000Y-116500000D03*
D21*
X481680000Y-116500000D03*
D20*
X486760000Y-116500000D03*
D22*
X484220000Y-111420000D03*
X477870000Y-113960000D03*
%TD*%
D17*
%TO.C,D32*%
X383380000Y-124660000D03*
D18*
X391000000Y-124660000D03*
%TD*%
D19*
%TO.C,H6*%
X347920000Y-363080000D03*
%TD*%
D15*
%TO.C,J153*%
X402900000Y-52700000D03*
%TD*%
D17*
%TO.C,D9*%
X479480000Y-166300000D03*
D18*
X487100000Y-166300000D03*
%TD*%
D20*
%TO.C,SW33*%
X382500000Y-153440000D03*
X392660000Y-153440000D03*
D21*
X387580000Y-153440000D03*
D22*
X390120000Y-148360000D03*
X383770000Y-150900000D03*
%TD*%
D15*
%TO.C,J5*%
X230500000Y-320760000D03*
D16*
X230500000Y-323300000D03*
X230500000Y-325840000D03*
X230500000Y-328380000D03*
X230500000Y-330920000D03*
X230500000Y-333460000D03*
X230500000Y-336000000D03*
X230500000Y-338540000D03*
X230500000Y-341080000D03*
%TD*%
D17*
%TO.C,D101*%
X104980000Y-167500000D03*
D18*
X112600000Y-167500000D03*
%TD*%
D17*
%TO.C,D76*%
X207190000Y-247930000D03*
D18*
X214810000Y-247930000D03*
%TD*%
D17*
%TO.C,D84*%
X194000000Y-97700000D03*
D18*
X201620000Y-97700000D03*
%TD*%
D20*
%TO.C,SW68*%
X205610000Y-238130000D03*
X215770000Y-238130000D03*
D21*
X210690000Y-238130000D03*
D22*
X213230000Y-233050000D03*
X206880000Y-235590000D03*
%TD*%
D15*
%TO.C,J88*%
X422040000Y-110250000D03*
D16*
X422040000Y-112790000D03*
%TD*%
D15*
%TO.C,J51*%
X246800000Y-111860000D03*
D16*
X246800000Y-114400000D03*
%TD*%
D19*
%TO.C,H33*%
X94000000Y-47500000D03*
%TD*%
D17*
%TO.C,D37*%
X334700000Y-96800000D03*
D18*
X342320000Y-96800000D03*
%TD*%
D17*
%TO.C,D38*%
X359380000Y-124660000D03*
D18*
X367000000Y-124660000D03*
%TD*%
D19*
%TO.C,H3*%
X304000000Y-211000000D03*
%TD*%
D27*
%TO.C,D52*%
X195200000Y-51200000D03*
D28*
X197740000Y-51200000D03*
%TD*%
D15*
%TO.C,J23*%
X176170000Y-110080000D03*
D16*
X176170000Y-112620000D03*
%TD*%
D20*
%TO.C,SW37*%
X343360000Y-86640000D03*
X333200000Y-86640000D03*
D21*
X338280000Y-86640000D03*
D22*
X340820000Y-81560000D03*
X334470000Y-84100000D03*
%TD*%
D15*
%TO.C,J13*%
X126000000Y-178310000D03*
D16*
X126000000Y-180850000D03*
%TD*%
D17*
%TO.C,D60*%
X280000000Y-125180000D03*
D18*
X287620000Y-125180000D03*
%TD*%
D17*
%TO.C,D31*%
X363700000Y-96800000D03*
D18*
X371320000Y-96800000D03*
%TD*%
D15*
%TO.C,J68*%
X343000000Y-266000000D03*
%TD*%
D21*
%TO.C,SW25*%
X395680000Y-86640000D03*
D20*
X390600000Y-86640000D03*
X400760000Y-86640000D03*
D22*
X398220000Y-81560000D03*
X391870000Y-84100000D03*
%TD*%
D17*
%TO.C,D85*%
X158980000Y-186500000D03*
D18*
X166600000Y-186500000D03*
%TD*%
D15*
%TO.C,J11*%
X125190000Y-114880000D03*
D16*
X125190000Y-117420000D03*
%TD*%
D15*
%TO.C,J132*%
X145796000Y-51054000D03*
%TD*%
%TO.C,J94*%
X445870000Y-108070000D03*
D16*
X445870000Y-110610000D03*
%TD*%
D15*
%TO.C,J135*%
X257500000Y-310670000D03*
%TD*%
D17*
%TO.C,D12*%
X479100000Y-254000000D03*
D18*
X486720000Y-254000000D03*
%TD*%
D20*
%TO.C,SW64*%
X229110000Y-216630000D03*
D21*
X234190000Y-216630000D03*
D20*
X239270000Y-216630000D03*
D22*
X236730000Y-211550000D03*
X230380000Y-214090000D03*
%TD*%
D20*
%TO.C,SW38*%
X357600000Y-113900000D03*
X367760000Y-113900000D03*
D21*
X362680000Y-113900000D03*
D22*
X365220000Y-108820000D03*
X358870000Y-111360000D03*
%TD*%
D15*
%TO.C,J136*%
X174752000Y-50800000D03*
%TD*%
D20*
%TO.C,SW52*%
X287880000Y-113380000D03*
X277720000Y-113380000D03*
D21*
X282800000Y-113380000D03*
D22*
X285340000Y-108300000D03*
X278990000Y-110840000D03*
%TD*%
D17*
%TO.C,D17*%
X455480000Y-185300000D03*
D18*
X463100000Y-185300000D03*
%TD*%
D17*
%TO.C,D45*%
X337100000Y-222000000D03*
D18*
X344720000Y-222000000D03*
%TD*%
D20*
%TO.C,SW63*%
X228820000Y-153500000D03*
D21*
X233900000Y-153500000D03*
D20*
X238980000Y-153500000D03*
D22*
X236440000Y-148420000D03*
X230090000Y-150960000D03*
%TD*%
D20*
%TO.C,SW82*%
X157220000Y-151300000D03*
X167380000Y-151300000D03*
D21*
X162300000Y-151300000D03*
D22*
X164840000Y-146220000D03*
X158490000Y-148760000D03*
%TD*%
D21*
%TO.C,SW92*%
X115290000Y-242930000D03*
D20*
X120370000Y-242930000D03*
X110210000Y-242930000D03*
D22*
X117830000Y-237850000D03*
X111480000Y-240390000D03*
%TD*%
D17*
%TO.C,D87*%
X161000000Y-122180000D03*
D18*
X168620000Y-122180000D03*
%TD*%
D17*
%TO.C,D94*%
X133690000Y-192500000D03*
D18*
X141310000Y-192500000D03*
%TD*%
D15*
%TO.C,J71*%
X350560000Y-112580000D03*
D16*
X350560000Y-115120000D03*
%TD*%
D21*
%TO.C,SW75*%
X187600000Y-108580000D03*
D20*
X192680000Y-108580000D03*
X182520000Y-108580000D03*
D22*
X190140000Y-103500000D03*
X183790000Y-106040000D03*
%TD*%
D17*
%TO.C,D30*%
X408100000Y-248000000D03*
D18*
X415720000Y-248000000D03*
%TD*%
D21*
%TO.C,SW50*%
X286373995Y-280132009D03*
D20*
X281974586Y-277592009D03*
X290773405Y-282672009D03*
D22*
X291113700Y-277002600D03*
X284344439Y-276027305D03*
%TD*%
D17*
%TO.C,D6*%
X503480000Y-253000000D03*
D18*
X511100000Y-253000000D03*
%TD*%
D20*
%TO.C,SW65*%
X240674586Y-253692009D03*
D21*
X245073995Y-256232009D03*
D20*
X249473405Y-258772009D03*
D22*
X249813700Y-253102600D03*
X243044439Y-252127305D03*
%TD*%
D20*
%TO.C,SW57*%
X264180000Y-113380000D03*
X254020000Y-113380000D03*
D21*
X259100000Y-113380000D03*
D22*
X261640000Y-108300000D03*
X255290000Y-110840000D03*
%TD*%
D19*
%TO.C,H35*%
X320500000Y-47500000D03*
%TD*%
D21*
%TO.C,SW44*%
X340100000Y-212000000D03*
D20*
X340100000Y-217080000D03*
X340100000Y-206920000D03*
D22*
X335020000Y-209460000D03*
X337560000Y-215810000D03*
%TD*%
D20*
%TO.C,SW61*%
X238780000Y-177300000D03*
X228620000Y-177300000D03*
D21*
X233700000Y-177300000D03*
D22*
X236240000Y-172220000D03*
X229890000Y-174760000D03*
%TD*%
D20*
%TO.C,SW59*%
X263370000Y-216630000D03*
X253210000Y-216630000D03*
D21*
X258290000Y-216630000D03*
D22*
X260830000Y-211550000D03*
X254480000Y-214090000D03*
%TD*%
D15*
%TO.C,J121*%
X358000000Y-240500000D03*
%TD*%
%TO.C,J90*%
X423390000Y-173590000D03*
D16*
X423390000Y-176130000D03*
%TD*%
D17*
%TO.C,D15*%
X456100000Y-163300000D03*
D18*
X463720000Y-163300000D03*
%TD*%
D17*
%TO.C,D13*%
X449080000Y-96800000D03*
D18*
X456700000Y-96800000D03*
%TD*%
D21*
%TO.C,SW40*%
X363880000Y-216740000D03*
D20*
X368960000Y-216740000D03*
X358800000Y-216740000D03*
D22*
X366420000Y-211660000D03*
X360070000Y-214200000D03*
%TD*%
D17*
%TO.C,D20*%
X430380000Y-119660000D03*
D18*
X438000000Y-119660000D03*
%TD*%
D17*
%TO.C,D64*%
X255380000Y-124180000D03*
D18*
X263000000Y-124180000D03*
%TD*%
D20*
%TO.C,SW24*%
X430300000Y-235640000D03*
X440460000Y-235640000D03*
D21*
X435380000Y-235640000D03*
D22*
X437920000Y-230560000D03*
X431570000Y-233100000D03*
%TD*%
D17*
%TO.C,D102*%
X108000000Y-99700000D03*
D18*
X115620000Y-99700000D03*
%TD*%
D17*
%TO.C,D68*%
X232000000Y-123180000D03*
D18*
X239620000Y-123180000D03*
%TD*%
D20*
%TO.C,SW83*%
X167970000Y-214230000D03*
X157810000Y-214230000D03*
D21*
X162890000Y-214230000D03*
D22*
X165430000Y-209150000D03*
X159080000Y-211690000D03*
%TD*%
D17*
%TO.C,D7*%
X478080000Y-96800000D03*
D18*
X485700000Y-96800000D03*
%TD*%
D17*
%TO.C,D57*%
X278234000Y-235312000D03*
D18*
X285854000Y-235312000D03*
%TD*%
D15*
%TO.C,J129*%
X249500000Y-310740000D03*
%TD*%
D27*
%TO.C,D53*%
X167400000Y-51000000D03*
D28*
X169940000Y-51000000D03*
%TD*%
D20*
%TO.C,SW14*%
X463160000Y-114000000D03*
X453000000Y-114000000D03*
D21*
X458080000Y-114000000D03*
D22*
X460620000Y-108920000D03*
X454270000Y-111460000D03*
%TD*%
D23*
%TO.C,D50*%
X481564700Y-50240000D03*
D24*
X484104700Y-50240000D03*
%TD*%
D17*
%TO.C,D29*%
X408100000Y-224000000D03*
D18*
X415720000Y-224000000D03*
%TD*%
D20*
%TO.C,SW23*%
X430200000Y-172640000D03*
D21*
X435280000Y-172640000D03*
D20*
X440360000Y-172640000D03*
D22*
X437820000Y-167560000D03*
X431470000Y-170100000D03*
%TD*%
D15*
%TO.C,J15*%
X127000000Y-220000000D03*
%TD*%
%TO.C,J100*%
X469670000Y-112820000D03*
D16*
X469670000Y-115360000D03*
%TD*%
D19*
%TO.C,H20*%
X303600000Y-113700000D03*
%TD*%
D21*
%TO.C,SW42*%
X338780000Y-114000000D03*
D20*
X333700000Y-114000000D03*
X343860000Y-114000000D03*
D22*
X341320000Y-108920000D03*
X334970000Y-111460000D03*
%TD*%
D19*
%TO.C,H26*%
X319300000Y-113700000D03*
%TD*%
D20*
%TO.C,SW48*%
X393460000Y-53000000D03*
X398540000Y-53000000D03*
%TD*%
D29*
%TO.C,J1*%
X327225000Y-362260000D03*
X332225000Y-362260000D03*
D30*
X327225000Y-367060000D03*
D31*
X332225000Y-358660000D03*
X335325000Y-363860000D03*
X327225000Y-357760000D03*
%TD*%
D24*
%TO.C,U2*%
X293470000Y-327655000D03*
D28*
X296500000Y-327355000D03*
X296500000Y-332805000D03*
D24*
X293470000Y-332505000D03*
D16*
X296630000Y-338970000D03*
D32*
X296630000Y-339870000D03*
X294090000Y-339870000D03*
D16*
X294090000Y-338970000D03*
D32*
X291550000Y-339870000D03*
D15*
X291550000Y-338970000D03*
D16*
X289010000Y-338970000D03*
D32*
X289010000Y-339870000D03*
D16*
X286470000Y-338970000D03*
D32*
X286470000Y-339870000D03*
D16*
X283930000Y-338970000D03*
D32*
X283930000Y-339870000D03*
D16*
X281390000Y-338970000D03*
D32*
X281390000Y-339870000D03*
D15*
X278850000Y-338970000D03*
D32*
X278850000Y-339870000D03*
X276310000Y-339870000D03*
D16*
X276310000Y-338970000D03*
X273770000Y-338970000D03*
D32*
X273770000Y-339870000D03*
X271230000Y-339870000D03*
D16*
X271230000Y-338970000D03*
D32*
X268690000Y-339870000D03*
D16*
X268690000Y-338970000D03*
D32*
X266150000Y-339870000D03*
D15*
X266150000Y-338970000D03*
D32*
X263610000Y-339870000D03*
D16*
X263610000Y-338970000D03*
D32*
X261070000Y-339870000D03*
D16*
X261070000Y-338970000D03*
D32*
X258530000Y-339870000D03*
D16*
X258530000Y-338970000D03*
D32*
X255990000Y-339870000D03*
D16*
X255990000Y-338970000D03*
D32*
X253450000Y-339870000D03*
D15*
X253450000Y-338970000D03*
D16*
X250910000Y-338970000D03*
D32*
X250910000Y-339870000D03*
D16*
X248370000Y-338970000D03*
D32*
X248370000Y-339870000D03*
X248370000Y-320290000D03*
D16*
X248370000Y-321190000D03*
D32*
X250910000Y-320290000D03*
D16*
X250910000Y-321190000D03*
D15*
X253450000Y-321190000D03*
D32*
X253450000Y-320290000D03*
X255990000Y-320290000D03*
D16*
X255990000Y-321190000D03*
D32*
X258530000Y-320290000D03*
D16*
X258530000Y-321190000D03*
X261070000Y-321190000D03*
D32*
X261070000Y-320290000D03*
D16*
X263610000Y-321190000D03*
D32*
X263610000Y-320290000D03*
X266150000Y-320290000D03*
D15*
X266150000Y-321190000D03*
D16*
X268690000Y-321190000D03*
D32*
X268690000Y-320290000D03*
D16*
X271230000Y-321190000D03*
D32*
X271230000Y-320290000D03*
X273770000Y-320290000D03*
D16*
X273770000Y-321190000D03*
X276310000Y-321190000D03*
D32*
X276310000Y-320290000D03*
D15*
X278850000Y-321190000D03*
D32*
X278850000Y-320290000D03*
X281390000Y-320290000D03*
D16*
X281390000Y-321190000D03*
D32*
X283930000Y-320290000D03*
D16*
X283930000Y-321190000D03*
D32*
X286470000Y-320290000D03*
D16*
X286470000Y-321190000D03*
X289010000Y-321190000D03*
D32*
X289010000Y-320290000D03*
D15*
X291550000Y-321190000D03*
D32*
X291550000Y-320290000D03*
X294090000Y-320290000D03*
D16*
X294090000Y-321190000D03*
X296630000Y-321190000D03*
D32*
X296630000Y-320290000D03*
D33*
X247700000Y-332620000D03*
D16*
X248600000Y-332620000D03*
D15*
X248600000Y-330080000D03*
D33*
X247700000Y-330080000D03*
X247700000Y-327540000D03*
D16*
X248600000Y-327540000D03*
%TD*%
D28*
%TO.C,U1*%
X328500000Y-332805000D03*
D24*
X331530000Y-332505000D03*
D28*
X328500000Y-327355000D03*
D24*
X331530000Y-327655000D03*
D32*
X328370000Y-320290000D03*
D16*
X328370000Y-321190000D03*
X330910000Y-321190000D03*
D32*
X330910000Y-320290000D03*
X333450000Y-320290000D03*
D15*
X333450000Y-321190000D03*
D16*
X335990000Y-321190000D03*
D32*
X335990000Y-320290000D03*
X338530000Y-320290000D03*
D16*
X338530000Y-321190000D03*
X341070000Y-321190000D03*
D32*
X341070000Y-320290000D03*
D16*
X343610000Y-321190000D03*
D32*
X343610000Y-320290000D03*
D15*
X346150000Y-321190000D03*
D32*
X346150000Y-320290000D03*
D16*
X348690000Y-321190000D03*
D32*
X348690000Y-320290000D03*
D16*
X351230000Y-321190000D03*
D32*
X351230000Y-320290000D03*
X353770000Y-320290000D03*
D16*
X353770000Y-321190000D03*
D32*
X356310000Y-320290000D03*
D16*
X356310000Y-321190000D03*
D32*
X358850000Y-320290000D03*
D15*
X358850000Y-321190000D03*
D16*
X361390000Y-321190000D03*
D32*
X361390000Y-320290000D03*
D16*
X363930000Y-321190000D03*
D32*
X363930000Y-320290000D03*
D16*
X366470000Y-321190000D03*
D32*
X366470000Y-320290000D03*
D16*
X369010000Y-321190000D03*
D32*
X369010000Y-320290000D03*
X371550000Y-320290000D03*
D15*
X371550000Y-321190000D03*
D16*
X374090000Y-321190000D03*
D32*
X374090000Y-320290000D03*
X376630000Y-320290000D03*
D16*
X376630000Y-321190000D03*
X376630000Y-338970000D03*
D32*
X376630000Y-339870000D03*
D16*
X374090000Y-338970000D03*
D32*
X374090000Y-339870000D03*
D15*
X371550000Y-338970000D03*
D32*
X371550000Y-339870000D03*
D16*
X369010000Y-338970000D03*
D32*
X369010000Y-339870000D03*
X366470000Y-339870000D03*
D16*
X366470000Y-338970000D03*
D32*
X363930000Y-339870000D03*
D16*
X363930000Y-338970000D03*
D32*
X361390000Y-339870000D03*
D16*
X361390000Y-338970000D03*
D32*
X358850000Y-339870000D03*
D15*
X358850000Y-338970000D03*
D32*
X356310000Y-339870000D03*
D16*
X356310000Y-338970000D03*
D32*
X353770000Y-339870000D03*
D16*
X353770000Y-338970000D03*
D32*
X351230000Y-339870000D03*
D16*
X351230000Y-338970000D03*
X348690000Y-338970000D03*
D32*
X348690000Y-339870000D03*
X346150000Y-339870000D03*
D15*
X346150000Y-338970000D03*
D32*
X343610000Y-339870000D03*
D16*
X343610000Y-338970000D03*
X341070000Y-338970000D03*
D32*
X341070000Y-339870000D03*
X338530000Y-339870000D03*
D16*
X338530000Y-338970000D03*
X335990000Y-338970000D03*
D32*
X335990000Y-339870000D03*
X333450000Y-339870000D03*
D15*
X333450000Y-338970000D03*
D32*
X330910000Y-339870000D03*
D16*
X330910000Y-338970000D03*
D32*
X328370000Y-339870000D03*
D16*
X328370000Y-338970000D03*
D33*
X377300000Y-327540000D03*
D16*
X376400000Y-327540000D03*
D33*
X377300000Y-330080000D03*
D15*
X376400000Y-330080000D03*
D33*
X377300000Y-332620000D03*
D16*
X376400000Y-332620000D03*
%TD*%
D20*
%TO.C,SW49*%
X229000000Y-53000000D03*
X223920000Y-53000000D03*
%TD*%
D29*
%TO.C,J2*%
X293045000Y-362880000D03*
X298045000Y-362880000D03*
D30*
X298045000Y-358080000D03*
D31*
X293045000Y-366480000D03*
X289945000Y-361280000D03*
X298045000Y-367380000D03*
%TD*%
M02*
