M48
; DRILL file {KiCad 7.0.1-3b83917a11~172~ubuntu22.04.1} date fr. 31. mars 2023 kl. 15.39 +0200
; FORMAT={-:-/ absolute / metric / decimal}
; #@! TF.CreationDate,2023-03-31T15:39:11+02:00
; #@! TF.GenerationSoftware,Kicad,Pcbnew,7.0.1-3b83917a11~172~ubuntu22.04.1
; #@! TF.FileFunction,Plated,1,2,PTH
FMAT,2
METRIC
; #@! TA.AperFunction,Plated,PTH,ViaDrill
T1C0.400
; #@! TA.AperFunction,Plated,PTH,ComponentDrill
T2C0.700
; #@! TA.AperFunction,Plated,PTH,ComponentDrill
T3C0.750
; #@! TA.AperFunction,Plated,PTH,ComponentDrill
T4C0.800
; #@! TA.AperFunction,Plated,PTH,ComponentDrill
T5C0.900
; #@! TA.AperFunction,Plated,PTH,ComponentDrill
T6C1.000
; #@! TA.AperFunction,Plated,PTH,ComponentDrill
T7C1.020
; #@! TA.AperFunction,Plated,PTH,ComponentDrill
T8C1.500
; #@! TA.AperFunction,Plated,PTH,ComponentDrill
T9C4.300
%
G90
G05
T1
X187.851Y-249.354
X190.761Y-241.845
X190.761Y-249.37
X192.329Y-256.015
X194.737Y-249.346
X194.737Y-261.001
X199.235Y-242.876
X207.66Y-252.73
X252.5Y-338.5
X323.149Y-342.472
X326.425Y-343.643
X331.642Y-373.095
X333.641Y-356.669
X370.11Y-334.877
X373.653Y-328.299
X401.484Y-248.21
X403.5Y-239.5
X414.5Y-242.0
T2
X108.02Y-53.3
X113.1Y-53.3
X137.02Y-53.3
X142.1Y-53.3
X166.02Y-53.3
X171.1Y-53.3
X194.02Y-53.3
X199.1Y-53.3
X290.83Y-354.34
X292.42Y-371.0
X295.91Y-354.34
X297.5Y-371.0
X327.0Y-371.5
X328.88Y-354.0
X332.08Y-371.5
X333.96Y-354.0
X421.92Y-54.0
X427.0Y-54.0
X450.92Y-54.0
X456.0Y-54.0
X481.0Y-54.0
X486.08Y-54.0
X509.46Y-54.0
X514.54Y-54.0
T3
X423.365Y-50.34
X425.905Y-50.34
X452.065Y-50.44
X454.605Y-50.44
X481.565Y-50.24
X484.105Y-50.24
X509.18Y-50.44
X511.72Y-50.44
T4
X107.19Y-228.93
X111.19Y-252.93
X114.81Y-228.93
X116.81Y-167.5
X117.52Y-190.5
X118.81Y-252.93
X122.81Y-128.04
X124.43Y-167.5
X125.14Y-190.5
X130.43Y-128.04
X135.19Y-228.93
X135.19Y-252.93
X142.81Y-228.93
X142.81Y-252.93
X144.12Y-190.5
X144.88Y-98.0
X145.03Y-167.5
X150.03Y-127.54
X151.74Y-190.5
X152.5Y-98.0
X152.65Y-167.5
X157.65Y-127.54
X159.19Y-223.93
X159.19Y-247.93
X166.81Y-223.93
X166.81Y-247.93
X167.26Y-163.5
X167.45Y-186.5
X168.19Y-97.28
X172.54Y-122.18
X174.88Y-163.5
X175.07Y-186.5
X175.81Y-97.28
X180.16Y-122.18
X183.19Y-221.93
X183.19Y-245.93
X189.06Y-160.5
X189.25Y-184.5
X190.81Y-221.93
X190.81Y-245.93
X190.94Y-99.0
X192.92Y-120.18
X196.68Y-160.5
X196.87Y-184.5
X198.56Y-99.0
X200.54Y-120.18
X207.19Y-223.93
X207.19Y-247.93
X210.73Y-186.5
X211.35Y-162.5
X213.62Y-98.0
X214.81Y-223.93
X214.81Y-247.93
X215.22Y-122.18
X218.35Y-186.5
X218.97Y-162.5
X221.24Y-98.0
X222.84Y-122.18
X230.57Y-226.93
X233.72Y-188.5
X234.34Y-164.5
X234.4Y-98.0
X236.8Y-123.18
X238.19Y-226.93
X241.34Y-188.5
X241.96Y-164.5
X242.02Y-98.0
X244.42Y-123.18
X246.614Y-245.312
X254.234Y-245.312
X255.19Y-226.93
X255.56Y-188.5
X256.56Y-165.5
X257.09Y-97.7
X257.36Y-124.18
X262.81Y-226.93
X263.18Y-188.5
X264.18Y-165.5
X264.71Y-97.7
X264.98Y-124.18
X267.614Y-258.312
X275.234Y-258.312
X276.98Y-173.5
X277.57Y-222.93
X278.234Y-235.312
X280.0Y-97.7
X280.0Y-125.18
X284.6Y-173.5
X285.19Y-222.93
X285.854Y-235.312
X286.234Y-268.312
X287.62Y-97.7
X287.62Y-125.18
X293.854Y-268.312
X330.78Y-269.88
X334.7Y-96.8
X335.0Y-124.66
X337.1Y-173.3
X337.1Y-222.0
X338.4Y-269.88
X339.16Y-239.4
X342.32Y-96.8
X342.62Y-124.66
X344.72Y-173.3
X344.72Y-222.0
X346.78Y-239.4
X351.78Y-259.4
X359.38Y-124.66
X359.4Y-259.4
X359.48Y-187.3
X360.1Y-164.3
X360.48Y-227.0
X363.7Y-96.8
X367.0Y-124.66
X367.1Y-187.3
X367.72Y-164.3
X368.1Y-227.0
X371.16Y-248.4
X371.32Y-96.8
X378.78Y-248.4
X383.38Y-124.66
X384.1Y-163.3
X384.48Y-187.3
X384.48Y-227.0
X391.0Y-124.66
X391.72Y-163.3
X392.1Y-187.3
X392.1Y-227.0
X392.7Y-96.8
X400.32Y-96.8
X406.38Y-121.66
X408.1Y-161.3
X408.1Y-224.0
X408.1Y-248.0
X408.48Y-185.3
X414.0Y-121.66
X415.72Y-161.3
X415.72Y-224.0
X415.72Y-248.0
X416.1Y-185.3
X420.08Y-96.8
X427.7Y-96.8
X430.38Y-119.66
X431.48Y-182.3
X431.48Y-246.0
X432.1Y-222.0
X432.48Y-159.3
X438.0Y-119.66
X439.1Y-182.3
X439.1Y-246.0
X439.72Y-222.0
X440.1Y-159.3
X449.08Y-96.8
X454.38Y-124.66
X455.1Y-248.0
X455.48Y-185.3
X456.1Y-163.3
X456.1Y-225.0
X456.7Y-96.8
X462.0Y-124.66
X462.72Y-248.0
X463.1Y-185.3
X463.72Y-163.3
X463.72Y-225.0
X478.08Y-96.8
X478.38Y-126.66
X479.1Y-229.0
X479.1Y-254.0
X479.48Y-166.3
X479.48Y-190.3
X485.7Y-96.8
X486.0Y-126.66
X486.72Y-229.0
X486.72Y-254.0
X487.1Y-166.3
X487.1Y-190.3
X503.48Y-253.0
X506.7Y-96.8
X507.38Y-126.66
X508.1Y-190.3
X508.1Y-229.0
X508.48Y-165.3
X511.1Y-253.0
X514.32Y-96.8
X515.0Y-126.66
X515.72Y-190.3
X515.72Y-229.0
X516.1Y-165.3
T5
X110.0Y-48.0
X112.54Y-48.0
X138.2Y-48.5
X140.74Y-48.5
X167.5Y-48.3
X170.04Y-48.3
X195.3Y-48.5
X197.84Y-48.5
T6
X117.448Y-48.1
X126.975Y-238.145
X127.0Y-220.0
X127.065Y-213.095
X136.76Y-174.0
X137.83Y-178.31
X137.83Y-180.85
X143.38Y-115.0
X143.38Y-117.54
X143.43Y-110.18
X145.896Y-48.354
X150.0Y-217.5
X158.78Y-178.27
X158.78Y-180.81
X162.4Y-83.48
X166.04Y-114.46
X166.04Y-117.0
X174.6Y-212.92
X174.852Y-48.1
X182.84Y-173.45
X182.84Y-175.99
X185.71Y-110.08
X185.71Y-112.62
X195.5Y-253.0
X195.578Y-257.463
X198.0Y-211.0
X198.04Y-253.0
X198.118Y-257.463
X200.58Y-253.0
X200.658Y-257.463
X202.538Y-48.608
X202.538Y-53.688
X203.198Y-257.463
X203.9Y-171.31
X203.9Y-173.85
X205.738Y-257.463
X208.278Y-257.463
X208.62Y-107.46
X208.62Y-110.0
X210.818Y-257.463
X213.358Y-257.463
X215.898Y-257.463
X219.8Y-50.2
X222.0Y-213.0
X224.02Y-50.3
X226.16Y-173.68
X226.16Y-176.22
X227.65Y-109.65
X229.1Y-50.3
X232.51Y-50.386
X236.0Y-320.34
X236.0Y-322.88
X236.0Y-325.42
X236.0Y-327.96
X236.0Y-330.5
X236.0Y-333.04
X236.0Y-335.58
X236.0Y-338.12
X236.0Y-340.66
X246.0Y-214.5
X248.99Y-175.87
X248.99Y-178.41
X249.98Y-111.86
X249.98Y-114.4
X253.5Y-349.0
X254.5Y-241.0
X262.0Y-252.0
X266.0Y-234.92
X266.0Y-237.46
X266.0Y-240.0
X270.0Y-216.0
X270.0Y-234.5
X270.816Y-175.36
X270.816Y-177.9
X272.0Y-113.22
X272.0Y-115.76
X272.38Y-349.0
X272.5Y-311.08
X274.5Y-233.5
X274.92Y-349.0
X276.5Y-311.08
X277.46Y-349.0
X278.5Y-270.0
X280.0Y-349.0
X280.5Y-311.01
X282.54Y-349.0
X284.0Y-311.0
X285.08Y-349.0
X287.5Y-310.898
X290.5Y-249.0
X293.0Y-160.42
X293.0Y-162.96
X293.26Y-147.11
X294.0Y-207.554
X294.0Y-213.5
X294.6Y-112.18
X294.6Y-114.72
X326.985Y-86.465
X327.42Y-113.93
X328.0Y-210.0
X328.2Y-162.82
X333.5Y-250.0
X335.5Y-242.0
X338.175Y-309.975
X340.715Y-309.975
X342.436Y-348.5
X343.255Y-309.975
X345.795Y-309.975
X346.5Y-348.5
X347.0Y-271.5
X348.335Y-309.975
X350.31Y-348.5
X350.56Y-112.58
X350.56Y-115.12
X350.875Y-309.975
X351.55Y-161.48
X351.55Y-164.02
X351.92Y-177.95
X352.0Y-213.0
X354.12Y-348.5
X357.93Y-348.5
X358.0Y-235.475
X358.0Y-238.015
X358.0Y-240.555
X371.562Y-347.106
X374.37Y-112.81
X374.37Y-115.35
X375.5Y-218.0
X376.01Y-175.84
X376.01Y-178.38
X388.5Y-320.76
X388.5Y-323.3
X388.5Y-325.84
X388.5Y-328.38
X388.5Y-330.92
X388.5Y-333.46
X388.5Y-336.0
X388.5Y-338.54
X388.5Y-341.08
X389.736Y-50.132
X393.56Y-50.3
X398.21Y-112.59
X398.21Y-115.13
X398.64Y-50.3
X399.85Y-175.74
X399.85Y-178.28
X400.0Y-238.24
X403.0Y-50.0
X405.0Y-253.0
X405.11Y-256.92
X407.54Y-253.0
X407.65Y-256.92
X410.08Y-253.0
X410.19Y-256.92
X412.73Y-256.92
X415.27Y-256.92
X416.01Y-253.35
X417.81Y-256.92
X420.35Y-256.92
X422.04Y-110.25
X422.04Y-112.79
X422.89Y-256.92
X423.39Y-173.59
X423.39Y-176.13
X423.5Y-215.0
X425.43Y-256.92
X429.514Y-50.292
X435.5Y-54.0
X445.87Y-108.07
X445.87Y-110.61
X447.34Y-171.42
X447.34Y-173.96
X447.5Y-214.0
X458.216Y-50.292
X469.67Y-112.82
X469.67Y-115.36
X471.0Y-174.144
X471.0Y-176.684
X471.0Y-216.0
X487.68Y-50.292
X493.67Y-114.9
X493.67Y-117.44
X495.0Y-214.5
X495.0Y-220.0
X496.71Y-178.55
X496.71Y-181.09
X515.366Y-50.546
X524.18Y-178.6
X524.18Y-181.14
X527.0Y-115.19
X527.0Y-117.73
T7
X255.4Y-321.19
X255.4Y-338.97
X255.63Y-327.54
X255.63Y-330.08
X255.63Y-332.62
X257.94Y-321.19
X257.94Y-338.97
X260.48Y-321.19
X260.48Y-338.97
X263.02Y-321.19
X263.02Y-338.97
X265.56Y-321.19
X265.56Y-338.97
X268.1Y-321.19
X268.1Y-338.97
X270.64Y-321.19
X270.64Y-338.97
X273.18Y-321.19
X273.18Y-338.97
X275.72Y-321.19
X275.72Y-338.97
X278.26Y-321.19
X278.26Y-338.97
X280.8Y-321.19
X280.8Y-338.97
X283.34Y-321.19
X283.34Y-338.97
X285.88Y-321.19
X285.88Y-338.97
X288.42Y-321.19
X288.42Y-338.97
X290.96Y-321.19
X290.96Y-338.97
X293.5Y-321.19
X293.5Y-338.97
X296.04Y-321.19
X296.04Y-338.97
X298.58Y-321.19
X298.58Y-338.97
X301.12Y-321.19
X301.12Y-338.97
X303.66Y-321.19
X303.66Y-338.97
X320.37Y-320.885
X320.37Y-338.665
X322.91Y-320.885
X322.91Y-338.665
X325.45Y-320.885
X325.45Y-338.665
X327.99Y-320.885
X327.99Y-338.665
X330.53Y-320.885
X330.53Y-338.665
X333.07Y-320.885
X333.07Y-338.665
X335.61Y-320.885
X335.61Y-338.665
X338.15Y-320.885
X338.15Y-338.665
X340.69Y-320.885
X340.69Y-338.665
X343.23Y-320.885
X343.23Y-338.665
X345.77Y-320.885
X345.77Y-338.665
X348.31Y-320.885
X348.31Y-338.665
X350.85Y-320.885
X350.85Y-338.665
X353.39Y-320.885
X353.39Y-338.665
X355.93Y-320.885
X355.93Y-338.665
X358.47Y-320.885
X358.47Y-338.665
X361.01Y-320.885
X361.01Y-338.665
X363.55Y-320.885
X363.55Y-338.665
X366.09Y-320.885
X366.09Y-338.665
X368.4Y-327.235
X368.4Y-329.775
X368.4Y-332.315
X368.63Y-320.885
X368.63Y-338.665
T8
X106.68Y-216.49
X111.48Y-240.39
X113.03Y-213.95
X117.83Y-237.85
X117.92Y-177.26
X118.12Y-153.46
X123.8Y-113.78
X124.27Y-174.72
X124.47Y-150.92
X130.15Y-111.24
X135.18Y-240.29
X135.38Y-216.29
X141.53Y-237.75
X141.73Y-213.75
X145.02Y-153.46
X145.42Y-177.16
X145.86Y-84.36
X150.62Y-113.48
X151.37Y-150.92
X151.77Y-174.62
X152.21Y-81.82
X156.97Y-110.94
X159.08Y-211.69
X159.18Y-235.49
X165.43Y-209.15
X165.53Y-232.95
X166.96Y-148.76
X167.16Y-172.46
X168.15Y-84.04
X171.73Y-108.64
X173.31Y-146.22
X173.51Y-169.92
X174.5Y-81.5
X178.08Y-106.1
X182.88Y-209.19
X182.88Y-233.19
X188.94Y-170.06
X189.04Y-146.16
X189.23Y-206.65
X189.23Y-230.65
X190.73Y-84.16
X193.33Y-106.04
X195.29Y-167.52
X195.39Y-143.62
X197.08Y-81.62
X199.68Y-103.5
X206.78Y-211.79
X206.88Y-235.59
X210.74Y-172.46
X210.94Y-148.66
X213.01Y-84.06
X213.13Y-209.25
X213.23Y-233.05
X214.91Y-108.54
X217.09Y-169.92
X217.29Y-146.12
X219.36Y-81.52
X221.26Y-106.0
X230.38Y-214.09
X233.63Y-174.76
X233.83Y-150.96
X235.49Y-83.96
X236.09Y-110.74
X236.73Y-211.55
X239.98Y-172.22
X240.18Y-148.42
X241.84Y-81.42
X242.44Y-108.2
X243.044Y-252.127
X249.814Y-253.103
X254.48Y-214.09
X255.65Y-174.86
X255.75Y-150.96
X257.19Y-83.96
X257.27Y-110.84
X260.83Y-211.55
X262.0Y-172.32
X262.1Y-148.42
X263.54Y-81.42
X263.62Y-108.3
X263.744Y-263.927
X270.514Y-264.903
X275.544Y-243.327
X276.34Y-160.42
X277.15Y-209.11
X278.88Y-166.77
X278.99Y-83.86
X278.99Y-110.84
X279.69Y-215.46
X282.314Y-244.303
X284.344Y-276.027
X285.34Y-81.32
X285.34Y-108.3
X291.114Y-277.003
X334.43Y-281.705
X334.47Y-84.1
X334.92Y-160.46
X334.97Y-111.46
X335.02Y-209.46
X337.46Y-166.81
X337.56Y-215.81
X338.66Y-276.331
X340.82Y-81.56
X341.32Y-108.92
X343.03Y-249.135
X347.26Y-243.76
X355.13Y-269.865
X358.87Y-111.36
X359.36Y-264.491
X359.87Y-174.8
X360.07Y-214.2
X360.17Y-151.0
X363.27Y-84.0
X365.22Y-108.82
X366.22Y-172.26
X366.42Y-211.66
X366.52Y-148.46
X369.62Y-81.46
X375.73Y-257.865
X379.96Y-252.491
X382.67Y-111.56
X383.77Y-150.9
X383.87Y-174.7
X383.87Y-214.0
X389.02Y-109.02
X390.12Y-148.36
X390.22Y-172.16
X390.22Y-211.46
X391.87Y-84.1
X398.22Y-81.56
X406.57Y-109.16
X407.57Y-211.9
X407.67Y-235.7
X407.77Y-148.5
X407.77Y-172.5
X412.92Y-106.62
X413.92Y-209.36
X414.02Y-233.16
X414.12Y-145.96
X414.12Y-169.96
X420.41Y-84.12
X426.76Y-81.58
X430.17Y-106.86
X431.43Y-209.42
X431.47Y-170.1
X431.57Y-146.3
X431.57Y-233.1
X436.52Y-104.32
X437.78Y-206.88
X437.82Y-167.56
X437.92Y-143.76
X437.92Y-230.56
X449.07Y-84.2
X454.27Y-111.46
X455.07Y-235.8
X455.27Y-150.9
X455.37Y-172.4
X455.42Y-81.66
X455.67Y-212.0
X460.62Y-108.92
X461.42Y-233.26
X461.62Y-148.36
X461.72Y-169.86
X462.02Y-209.46
X477.67Y-84.0
X477.87Y-113.96
X478.87Y-177.1
X478.87Y-240.6
X478.97Y-216.5
X479.17Y-153.4
X484.02Y-81.46
X484.22Y-111.42
X485.22Y-174.56
X485.22Y-238.06
X485.32Y-213.96
X485.52Y-150.86
X502.77Y-240.7
X506.37Y-84.1
X506.57Y-113.86
X507.57Y-177.2
X507.67Y-153.3
X507.87Y-216.6
X509.12Y-238.16
X512.72Y-81.56
X512.92Y-111.32
X513.92Y-174.66
X514.02Y-150.76
X514.22Y-214.06
T9
X91.0Y-219.0
X91.0Y-244.0
X91.2Y-115.4
X91.5Y-47.5
X91.5Y-87.0
X91.5Y-154.5
X91.5Y-179.5
X238.5Y-311.08
X246.1Y-232.1
X260.3Y-245.7
X281.5Y-363.5
X289.8Y-261.7
X295.5Y-311.08
X303.4Y-86.5
X303.5Y-47.5
X303.6Y-113.7
X304.0Y-211.0
X304.5Y-154.5
X304.5Y-179.5
X319.0Y-87.0
X319.0Y-179.5
X319.3Y-113.7
X319.5Y-154.5
X319.5Y-211.5
X320.5Y-47.5
X329.5Y-310.0
X335.58Y-262.0
X345.0Y-363.08
X364.28Y-245.9
X376.0Y-231.5
X384.5Y-310.0
X532.5Y-219.0
X532.5Y-244.0
X533.0Y-48.0
X533.0Y-86.5
X533.0Y-114.0
X533.0Y-154.5
X533.0Y-179.5
T4
G00X290.7Y-362.55
M15
G01X290.7Y-362.05
M16
G05
G00X291.15Y-364.6
M15
G01X290.65Y-364.6
M16
G05
G00X294.25Y-359.4
M15
G01X293.75Y-359.4
M16
G05
G00X296.75Y-357.5
M15
G01X296.25Y-357.5
M16
G05
G00X299.25Y-358.5
M15
G01X298.75Y-358.5
M16
G05
G00X299.25Y-368.1
M15
G01X298.75Y-368.1
M16
G05
G00X326.45Y-357.0
M15
G01X326.95Y-357.0
M16
G05
G00X326.45Y-366.6
M15
G01X326.95Y-366.6
M16
G05
G00X328.95Y-367.6
M15
G01X329.45Y-367.6
M16
G05
G00X331.45Y-365.7
M15
G01X331.95Y-365.7
M16
G05
G00X334.55Y-360.5
M15
G01X335.05Y-360.5
M16
G05
G00X335.0Y-362.55
M15
G01X335.0Y-363.05
M16
G05
T0
M30
