%TF.GenerationSoftware,KiCad,Pcbnew,6.0.10-86aedd382b~118~ubuntu22.04.1*%
%TF.CreationDate,2022-12-24T14:29:54+01:00*%
%TF.ProjectId,Europe-flex,4575726f-7065-42d6-966c-65782e6b6963,rev?*%
%TF.SameCoordinates,Original*%
%TF.FileFunction,Drillmap*%
%TF.FilePolarity,Positive*%
%FSLAX45Y45*%
G04 Gerber Fmt 4.5, Leading zero omitted, Abs format (unit mm)*
G04 Created by KiCad (PCBNEW 6.0.10-86aedd382b~118~ubuntu22.04.1) date 2022-12-24 14:29:54*
%MOMM*%
%LPD*%
G01*
G04 APERTURE LIST*
%ADD10C,0.100000*%
%ADD11C,0.200000*%
%ADD12C,0.110000*%
%ADD13C,0.150000*%
%ADD14C,0.170000*%
%ADD15C,0.180000*%
%ADD16C,0.400000*%
G04 APERTURE END LIST*
D10*
X32432500Y-37061000D02*
X32430000Y-37400000D01*
X8800000Y-19400000D02*
X30800000Y-19400000D01*
X30800000Y-19400000D02*
X30800000Y-19600000D01*
X30800000Y-19600000D02*
X8800000Y-19600000D01*
X8800000Y-19600000D02*
X8800000Y-19400000D01*
X30094500Y-37173000D02*
X30090000Y-37400000D01*
X40350000Y-26350000D02*
X33400000Y-30100000D01*
X8550000Y-3450000D02*
X31000000Y-3450000D01*
X38950000Y-24050000D02*
X41150000Y-27250000D01*
X40200000Y-26250000D02*
X38900000Y-24100000D01*
X30300000Y-27750000D02*
X28950000Y-30050000D01*
X54295000Y-27250000D02*
X41150000Y-27250000D01*
X21200000Y-27200000D02*
X8550000Y-27200000D01*
X54300000Y-3450000D02*
X54295000Y-27250000D01*
X8550000Y-27200000D02*
X8550000Y-3450000D01*
X41000000Y-27250000D02*
X41000000Y-37400000D01*
X31600000Y-13300000D02*
X53600000Y-13300000D01*
X53600000Y-13300000D02*
X53600000Y-13500000D01*
X53600000Y-13500000D02*
X31600000Y-13500000D01*
X31600000Y-13500000D02*
X31600000Y-13300000D01*
X33550000Y-23200000D02*
X32200000Y-27750000D01*
X30800000Y-22800000D02*
X30800000Y-22850000D01*
X28900000Y-29900000D02*
X30150000Y-27700000D01*
X28900000Y-23100000D02*
X30300000Y-27750000D01*
X33450000Y-29950000D02*
X40200000Y-26250000D01*
X31450000Y-30150000D02*
X40650000Y-30150000D01*
X40650000Y-30150000D02*
X40650000Y-30450000D01*
X40650000Y-30450000D02*
X31450000Y-30450000D01*
X31450000Y-30450000D02*
X31450000Y-30150000D01*
X22950000Y-30150000D02*
X30900000Y-30150000D01*
X30900000Y-30150000D02*
X30900000Y-30450000D01*
X30900000Y-30450000D02*
X22950000Y-30450000D01*
X22950000Y-30450000D02*
X22950000Y-30150000D01*
X28950000Y-30050000D02*
X22000000Y-26300000D01*
X38900000Y-24100000D02*
X35000000Y-22900000D01*
X33400000Y-30100000D02*
X32050000Y-27800000D01*
X31100000Y-4000000D02*
X31300000Y-4000000D01*
X31300000Y-4000000D02*
X31300000Y-34200000D01*
X31300000Y-34200000D02*
X31100000Y-34200000D01*
X31100000Y-34200000D02*
X31100000Y-4000000D01*
X32200000Y-27750000D02*
X33450000Y-29950000D01*
X23450000Y-24050000D02*
X22150000Y-26200000D01*
X30150000Y-27700000D02*
X28800000Y-23150000D01*
X35000000Y-22850000D02*
X37250000Y-23550000D01*
X27350000Y-22850000D02*
X23450000Y-24050000D01*
X31550000Y-22850000D02*
X35000000Y-22850000D01*
X22600000Y-37400000D02*
X22600000Y-27200000D01*
X22000000Y-26300000D02*
X21350000Y-27200000D01*
X31000000Y-3450000D02*
X54300000Y-3450000D01*
X32050000Y-27800000D02*
X33450000Y-23150000D01*
X37250000Y-23550000D02*
X38950000Y-24050000D01*
X23400000Y-24000000D02*
X25100000Y-23500000D01*
X32432000Y-34700000D02*
X32432500Y-35341000D01*
X33450000Y-23150000D02*
X33550000Y-23200000D01*
X30100000Y-34700000D02*
X32432000Y-34700000D01*
X25100000Y-23500000D02*
X27350000Y-22800000D01*
X41000000Y-37400000D02*
X32430000Y-37400000D01*
X27350000Y-22800000D02*
X30800000Y-22800000D01*
X22600000Y-27200000D02*
X21350000Y-27200000D01*
X30094500Y-35453000D02*
X30100000Y-34700000D01*
X31550000Y-19400000D02*
X53550000Y-19400000D01*
X53550000Y-19400000D02*
X53550000Y-19600000D01*
X53550000Y-19600000D02*
X31550000Y-19600000D01*
X31550000Y-19600000D02*
X31550000Y-19400000D01*
X22150000Y-26200000D02*
X28900000Y-29900000D01*
X30090000Y-37400000D02*
X22600000Y-37400000D01*
X35000000Y-22900000D02*
X31550000Y-22900000D01*
X31550000Y-6000000D02*
X53550000Y-6000000D01*
X53550000Y-6000000D02*
X53550000Y-6200000D01*
X53550000Y-6200000D02*
X31550000Y-6200000D01*
X31550000Y-6200000D02*
X31550000Y-6000000D01*
X41000000Y-27250000D02*
X40350000Y-26350000D01*
X21200000Y-27200000D02*
X23400000Y-24000000D01*
X8800000Y-6000000D02*
X30800000Y-6000000D01*
X30800000Y-6000000D02*
X30800000Y-6200000D01*
X30800000Y-6200000D02*
X8800000Y-6200000D01*
X8800000Y-6200000D02*
X8800000Y-6000000D01*
X31550000Y-22900000D02*
X31550000Y-22850000D01*
X8700000Y-13300000D02*
X30700000Y-13300000D01*
X30700000Y-13300000D02*
X30700000Y-13500000D01*
X30700000Y-13500000D02*
X8700000Y-13500000D01*
X8700000Y-13500000D02*
X8700000Y-13300000D01*
X30800000Y-22850000D02*
X27350000Y-22850000D01*
X28800000Y-23150000D02*
X28900000Y-23100000D01*
D11*
D12*
X29249500Y-36233000D02*
X29359500Y-36343000D01*
X29359500Y-36233000D02*
X29249500Y-36343000D01*
X29749500Y-36233000D02*
X29859500Y-36343000D01*
X29859500Y-36233000D02*
X29749500Y-36343000D01*
X32667500Y-36171000D02*
X32777500Y-36281000D01*
X32777500Y-36171000D02*
X32667500Y-36281000D01*
X33167500Y-36171000D02*
X33277500Y-36281000D01*
X33277500Y-36171000D02*
X33167500Y-36281000D01*
D13*
X29422000Y-32765500D02*
G75*
G03*
X29422000Y-32765500I-75000J0D01*
G01*
X29422000Y-33250500D02*
G75*
G03*
X29422000Y-33250500I-75000J0D01*
G01*
X33228000Y-32765500D02*
G75*
G03*
X33228000Y-32765500I-75000J0D01*
G01*
X33228000Y-33250500D02*
G75*
G03*
X33228000Y-33250500I-75000J0D01*
G01*
D14*
X10492000Y-17895000D02*
X10492000Y-18065000D01*
X10407000Y-17980000D02*
X10577000Y-17980000D01*
X10512000Y-15515000D02*
X10512000Y-15685000D01*
X10427000Y-15600000D02*
X10597000Y-15600000D01*
X10541000Y-21818000D02*
X10541000Y-21988000D01*
X10456000Y-21903000D02*
X10626000Y-21903000D01*
X10612000Y-8545000D02*
X10612000Y-8715000D01*
X10527000Y-8630000D02*
X10697000Y-8630000D01*
X10632000Y-11493000D02*
X10632000Y-11663000D01*
X10547000Y-11578000D02*
X10717000Y-11578000D01*
X11021000Y-24208000D02*
X11021000Y-24378000D01*
X10936000Y-24293000D02*
X11106000Y-24293000D01*
X11508000Y-17895000D02*
X11508000Y-18065000D01*
X11423000Y-17980000D02*
X11593000Y-17980000D01*
X11528000Y-15515000D02*
X11528000Y-15685000D01*
X11443000Y-15600000D02*
X11613000Y-15600000D01*
X11557000Y-21818000D02*
X11557000Y-21988000D01*
X11472000Y-21903000D02*
X11642000Y-21903000D01*
X11628000Y-8545000D02*
X11628000Y-8715000D01*
X11543000Y-8630000D02*
X11713000Y-8630000D01*
X11648000Y-11493000D02*
X11648000Y-11663000D01*
X11563000Y-11578000D02*
X11733000Y-11578000D01*
X12037000Y-24208000D02*
X12037000Y-24378000D01*
X11952000Y-24293000D02*
X12122000Y-24293000D01*
X13342000Y-15515000D02*
X13342000Y-15685000D01*
X13257000Y-15600000D02*
X13427000Y-15600000D01*
X13382000Y-17885000D02*
X13382000Y-18055000D01*
X13297000Y-17970000D02*
X13467000Y-17970000D01*
X13391000Y-24198000D02*
X13391000Y-24368000D01*
X13306000Y-24283000D02*
X13476000Y-24283000D01*
X13411000Y-21798000D02*
X13411000Y-21968000D01*
X13326000Y-21883000D02*
X13496000Y-21883000D01*
X13472000Y-8555000D02*
X13472000Y-8725000D01*
X13387000Y-8640000D02*
X13557000Y-8640000D01*
X13492000Y-11513000D02*
X13492000Y-11683000D01*
X13407000Y-11598000D02*
X13577000Y-11598000D01*
X14358000Y-15515000D02*
X14358000Y-15685000D01*
X14273000Y-15600000D02*
X14443000Y-15600000D01*
X14398000Y-17885000D02*
X14398000Y-18055000D01*
X14313000Y-17970000D02*
X14483000Y-17970000D01*
X14407000Y-24198000D02*
X14407000Y-24368000D01*
X14322000Y-24283000D02*
X14492000Y-24283000D01*
X14427000Y-21798000D02*
X14427000Y-21968000D01*
X14342000Y-21883000D02*
X14512000Y-21883000D01*
X14488000Y-8555000D02*
X14488000Y-8725000D01*
X14403000Y-8640000D02*
X14573000Y-8640000D01*
X14508000Y-11513000D02*
X14508000Y-11683000D01*
X14423000Y-11598000D02*
X14593000Y-11598000D01*
X15722000Y-15045000D02*
X15722000Y-15215000D01*
X15637000Y-15130000D02*
X15807000Y-15130000D01*
X15742000Y-17415000D02*
X15742000Y-17585000D01*
X15657000Y-17500000D02*
X15827000Y-17500000D01*
X15781000Y-21338000D02*
X15781000Y-21508000D01*
X15696000Y-21423000D02*
X15866000Y-21423000D01*
X15791000Y-23718000D02*
X15791000Y-23888000D01*
X15706000Y-23803000D02*
X15876000Y-23803000D01*
X15892000Y-11033000D02*
X15892000Y-11203000D01*
X15807000Y-11118000D02*
X15977000Y-11118000D01*
X16352000Y-8555000D02*
X16352000Y-8725000D01*
X16267000Y-8640000D02*
X16437000Y-8640000D01*
X16738000Y-15045000D02*
X16738000Y-15215000D01*
X16653000Y-15130000D02*
X16823000Y-15130000D01*
X16758000Y-17415000D02*
X16758000Y-17585000D01*
X16673000Y-17500000D02*
X16843000Y-17500000D01*
X16797000Y-21338000D02*
X16797000Y-21508000D01*
X16712000Y-21423000D02*
X16882000Y-21423000D01*
X16807000Y-23718000D02*
X16807000Y-23888000D01*
X16722000Y-23803000D02*
X16892000Y-23803000D01*
X16908000Y-11033000D02*
X16908000Y-11203000D01*
X16823000Y-11118000D02*
X16993000Y-11118000D01*
X17368000Y-8555000D02*
X17368000Y-8725000D01*
X17283000Y-8640000D02*
X17453000Y-8640000D01*
X18102000Y-17175000D02*
X18102000Y-17345000D01*
X18017000Y-17260000D02*
X18187000Y-17260000D01*
X18112000Y-14785000D02*
X18112000Y-14955000D01*
X18027000Y-14870000D02*
X18197000Y-14870000D01*
X18161000Y-21088000D02*
X18161000Y-21258000D01*
X18076000Y-21173000D02*
X18246000Y-21173000D01*
X18161000Y-23488000D02*
X18161000Y-23658000D01*
X18076000Y-23573000D02*
X18246000Y-23573000D01*
X18252000Y-10773000D02*
X18252000Y-10943000D01*
X18167000Y-10858000D02*
X18337000Y-10858000D01*
X19118000Y-17175000D02*
X19118000Y-17345000D01*
X19033000Y-17260000D02*
X19203000Y-17260000D01*
X19128000Y-14785000D02*
X19128000Y-14955000D01*
X19043000Y-14870000D02*
X19213000Y-14870000D01*
X19177000Y-21088000D02*
X19177000Y-21258000D01*
X19092000Y-21173000D02*
X19262000Y-21173000D01*
X19177000Y-23488000D02*
X19177000Y-23658000D01*
X19092000Y-23573000D02*
X19262000Y-23573000D01*
X19212000Y-8545000D02*
X19212000Y-8715000D01*
X19127000Y-8630000D02*
X19297000Y-8630000D01*
X19268000Y-10773000D02*
X19268000Y-10943000D01*
X19183000Y-10858000D02*
X19353000Y-10858000D01*
X20228000Y-8545000D02*
X20228000Y-8715000D01*
X20143000Y-8630000D02*
X20313000Y-8630000D01*
X20472000Y-17415000D02*
X20472000Y-17585000D01*
X20387000Y-17500000D02*
X20557000Y-17500000D01*
X20492000Y-15035000D02*
X20492000Y-15205000D01*
X20407000Y-15120000D02*
X20577000Y-15120000D01*
X20551000Y-21348000D02*
X20551000Y-21518000D01*
X20466000Y-21433000D02*
X20636000Y-21433000D01*
X20561000Y-23728000D02*
X20561000Y-23898000D01*
X20476000Y-23813000D02*
X20646000Y-23813000D01*
X20642000Y-11023000D02*
X20642000Y-11193000D01*
X20557000Y-11108000D02*
X20727000Y-11108000D01*
X21488000Y-17415000D02*
X21488000Y-17585000D01*
X21403000Y-17500000D02*
X21573000Y-17500000D01*
X21508000Y-15035000D02*
X21508000Y-15205000D01*
X21423000Y-15120000D02*
X21593000Y-15120000D01*
X21567000Y-21348000D02*
X21567000Y-21518000D01*
X21482000Y-21433000D02*
X21652000Y-21433000D01*
X21577000Y-23728000D02*
X21577000Y-23898000D01*
X21492000Y-23813000D02*
X21662000Y-23813000D01*
X21658000Y-11023000D02*
X21658000Y-11193000D01*
X21573000Y-11108000D02*
X21743000Y-11108000D01*
X22082000Y-8535000D02*
X22082000Y-8705000D01*
X21997000Y-8620000D02*
X22167000Y-8620000D01*
X22862000Y-17645000D02*
X22862000Y-17815000D01*
X22777000Y-17730000D02*
X22947000Y-17730000D01*
X22882000Y-15265000D02*
X22882000Y-15435000D01*
X22797000Y-15350000D02*
X22967000Y-15350000D01*
X22911000Y-21578000D02*
X22911000Y-21748000D01*
X22826000Y-21663000D02*
X22996000Y-21663000D01*
X23002000Y-11243000D02*
X23002000Y-11413000D01*
X22917000Y-11328000D02*
X23087000Y-11328000D01*
X23098000Y-8535000D02*
X23098000Y-8705000D01*
X23013000Y-8620000D02*
X23183000Y-8620000D01*
X23878000Y-17645000D02*
X23878000Y-17815000D01*
X23793000Y-17730000D02*
X23963000Y-17730000D01*
X23898000Y-15265000D02*
X23898000Y-15435000D01*
X23813000Y-15350000D02*
X23983000Y-15350000D01*
X23927000Y-21578000D02*
X23927000Y-21748000D01*
X23842000Y-21663000D02*
X24012000Y-21663000D01*
X24018000Y-11243000D02*
X24018000Y-11413000D01*
X23933000Y-11328000D02*
X24103000Y-11328000D01*
X24067459Y-25284201D02*
X24067459Y-25454201D01*
X23982459Y-25369201D02*
X24152459Y-25369201D01*
X24902000Y-8565000D02*
X24902000Y-8735000D01*
X24817000Y-8650000D02*
X24987000Y-8650000D01*
X24947340Y-25792201D02*
X24947340Y-25962201D01*
X24862340Y-25877201D02*
X25032340Y-25877201D01*
X25242000Y-17655000D02*
X25242000Y-17825000D01*
X25157000Y-17740000D02*
X25327000Y-17740000D01*
X25252000Y-15265000D02*
X25252000Y-15435000D01*
X25167000Y-15350000D02*
X25337000Y-15350000D01*
X25321000Y-21578000D02*
X25321000Y-21748000D01*
X25236000Y-21663000D02*
X25406000Y-21663000D01*
X25402000Y-11253000D02*
X25402000Y-11423000D01*
X25317000Y-11338000D02*
X25487000Y-11338000D01*
X25918000Y-8565000D02*
X25918000Y-8735000D01*
X25833000Y-8650000D02*
X26003000Y-8650000D01*
X26137459Y-26464201D02*
X26137459Y-26634201D01*
X26052459Y-26549201D02*
X26222459Y-26549201D01*
X26258000Y-17655000D02*
X26258000Y-17825000D01*
X26173000Y-17740000D02*
X26343000Y-17740000D01*
X26268000Y-15265000D02*
X26268000Y-15435000D01*
X26183000Y-15350000D02*
X26353000Y-15350000D01*
X26337000Y-21578000D02*
X26337000Y-21748000D01*
X26252000Y-21663000D02*
X26422000Y-21663000D01*
X26418000Y-11253000D02*
X26418000Y-11423000D01*
X26333000Y-11338000D02*
X26503000Y-11338000D01*
X27017340Y-26972201D02*
X27017340Y-27142201D01*
X26932340Y-27057201D02*
X27102340Y-27057201D01*
X27317459Y-24404201D02*
X27317459Y-24574201D01*
X27232459Y-24489201D02*
X27402459Y-24489201D01*
X27772000Y-8555000D02*
X27772000Y-8725000D01*
X27687000Y-8640000D02*
X27857000Y-8640000D01*
X27772000Y-11253000D02*
X27772000Y-11423000D01*
X27687000Y-11338000D02*
X27857000Y-11338000D01*
X28142000Y-15703000D02*
X28142000Y-15873000D01*
X28057000Y-15788000D02*
X28227000Y-15788000D01*
X28142000Y-16719000D02*
X28142000Y-16889000D01*
X28057000Y-16804000D02*
X28227000Y-16804000D01*
X28197340Y-24912201D02*
X28197340Y-25082201D01*
X28112340Y-24997201D02*
X28282340Y-24997201D01*
X28197459Y-27674201D02*
X28197459Y-27844201D01*
X28112459Y-27759201D02*
X28282459Y-27759201D01*
X28223000Y-20572000D02*
X28223000Y-20742000D01*
X28138000Y-20657000D02*
X28308000Y-20657000D01*
X28223000Y-21588000D02*
X28223000Y-21758000D01*
X28138000Y-21673000D02*
X28308000Y-21673000D01*
X28788000Y-8555000D02*
X28788000Y-8725000D01*
X28703000Y-8640000D02*
X28873000Y-8640000D01*
X28788000Y-11253000D02*
X28788000Y-11423000D01*
X28703000Y-11338000D02*
X28873000Y-11338000D01*
X29077340Y-28182201D02*
X29077340Y-28352201D01*
X28992340Y-28267201D02*
X29162340Y-28267201D01*
X33320000Y-8579000D02*
X33320000Y-8749000D01*
X33235000Y-8664000D02*
X33405000Y-8664000D01*
X33370000Y-11315000D02*
X33370000Y-11485000D01*
X33285000Y-11400000D02*
X33455000Y-11400000D01*
X33460059Y-28369001D02*
X33460059Y-28539001D01*
X33375059Y-28454001D02*
X33545059Y-28454001D01*
X34000000Y-15707000D02*
X34000000Y-15877000D01*
X33915000Y-15792000D02*
X34085000Y-15792000D01*
X34000000Y-16723000D02*
X34000000Y-16893000D01*
X33915000Y-16808000D02*
X34085000Y-16808000D01*
X34010000Y-20607000D02*
X34010000Y-20777000D01*
X33925000Y-20692000D02*
X34095000Y-20692000D01*
X34010000Y-21623000D02*
X34010000Y-21793000D01*
X33925000Y-21708000D02*
X34095000Y-21708000D01*
X34320059Y-25111941D02*
X34320059Y-25281941D01*
X34235059Y-25196941D02*
X34405059Y-25196941D01*
X34336000Y-8579000D02*
X34336000Y-8749000D01*
X34251000Y-8664000D02*
X34421000Y-8664000D01*
X34339941Y-27861001D02*
X34339941Y-28031001D01*
X34254941Y-27946001D02*
X34424941Y-27946001D01*
X34386000Y-11315000D02*
X34386000Y-11485000D01*
X34301000Y-11400000D02*
X34471000Y-11400000D01*
X35199941Y-24603941D02*
X35199941Y-24773941D01*
X35114941Y-24688941D02*
X35284941Y-24688941D01*
X35530059Y-27185001D02*
X35530059Y-27355001D01*
X35445059Y-27270001D02*
X35615059Y-27270001D01*
X35760000Y-11305000D02*
X35760000Y-11475000D01*
X35675000Y-11390000D02*
X35845000Y-11390000D01*
X35860000Y-17649000D02*
X35860000Y-17819000D01*
X35775000Y-17734000D02*
X35945000Y-17734000D01*
X35880000Y-21589000D02*
X35880000Y-21759000D01*
X35795000Y-21674000D02*
X35965000Y-21674000D01*
X35890000Y-15269000D02*
X35890000Y-15439000D01*
X35805000Y-15354000D02*
X35975000Y-15354000D01*
X36200000Y-8569000D02*
X36200000Y-8739000D01*
X36115000Y-8654000D02*
X36285000Y-8654000D01*
X36409941Y-26677001D02*
X36409941Y-26847001D01*
X36324941Y-26762001D02*
X36494941Y-26762001D01*
X36776000Y-11305000D02*
X36776000Y-11475000D01*
X36691000Y-11390000D02*
X36861000Y-11390000D01*
X36876000Y-17649000D02*
X36876000Y-17819000D01*
X36791000Y-17734000D02*
X36961000Y-17734000D01*
X36896000Y-21589000D02*
X36896000Y-21759000D01*
X36811000Y-21674000D02*
X36981000Y-21674000D01*
X36906000Y-15269000D02*
X36906000Y-15439000D01*
X36821000Y-15354000D02*
X36991000Y-15354000D01*
X37216000Y-8569000D02*
X37216000Y-8739000D01*
X37131000Y-8654000D02*
X37301000Y-8654000D01*
X37590059Y-25985001D02*
X37590059Y-26155001D01*
X37505059Y-26070001D02*
X37675059Y-26070001D01*
X38140000Y-11325000D02*
X38140000Y-11495000D01*
X38055000Y-11410000D02*
X38225000Y-11410000D01*
X38250000Y-15259000D02*
X38250000Y-15429000D01*
X38165000Y-15344000D02*
X38335000Y-15344000D01*
X38260000Y-17639000D02*
X38260000Y-17809000D01*
X38175000Y-17724000D02*
X38345000Y-17724000D01*
X38260000Y-21569000D02*
X38260000Y-21739000D01*
X38175000Y-21654000D02*
X38345000Y-21654000D01*
X38469941Y-25477001D02*
X38469941Y-25647001D01*
X38384941Y-25562001D02*
X38554941Y-25562001D01*
X39060000Y-8579000D02*
X39060000Y-8749000D01*
X38975000Y-8664000D02*
X39145000Y-8664000D01*
X39156000Y-11325000D02*
X39156000Y-11495000D01*
X39071000Y-11410000D02*
X39241000Y-11410000D01*
X39266000Y-15259000D02*
X39266000Y-15429000D01*
X39181000Y-15344000D02*
X39351000Y-15344000D01*
X39276000Y-17639000D02*
X39276000Y-17809000D01*
X39191000Y-17724000D02*
X39361000Y-17724000D01*
X39276000Y-21569000D02*
X39276000Y-21739000D01*
X39191000Y-21654000D02*
X39361000Y-21654000D01*
X40076000Y-8579000D02*
X40076000Y-8749000D01*
X39991000Y-8664000D02*
X40161000Y-8664000D01*
X40530000Y-11085000D02*
X40530000Y-11255000D01*
X40445000Y-11170000D02*
X40615000Y-11170000D01*
X40630000Y-21359000D02*
X40630000Y-21529000D01*
X40545000Y-21444000D02*
X40715000Y-21444000D01*
X40640000Y-23739000D02*
X40640000Y-23909000D01*
X40555000Y-23824000D02*
X40725000Y-23824000D01*
X40650000Y-15019000D02*
X40650000Y-15189000D01*
X40565000Y-15104000D02*
X40735000Y-15104000D01*
X40650000Y-17419000D02*
X40650000Y-17589000D01*
X40565000Y-17504000D02*
X40735000Y-17504000D01*
X41546000Y-11085000D02*
X41546000Y-11255000D01*
X41461000Y-11170000D02*
X41631000Y-11170000D01*
X41646000Y-21359000D02*
X41646000Y-21529000D01*
X41561000Y-21444000D02*
X41731000Y-21444000D01*
X41656000Y-23739000D02*
X41656000Y-23909000D01*
X41571000Y-23824000D02*
X41741000Y-23824000D01*
X41666000Y-15019000D02*
X41666000Y-15189000D01*
X41581000Y-15104000D02*
X41751000Y-15104000D01*
X41666000Y-17419000D02*
X41666000Y-17589000D01*
X41581000Y-17504000D02*
X41751000Y-17504000D01*
X41914000Y-8581000D02*
X41914000Y-8751000D01*
X41829000Y-8666000D02*
X41999000Y-8666000D01*
X42890000Y-10855000D02*
X42890000Y-11025000D01*
X42805000Y-10940000D02*
X42975000Y-10940000D01*
X42930000Y-8581000D02*
X42930000Y-8751000D01*
X42845000Y-8666000D02*
X43015000Y-8666000D01*
X43016000Y-21111000D02*
X43016000Y-21281000D01*
X42931000Y-21196000D02*
X43101000Y-21196000D01*
X43020000Y-17179000D02*
X43020000Y-17349000D01*
X42935000Y-17264000D02*
X43105000Y-17264000D01*
X43030000Y-14799000D02*
X43030000Y-14969000D01*
X42945000Y-14884000D02*
X43115000Y-14884000D01*
X43030000Y-23479000D02*
X43030000Y-23649000D01*
X42945000Y-23564000D02*
X43115000Y-23564000D01*
X43906000Y-10855000D02*
X43906000Y-11025000D01*
X43821000Y-10940000D02*
X43991000Y-10940000D01*
X44032000Y-21111000D02*
X44032000Y-21281000D01*
X43947000Y-21196000D02*
X44117000Y-21196000D01*
X44036000Y-17179000D02*
X44036000Y-17349000D01*
X43951000Y-17264000D02*
X44121000Y-17264000D01*
X44046000Y-14799000D02*
X44046000Y-14969000D01*
X43961000Y-14884000D02*
X44131000Y-14884000D01*
X44046000Y-23479000D02*
X44046000Y-23649000D01*
X43961000Y-23564000D02*
X44131000Y-23564000D01*
X44780000Y-8589000D02*
X44780000Y-8759000D01*
X44695000Y-8674000D02*
X44865000Y-8674000D01*
X45300000Y-11315000D02*
X45300000Y-11485000D01*
X45215000Y-11400000D02*
X45385000Y-11400000D01*
X45380000Y-23749000D02*
X45380000Y-23919000D01*
X45295000Y-23834000D02*
X45465000Y-23834000D01*
X45400000Y-15259000D02*
X45400000Y-15429000D01*
X45315000Y-15344000D02*
X45485000Y-15344000D01*
X45410000Y-17409000D02*
X45410000Y-17579000D01*
X45325000Y-17494000D02*
X45495000Y-17494000D01*
X45440000Y-21369000D02*
X45440000Y-21539000D01*
X45355000Y-21454000D02*
X45525000Y-21454000D01*
X45796000Y-8589000D02*
X45796000Y-8759000D01*
X45711000Y-8674000D02*
X45881000Y-8674000D01*
X46316000Y-11315000D02*
X46316000Y-11485000D01*
X46231000Y-11400000D02*
X46401000Y-11400000D01*
X46396000Y-23749000D02*
X46396000Y-23919000D01*
X46311000Y-23834000D02*
X46481000Y-23834000D01*
X46416000Y-15259000D02*
X46416000Y-15429000D01*
X46331000Y-15344000D02*
X46501000Y-15344000D01*
X46426000Y-17409000D02*
X46426000Y-17579000D01*
X46341000Y-17494000D02*
X46511000Y-17494000D01*
X46456000Y-21369000D02*
X46456000Y-21539000D01*
X46371000Y-21454000D02*
X46541000Y-21454000D01*
X47640000Y-8569000D02*
X47640000Y-8739000D01*
X47555000Y-8654000D02*
X47725000Y-8654000D01*
X47660000Y-11565000D02*
X47660000Y-11735000D01*
X47575000Y-11650000D02*
X47745000Y-11650000D01*
X47760000Y-17879000D02*
X47760000Y-18049000D01*
X47675000Y-17964000D02*
X47845000Y-17964000D01*
X47760000Y-24229000D02*
X47760000Y-24399000D01*
X47675000Y-24314000D02*
X47845000Y-24314000D01*
X47770000Y-21819000D02*
X47770000Y-21989000D01*
X47685000Y-21904000D02*
X47855000Y-21904000D01*
X47790000Y-15509000D02*
X47790000Y-15679000D01*
X47705000Y-15594000D02*
X47875000Y-15594000D01*
X48656000Y-8569000D02*
X48656000Y-8739000D01*
X48571000Y-8654000D02*
X48741000Y-8654000D01*
X48676000Y-11565000D02*
X48676000Y-11735000D01*
X48591000Y-11650000D02*
X48761000Y-11650000D01*
X48776000Y-17879000D02*
X48776000Y-18049000D01*
X48691000Y-17964000D02*
X48861000Y-17964000D01*
X48776000Y-24229000D02*
X48776000Y-24399000D01*
X48691000Y-24314000D02*
X48861000Y-24314000D01*
X48786000Y-21819000D02*
X48786000Y-21989000D01*
X48701000Y-21904000D02*
X48871000Y-21904000D01*
X48806000Y-15509000D02*
X48806000Y-15679000D01*
X48721000Y-15594000D02*
X48891000Y-15594000D01*
X50150000Y-24239000D02*
X50150000Y-24409000D01*
X50065000Y-24324000D02*
X50235000Y-24324000D01*
X50510000Y-8579000D02*
X50510000Y-8749000D01*
X50425000Y-8664000D02*
X50595000Y-8664000D01*
X50530000Y-11555000D02*
X50530000Y-11725000D01*
X50445000Y-11640000D02*
X50615000Y-11640000D01*
X50630000Y-17889000D02*
X50630000Y-18059000D01*
X50545000Y-17974000D02*
X50715000Y-17974000D01*
X50640000Y-15499000D02*
X50640000Y-15669000D01*
X50555000Y-15584000D02*
X50725000Y-15584000D01*
X50660000Y-21829000D02*
X50660000Y-21999000D01*
X50575000Y-21914000D02*
X50745000Y-21914000D01*
X51166000Y-24239000D02*
X51166000Y-24409000D01*
X51081000Y-24324000D02*
X51251000Y-24324000D01*
X51526000Y-8579000D02*
X51526000Y-8749000D01*
X51441000Y-8664000D02*
X51611000Y-8664000D01*
X51546000Y-11555000D02*
X51546000Y-11725000D01*
X51461000Y-11640000D02*
X51631000Y-11640000D01*
X51646000Y-17889000D02*
X51646000Y-18059000D01*
X51561000Y-17974000D02*
X51731000Y-17974000D01*
X51656000Y-15499000D02*
X51656000Y-15669000D01*
X51571000Y-15584000D02*
X51741000Y-15584000D01*
X51676000Y-21829000D02*
X51676000Y-21999000D01*
X51591000Y-21914000D02*
X51761000Y-21914000D01*
D15*
X29713640Y-32799140D02*
X29713640Y-32671860D01*
X29586360Y-32671860D01*
X29586360Y-32799140D01*
X29713640Y-32799140D01*
X29713640Y-33344140D02*
X29713640Y-33216860D01*
X29586360Y-33216860D01*
X29586360Y-33344140D01*
X29713640Y-33344140D01*
X32913640Y-32799140D02*
X32913640Y-32671860D01*
X32786360Y-32671860D01*
X32786360Y-32799140D01*
X32913640Y-32799140D01*
X32913640Y-33344140D02*
X32913640Y-33216860D01*
X32786360Y-33216860D01*
X32786360Y-33344140D01*
X32913640Y-33344140D01*
D16*
X11000000Y-18180000D02*
X11200000Y-17980000D01*
X11000000Y-17780000D01*
X10800000Y-17980000D01*
X11000000Y-18180000D01*
X11020000Y-15800000D02*
X11220000Y-15600000D01*
X11020000Y-15400000D01*
X10820000Y-15600000D01*
X11020000Y-15800000D01*
X11049000Y-22103000D02*
X11249000Y-21903000D01*
X11049000Y-21703000D01*
X10849000Y-21903000D01*
X11049000Y-22103000D01*
X11120000Y-8830000D02*
X11320000Y-8630000D01*
X11120000Y-8430000D01*
X10920000Y-8630000D01*
X11120000Y-8830000D01*
X11140000Y-11778000D02*
X11340000Y-11578000D01*
X11140000Y-11378000D01*
X10940000Y-11578000D01*
X11140000Y-11778000D01*
X11529000Y-24493000D02*
X11729000Y-24293000D01*
X11529000Y-24093000D01*
X11329000Y-24293000D01*
X11529000Y-24493000D01*
X13850000Y-15800000D02*
X14050000Y-15600000D01*
X13850000Y-15400000D01*
X13650000Y-15600000D01*
X13850000Y-15800000D01*
X13890000Y-18170000D02*
X14090000Y-17970000D01*
X13890000Y-17770000D01*
X13690000Y-17970000D01*
X13890000Y-18170000D01*
X13899000Y-24483000D02*
X14099000Y-24283000D01*
X13899000Y-24083000D01*
X13699000Y-24283000D01*
X13899000Y-24483000D01*
X13919000Y-22083000D02*
X14119000Y-21883000D01*
X13919000Y-21683000D01*
X13719000Y-21883000D01*
X13919000Y-22083000D01*
X13980000Y-8840000D02*
X14180000Y-8640000D01*
X13980000Y-8440000D01*
X13780000Y-8640000D01*
X13980000Y-8840000D01*
X14000000Y-11798000D02*
X14200000Y-11598000D01*
X14000000Y-11398000D01*
X13800000Y-11598000D01*
X14000000Y-11798000D01*
X16230000Y-15330000D02*
X16430000Y-15130000D01*
X16230000Y-14930000D01*
X16030000Y-15130000D01*
X16230000Y-15330000D01*
X16250000Y-17700000D02*
X16450000Y-17500000D01*
X16250000Y-17300000D01*
X16050000Y-17500000D01*
X16250000Y-17700000D01*
X16289000Y-21623000D02*
X16489000Y-21423000D01*
X16289000Y-21223000D01*
X16089000Y-21423000D01*
X16289000Y-21623000D01*
X16299000Y-24003000D02*
X16499000Y-23803000D01*
X16299000Y-23603000D01*
X16099000Y-23803000D01*
X16299000Y-24003000D01*
X16400000Y-11318000D02*
X16600000Y-11118000D01*
X16400000Y-10918000D01*
X16200000Y-11118000D01*
X16400000Y-11318000D01*
X16860000Y-8840000D02*
X17060000Y-8640000D01*
X16860000Y-8440000D01*
X16660000Y-8640000D01*
X16860000Y-8840000D01*
X18610000Y-17460000D02*
X18810000Y-17260000D01*
X18610000Y-17060000D01*
X18410000Y-17260000D01*
X18610000Y-17460000D01*
X18620000Y-15070000D02*
X18820000Y-14870000D01*
X18620000Y-14670000D01*
X18420000Y-14870000D01*
X18620000Y-15070000D01*
X18669000Y-21373000D02*
X18869000Y-21173000D01*
X18669000Y-20973000D01*
X18469000Y-21173000D01*
X18669000Y-21373000D01*
X18669000Y-23773000D02*
X18869000Y-23573000D01*
X18669000Y-23373000D01*
X18469000Y-23573000D01*
X18669000Y-23773000D01*
X18760000Y-11058000D02*
X18960000Y-10858000D01*
X18760000Y-10658000D01*
X18560000Y-10858000D01*
X18760000Y-11058000D01*
X19720000Y-8830000D02*
X19920000Y-8630000D01*
X19720000Y-8430000D01*
X19520000Y-8630000D01*
X19720000Y-8830000D01*
X20980000Y-17700000D02*
X21180000Y-17500000D01*
X20980000Y-17300000D01*
X20780000Y-17500000D01*
X20980000Y-17700000D01*
X21000000Y-15320000D02*
X21200000Y-15120000D01*
X21000000Y-14920000D01*
X20800000Y-15120000D01*
X21000000Y-15320000D01*
X21059000Y-21633000D02*
X21259000Y-21433000D01*
X21059000Y-21233000D01*
X20859000Y-21433000D01*
X21059000Y-21633000D01*
X21069000Y-24013000D02*
X21269000Y-23813000D01*
X21069000Y-23613000D01*
X20869000Y-23813000D01*
X21069000Y-24013000D01*
X21150000Y-11308000D02*
X21350000Y-11108000D01*
X21150000Y-10908000D01*
X20950000Y-11108000D01*
X21150000Y-11308000D01*
X22590000Y-8820000D02*
X22790000Y-8620000D01*
X22590000Y-8420000D01*
X22390000Y-8620000D01*
X22590000Y-8820000D01*
X23370000Y-17930000D02*
X23570000Y-17730000D01*
X23370000Y-17530000D01*
X23170000Y-17730000D01*
X23370000Y-17930000D01*
X23390000Y-15550000D02*
X23590000Y-15350000D01*
X23390000Y-15150000D01*
X23190000Y-15350000D01*
X23390000Y-15550000D01*
X23419000Y-21863000D02*
X23619000Y-21663000D01*
X23419000Y-21463000D01*
X23219000Y-21663000D01*
X23419000Y-21863000D01*
X23510000Y-11528000D02*
X23710000Y-11328000D01*
X23510000Y-11128000D01*
X23310000Y-11328000D01*
X23510000Y-11528000D01*
X24507399Y-25823201D02*
X24707399Y-25623201D01*
X24507399Y-25423201D01*
X24307399Y-25623201D01*
X24507399Y-25823201D01*
X25410000Y-8850000D02*
X25610000Y-8650000D01*
X25410000Y-8450000D01*
X25210000Y-8650000D01*
X25410000Y-8850000D01*
X25750000Y-17940000D02*
X25950000Y-17740000D01*
X25750000Y-17540000D01*
X25550000Y-17740000D01*
X25750000Y-17940000D01*
X25760000Y-15550000D02*
X25960000Y-15350000D01*
X25760000Y-15150000D01*
X25560000Y-15350000D01*
X25760000Y-15550000D01*
X25829000Y-21863000D02*
X26029000Y-21663000D01*
X25829000Y-21463000D01*
X25629000Y-21663000D01*
X25829000Y-21863000D01*
X25910000Y-11538000D02*
X26110000Y-11338000D01*
X25910000Y-11138000D01*
X25710000Y-11338000D01*
X25910000Y-11538000D01*
X26577399Y-27003201D02*
X26777399Y-26803201D01*
X26577399Y-26603201D01*
X26377399Y-26803201D01*
X26577399Y-27003201D01*
X27757399Y-24943201D02*
X27957399Y-24743201D01*
X27757399Y-24543201D01*
X27557399Y-24743201D01*
X27757399Y-24943201D01*
X28142000Y-16496000D02*
X28342000Y-16296000D01*
X28142000Y-16096000D01*
X27942000Y-16296000D01*
X28142000Y-16496000D01*
X28223000Y-21365000D02*
X28423000Y-21165000D01*
X28223000Y-20965000D01*
X28023000Y-21165000D01*
X28223000Y-21365000D01*
X28280000Y-8840000D02*
X28480000Y-8640000D01*
X28280000Y-8440000D01*
X28080000Y-8640000D01*
X28280000Y-8840000D01*
X28280000Y-11538000D02*
X28480000Y-11338000D01*
X28280000Y-11138000D01*
X28080000Y-11338000D01*
X28280000Y-11538000D01*
X28637399Y-28213201D02*
X28837399Y-28013201D01*
X28637399Y-27813201D01*
X28437399Y-28013201D01*
X28637399Y-28213201D01*
X33828000Y-8864000D02*
X34028000Y-8664000D01*
X33828000Y-8464000D01*
X33628000Y-8664000D01*
X33828000Y-8864000D01*
X33878000Y-11600000D02*
X34078000Y-11400000D01*
X33878000Y-11200000D01*
X33678000Y-11400000D01*
X33878000Y-11600000D01*
X33900000Y-28400001D02*
X34100000Y-28200001D01*
X33900000Y-28000001D01*
X33700000Y-28200001D01*
X33900000Y-28400001D01*
X34000000Y-16500000D02*
X34200000Y-16300000D01*
X34000000Y-16100000D01*
X33800000Y-16300000D01*
X34000000Y-16500000D01*
X34010000Y-21400000D02*
X34210000Y-21200000D01*
X34010000Y-21000000D01*
X33810000Y-21200000D01*
X34010000Y-21400000D01*
X34760000Y-25142941D02*
X34960000Y-24942941D01*
X34760000Y-24742941D01*
X34560000Y-24942941D01*
X34760000Y-25142941D01*
X35970000Y-27216001D02*
X36170000Y-27016001D01*
X35970000Y-26816001D01*
X35770000Y-27016001D01*
X35970000Y-27216001D01*
X36268000Y-11590000D02*
X36468000Y-11390000D01*
X36268000Y-11190000D01*
X36068000Y-11390000D01*
X36268000Y-11590000D01*
X36368000Y-17934000D02*
X36568000Y-17734000D01*
X36368000Y-17534000D01*
X36168000Y-17734000D01*
X36368000Y-17934000D01*
X36388000Y-21874000D02*
X36588000Y-21674000D01*
X36388000Y-21474000D01*
X36188000Y-21674000D01*
X36388000Y-21874000D01*
X36398000Y-15554000D02*
X36598000Y-15354000D01*
X36398000Y-15154000D01*
X36198000Y-15354000D01*
X36398000Y-15554000D01*
X36708000Y-8854000D02*
X36908000Y-8654000D01*
X36708000Y-8454000D01*
X36508000Y-8654000D01*
X36708000Y-8854000D01*
X38030000Y-26016001D02*
X38230000Y-25816001D01*
X38030000Y-25616001D01*
X37830000Y-25816001D01*
X38030000Y-26016001D01*
X38648000Y-11610000D02*
X38848000Y-11410000D01*
X38648000Y-11210000D01*
X38448000Y-11410000D01*
X38648000Y-11610000D01*
X38758000Y-15544000D02*
X38958000Y-15344000D01*
X38758000Y-15144000D01*
X38558000Y-15344000D01*
X38758000Y-15544000D01*
X38768000Y-17924000D02*
X38968000Y-17724000D01*
X38768000Y-17524000D01*
X38568000Y-17724000D01*
X38768000Y-17924000D01*
X38768000Y-21854000D02*
X38968000Y-21654000D01*
X38768000Y-21454000D01*
X38568000Y-21654000D01*
X38768000Y-21854000D01*
X39568000Y-8864000D02*
X39768000Y-8664000D01*
X39568000Y-8464000D01*
X39368000Y-8664000D01*
X39568000Y-8864000D01*
X41038000Y-11370000D02*
X41238000Y-11170000D01*
X41038000Y-10970000D01*
X40838000Y-11170000D01*
X41038000Y-11370000D01*
X41138000Y-21644000D02*
X41338000Y-21444000D01*
X41138000Y-21244000D01*
X40938000Y-21444000D01*
X41138000Y-21644000D01*
X41148000Y-24024000D02*
X41348000Y-23824000D01*
X41148000Y-23624000D01*
X40948000Y-23824000D01*
X41148000Y-24024000D01*
X41158000Y-15304000D02*
X41358000Y-15104000D01*
X41158000Y-14904000D01*
X40958000Y-15104000D01*
X41158000Y-15304000D01*
X41158000Y-17704000D02*
X41358000Y-17504000D01*
X41158000Y-17304000D01*
X40958000Y-17504000D01*
X41158000Y-17704000D01*
X42422000Y-8866000D02*
X42622000Y-8666000D01*
X42422000Y-8466000D01*
X42222000Y-8666000D01*
X42422000Y-8866000D01*
X43398000Y-11140000D02*
X43598000Y-10940000D01*
X43398000Y-10740000D01*
X43198000Y-10940000D01*
X43398000Y-11140000D01*
X43524000Y-21396000D02*
X43724000Y-21196000D01*
X43524000Y-20996000D01*
X43324000Y-21196000D01*
X43524000Y-21396000D01*
X43528000Y-17464000D02*
X43728000Y-17264000D01*
X43528000Y-17064000D01*
X43328000Y-17264000D01*
X43528000Y-17464000D01*
X43538000Y-15084000D02*
X43738000Y-14884000D01*
X43538000Y-14684000D01*
X43338000Y-14884000D01*
X43538000Y-15084000D01*
X43538000Y-23764000D02*
X43738000Y-23564000D01*
X43538000Y-23364000D01*
X43338000Y-23564000D01*
X43538000Y-23764000D01*
X45288000Y-8874000D02*
X45488000Y-8674000D01*
X45288000Y-8474000D01*
X45088000Y-8674000D01*
X45288000Y-8874000D01*
X45808000Y-11600000D02*
X46008000Y-11400000D01*
X45808000Y-11200000D01*
X45608000Y-11400000D01*
X45808000Y-11600000D01*
X45888000Y-24034000D02*
X46088000Y-23834000D01*
X45888000Y-23634000D01*
X45688000Y-23834000D01*
X45888000Y-24034000D01*
X45908000Y-15544000D02*
X46108000Y-15344000D01*
X45908000Y-15144000D01*
X45708000Y-15344000D01*
X45908000Y-15544000D01*
X45918000Y-17694000D02*
X46118000Y-17494000D01*
X45918000Y-17294000D01*
X45718000Y-17494000D01*
X45918000Y-17694000D01*
X45948000Y-21654000D02*
X46148000Y-21454000D01*
X45948000Y-21254000D01*
X45748000Y-21454000D01*
X45948000Y-21654000D01*
X48148000Y-8854000D02*
X48348000Y-8654000D01*
X48148000Y-8454000D01*
X47948000Y-8654000D01*
X48148000Y-8854000D01*
X48168000Y-11850000D02*
X48368000Y-11650000D01*
X48168000Y-11450000D01*
X47968000Y-11650000D01*
X48168000Y-11850000D01*
X48268000Y-18164000D02*
X48468000Y-17964000D01*
X48268000Y-17764000D01*
X48068000Y-17964000D01*
X48268000Y-18164000D01*
X48268000Y-24514000D02*
X48468000Y-24314000D01*
X48268000Y-24114000D01*
X48068000Y-24314000D01*
X48268000Y-24514000D01*
X48278000Y-22104000D02*
X48478000Y-21904000D01*
X48278000Y-21704000D01*
X48078000Y-21904000D01*
X48278000Y-22104000D01*
X48298000Y-15794000D02*
X48498000Y-15594000D01*
X48298000Y-15394000D01*
X48098000Y-15594000D01*
X48298000Y-15794000D01*
X50658000Y-24524000D02*
X50858000Y-24324000D01*
X50658000Y-24124000D01*
X50458000Y-24324000D01*
X50658000Y-24524000D01*
X51018000Y-8864000D02*
X51218000Y-8664000D01*
X51018000Y-8464000D01*
X50818000Y-8664000D01*
X51018000Y-8864000D01*
X51038000Y-11840000D02*
X51238000Y-11640000D01*
X51038000Y-11440000D01*
X50838000Y-11640000D01*
X51038000Y-11840000D01*
X51138000Y-18174000D02*
X51338000Y-17974000D01*
X51138000Y-17774000D01*
X50938000Y-17974000D01*
X51138000Y-18174000D01*
X51148000Y-15784000D02*
X51348000Y-15584000D01*
X51148000Y-15384000D01*
X50948000Y-15584000D01*
X51148000Y-15784000D01*
X51168000Y-22114000D02*
X51368000Y-21914000D01*
X51168000Y-21714000D01*
X50968000Y-21914000D01*
X51168000Y-22114000D01*
D11*
X8802619Y-37715476D02*
X8802619Y-37515476D01*
X8850238Y-37515476D01*
X8878810Y-37525000D01*
X8897857Y-37544048D01*
X8907381Y-37563095D01*
X8916905Y-37601190D01*
X8916905Y-37629762D01*
X8907381Y-37667857D01*
X8897857Y-37686905D01*
X8878810Y-37705952D01*
X8850238Y-37715476D01*
X8802619Y-37715476D01*
X9002619Y-37715476D02*
X9002619Y-37582143D01*
X9002619Y-37620238D02*
X9012143Y-37601190D01*
X9021667Y-37591667D01*
X9040714Y-37582143D01*
X9059762Y-37582143D01*
X9126429Y-37715476D02*
X9126429Y-37582143D01*
X9126429Y-37515476D02*
X9116905Y-37525000D01*
X9126429Y-37534524D01*
X9135952Y-37525000D01*
X9126429Y-37515476D01*
X9126429Y-37534524D01*
X9250238Y-37715476D02*
X9231190Y-37705952D01*
X9221667Y-37686905D01*
X9221667Y-37515476D01*
X9355000Y-37715476D02*
X9335952Y-37705952D01*
X9326429Y-37686905D01*
X9326429Y-37515476D01*
X9583571Y-37715476D02*
X9583571Y-37515476D01*
X9650238Y-37658333D01*
X9716905Y-37515476D01*
X9716905Y-37715476D01*
X9897857Y-37715476D02*
X9897857Y-37610714D01*
X9888333Y-37591667D01*
X9869286Y-37582143D01*
X9831190Y-37582143D01*
X9812143Y-37591667D01*
X9897857Y-37705952D02*
X9878810Y-37715476D01*
X9831190Y-37715476D01*
X9812143Y-37705952D01*
X9802619Y-37686905D01*
X9802619Y-37667857D01*
X9812143Y-37648810D01*
X9831190Y-37639286D01*
X9878810Y-37639286D01*
X9897857Y-37629762D01*
X9993095Y-37582143D02*
X9993095Y-37782143D01*
X9993095Y-37591667D02*
X10012143Y-37582143D01*
X10050238Y-37582143D01*
X10069286Y-37591667D01*
X10078810Y-37601190D01*
X10088333Y-37620238D01*
X10088333Y-37677381D01*
X10078810Y-37696429D01*
X10069286Y-37705952D01*
X10050238Y-37715476D01*
X10012143Y-37715476D01*
X9993095Y-37705952D01*
X10174048Y-37696429D02*
X10183571Y-37705952D01*
X10174048Y-37715476D01*
X10164524Y-37705952D01*
X10174048Y-37696429D01*
X10174048Y-37715476D01*
X10174048Y-37591667D02*
X10183571Y-37601190D01*
X10174048Y-37610714D01*
X10164524Y-37601190D01*
X10174048Y-37591667D01*
X10174048Y-37610714D01*
D12*
X8435000Y-37990000D02*
X8545000Y-38100000D01*
X8545000Y-37990000D02*
X8435000Y-38100000D01*
D11*
X8907381Y-38135476D02*
X8793095Y-38135476D01*
X8850238Y-38135476D02*
X8850238Y-37935476D01*
X8831190Y-37964048D01*
X8812143Y-37983095D01*
X8793095Y-37992619D01*
X8993095Y-38116429D02*
X9002619Y-38125952D01*
X8993095Y-38135476D01*
X8983571Y-38125952D01*
X8993095Y-38116429D01*
X8993095Y-38135476D01*
X9193095Y-38135476D02*
X9078810Y-38135476D01*
X9135952Y-38135476D02*
X9135952Y-37935476D01*
X9116905Y-37964048D01*
X9097857Y-37983095D01*
X9078810Y-37992619D01*
X9316905Y-37935476D02*
X9335952Y-37935476D01*
X9355000Y-37945000D01*
X9364524Y-37954524D01*
X9374048Y-37973571D01*
X9383571Y-38011667D01*
X9383571Y-38059286D01*
X9374048Y-38097381D01*
X9364524Y-38116429D01*
X9355000Y-38125952D01*
X9335952Y-38135476D01*
X9316905Y-38135476D01*
X9297857Y-38125952D01*
X9288333Y-38116429D01*
X9278810Y-38097381D01*
X9269286Y-38059286D01*
X9269286Y-38011667D01*
X9278810Y-37973571D01*
X9288333Y-37954524D01*
X9297857Y-37945000D01*
X9316905Y-37935476D01*
X9507381Y-37935476D02*
X9526429Y-37935476D01*
X9545476Y-37945000D01*
X9555000Y-37954524D01*
X9564524Y-37973571D01*
X9574048Y-38011667D01*
X9574048Y-38059286D01*
X9564524Y-38097381D01*
X9555000Y-38116429D01*
X9545476Y-38125952D01*
X9526429Y-38135476D01*
X9507381Y-38135476D01*
X9488333Y-38125952D01*
X9478810Y-38116429D01*
X9469286Y-38097381D01*
X9459762Y-38059286D01*
X9459762Y-38011667D01*
X9469286Y-37973571D01*
X9478810Y-37954524D01*
X9488333Y-37945000D01*
X9507381Y-37935476D01*
X9659762Y-38135476D02*
X9659762Y-38002143D01*
X9659762Y-38021190D02*
X9669286Y-38011667D01*
X9688333Y-38002143D01*
X9716905Y-38002143D01*
X9735952Y-38011667D01*
X9745476Y-38030714D01*
X9745476Y-38135476D01*
X9745476Y-38030714D02*
X9755000Y-38011667D01*
X9774048Y-38002143D01*
X9802619Y-38002143D01*
X9821667Y-38011667D01*
X9831190Y-38030714D01*
X9831190Y-38135476D01*
X9926429Y-38135476D02*
X9926429Y-38002143D01*
X9926429Y-38021190D02*
X9935952Y-38011667D01*
X9955000Y-38002143D01*
X9983571Y-38002143D01*
X10002619Y-38011667D01*
X10012143Y-38030714D01*
X10012143Y-38135476D01*
X10012143Y-38030714D02*
X10021667Y-38011667D01*
X10040714Y-38002143D01*
X10069286Y-38002143D01*
X10088333Y-38011667D01*
X10097857Y-38030714D01*
X10097857Y-38135476D01*
X10488333Y-37925952D02*
X10316905Y-38183095D01*
X10745476Y-37935476D02*
X10764524Y-37935476D01*
X10783571Y-37945000D01*
X10793095Y-37954524D01*
X10802619Y-37973571D01*
X10812143Y-38011667D01*
X10812143Y-38059286D01*
X10802619Y-38097381D01*
X10793095Y-38116429D01*
X10783571Y-38125952D01*
X10764524Y-38135476D01*
X10745476Y-38135476D01*
X10726429Y-38125952D01*
X10716905Y-38116429D01*
X10707381Y-38097381D01*
X10697857Y-38059286D01*
X10697857Y-38011667D01*
X10707381Y-37973571D01*
X10716905Y-37954524D01*
X10726429Y-37945000D01*
X10745476Y-37935476D01*
X10897857Y-38116429D02*
X10907381Y-38125952D01*
X10897857Y-38135476D01*
X10888333Y-38125952D01*
X10897857Y-38116429D01*
X10897857Y-38135476D01*
X11031190Y-37935476D02*
X11050238Y-37935476D01*
X11069286Y-37945000D01*
X11078810Y-37954524D01*
X11088333Y-37973571D01*
X11097857Y-38011667D01*
X11097857Y-38059286D01*
X11088333Y-38097381D01*
X11078810Y-38116429D01*
X11069286Y-38125952D01*
X11050238Y-38135476D01*
X11031190Y-38135476D01*
X11012143Y-38125952D01*
X11002619Y-38116429D01*
X10993095Y-38097381D01*
X10983571Y-38059286D01*
X10983571Y-38011667D01*
X10993095Y-37973571D01*
X11002619Y-37954524D01*
X11012143Y-37945000D01*
X11031190Y-37935476D01*
X11269286Y-38002143D02*
X11269286Y-38135476D01*
X11221667Y-37925952D02*
X11174048Y-38068810D01*
X11297857Y-38068810D01*
X11355000Y-37935476D02*
X11478809Y-37935476D01*
X11412143Y-38011667D01*
X11440714Y-38011667D01*
X11459762Y-38021190D01*
X11469286Y-38030714D01*
X11478809Y-38049762D01*
X11478809Y-38097381D01*
X11469286Y-38116429D01*
X11459762Y-38125952D01*
X11440714Y-38135476D01*
X11383571Y-38135476D01*
X11364524Y-38125952D01*
X11355000Y-38116429D01*
X11545476Y-37935476D02*
X11669286Y-37935476D01*
X11602619Y-38011667D01*
X11631190Y-38011667D01*
X11650238Y-38021190D01*
X11659762Y-38030714D01*
X11669286Y-38049762D01*
X11669286Y-38097381D01*
X11659762Y-38116429D01*
X11650238Y-38125952D01*
X11631190Y-38135476D01*
X11574048Y-38135476D01*
X11555000Y-38125952D01*
X11545476Y-38116429D01*
X11745476Y-37935476D02*
X11745476Y-37973571D01*
X11821667Y-37935476D02*
X11821667Y-37973571D01*
X12116905Y-38211667D02*
X12107381Y-38202143D01*
X12088333Y-38173571D01*
X12078809Y-38154524D01*
X12069286Y-38125952D01*
X12059762Y-38078333D01*
X12059762Y-38040238D01*
X12069286Y-37992619D01*
X12078809Y-37964048D01*
X12088333Y-37945000D01*
X12107381Y-37916429D01*
X12116905Y-37906905D01*
X12278809Y-38002143D02*
X12278809Y-38135476D01*
X12231190Y-37925952D02*
X12183571Y-38068810D01*
X12307381Y-38068810D01*
X12535952Y-38135476D02*
X12535952Y-37935476D01*
X12621667Y-38135476D02*
X12621667Y-38030714D01*
X12612143Y-38011667D01*
X12593095Y-38002143D01*
X12564524Y-38002143D01*
X12545476Y-38011667D01*
X12535952Y-38021190D01*
X12745476Y-38135476D02*
X12726428Y-38125952D01*
X12716905Y-38116429D01*
X12707381Y-38097381D01*
X12707381Y-38040238D01*
X12716905Y-38021190D01*
X12726428Y-38011667D01*
X12745476Y-38002143D01*
X12774048Y-38002143D01*
X12793095Y-38011667D01*
X12802619Y-38021190D01*
X12812143Y-38040238D01*
X12812143Y-38097381D01*
X12802619Y-38116429D01*
X12793095Y-38125952D01*
X12774048Y-38135476D01*
X12745476Y-38135476D01*
X12926428Y-38135476D02*
X12907381Y-38125952D01*
X12897857Y-38106905D01*
X12897857Y-37935476D01*
X13078809Y-38125952D02*
X13059762Y-38135476D01*
X13021667Y-38135476D01*
X13002619Y-38125952D01*
X12993095Y-38106905D01*
X12993095Y-38030714D01*
X13002619Y-38011667D01*
X13021667Y-38002143D01*
X13059762Y-38002143D01*
X13078809Y-38011667D01*
X13088333Y-38030714D01*
X13088333Y-38049762D01*
X12993095Y-38068810D01*
X13164524Y-38125952D02*
X13183571Y-38135476D01*
X13221667Y-38135476D01*
X13240714Y-38125952D01*
X13250238Y-38106905D01*
X13250238Y-38097381D01*
X13240714Y-38078333D01*
X13221667Y-38068810D01*
X13193095Y-38068810D01*
X13174048Y-38059286D01*
X13164524Y-38040238D01*
X13164524Y-38030714D01*
X13174048Y-38011667D01*
X13193095Y-38002143D01*
X13221667Y-38002143D01*
X13240714Y-38011667D01*
X13316905Y-38211667D02*
X13326428Y-38202143D01*
X13345476Y-38173571D01*
X13355000Y-38154524D01*
X13364524Y-38125952D01*
X13374048Y-38078333D01*
X13374048Y-38040238D01*
X13364524Y-37992619D01*
X13355000Y-37964048D01*
X13345476Y-37945000D01*
X13326428Y-37916429D01*
X13316905Y-37906905D01*
X13678809Y-38211667D02*
X13669286Y-38202143D01*
X13650238Y-38173571D01*
X13640714Y-38154524D01*
X13631190Y-38125952D01*
X13621667Y-38078333D01*
X13621667Y-38040238D01*
X13631190Y-37992619D01*
X13640714Y-37964048D01*
X13650238Y-37945000D01*
X13669286Y-37916429D01*
X13678809Y-37906905D01*
X13755000Y-38002143D02*
X13755000Y-38135476D01*
X13755000Y-38021190D02*
X13764524Y-38011667D01*
X13783571Y-38002143D01*
X13812143Y-38002143D01*
X13831190Y-38011667D01*
X13840714Y-38030714D01*
X13840714Y-38135476D01*
X13964524Y-38135476D02*
X13945476Y-38125952D01*
X13935952Y-38116429D01*
X13926428Y-38097381D01*
X13926428Y-38040238D01*
X13935952Y-38021190D01*
X13945476Y-38011667D01*
X13964524Y-38002143D01*
X13993095Y-38002143D01*
X14012143Y-38011667D01*
X14021667Y-38021190D01*
X14031190Y-38040238D01*
X14031190Y-38097381D01*
X14021667Y-38116429D01*
X14012143Y-38125952D01*
X13993095Y-38135476D01*
X13964524Y-38135476D01*
X14088333Y-38002143D02*
X14164524Y-38002143D01*
X14116905Y-37935476D02*
X14116905Y-38106905D01*
X14126428Y-38125952D01*
X14145476Y-38135476D01*
X14164524Y-38135476D01*
X14383571Y-38002143D02*
X14383571Y-38202143D01*
X14383571Y-38011667D02*
X14402619Y-38002143D01*
X14440714Y-38002143D01*
X14459762Y-38011667D01*
X14469286Y-38021190D01*
X14478809Y-38040238D01*
X14478809Y-38097381D01*
X14469286Y-38116429D01*
X14459762Y-38125952D01*
X14440714Y-38135476D01*
X14402619Y-38135476D01*
X14383571Y-38125952D01*
X14593095Y-38135476D02*
X14574048Y-38125952D01*
X14564524Y-38106905D01*
X14564524Y-37935476D01*
X14755000Y-38135476D02*
X14755000Y-38030714D01*
X14745476Y-38011667D01*
X14726428Y-38002143D01*
X14688333Y-38002143D01*
X14669286Y-38011667D01*
X14755000Y-38125952D02*
X14735952Y-38135476D01*
X14688333Y-38135476D01*
X14669286Y-38125952D01*
X14659762Y-38106905D01*
X14659762Y-38087857D01*
X14669286Y-38068810D01*
X14688333Y-38059286D01*
X14735952Y-38059286D01*
X14755000Y-38049762D01*
X14821667Y-38002143D02*
X14897857Y-38002143D01*
X14850238Y-37935476D02*
X14850238Y-38106905D01*
X14859762Y-38125952D01*
X14878809Y-38135476D01*
X14897857Y-38135476D01*
X15040714Y-38125952D02*
X15021667Y-38135476D01*
X14983571Y-38135476D01*
X14964524Y-38125952D01*
X14955000Y-38106905D01*
X14955000Y-38030714D01*
X14964524Y-38011667D01*
X14983571Y-38002143D01*
X15021667Y-38002143D01*
X15040714Y-38011667D01*
X15050238Y-38030714D01*
X15050238Y-38049762D01*
X14955000Y-38068810D01*
X15221667Y-38135476D02*
X15221667Y-37935476D01*
X15221667Y-38125952D02*
X15202619Y-38135476D01*
X15164524Y-38135476D01*
X15145476Y-38125952D01*
X15135952Y-38116429D01*
X15126428Y-38097381D01*
X15126428Y-38040238D01*
X15135952Y-38021190D01*
X15145476Y-38011667D01*
X15164524Y-38002143D01*
X15202619Y-38002143D01*
X15221667Y-38011667D01*
X15297857Y-38211667D02*
X15307381Y-38202143D01*
X15326428Y-38173571D01*
X15335952Y-38154524D01*
X15345476Y-38125952D01*
X15355000Y-38078333D01*
X15355000Y-38040238D01*
X15345476Y-37992619D01*
X15335952Y-37964048D01*
X15326428Y-37945000D01*
X15307381Y-37916429D01*
X15297857Y-37906905D01*
D13*
X8545000Y-38309000D02*
G75*
G03*
X8545000Y-38309000I-75000J0D01*
G01*
D11*
X8907381Y-38399476D02*
X8793095Y-38399476D01*
X8850238Y-38399476D02*
X8850238Y-38199476D01*
X8831190Y-38228048D01*
X8812143Y-38247095D01*
X8793095Y-38256619D01*
X8993095Y-38380429D02*
X9002619Y-38389952D01*
X8993095Y-38399476D01*
X8983571Y-38389952D01*
X8993095Y-38380429D01*
X8993095Y-38399476D01*
X9183571Y-38199476D02*
X9088333Y-38199476D01*
X9078810Y-38294714D01*
X9088333Y-38285190D01*
X9107381Y-38275667D01*
X9155000Y-38275667D01*
X9174048Y-38285190D01*
X9183571Y-38294714D01*
X9193095Y-38313762D01*
X9193095Y-38361381D01*
X9183571Y-38380429D01*
X9174048Y-38389952D01*
X9155000Y-38399476D01*
X9107381Y-38399476D01*
X9088333Y-38389952D01*
X9078810Y-38380429D01*
X9316905Y-38199476D02*
X9335952Y-38199476D01*
X9355000Y-38209000D01*
X9364524Y-38218524D01*
X9374048Y-38237571D01*
X9383571Y-38275667D01*
X9383571Y-38323286D01*
X9374048Y-38361381D01*
X9364524Y-38380429D01*
X9355000Y-38389952D01*
X9335952Y-38399476D01*
X9316905Y-38399476D01*
X9297857Y-38389952D01*
X9288333Y-38380429D01*
X9278810Y-38361381D01*
X9269286Y-38323286D01*
X9269286Y-38275667D01*
X9278810Y-38237571D01*
X9288333Y-38218524D01*
X9297857Y-38209000D01*
X9316905Y-38199476D01*
X9507381Y-38199476D02*
X9526429Y-38199476D01*
X9545476Y-38209000D01*
X9555000Y-38218524D01*
X9564524Y-38237571D01*
X9574048Y-38275667D01*
X9574048Y-38323286D01*
X9564524Y-38361381D01*
X9555000Y-38380429D01*
X9545476Y-38389952D01*
X9526429Y-38399476D01*
X9507381Y-38399476D01*
X9488333Y-38389952D01*
X9478810Y-38380429D01*
X9469286Y-38361381D01*
X9459762Y-38323286D01*
X9459762Y-38275667D01*
X9469286Y-38237571D01*
X9478810Y-38218524D01*
X9488333Y-38209000D01*
X9507381Y-38199476D01*
X9659762Y-38399476D02*
X9659762Y-38266143D01*
X9659762Y-38285190D02*
X9669286Y-38275667D01*
X9688333Y-38266143D01*
X9716905Y-38266143D01*
X9735952Y-38275667D01*
X9745476Y-38294714D01*
X9745476Y-38399476D01*
X9745476Y-38294714D02*
X9755000Y-38275667D01*
X9774048Y-38266143D01*
X9802619Y-38266143D01*
X9821667Y-38275667D01*
X9831190Y-38294714D01*
X9831190Y-38399476D01*
X9926429Y-38399476D02*
X9926429Y-38266143D01*
X9926429Y-38285190D02*
X9935952Y-38275667D01*
X9955000Y-38266143D01*
X9983571Y-38266143D01*
X10002619Y-38275667D01*
X10012143Y-38294714D01*
X10012143Y-38399476D01*
X10012143Y-38294714D02*
X10021667Y-38275667D01*
X10040714Y-38266143D01*
X10069286Y-38266143D01*
X10088333Y-38275667D01*
X10097857Y-38294714D01*
X10097857Y-38399476D01*
X10488333Y-38189952D02*
X10316905Y-38447095D01*
X10745476Y-38199476D02*
X10764524Y-38199476D01*
X10783571Y-38209000D01*
X10793095Y-38218524D01*
X10802619Y-38237571D01*
X10812143Y-38275667D01*
X10812143Y-38323286D01*
X10802619Y-38361381D01*
X10793095Y-38380429D01*
X10783571Y-38389952D01*
X10764524Y-38399476D01*
X10745476Y-38399476D01*
X10726429Y-38389952D01*
X10716905Y-38380429D01*
X10707381Y-38361381D01*
X10697857Y-38323286D01*
X10697857Y-38275667D01*
X10707381Y-38237571D01*
X10716905Y-38218524D01*
X10726429Y-38209000D01*
X10745476Y-38199476D01*
X10897857Y-38380429D02*
X10907381Y-38389952D01*
X10897857Y-38399476D01*
X10888333Y-38389952D01*
X10897857Y-38380429D01*
X10897857Y-38399476D01*
X11031190Y-38199476D02*
X11050238Y-38199476D01*
X11069286Y-38209000D01*
X11078810Y-38218524D01*
X11088333Y-38237571D01*
X11097857Y-38275667D01*
X11097857Y-38323286D01*
X11088333Y-38361381D01*
X11078810Y-38380429D01*
X11069286Y-38389952D01*
X11050238Y-38399476D01*
X11031190Y-38399476D01*
X11012143Y-38389952D01*
X11002619Y-38380429D01*
X10993095Y-38361381D01*
X10983571Y-38323286D01*
X10983571Y-38275667D01*
X10993095Y-38237571D01*
X11002619Y-38218524D01*
X11012143Y-38209000D01*
X11031190Y-38199476D01*
X11278809Y-38199476D02*
X11183571Y-38199476D01*
X11174048Y-38294714D01*
X11183571Y-38285190D01*
X11202619Y-38275667D01*
X11250238Y-38275667D01*
X11269286Y-38285190D01*
X11278809Y-38294714D01*
X11288333Y-38313762D01*
X11288333Y-38361381D01*
X11278809Y-38380429D01*
X11269286Y-38389952D01*
X11250238Y-38399476D01*
X11202619Y-38399476D01*
X11183571Y-38389952D01*
X11174048Y-38380429D01*
X11383571Y-38399476D02*
X11421667Y-38399476D01*
X11440714Y-38389952D01*
X11450238Y-38380429D01*
X11469286Y-38351857D01*
X11478809Y-38313762D01*
X11478809Y-38237571D01*
X11469286Y-38218524D01*
X11459762Y-38209000D01*
X11440714Y-38199476D01*
X11402619Y-38199476D01*
X11383571Y-38209000D01*
X11374048Y-38218524D01*
X11364524Y-38237571D01*
X11364524Y-38285190D01*
X11374048Y-38304238D01*
X11383571Y-38313762D01*
X11402619Y-38323286D01*
X11440714Y-38323286D01*
X11459762Y-38313762D01*
X11469286Y-38304238D01*
X11478809Y-38285190D01*
X11669286Y-38399476D02*
X11555000Y-38399476D01*
X11612143Y-38399476D02*
X11612143Y-38199476D01*
X11593095Y-38228048D01*
X11574048Y-38247095D01*
X11555000Y-38256619D01*
X11745476Y-38199476D02*
X11745476Y-38237571D01*
X11821667Y-38199476D02*
X11821667Y-38237571D01*
X12116905Y-38475667D02*
X12107381Y-38466143D01*
X12088333Y-38437571D01*
X12078809Y-38418524D01*
X12069286Y-38389952D01*
X12059762Y-38342333D01*
X12059762Y-38304238D01*
X12069286Y-38256619D01*
X12078809Y-38228048D01*
X12088333Y-38209000D01*
X12107381Y-38180429D01*
X12116905Y-38170905D01*
X12278809Y-38266143D02*
X12278809Y-38399476D01*
X12231190Y-38189952D02*
X12183571Y-38332810D01*
X12307381Y-38332810D01*
X12535952Y-38399476D02*
X12535952Y-38199476D01*
X12621667Y-38399476D02*
X12621667Y-38294714D01*
X12612143Y-38275667D01*
X12593095Y-38266143D01*
X12564524Y-38266143D01*
X12545476Y-38275667D01*
X12535952Y-38285190D01*
X12745476Y-38399476D02*
X12726428Y-38389952D01*
X12716905Y-38380429D01*
X12707381Y-38361381D01*
X12707381Y-38304238D01*
X12716905Y-38285190D01*
X12726428Y-38275667D01*
X12745476Y-38266143D01*
X12774048Y-38266143D01*
X12793095Y-38275667D01*
X12802619Y-38285190D01*
X12812143Y-38304238D01*
X12812143Y-38361381D01*
X12802619Y-38380429D01*
X12793095Y-38389952D01*
X12774048Y-38399476D01*
X12745476Y-38399476D01*
X12926428Y-38399476D02*
X12907381Y-38389952D01*
X12897857Y-38370905D01*
X12897857Y-38199476D01*
X13078809Y-38389952D02*
X13059762Y-38399476D01*
X13021667Y-38399476D01*
X13002619Y-38389952D01*
X12993095Y-38370905D01*
X12993095Y-38294714D01*
X13002619Y-38275667D01*
X13021667Y-38266143D01*
X13059762Y-38266143D01*
X13078809Y-38275667D01*
X13088333Y-38294714D01*
X13088333Y-38313762D01*
X12993095Y-38332810D01*
X13164524Y-38389952D02*
X13183571Y-38399476D01*
X13221667Y-38399476D01*
X13240714Y-38389952D01*
X13250238Y-38370905D01*
X13250238Y-38361381D01*
X13240714Y-38342333D01*
X13221667Y-38332810D01*
X13193095Y-38332810D01*
X13174048Y-38323286D01*
X13164524Y-38304238D01*
X13164524Y-38294714D01*
X13174048Y-38275667D01*
X13193095Y-38266143D01*
X13221667Y-38266143D01*
X13240714Y-38275667D01*
X13316905Y-38475667D02*
X13326428Y-38466143D01*
X13345476Y-38437571D01*
X13355000Y-38418524D01*
X13364524Y-38389952D01*
X13374048Y-38342333D01*
X13374048Y-38304238D01*
X13364524Y-38256619D01*
X13355000Y-38228048D01*
X13345476Y-38209000D01*
X13326428Y-38180429D01*
X13316905Y-38170905D01*
X13678809Y-38475667D02*
X13669286Y-38466143D01*
X13650238Y-38437571D01*
X13640714Y-38418524D01*
X13631190Y-38389952D01*
X13621667Y-38342333D01*
X13621667Y-38304238D01*
X13631190Y-38256619D01*
X13640714Y-38228048D01*
X13650238Y-38209000D01*
X13669286Y-38180429D01*
X13678809Y-38170905D01*
X13755000Y-38266143D02*
X13755000Y-38399476D01*
X13755000Y-38285190D02*
X13764524Y-38275667D01*
X13783571Y-38266143D01*
X13812143Y-38266143D01*
X13831190Y-38275667D01*
X13840714Y-38294714D01*
X13840714Y-38399476D01*
X13964524Y-38399476D02*
X13945476Y-38389952D01*
X13935952Y-38380429D01*
X13926428Y-38361381D01*
X13926428Y-38304238D01*
X13935952Y-38285190D01*
X13945476Y-38275667D01*
X13964524Y-38266143D01*
X13993095Y-38266143D01*
X14012143Y-38275667D01*
X14021667Y-38285190D01*
X14031190Y-38304238D01*
X14031190Y-38361381D01*
X14021667Y-38380429D01*
X14012143Y-38389952D01*
X13993095Y-38399476D01*
X13964524Y-38399476D01*
X14088333Y-38266143D02*
X14164524Y-38266143D01*
X14116905Y-38199476D02*
X14116905Y-38370905D01*
X14126428Y-38389952D01*
X14145476Y-38399476D01*
X14164524Y-38399476D01*
X14383571Y-38266143D02*
X14383571Y-38466143D01*
X14383571Y-38275667D02*
X14402619Y-38266143D01*
X14440714Y-38266143D01*
X14459762Y-38275667D01*
X14469286Y-38285190D01*
X14478809Y-38304238D01*
X14478809Y-38361381D01*
X14469286Y-38380429D01*
X14459762Y-38389952D01*
X14440714Y-38399476D01*
X14402619Y-38399476D01*
X14383571Y-38389952D01*
X14593095Y-38399476D02*
X14574048Y-38389952D01*
X14564524Y-38370905D01*
X14564524Y-38199476D01*
X14755000Y-38399476D02*
X14755000Y-38294714D01*
X14745476Y-38275667D01*
X14726428Y-38266143D01*
X14688333Y-38266143D01*
X14669286Y-38275667D01*
X14755000Y-38389952D02*
X14735952Y-38399476D01*
X14688333Y-38399476D01*
X14669286Y-38389952D01*
X14659762Y-38370905D01*
X14659762Y-38351857D01*
X14669286Y-38332810D01*
X14688333Y-38323286D01*
X14735952Y-38323286D01*
X14755000Y-38313762D01*
X14821667Y-38266143D02*
X14897857Y-38266143D01*
X14850238Y-38199476D02*
X14850238Y-38370905D01*
X14859762Y-38389952D01*
X14878809Y-38399476D01*
X14897857Y-38399476D01*
X15040714Y-38389952D02*
X15021667Y-38399476D01*
X14983571Y-38399476D01*
X14964524Y-38389952D01*
X14955000Y-38370905D01*
X14955000Y-38294714D01*
X14964524Y-38275667D01*
X14983571Y-38266143D01*
X15021667Y-38266143D01*
X15040714Y-38275667D01*
X15050238Y-38294714D01*
X15050238Y-38313762D01*
X14955000Y-38332810D01*
X15221667Y-38399476D02*
X15221667Y-38199476D01*
X15221667Y-38389952D02*
X15202619Y-38399476D01*
X15164524Y-38399476D01*
X15145476Y-38389952D01*
X15135952Y-38380429D01*
X15126428Y-38361381D01*
X15126428Y-38304238D01*
X15135952Y-38285190D01*
X15145476Y-38275667D01*
X15164524Y-38266143D01*
X15202619Y-38266143D01*
X15221667Y-38275667D01*
X15297857Y-38475667D02*
X15307381Y-38466143D01*
X15326428Y-38437571D01*
X15335952Y-38418524D01*
X15345476Y-38389952D01*
X15355000Y-38342333D01*
X15355000Y-38304238D01*
X15345476Y-38256619D01*
X15335952Y-38228048D01*
X15326428Y-38209000D01*
X15307381Y-38180429D01*
X15297857Y-38170905D01*
D14*
X8460000Y-38494000D02*
X8460000Y-38664000D01*
X8375000Y-38579000D02*
X8545000Y-38579000D01*
D11*
X8907381Y-38669476D02*
X8793095Y-38669476D01*
X8850238Y-38669476D02*
X8850238Y-38469476D01*
X8831190Y-38498048D01*
X8812143Y-38517095D01*
X8793095Y-38526619D01*
X8993095Y-38650429D02*
X9002619Y-38659952D01*
X8993095Y-38669476D01*
X8983571Y-38659952D01*
X8993095Y-38650429D01*
X8993095Y-38669476D01*
X9069286Y-38469476D02*
X9202619Y-38469476D01*
X9116905Y-38669476D01*
X9316905Y-38469476D02*
X9335952Y-38469476D01*
X9355000Y-38479000D01*
X9364524Y-38488524D01*
X9374048Y-38507571D01*
X9383571Y-38545667D01*
X9383571Y-38593286D01*
X9374048Y-38631381D01*
X9364524Y-38650429D01*
X9355000Y-38659952D01*
X9335952Y-38669476D01*
X9316905Y-38669476D01*
X9297857Y-38659952D01*
X9288333Y-38650429D01*
X9278810Y-38631381D01*
X9269286Y-38593286D01*
X9269286Y-38545667D01*
X9278810Y-38507571D01*
X9288333Y-38488524D01*
X9297857Y-38479000D01*
X9316905Y-38469476D01*
X9507381Y-38469476D02*
X9526429Y-38469476D01*
X9545476Y-38479000D01*
X9555000Y-38488524D01*
X9564524Y-38507571D01*
X9574048Y-38545667D01*
X9574048Y-38593286D01*
X9564524Y-38631381D01*
X9555000Y-38650429D01*
X9545476Y-38659952D01*
X9526429Y-38669476D01*
X9507381Y-38669476D01*
X9488333Y-38659952D01*
X9478810Y-38650429D01*
X9469286Y-38631381D01*
X9459762Y-38593286D01*
X9459762Y-38545667D01*
X9469286Y-38507571D01*
X9478810Y-38488524D01*
X9488333Y-38479000D01*
X9507381Y-38469476D01*
X9659762Y-38669476D02*
X9659762Y-38536143D01*
X9659762Y-38555190D02*
X9669286Y-38545667D01*
X9688333Y-38536143D01*
X9716905Y-38536143D01*
X9735952Y-38545667D01*
X9745476Y-38564714D01*
X9745476Y-38669476D01*
X9745476Y-38564714D02*
X9755000Y-38545667D01*
X9774048Y-38536143D01*
X9802619Y-38536143D01*
X9821667Y-38545667D01*
X9831190Y-38564714D01*
X9831190Y-38669476D01*
X9926429Y-38669476D02*
X9926429Y-38536143D01*
X9926429Y-38555190D02*
X9935952Y-38545667D01*
X9955000Y-38536143D01*
X9983571Y-38536143D01*
X10002619Y-38545667D01*
X10012143Y-38564714D01*
X10012143Y-38669476D01*
X10012143Y-38564714D02*
X10021667Y-38545667D01*
X10040714Y-38536143D01*
X10069286Y-38536143D01*
X10088333Y-38545667D01*
X10097857Y-38564714D01*
X10097857Y-38669476D01*
X10488333Y-38459952D02*
X10316905Y-38717095D01*
X10745476Y-38469476D02*
X10764524Y-38469476D01*
X10783571Y-38479000D01*
X10793095Y-38488524D01*
X10802619Y-38507571D01*
X10812143Y-38545667D01*
X10812143Y-38593286D01*
X10802619Y-38631381D01*
X10793095Y-38650429D01*
X10783571Y-38659952D01*
X10764524Y-38669476D01*
X10745476Y-38669476D01*
X10726429Y-38659952D01*
X10716905Y-38650429D01*
X10707381Y-38631381D01*
X10697857Y-38593286D01*
X10697857Y-38545667D01*
X10707381Y-38507571D01*
X10716905Y-38488524D01*
X10726429Y-38479000D01*
X10745476Y-38469476D01*
X10897857Y-38650429D02*
X10907381Y-38659952D01*
X10897857Y-38669476D01*
X10888333Y-38659952D01*
X10897857Y-38650429D01*
X10897857Y-38669476D01*
X11031190Y-38469476D02*
X11050238Y-38469476D01*
X11069286Y-38479000D01*
X11078810Y-38488524D01*
X11088333Y-38507571D01*
X11097857Y-38545667D01*
X11097857Y-38593286D01*
X11088333Y-38631381D01*
X11078810Y-38650429D01*
X11069286Y-38659952D01*
X11050238Y-38669476D01*
X11031190Y-38669476D01*
X11012143Y-38659952D01*
X11002619Y-38650429D01*
X10993095Y-38631381D01*
X10983571Y-38593286D01*
X10983571Y-38545667D01*
X10993095Y-38507571D01*
X11002619Y-38488524D01*
X11012143Y-38479000D01*
X11031190Y-38469476D01*
X11269286Y-38469476D02*
X11231190Y-38469476D01*
X11212143Y-38479000D01*
X11202619Y-38488524D01*
X11183571Y-38517095D01*
X11174048Y-38555190D01*
X11174048Y-38631381D01*
X11183571Y-38650429D01*
X11193095Y-38659952D01*
X11212143Y-38669476D01*
X11250238Y-38669476D01*
X11269286Y-38659952D01*
X11278809Y-38650429D01*
X11288333Y-38631381D01*
X11288333Y-38583762D01*
X11278809Y-38564714D01*
X11269286Y-38555190D01*
X11250238Y-38545667D01*
X11212143Y-38545667D01*
X11193095Y-38555190D01*
X11183571Y-38564714D01*
X11174048Y-38583762D01*
X11459762Y-38469476D02*
X11421667Y-38469476D01*
X11402619Y-38479000D01*
X11393095Y-38488524D01*
X11374048Y-38517095D01*
X11364524Y-38555190D01*
X11364524Y-38631381D01*
X11374048Y-38650429D01*
X11383571Y-38659952D01*
X11402619Y-38669476D01*
X11440714Y-38669476D01*
X11459762Y-38659952D01*
X11469286Y-38650429D01*
X11478809Y-38631381D01*
X11478809Y-38583762D01*
X11469286Y-38564714D01*
X11459762Y-38555190D01*
X11440714Y-38545667D01*
X11402619Y-38545667D01*
X11383571Y-38555190D01*
X11374048Y-38564714D01*
X11364524Y-38583762D01*
X11574048Y-38669476D02*
X11612143Y-38669476D01*
X11631190Y-38659952D01*
X11640714Y-38650429D01*
X11659762Y-38621857D01*
X11669286Y-38583762D01*
X11669286Y-38507571D01*
X11659762Y-38488524D01*
X11650238Y-38479000D01*
X11631190Y-38469476D01*
X11593095Y-38469476D01*
X11574048Y-38479000D01*
X11564524Y-38488524D01*
X11555000Y-38507571D01*
X11555000Y-38555190D01*
X11564524Y-38574238D01*
X11574048Y-38583762D01*
X11593095Y-38593286D01*
X11631190Y-38593286D01*
X11650238Y-38583762D01*
X11659762Y-38574238D01*
X11669286Y-38555190D01*
X11745476Y-38469476D02*
X11745476Y-38507571D01*
X11821667Y-38469476D02*
X11821667Y-38507571D01*
X12116905Y-38745667D02*
X12107381Y-38736143D01*
X12088333Y-38707571D01*
X12078809Y-38688524D01*
X12069286Y-38659952D01*
X12059762Y-38612333D01*
X12059762Y-38574238D01*
X12069286Y-38526619D01*
X12078809Y-38498048D01*
X12088333Y-38479000D01*
X12107381Y-38450429D01*
X12116905Y-38440905D01*
X12297857Y-38669476D02*
X12183571Y-38669476D01*
X12240714Y-38669476D02*
X12240714Y-38469476D01*
X12221667Y-38498048D01*
X12202619Y-38517095D01*
X12183571Y-38526619D01*
X12412143Y-38555190D02*
X12393095Y-38545667D01*
X12383571Y-38536143D01*
X12374048Y-38517095D01*
X12374048Y-38507571D01*
X12383571Y-38488524D01*
X12393095Y-38479000D01*
X12412143Y-38469476D01*
X12450238Y-38469476D01*
X12469286Y-38479000D01*
X12478809Y-38488524D01*
X12488333Y-38507571D01*
X12488333Y-38517095D01*
X12478809Y-38536143D01*
X12469286Y-38545667D01*
X12450238Y-38555190D01*
X12412143Y-38555190D01*
X12393095Y-38564714D01*
X12383571Y-38574238D01*
X12374048Y-38593286D01*
X12374048Y-38631381D01*
X12383571Y-38650429D01*
X12393095Y-38659952D01*
X12412143Y-38669476D01*
X12450238Y-38669476D01*
X12469286Y-38659952D01*
X12478809Y-38650429D01*
X12488333Y-38631381D01*
X12488333Y-38593286D01*
X12478809Y-38574238D01*
X12469286Y-38564714D01*
X12450238Y-38555190D01*
X12602619Y-38555190D02*
X12583571Y-38545667D01*
X12574048Y-38536143D01*
X12564524Y-38517095D01*
X12564524Y-38507571D01*
X12574048Y-38488524D01*
X12583571Y-38479000D01*
X12602619Y-38469476D01*
X12640714Y-38469476D01*
X12659762Y-38479000D01*
X12669286Y-38488524D01*
X12678809Y-38507571D01*
X12678809Y-38517095D01*
X12669286Y-38536143D01*
X12659762Y-38545667D01*
X12640714Y-38555190D01*
X12602619Y-38555190D01*
X12583571Y-38564714D01*
X12574048Y-38574238D01*
X12564524Y-38593286D01*
X12564524Y-38631381D01*
X12574048Y-38650429D01*
X12583571Y-38659952D01*
X12602619Y-38669476D01*
X12640714Y-38669476D01*
X12659762Y-38659952D01*
X12669286Y-38650429D01*
X12678809Y-38631381D01*
X12678809Y-38593286D01*
X12669286Y-38574238D01*
X12659762Y-38564714D01*
X12640714Y-38555190D01*
X12916905Y-38669476D02*
X12916905Y-38469476D01*
X13002619Y-38669476D02*
X13002619Y-38564714D01*
X12993095Y-38545667D01*
X12974048Y-38536143D01*
X12945476Y-38536143D01*
X12926428Y-38545667D01*
X12916905Y-38555190D01*
X13126428Y-38669476D02*
X13107381Y-38659952D01*
X13097857Y-38650429D01*
X13088333Y-38631381D01*
X13088333Y-38574238D01*
X13097857Y-38555190D01*
X13107381Y-38545667D01*
X13126428Y-38536143D01*
X13155000Y-38536143D01*
X13174048Y-38545667D01*
X13183571Y-38555190D01*
X13193095Y-38574238D01*
X13193095Y-38631381D01*
X13183571Y-38650429D01*
X13174048Y-38659952D01*
X13155000Y-38669476D01*
X13126428Y-38669476D01*
X13307381Y-38669476D02*
X13288333Y-38659952D01*
X13278809Y-38640905D01*
X13278809Y-38469476D01*
X13459762Y-38659952D02*
X13440714Y-38669476D01*
X13402619Y-38669476D01*
X13383571Y-38659952D01*
X13374048Y-38640905D01*
X13374048Y-38564714D01*
X13383571Y-38545667D01*
X13402619Y-38536143D01*
X13440714Y-38536143D01*
X13459762Y-38545667D01*
X13469286Y-38564714D01*
X13469286Y-38583762D01*
X13374048Y-38602810D01*
X13545476Y-38659952D02*
X13564524Y-38669476D01*
X13602619Y-38669476D01*
X13621667Y-38659952D01*
X13631190Y-38640905D01*
X13631190Y-38631381D01*
X13621667Y-38612333D01*
X13602619Y-38602810D01*
X13574048Y-38602810D01*
X13555000Y-38593286D01*
X13545476Y-38574238D01*
X13545476Y-38564714D01*
X13555000Y-38545667D01*
X13574048Y-38536143D01*
X13602619Y-38536143D01*
X13621667Y-38545667D01*
X13697857Y-38745667D02*
X13707381Y-38736143D01*
X13726428Y-38707571D01*
X13735952Y-38688524D01*
X13745476Y-38659952D01*
X13755000Y-38612333D01*
X13755000Y-38574238D01*
X13745476Y-38526619D01*
X13735952Y-38498048D01*
X13726428Y-38479000D01*
X13707381Y-38450429D01*
X13697857Y-38440905D01*
X14059762Y-38745667D02*
X14050238Y-38736143D01*
X14031190Y-38707571D01*
X14021667Y-38688524D01*
X14012143Y-38659952D01*
X14002619Y-38612333D01*
X14002619Y-38574238D01*
X14012143Y-38526619D01*
X14021667Y-38498048D01*
X14031190Y-38479000D01*
X14050238Y-38450429D01*
X14059762Y-38440905D01*
X14135952Y-38536143D02*
X14135952Y-38669476D01*
X14135952Y-38555190D02*
X14145476Y-38545667D01*
X14164524Y-38536143D01*
X14193095Y-38536143D01*
X14212143Y-38545667D01*
X14221667Y-38564714D01*
X14221667Y-38669476D01*
X14345476Y-38669476D02*
X14326428Y-38659952D01*
X14316905Y-38650429D01*
X14307381Y-38631381D01*
X14307381Y-38574238D01*
X14316905Y-38555190D01*
X14326428Y-38545667D01*
X14345476Y-38536143D01*
X14374048Y-38536143D01*
X14393095Y-38545667D01*
X14402619Y-38555190D01*
X14412143Y-38574238D01*
X14412143Y-38631381D01*
X14402619Y-38650429D01*
X14393095Y-38659952D01*
X14374048Y-38669476D01*
X14345476Y-38669476D01*
X14469286Y-38536143D02*
X14545476Y-38536143D01*
X14497857Y-38469476D02*
X14497857Y-38640905D01*
X14507381Y-38659952D01*
X14526428Y-38669476D01*
X14545476Y-38669476D01*
X14764524Y-38536143D02*
X14764524Y-38736143D01*
X14764524Y-38545667D02*
X14783571Y-38536143D01*
X14821667Y-38536143D01*
X14840714Y-38545667D01*
X14850238Y-38555190D01*
X14859762Y-38574238D01*
X14859762Y-38631381D01*
X14850238Y-38650429D01*
X14840714Y-38659952D01*
X14821667Y-38669476D01*
X14783571Y-38669476D01*
X14764524Y-38659952D01*
X14974048Y-38669476D02*
X14955000Y-38659952D01*
X14945476Y-38640905D01*
X14945476Y-38469476D01*
X15135952Y-38669476D02*
X15135952Y-38564714D01*
X15126428Y-38545667D01*
X15107381Y-38536143D01*
X15069286Y-38536143D01*
X15050238Y-38545667D01*
X15135952Y-38659952D02*
X15116905Y-38669476D01*
X15069286Y-38669476D01*
X15050238Y-38659952D01*
X15040714Y-38640905D01*
X15040714Y-38621857D01*
X15050238Y-38602810D01*
X15069286Y-38593286D01*
X15116905Y-38593286D01*
X15135952Y-38583762D01*
X15202619Y-38536143D02*
X15278809Y-38536143D01*
X15231190Y-38469476D02*
X15231190Y-38640905D01*
X15240714Y-38659952D01*
X15259762Y-38669476D01*
X15278809Y-38669476D01*
X15421667Y-38659952D02*
X15402619Y-38669476D01*
X15364524Y-38669476D01*
X15345476Y-38659952D01*
X15335952Y-38640905D01*
X15335952Y-38564714D01*
X15345476Y-38545667D01*
X15364524Y-38536143D01*
X15402619Y-38536143D01*
X15421667Y-38545667D01*
X15431190Y-38564714D01*
X15431190Y-38583762D01*
X15335952Y-38602810D01*
X15602619Y-38669476D02*
X15602619Y-38469476D01*
X15602619Y-38659952D02*
X15583571Y-38669476D01*
X15545476Y-38669476D01*
X15526428Y-38659952D01*
X15516905Y-38650429D01*
X15507381Y-38631381D01*
X15507381Y-38574238D01*
X15516905Y-38555190D01*
X15526428Y-38545667D01*
X15545476Y-38536143D01*
X15583571Y-38536143D01*
X15602619Y-38545667D01*
X15678809Y-38745667D02*
X15688333Y-38736143D01*
X15707381Y-38707571D01*
X15716905Y-38688524D01*
X15726428Y-38659952D01*
X15735952Y-38612333D01*
X15735952Y-38574238D01*
X15726428Y-38526619D01*
X15716905Y-38498048D01*
X15707381Y-38479000D01*
X15688333Y-38450429D01*
X15678809Y-38440905D01*
D15*
X8518640Y-38932640D02*
X8518640Y-38805360D01*
X8391360Y-38805360D01*
X8391360Y-38932640D01*
X8518640Y-38932640D01*
D11*
X8907381Y-38959476D02*
X8793095Y-38959476D01*
X8850238Y-38959476D02*
X8850238Y-38759476D01*
X8831190Y-38788048D01*
X8812143Y-38807095D01*
X8793095Y-38816619D01*
X8993095Y-38940429D02*
X9002619Y-38949952D01*
X8993095Y-38959476D01*
X8983571Y-38949952D01*
X8993095Y-38940429D01*
X8993095Y-38959476D01*
X9116905Y-38845190D02*
X9097857Y-38835667D01*
X9088333Y-38826143D01*
X9078810Y-38807095D01*
X9078810Y-38797571D01*
X9088333Y-38778524D01*
X9097857Y-38769000D01*
X9116905Y-38759476D01*
X9155000Y-38759476D01*
X9174048Y-38769000D01*
X9183571Y-38778524D01*
X9193095Y-38797571D01*
X9193095Y-38807095D01*
X9183571Y-38826143D01*
X9174048Y-38835667D01*
X9155000Y-38845190D01*
X9116905Y-38845190D01*
X9097857Y-38854714D01*
X9088333Y-38864238D01*
X9078810Y-38883286D01*
X9078810Y-38921381D01*
X9088333Y-38940429D01*
X9097857Y-38949952D01*
X9116905Y-38959476D01*
X9155000Y-38959476D01*
X9174048Y-38949952D01*
X9183571Y-38940429D01*
X9193095Y-38921381D01*
X9193095Y-38883286D01*
X9183571Y-38864238D01*
X9174048Y-38854714D01*
X9155000Y-38845190D01*
X9316905Y-38759476D02*
X9335952Y-38759476D01*
X9355000Y-38769000D01*
X9364524Y-38778524D01*
X9374048Y-38797571D01*
X9383571Y-38835667D01*
X9383571Y-38883286D01*
X9374048Y-38921381D01*
X9364524Y-38940429D01*
X9355000Y-38949952D01*
X9335952Y-38959476D01*
X9316905Y-38959476D01*
X9297857Y-38949952D01*
X9288333Y-38940429D01*
X9278810Y-38921381D01*
X9269286Y-38883286D01*
X9269286Y-38835667D01*
X9278810Y-38797571D01*
X9288333Y-38778524D01*
X9297857Y-38769000D01*
X9316905Y-38759476D01*
X9507381Y-38759476D02*
X9526429Y-38759476D01*
X9545476Y-38769000D01*
X9555000Y-38778524D01*
X9564524Y-38797571D01*
X9574048Y-38835667D01*
X9574048Y-38883286D01*
X9564524Y-38921381D01*
X9555000Y-38940429D01*
X9545476Y-38949952D01*
X9526429Y-38959476D01*
X9507381Y-38959476D01*
X9488333Y-38949952D01*
X9478810Y-38940429D01*
X9469286Y-38921381D01*
X9459762Y-38883286D01*
X9459762Y-38835667D01*
X9469286Y-38797571D01*
X9478810Y-38778524D01*
X9488333Y-38769000D01*
X9507381Y-38759476D01*
X9659762Y-38959476D02*
X9659762Y-38826143D01*
X9659762Y-38845190D02*
X9669286Y-38835667D01*
X9688333Y-38826143D01*
X9716905Y-38826143D01*
X9735952Y-38835667D01*
X9745476Y-38854714D01*
X9745476Y-38959476D01*
X9745476Y-38854714D02*
X9755000Y-38835667D01*
X9774048Y-38826143D01*
X9802619Y-38826143D01*
X9821667Y-38835667D01*
X9831190Y-38854714D01*
X9831190Y-38959476D01*
X9926429Y-38959476D02*
X9926429Y-38826143D01*
X9926429Y-38845190D02*
X9935952Y-38835667D01*
X9955000Y-38826143D01*
X9983571Y-38826143D01*
X10002619Y-38835667D01*
X10012143Y-38854714D01*
X10012143Y-38959476D01*
X10012143Y-38854714D02*
X10021667Y-38835667D01*
X10040714Y-38826143D01*
X10069286Y-38826143D01*
X10088333Y-38835667D01*
X10097857Y-38854714D01*
X10097857Y-38959476D01*
X10488333Y-38749952D02*
X10316905Y-39007095D01*
X10745476Y-38759476D02*
X10764524Y-38759476D01*
X10783571Y-38769000D01*
X10793095Y-38778524D01*
X10802619Y-38797571D01*
X10812143Y-38835667D01*
X10812143Y-38883286D01*
X10802619Y-38921381D01*
X10793095Y-38940429D01*
X10783571Y-38949952D01*
X10764524Y-38959476D01*
X10745476Y-38959476D01*
X10726429Y-38949952D01*
X10716905Y-38940429D01*
X10707381Y-38921381D01*
X10697857Y-38883286D01*
X10697857Y-38835667D01*
X10707381Y-38797571D01*
X10716905Y-38778524D01*
X10726429Y-38769000D01*
X10745476Y-38759476D01*
X10897857Y-38940429D02*
X10907381Y-38949952D01*
X10897857Y-38959476D01*
X10888333Y-38949952D01*
X10897857Y-38940429D01*
X10897857Y-38959476D01*
X11031190Y-38759476D02*
X11050238Y-38759476D01*
X11069286Y-38769000D01*
X11078810Y-38778524D01*
X11088333Y-38797571D01*
X11097857Y-38835667D01*
X11097857Y-38883286D01*
X11088333Y-38921381D01*
X11078810Y-38940429D01*
X11069286Y-38949952D01*
X11050238Y-38959476D01*
X11031190Y-38959476D01*
X11012143Y-38949952D01*
X11002619Y-38940429D01*
X10993095Y-38921381D01*
X10983571Y-38883286D01*
X10983571Y-38835667D01*
X10993095Y-38797571D01*
X11002619Y-38778524D01*
X11012143Y-38769000D01*
X11031190Y-38759476D01*
X11164524Y-38759476D02*
X11297857Y-38759476D01*
X11212143Y-38959476D01*
X11412143Y-38759476D02*
X11431190Y-38759476D01*
X11450238Y-38769000D01*
X11459762Y-38778524D01*
X11469286Y-38797571D01*
X11478809Y-38835667D01*
X11478809Y-38883286D01*
X11469286Y-38921381D01*
X11459762Y-38940429D01*
X11450238Y-38949952D01*
X11431190Y-38959476D01*
X11412143Y-38959476D01*
X11393095Y-38949952D01*
X11383571Y-38940429D01*
X11374048Y-38921381D01*
X11364524Y-38883286D01*
X11364524Y-38835667D01*
X11374048Y-38797571D01*
X11383571Y-38778524D01*
X11393095Y-38769000D01*
X11412143Y-38759476D01*
X11574048Y-38959476D02*
X11612143Y-38959476D01*
X11631190Y-38949952D01*
X11640714Y-38940429D01*
X11659762Y-38911857D01*
X11669286Y-38873762D01*
X11669286Y-38797571D01*
X11659762Y-38778524D01*
X11650238Y-38769000D01*
X11631190Y-38759476D01*
X11593095Y-38759476D01*
X11574048Y-38769000D01*
X11564524Y-38778524D01*
X11555000Y-38797571D01*
X11555000Y-38845190D01*
X11564524Y-38864238D01*
X11574048Y-38873762D01*
X11593095Y-38883286D01*
X11631190Y-38883286D01*
X11650238Y-38873762D01*
X11659762Y-38864238D01*
X11669286Y-38845190D01*
X11745476Y-38759476D02*
X11745476Y-38797571D01*
X11821667Y-38759476D02*
X11821667Y-38797571D01*
X12116905Y-39035667D02*
X12107381Y-39026143D01*
X12088333Y-38997571D01*
X12078809Y-38978524D01*
X12069286Y-38949952D01*
X12059762Y-38902333D01*
X12059762Y-38864238D01*
X12069286Y-38816619D01*
X12078809Y-38788048D01*
X12088333Y-38769000D01*
X12107381Y-38740429D01*
X12116905Y-38730905D01*
X12278809Y-38826143D02*
X12278809Y-38959476D01*
X12231190Y-38749952D02*
X12183571Y-38892810D01*
X12307381Y-38892810D01*
X12535952Y-38959476D02*
X12535952Y-38759476D01*
X12621667Y-38959476D02*
X12621667Y-38854714D01*
X12612143Y-38835667D01*
X12593095Y-38826143D01*
X12564524Y-38826143D01*
X12545476Y-38835667D01*
X12535952Y-38845190D01*
X12745476Y-38959476D02*
X12726428Y-38949952D01*
X12716905Y-38940429D01*
X12707381Y-38921381D01*
X12707381Y-38864238D01*
X12716905Y-38845190D01*
X12726428Y-38835667D01*
X12745476Y-38826143D01*
X12774048Y-38826143D01*
X12793095Y-38835667D01*
X12802619Y-38845190D01*
X12812143Y-38864238D01*
X12812143Y-38921381D01*
X12802619Y-38940429D01*
X12793095Y-38949952D01*
X12774048Y-38959476D01*
X12745476Y-38959476D01*
X12926428Y-38959476D02*
X12907381Y-38949952D01*
X12897857Y-38930905D01*
X12897857Y-38759476D01*
X13078809Y-38949952D02*
X13059762Y-38959476D01*
X13021667Y-38959476D01*
X13002619Y-38949952D01*
X12993095Y-38930905D01*
X12993095Y-38854714D01*
X13002619Y-38835667D01*
X13021667Y-38826143D01*
X13059762Y-38826143D01*
X13078809Y-38835667D01*
X13088333Y-38854714D01*
X13088333Y-38873762D01*
X12993095Y-38892810D01*
X13164524Y-38949952D02*
X13183571Y-38959476D01*
X13221667Y-38959476D01*
X13240714Y-38949952D01*
X13250238Y-38930905D01*
X13250238Y-38921381D01*
X13240714Y-38902333D01*
X13221667Y-38892810D01*
X13193095Y-38892810D01*
X13174048Y-38883286D01*
X13164524Y-38864238D01*
X13164524Y-38854714D01*
X13174048Y-38835667D01*
X13193095Y-38826143D01*
X13221667Y-38826143D01*
X13240714Y-38835667D01*
X13316905Y-39035667D02*
X13326428Y-39026143D01*
X13345476Y-38997571D01*
X13355000Y-38978524D01*
X13364524Y-38949952D01*
X13374048Y-38902333D01*
X13374048Y-38864238D01*
X13364524Y-38816619D01*
X13355000Y-38788048D01*
X13345476Y-38769000D01*
X13326428Y-38740429D01*
X13316905Y-38730905D01*
X13678809Y-39035667D02*
X13669286Y-39026143D01*
X13650238Y-38997571D01*
X13640714Y-38978524D01*
X13631190Y-38949952D01*
X13621667Y-38902333D01*
X13621667Y-38864238D01*
X13631190Y-38816619D01*
X13640714Y-38788048D01*
X13650238Y-38769000D01*
X13669286Y-38740429D01*
X13678809Y-38730905D01*
X13755000Y-38826143D02*
X13755000Y-38959476D01*
X13755000Y-38845190D02*
X13764524Y-38835667D01*
X13783571Y-38826143D01*
X13812143Y-38826143D01*
X13831190Y-38835667D01*
X13840714Y-38854714D01*
X13840714Y-38959476D01*
X13964524Y-38959476D02*
X13945476Y-38949952D01*
X13935952Y-38940429D01*
X13926428Y-38921381D01*
X13926428Y-38864238D01*
X13935952Y-38845190D01*
X13945476Y-38835667D01*
X13964524Y-38826143D01*
X13993095Y-38826143D01*
X14012143Y-38835667D01*
X14021667Y-38845190D01*
X14031190Y-38864238D01*
X14031190Y-38921381D01*
X14021667Y-38940429D01*
X14012143Y-38949952D01*
X13993095Y-38959476D01*
X13964524Y-38959476D01*
X14088333Y-38826143D02*
X14164524Y-38826143D01*
X14116905Y-38759476D02*
X14116905Y-38930905D01*
X14126428Y-38949952D01*
X14145476Y-38959476D01*
X14164524Y-38959476D01*
X14383571Y-38826143D02*
X14383571Y-39026143D01*
X14383571Y-38835667D02*
X14402619Y-38826143D01*
X14440714Y-38826143D01*
X14459762Y-38835667D01*
X14469286Y-38845190D01*
X14478809Y-38864238D01*
X14478809Y-38921381D01*
X14469286Y-38940429D01*
X14459762Y-38949952D01*
X14440714Y-38959476D01*
X14402619Y-38959476D01*
X14383571Y-38949952D01*
X14593095Y-38959476D02*
X14574048Y-38949952D01*
X14564524Y-38930905D01*
X14564524Y-38759476D01*
X14755000Y-38959476D02*
X14755000Y-38854714D01*
X14745476Y-38835667D01*
X14726428Y-38826143D01*
X14688333Y-38826143D01*
X14669286Y-38835667D01*
X14755000Y-38949952D02*
X14735952Y-38959476D01*
X14688333Y-38959476D01*
X14669286Y-38949952D01*
X14659762Y-38930905D01*
X14659762Y-38911857D01*
X14669286Y-38892810D01*
X14688333Y-38883286D01*
X14735952Y-38883286D01*
X14755000Y-38873762D01*
X14821667Y-38826143D02*
X14897857Y-38826143D01*
X14850238Y-38759476D02*
X14850238Y-38930905D01*
X14859762Y-38949952D01*
X14878809Y-38959476D01*
X14897857Y-38959476D01*
X15040714Y-38949952D02*
X15021667Y-38959476D01*
X14983571Y-38959476D01*
X14964524Y-38949952D01*
X14955000Y-38930905D01*
X14955000Y-38854714D01*
X14964524Y-38835667D01*
X14983571Y-38826143D01*
X15021667Y-38826143D01*
X15040714Y-38835667D01*
X15050238Y-38854714D01*
X15050238Y-38873762D01*
X14955000Y-38892810D01*
X15221667Y-38959476D02*
X15221667Y-38759476D01*
X15221667Y-38949952D02*
X15202619Y-38959476D01*
X15164524Y-38959476D01*
X15145476Y-38949952D01*
X15135952Y-38940429D01*
X15126428Y-38921381D01*
X15126428Y-38864238D01*
X15135952Y-38845190D01*
X15145476Y-38835667D01*
X15164524Y-38826143D01*
X15202619Y-38826143D01*
X15221667Y-38835667D01*
X15297857Y-39035667D02*
X15307381Y-39026143D01*
X15326428Y-38997571D01*
X15335952Y-38978524D01*
X15345476Y-38949952D01*
X15355000Y-38902333D01*
X15355000Y-38864238D01*
X15345476Y-38816619D01*
X15335952Y-38788048D01*
X15326428Y-38769000D01*
X15307381Y-38740429D01*
X15297857Y-38730905D01*
X8445000Y-39269000D02*
X8545000Y-39169000D01*
X8445000Y-39069000D01*
X8345000Y-39169000D01*
X8445000Y-39269000D01*
X8888333Y-39126143D02*
X8888333Y-39259476D01*
X8840714Y-39049952D02*
X8793095Y-39192810D01*
X8916905Y-39192810D01*
X8993095Y-39240429D02*
X9002619Y-39249952D01*
X8993095Y-39259476D01*
X8983571Y-39249952D01*
X8993095Y-39240429D01*
X8993095Y-39259476D01*
X9126429Y-39059476D02*
X9145476Y-39059476D01*
X9164524Y-39069000D01*
X9174048Y-39078524D01*
X9183571Y-39097571D01*
X9193095Y-39135667D01*
X9193095Y-39183286D01*
X9183571Y-39221381D01*
X9174048Y-39240429D01*
X9164524Y-39249952D01*
X9145476Y-39259476D01*
X9126429Y-39259476D01*
X9107381Y-39249952D01*
X9097857Y-39240429D01*
X9088333Y-39221381D01*
X9078810Y-39183286D01*
X9078810Y-39135667D01*
X9088333Y-39097571D01*
X9097857Y-39078524D01*
X9107381Y-39069000D01*
X9126429Y-39059476D01*
X9316905Y-39059476D02*
X9335952Y-39059476D01*
X9355000Y-39069000D01*
X9364524Y-39078524D01*
X9374048Y-39097571D01*
X9383571Y-39135667D01*
X9383571Y-39183286D01*
X9374048Y-39221381D01*
X9364524Y-39240429D01*
X9355000Y-39249952D01*
X9335952Y-39259476D01*
X9316905Y-39259476D01*
X9297857Y-39249952D01*
X9288333Y-39240429D01*
X9278810Y-39221381D01*
X9269286Y-39183286D01*
X9269286Y-39135667D01*
X9278810Y-39097571D01*
X9288333Y-39078524D01*
X9297857Y-39069000D01*
X9316905Y-39059476D01*
X9507381Y-39059476D02*
X9526429Y-39059476D01*
X9545476Y-39069000D01*
X9555000Y-39078524D01*
X9564524Y-39097571D01*
X9574048Y-39135667D01*
X9574048Y-39183286D01*
X9564524Y-39221381D01*
X9555000Y-39240429D01*
X9545476Y-39249952D01*
X9526429Y-39259476D01*
X9507381Y-39259476D01*
X9488333Y-39249952D01*
X9478810Y-39240429D01*
X9469286Y-39221381D01*
X9459762Y-39183286D01*
X9459762Y-39135667D01*
X9469286Y-39097571D01*
X9478810Y-39078524D01*
X9488333Y-39069000D01*
X9507381Y-39059476D01*
X9659762Y-39259476D02*
X9659762Y-39126143D01*
X9659762Y-39145190D02*
X9669286Y-39135667D01*
X9688333Y-39126143D01*
X9716905Y-39126143D01*
X9735952Y-39135667D01*
X9745476Y-39154714D01*
X9745476Y-39259476D01*
X9745476Y-39154714D02*
X9755000Y-39135667D01*
X9774048Y-39126143D01*
X9802619Y-39126143D01*
X9821667Y-39135667D01*
X9831190Y-39154714D01*
X9831190Y-39259476D01*
X9926429Y-39259476D02*
X9926429Y-39126143D01*
X9926429Y-39145190D02*
X9935952Y-39135667D01*
X9955000Y-39126143D01*
X9983571Y-39126143D01*
X10002619Y-39135667D01*
X10012143Y-39154714D01*
X10012143Y-39259476D01*
X10012143Y-39154714D02*
X10021667Y-39135667D01*
X10040714Y-39126143D01*
X10069286Y-39126143D01*
X10088333Y-39135667D01*
X10097857Y-39154714D01*
X10097857Y-39259476D01*
X10488333Y-39049952D02*
X10316905Y-39307095D01*
X10745476Y-39059476D02*
X10764524Y-39059476D01*
X10783571Y-39069000D01*
X10793095Y-39078524D01*
X10802619Y-39097571D01*
X10812143Y-39135667D01*
X10812143Y-39183286D01*
X10802619Y-39221381D01*
X10793095Y-39240429D01*
X10783571Y-39249952D01*
X10764524Y-39259476D01*
X10745476Y-39259476D01*
X10726429Y-39249952D01*
X10716905Y-39240429D01*
X10707381Y-39221381D01*
X10697857Y-39183286D01*
X10697857Y-39135667D01*
X10707381Y-39097571D01*
X10716905Y-39078524D01*
X10726429Y-39069000D01*
X10745476Y-39059476D01*
X10897857Y-39240429D02*
X10907381Y-39249952D01*
X10897857Y-39259476D01*
X10888333Y-39249952D01*
X10897857Y-39240429D01*
X10897857Y-39259476D01*
X11097857Y-39259476D02*
X10983571Y-39259476D01*
X11040714Y-39259476D02*
X11040714Y-39059476D01*
X11021667Y-39088048D01*
X11002619Y-39107095D01*
X10983571Y-39116619D01*
X11278809Y-39059476D02*
X11183571Y-39059476D01*
X11174048Y-39154714D01*
X11183571Y-39145190D01*
X11202619Y-39135667D01*
X11250238Y-39135667D01*
X11269286Y-39145190D01*
X11278809Y-39154714D01*
X11288333Y-39173762D01*
X11288333Y-39221381D01*
X11278809Y-39240429D01*
X11269286Y-39249952D01*
X11250238Y-39259476D01*
X11202619Y-39259476D01*
X11183571Y-39249952D01*
X11174048Y-39240429D01*
X11355000Y-39059476D02*
X11488333Y-39059476D01*
X11402619Y-39259476D01*
X11659762Y-39059476D02*
X11564524Y-39059476D01*
X11555000Y-39154714D01*
X11564524Y-39145190D01*
X11583571Y-39135667D01*
X11631190Y-39135667D01*
X11650238Y-39145190D01*
X11659762Y-39154714D01*
X11669286Y-39173762D01*
X11669286Y-39221381D01*
X11659762Y-39240429D01*
X11650238Y-39249952D01*
X11631190Y-39259476D01*
X11583571Y-39259476D01*
X11564524Y-39249952D01*
X11555000Y-39240429D01*
X11745476Y-39059476D02*
X11745476Y-39097571D01*
X11821667Y-39059476D02*
X11821667Y-39097571D01*
X12116905Y-39335667D02*
X12107381Y-39326143D01*
X12088333Y-39297571D01*
X12078809Y-39278524D01*
X12069286Y-39249952D01*
X12059762Y-39202333D01*
X12059762Y-39164238D01*
X12069286Y-39116619D01*
X12078809Y-39088048D01*
X12088333Y-39069000D01*
X12107381Y-39040429D01*
X12116905Y-39030905D01*
X12202619Y-39259476D02*
X12240714Y-39259476D01*
X12259762Y-39249952D01*
X12269286Y-39240429D01*
X12288333Y-39211857D01*
X12297857Y-39173762D01*
X12297857Y-39097571D01*
X12288333Y-39078524D01*
X12278809Y-39069000D01*
X12259762Y-39059476D01*
X12221667Y-39059476D01*
X12202619Y-39069000D01*
X12193095Y-39078524D01*
X12183571Y-39097571D01*
X12183571Y-39145190D01*
X12193095Y-39164238D01*
X12202619Y-39173762D01*
X12221667Y-39183286D01*
X12259762Y-39183286D01*
X12278809Y-39173762D01*
X12288333Y-39164238D01*
X12297857Y-39145190D01*
X12469286Y-39126143D02*
X12469286Y-39259476D01*
X12421667Y-39049952D02*
X12374048Y-39192810D01*
X12497857Y-39192810D01*
X12726428Y-39259476D02*
X12726428Y-39059476D01*
X12812143Y-39259476D02*
X12812143Y-39154714D01*
X12802619Y-39135667D01*
X12783571Y-39126143D01*
X12755000Y-39126143D01*
X12735952Y-39135667D01*
X12726428Y-39145190D01*
X12935952Y-39259476D02*
X12916905Y-39249952D01*
X12907381Y-39240429D01*
X12897857Y-39221381D01*
X12897857Y-39164238D01*
X12907381Y-39145190D01*
X12916905Y-39135667D01*
X12935952Y-39126143D01*
X12964524Y-39126143D01*
X12983571Y-39135667D01*
X12993095Y-39145190D01*
X13002619Y-39164238D01*
X13002619Y-39221381D01*
X12993095Y-39240429D01*
X12983571Y-39249952D01*
X12964524Y-39259476D01*
X12935952Y-39259476D01*
X13116905Y-39259476D02*
X13097857Y-39249952D01*
X13088333Y-39230905D01*
X13088333Y-39059476D01*
X13269286Y-39249952D02*
X13250238Y-39259476D01*
X13212143Y-39259476D01*
X13193095Y-39249952D01*
X13183571Y-39230905D01*
X13183571Y-39154714D01*
X13193095Y-39135667D01*
X13212143Y-39126143D01*
X13250238Y-39126143D01*
X13269286Y-39135667D01*
X13278809Y-39154714D01*
X13278809Y-39173762D01*
X13183571Y-39192810D01*
X13355000Y-39249952D02*
X13374048Y-39259476D01*
X13412143Y-39259476D01*
X13431190Y-39249952D01*
X13440714Y-39230905D01*
X13440714Y-39221381D01*
X13431190Y-39202333D01*
X13412143Y-39192810D01*
X13383571Y-39192810D01*
X13364524Y-39183286D01*
X13355000Y-39164238D01*
X13355000Y-39154714D01*
X13364524Y-39135667D01*
X13383571Y-39126143D01*
X13412143Y-39126143D01*
X13431190Y-39135667D01*
X13507381Y-39335667D02*
X13516905Y-39326143D01*
X13535952Y-39297571D01*
X13545476Y-39278524D01*
X13555000Y-39249952D01*
X13564524Y-39202333D01*
X13564524Y-39164238D01*
X13555000Y-39116619D01*
X13545476Y-39088048D01*
X13535952Y-39069000D01*
X13516905Y-39040429D01*
X13507381Y-39030905D01*
X13869286Y-39335667D02*
X13859762Y-39326143D01*
X13840714Y-39297571D01*
X13831190Y-39278524D01*
X13821667Y-39249952D01*
X13812143Y-39202333D01*
X13812143Y-39164238D01*
X13821667Y-39116619D01*
X13831190Y-39088048D01*
X13840714Y-39069000D01*
X13859762Y-39040429D01*
X13869286Y-39030905D01*
X13945476Y-39126143D02*
X13945476Y-39259476D01*
X13945476Y-39145190D02*
X13955000Y-39135667D01*
X13974048Y-39126143D01*
X14002619Y-39126143D01*
X14021667Y-39135667D01*
X14031190Y-39154714D01*
X14031190Y-39259476D01*
X14155000Y-39259476D02*
X14135952Y-39249952D01*
X14126428Y-39240429D01*
X14116905Y-39221381D01*
X14116905Y-39164238D01*
X14126428Y-39145190D01*
X14135952Y-39135667D01*
X14155000Y-39126143D01*
X14183571Y-39126143D01*
X14202619Y-39135667D01*
X14212143Y-39145190D01*
X14221667Y-39164238D01*
X14221667Y-39221381D01*
X14212143Y-39240429D01*
X14202619Y-39249952D01*
X14183571Y-39259476D01*
X14155000Y-39259476D01*
X14278809Y-39126143D02*
X14355000Y-39126143D01*
X14307381Y-39059476D02*
X14307381Y-39230905D01*
X14316905Y-39249952D01*
X14335952Y-39259476D01*
X14355000Y-39259476D01*
X14574048Y-39126143D02*
X14574048Y-39326143D01*
X14574048Y-39135667D02*
X14593095Y-39126143D01*
X14631190Y-39126143D01*
X14650238Y-39135667D01*
X14659762Y-39145190D01*
X14669286Y-39164238D01*
X14669286Y-39221381D01*
X14659762Y-39240429D01*
X14650238Y-39249952D01*
X14631190Y-39259476D01*
X14593095Y-39259476D01*
X14574048Y-39249952D01*
X14783571Y-39259476D02*
X14764524Y-39249952D01*
X14755000Y-39230905D01*
X14755000Y-39059476D01*
X14945476Y-39259476D02*
X14945476Y-39154714D01*
X14935952Y-39135667D01*
X14916905Y-39126143D01*
X14878809Y-39126143D01*
X14859762Y-39135667D01*
X14945476Y-39249952D02*
X14926428Y-39259476D01*
X14878809Y-39259476D01*
X14859762Y-39249952D01*
X14850238Y-39230905D01*
X14850238Y-39211857D01*
X14859762Y-39192810D01*
X14878809Y-39183286D01*
X14926428Y-39183286D01*
X14945476Y-39173762D01*
X15012143Y-39126143D02*
X15088333Y-39126143D01*
X15040714Y-39059476D02*
X15040714Y-39230905D01*
X15050238Y-39249952D01*
X15069286Y-39259476D01*
X15088333Y-39259476D01*
X15231190Y-39249952D02*
X15212143Y-39259476D01*
X15174048Y-39259476D01*
X15155000Y-39249952D01*
X15145476Y-39230905D01*
X15145476Y-39154714D01*
X15155000Y-39135667D01*
X15174048Y-39126143D01*
X15212143Y-39126143D01*
X15231190Y-39135667D01*
X15240714Y-39154714D01*
X15240714Y-39173762D01*
X15145476Y-39192810D01*
X15412143Y-39259476D02*
X15412143Y-39059476D01*
X15412143Y-39249952D02*
X15393095Y-39259476D01*
X15355000Y-39259476D01*
X15335952Y-39249952D01*
X15326428Y-39240429D01*
X15316905Y-39221381D01*
X15316905Y-39164238D01*
X15326428Y-39145190D01*
X15335952Y-39135667D01*
X15355000Y-39126143D01*
X15393095Y-39126143D01*
X15412143Y-39135667D01*
X15488333Y-39335667D02*
X15497857Y-39326143D01*
X15516905Y-39297571D01*
X15526428Y-39278524D01*
X15535952Y-39249952D01*
X15545476Y-39202333D01*
X15545476Y-39164238D01*
X15535952Y-39116619D01*
X15526428Y-39088048D01*
X15516905Y-39069000D01*
X15497857Y-39040429D01*
X15488333Y-39030905D01*
M02*
