%TF.GenerationSoftware,KiCad,Pcbnew,7.0.1-3b83917a11~172~ubuntu22.04.1*%
%TF.CreationDate,2023-03-31T15:59:06+02:00*%
%TF.ProjectId,Europe-flex,4575726f-7065-42d6-966c-65782e6b6963,rev?*%
%TF.SameCoordinates,Original*%
%TF.FileFunction,Drillmap*%
%TF.FilePolarity,Positive*%
%FSLAX45Y45*%
G04 Gerber Fmt 4.5, Leading zero omitted, Abs format (unit mm)*
G04 Created by KiCad (PCBNEW 7.0.1-3b83917a11~172~ubuntu22.04.1) date 2023-03-31 15:59:06*
%MOMM*%
%LPD*%
G01*
G04 APERTURE LIST*
%ADD10C,0.100000*%
%ADD11C,0.200000*%
%ADD12C,0.110000*%
%ADD13C,0.150000*%
%ADD14C,0.170000*%
%ADD15C,0.180000*%
%ADD16C,0.400000*%
G04 APERTURE END LIST*
D10*
X32432500Y-37061000D02*
X32430000Y-37400000D01*
X8800000Y-19400000D02*
X30800000Y-19400000D01*
X30800000Y-19600000D01*
X8800000Y-19600000D01*
X8800000Y-19400000D01*
X30094500Y-35453000D02*
X30090000Y-37400000D01*
X35050000Y-22850000D02*
X31600000Y-22850000D01*
X33500000Y-23100000D02*
X33600000Y-23150000D01*
X30300000Y-27750000D02*
X28950000Y-30050000D01*
X33500000Y-29900000D02*
X40250000Y-26200000D01*
X21700000Y-26650000D02*
X8550000Y-26650000D01*
X53855000Y-3450000D02*
X53850000Y-26650000D01*
X8550000Y-26650000D02*
X8550000Y-3450000D01*
X31600000Y-13300000D02*
X53600000Y-13300000D01*
X53600000Y-13500000D01*
X31600000Y-13500000D01*
X31600000Y-13300000D01*
X33450000Y-30050000D02*
X32100000Y-27750000D01*
X30800000Y-22800000D02*
X30800000Y-22850000D01*
X28900000Y-29900000D02*
X30150000Y-27700000D01*
X28900000Y-23100000D02*
X30300000Y-27750000D01*
X31450000Y-30150000D02*
X39350000Y-30150000D01*
X39350000Y-30450000D01*
X31450000Y-30450000D01*
X31450000Y-30150000D01*
X22950000Y-30150000D02*
X30900000Y-30150000D01*
X30900000Y-30450000D01*
X22950000Y-30450000D01*
X22950000Y-30150000D01*
X28950000Y-30050000D02*
X22600000Y-26650000D01*
X31100000Y-4000000D02*
X31300000Y-4000000D01*
X31300000Y-34200000D01*
X31100000Y-34200000D01*
X31100000Y-4000000D01*
X23450000Y-24050000D02*
X22150000Y-26200000D01*
X30150000Y-27700000D02*
X28800000Y-23150000D01*
X27350000Y-22850000D02*
X23450000Y-24050000D01*
X39000000Y-24000000D02*
X40700000Y-26650000D01*
X22600000Y-37400000D02*
X22600000Y-26650000D01*
X8550000Y-3450000D02*
X53855000Y-3450000D01*
X23400000Y-24000000D02*
X25100000Y-23500000D01*
X31600000Y-22850000D02*
X31600000Y-22800000D01*
X32432000Y-34700000D02*
X32432500Y-37061000D01*
X39800000Y-26650000D02*
X39800000Y-37400000D01*
X31600000Y-22800000D02*
X35050000Y-22800000D01*
X30100000Y-34700000D02*
X32432000Y-34700000D01*
X25100000Y-23500000D02*
X27350000Y-22800000D01*
X35050000Y-22800000D02*
X37300000Y-23500000D01*
X39800000Y-37400000D02*
X32430000Y-37400000D01*
X27350000Y-22800000D02*
X30800000Y-22800000D01*
X32100000Y-27750000D02*
X33500000Y-23100000D01*
X53850000Y-26650000D02*
X40700000Y-26650000D01*
X30094500Y-35453000D02*
X30100000Y-34700000D01*
X31550000Y-19400000D02*
X53550000Y-19400000D01*
X53550000Y-19600000D01*
X31550000Y-19600000D01*
X31550000Y-19400000D01*
X39800000Y-26650000D02*
X33450000Y-30050000D01*
X22150000Y-26200000D02*
X28900000Y-29900000D01*
X30090000Y-37400000D02*
X22600000Y-37400000D01*
X32250000Y-27700000D02*
X33500000Y-29900000D01*
X37300000Y-23500000D02*
X39000000Y-24000000D01*
X38950000Y-24050000D02*
X35050000Y-22850000D01*
X31550000Y-6000000D02*
X53550000Y-6000000D01*
X53550000Y-7250000D01*
X31550000Y-7250000D01*
X31550000Y-6000000D01*
X21700000Y-26650000D02*
X23400000Y-24000000D01*
X8800000Y-6000000D02*
X30800000Y-6000000D01*
X30800000Y-7250000D01*
X8800000Y-7250000D01*
X8800000Y-6000000D01*
X33600000Y-23150000D02*
X32250000Y-27700000D01*
X8700000Y-13300000D02*
X30700000Y-13300000D01*
X30700000Y-13500000D01*
X8700000Y-13500000D01*
X8700000Y-13300000D01*
X40250000Y-26200000D02*
X38950000Y-24050000D01*
X30800000Y-22850000D02*
X27350000Y-22850000D01*
X28800000Y-23150000D02*
X28900000Y-23100000D01*
D11*
D12*
X29345000Y-36245000D02*
X29455000Y-36355000D01*
X29455000Y-36245000D02*
X29345000Y-36355000D01*
X29845000Y-36245000D02*
X29955000Y-36355000D01*
X29955000Y-36245000D02*
X29845000Y-36355000D01*
X32615000Y-36155000D02*
X32725000Y-36265000D01*
X32725000Y-36155000D02*
X32615000Y-36265000D01*
X33115000Y-36155000D02*
X33225000Y-36265000D01*
X33225000Y-36155000D02*
X33115000Y-36265000D01*
D13*
X30125000Y-32765500D02*
G75*
G03*
X30125000Y-32765500I-75000J0D01*
G01*
X30125000Y-33250500D02*
G75*
G03*
X30125000Y-33250500I-75000J0D01*
G01*
X32428000Y-32735000D02*
G75*
G03*
X32428000Y-32735000I-75000J0D01*
G01*
X32428000Y-33220000D02*
G75*
G03*
X32428000Y-33220000I-75000J0D01*
G01*
D14*
X10541000Y-21818000D02*
X10541000Y-21988000D01*
X10456000Y-21903000D02*
X10626000Y-21903000D01*
X11021000Y-24208000D02*
X11021000Y-24378000D01*
X10936000Y-24293000D02*
X11106000Y-24293000D01*
X11557000Y-21818000D02*
X11557000Y-21988000D01*
X11472000Y-21903000D02*
X11642000Y-21903000D01*
X11665000Y-17895000D02*
X11665000Y-18065000D01*
X11580000Y-17980000D02*
X11750000Y-17980000D01*
X11685000Y-15515000D02*
X11685000Y-15685000D01*
X11600000Y-15600000D02*
X11770000Y-15600000D01*
X12037000Y-24208000D02*
X12037000Y-24378000D01*
X11952000Y-24293000D02*
X12122000Y-24293000D01*
X12253000Y-11547000D02*
X12253000Y-11717000D01*
X12168000Y-11632000D02*
X12338000Y-11632000D01*
X12681000Y-17895000D02*
X12681000Y-18065000D01*
X12596000Y-17980000D02*
X12766000Y-17980000D01*
X12701000Y-15515000D02*
X12701000Y-15685000D01*
X12616000Y-15600000D02*
X12786000Y-15600000D01*
X13269000Y-11547000D02*
X13269000Y-11717000D01*
X13184000Y-11632000D02*
X13354000Y-11632000D01*
X13391000Y-24198000D02*
X13391000Y-24368000D01*
X13306000Y-24283000D02*
X13476000Y-24283000D01*
X13411000Y-21798000D02*
X13411000Y-21968000D01*
X13326000Y-21883000D02*
X13496000Y-21883000D01*
X14375000Y-15515000D02*
X14375000Y-15685000D01*
X14290000Y-15600000D02*
X14460000Y-15600000D01*
X14407000Y-24198000D02*
X14407000Y-24368000D01*
X14322000Y-24283000D02*
X14492000Y-24283000D01*
X14415000Y-17885000D02*
X14415000Y-18055000D01*
X14330000Y-17970000D02*
X14500000Y-17970000D01*
X14427000Y-21798000D02*
X14427000Y-21968000D01*
X14342000Y-21883000D02*
X14512000Y-21883000D01*
X14459000Y-8605000D02*
X14459000Y-8775000D01*
X14374000Y-8690000D02*
X14544000Y-8690000D01*
X14935000Y-11517000D02*
X14935000Y-11687000D01*
X14850000Y-11602000D02*
X15020000Y-11602000D01*
X15391000Y-15515000D02*
X15391000Y-15685000D01*
X15306000Y-15600000D02*
X15476000Y-15600000D01*
X15431000Y-17885000D02*
X15431000Y-18055000D01*
X15346000Y-17970000D02*
X15516000Y-17970000D01*
X15475000Y-8605000D02*
X15475000Y-8775000D01*
X15390000Y-8690000D02*
X15560000Y-8690000D01*
X15781000Y-21338000D02*
X15781000Y-21508000D01*
X15696000Y-21423000D02*
X15866000Y-21423000D01*
X15791000Y-23718000D02*
X15791000Y-23888000D01*
X15706000Y-23803000D02*
X15876000Y-23803000D01*
X15951000Y-11517000D02*
X15951000Y-11687000D01*
X15866000Y-11602000D02*
X16036000Y-11602000D01*
X16569000Y-15045000D02*
X16569000Y-15215000D01*
X16484000Y-15130000D02*
X16654000Y-15130000D01*
X16589000Y-17415000D02*
X16589000Y-17585000D01*
X16504000Y-17500000D02*
X16674000Y-17500000D01*
X16688000Y-8573000D02*
X16688000Y-8743000D01*
X16603000Y-8658000D02*
X16773000Y-8658000D01*
X16797000Y-21338000D02*
X16797000Y-21508000D01*
X16712000Y-21423000D02*
X16882000Y-21423000D01*
X16807000Y-23718000D02*
X16807000Y-23888000D01*
X16722000Y-23803000D02*
X16892000Y-23803000D01*
X17046000Y-11033000D02*
X17046000Y-11203000D01*
X16961000Y-11118000D02*
X17131000Y-11118000D01*
X17585000Y-15045000D02*
X17585000Y-15215000D01*
X17500000Y-15130000D02*
X17670000Y-15130000D01*
X17605000Y-17415000D02*
X17605000Y-17585000D01*
X17520000Y-17500000D02*
X17690000Y-17500000D01*
X17704000Y-8573000D02*
X17704000Y-8743000D01*
X17619000Y-8658000D02*
X17789000Y-8658000D01*
X18062000Y-11033000D02*
X18062000Y-11203000D01*
X17977000Y-11118000D02*
X18147000Y-11118000D01*
X18161000Y-21088000D02*
X18161000Y-21258000D01*
X18076000Y-21173000D02*
X18246000Y-21173000D01*
X18161000Y-23488000D02*
X18161000Y-23658000D01*
X18076000Y-23573000D02*
X18246000Y-23573000D01*
X18767000Y-17175000D02*
X18767000Y-17345000D01*
X18682000Y-17260000D02*
X18852000Y-17260000D01*
X18777000Y-14785000D02*
X18777000Y-14955000D01*
X18692000Y-14870000D02*
X18862000Y-14870000D01*
X18946000Y-8585000D02*
X18946000Y-8755000D01*
X18861000Y-8670000D02*
X19031000Y-8670000D01*
X19177000Y-21088000D02*
X19177000Y-21258000D01*
X19092000Y-21173000D02*
X19262000Y-21173000D01*
X19177000Y-23488000D02*
X19177000Y-23658000D01*
X19092000Y-23573000D02*
X19262000Y-23573000D01*
X19206000Y-10773000D02*
X19206000Y-10943000D01*
X19121000Y-10858000D02*
X19291000Y-10858000D01*
X19783000Y-17175000D02*
X19783000Y-17345000D01*
X19698000Y-17260000D02*
X19868000Y-17260000D01*
X19793000Y-14785000D02*
X19793000Y-14955000D01*
X19708000Y-14870000D02*
X19878000Y-14870000D01*
X19962000Y-8585000D02*
X19962000Y-8755000D01*
X19877000Y-8670000D02*
X20047000Y-8670000D01*
X20222000Y-10773000D02*
X20222000Y-10943000D01*
X20137000Y-10858000D02*
X20307000Y-10858000D01*
X20551000Y-21348000D02*
X20551000Y-21518000D01*
X20466000Y-21433000D02*
X20636000Y-21433000D01*
X20561000Y-23728000D02*
X20561000Y-23898000D01*
X20476000Y-23813000D02*
X20646000Y-23813000D01*
X20947000Y-17415000D02*
X20947000Y-17585000D01*
X20862000Y-17500000D02*
X21032000Y-17500000D01*
X20967000Y-15035000D02*
X20967000Y-15205000D01*
X20882000Y-15120000D02*
X21052000Y-15120000D01*
X21174000Y-8575000D02*
X21174000Y-8745000D01*
X21089000Y-8660000D02*
X21259000Y-8660000D01*
X21364000Y-11023000D02*
X21364000Y-11193000D01*
X21279000Y-11108000D02*
X21449000Y-11108000D01*
X21567000Y-21348000D02*
X21567000Y-21518000D01*
X21482000Y-21433000D02*
X21652000Y-21433000D01*
X21577000Y-23728000D02*
X21577000Y-23898000D01*
X21492000Y-23813000D02*
X21662000Y-23813000D01*
X21963000Y-17415000D02*
X21963000Y-17585000D01*
X21878000Y-17500000D02*
X22048000Y-17500000D01*
X21983000Y-15035000D02*
X21983000Y-15205000D01*
X21898000Y-15120000D02*
X22068000Y-15120000D01*
X22190000Y-8575000D02*
X22190000Y-8745000D01*
X22105000Y-8660000D02*
X22275000Y-8660000D01*
X22380000Y-11023000D02*
X22380000Y-11193000D01*
X22295000Y-11108000D02*
X22465000Y-11108000D01*
X22911000Y-21578000D02*
X22911000Y-21748000D01*
X22826000Y-21663000D02*
X22996000Y-21663000D01*
X23236000Y-17645000D02*
X23236000Y-17815000D01*
X23151000Y-17730000D02*
X23321000Y-17730000D01*
X23256000Y-15265000D02*
X23256000Y-15435000D01*
X23171000Y-15350000D02*
X23341000Y-15350000D01*
X23422000Y-8565000D02*
X23422000Y-8735000D01*
X23337000Y-8650000D02*
X23507000Y-8650000D01*
X23482000Y-11243000D02*
X23482000Y-11413000D01*
X23397000Y-11328000D02*
X23567000Y-11328000D01*
X23927000Y-21578000D02*
X23927000Y-21748000D01*
X23842000Y-21663000D02*
X24012000Y-21663000D01*
X24067459Y-25284201D02*
X24067459Y-25454201D01*
X23982459Y-25369201D02*
X24152459Y-25369201D01*
X24252000Y-17645000D02*
X24252000Y-17815000D01*
X24167000Y-17730000D02*
X24337000Y-17730000D01*
X24272000Y-15265000D02*
X24272000Y-15435000D01*
X24187000Y-15350000D02*
X24357000Y-15350000D01*
X24438000Y-8565000D02*
X24438000Y-8735000D01*
X24353000Y-8650000D02*
X24523000Y-8650000D01*
X24498000Y-11243000D02*
X24498000Y-11413000D01*
X24413000Y-11328000D02*
X24583000Y-11328000D01*
X24947340Y-25792201D02*
X24947340Y-25962201D01*
X24862340Y-25877201D02*
X25032340Y-25877201D01*
X25321000Y-21578000D02*
X25321000Y-21748000D01*
X25236000Y-21663000D02*
X25406000Y-21663000D01*
X25438000Y-17655000D02*
X25438000Y-17825000D01*
X25353000Y-17740000D02*
X25523000Y-17740000D01*
X25448000Y-15265000D02*
X25448000Y-15435000D01*
X25363000Y-15350000D02*
X25533000Y-15350000D01*
X25592000Y-8565000D02*
X25592000Y-8735000D01*
X25507000Y-8650000D02*
X25677000Y-8650000D01*
X25600000Y-11253000D02*
X25600000Y-11423000D01*
X25515000Y-11338000D02*
X25685000Y-11338000D01*
X26137459Y-26464201D02*
X26137459Y-26634201D01*
X26052459Y-26549201D02*
X26222459Y-26549201D01*
X26337000Y-21578000D02*
X26337000Y-21748000D01*
X26252000Y-21663000D02*
X26422000Y-21663000D01*
X26454000Y-17655000D02*
X26454000Y-17825000D01*
X26369000Y-17740000D02*
X26539000Y-17740000D01*
X26464000Y-15265000D02*
X26464000Y-15435000D01*
X26379000Y-15350000D02*
X26549000Y-15350000D01*
X26608000Y-8565000D02*
X26608000Y-8735000D01*
X26523000Y-8650000D02*
X26693000Y-8650000D01*
X26616000Y-11253000D02*
X26616000Y-11423000D01*
X26531000Y-11338000D02*
X26701000Y-11338000D01*
X27017340Y-26972201D02*
X27017340Y-27142201D01*
X26932340Y-27057201D02*
X27102340Y-27057201D01*
X27317459Y-24404201D02*
X27317459Y-24574201D01*
X27232459Y-24489201D02*
X27402459Y-24489201D01*
X27772000Y-8555000D02*
X27772000Y-8725000D01*
X27687000Y-8640000D02*
X27857000Y-8640000D01*
X27772000Y-11253000D02*
X27772000Y-11423000D01*
X27687000Y-11338000D02*
X27857000Y-11338000D01*
X28142000Y-15703000D02*
X28142000Y-15873000D01*
X28057000Y-15788000D02*
X28227000Y-15788000D01*
X28142000Y-16719000D02*
X28142000Y-16889000D01*
X28057000Y-16804000D02*
X28227000Y-16804000D01*
X28197340Y-24912201D02*
X28197340Y-25082201D01*
X28112340Y-24997201D02*
X28282340Y-24997201D01*
X28197459Y-27674201D02*
X28197459Y-27844201D01*
X28112459Y-27759201D02*
X28282459Y-27759201D01*
X28223000Y-20572000D02*
X28223000Y-20742000D01*
X28138000Y-20657000D02*
X28308000Y-20657000D01*
X28223000Y-21588000D02*
X28223000Y-21758000D01*
X28138000Y-21673000D02*
X28308000Y-21673000D01*
X28788000Y-8555000D02*
X28788000Y-8725000D01*
X28703000Y-8640000D02*
X28873000Y-8640000D01*
X28788000Y-11253000D02*
X28788000Y-11423000D01*
X28703000Y-11338000D02*
X28873000Y-11338000D01*
X29077340Y-28182201D02*
X29077340Y-28352201D01*
X28992340Y-28267201D02*
X29162340Y-28267201D01*
X33320000Y-8579000D02*
X33320000Y-8749000D01*
X33235000Y-8664000D02*
X33405000Y-8664000D01*
X33370000Y-11315000D02*
X33370000Y-11485000D01*
X33285000Y-11400000D02*
X33455000Y-11400000D01*
X33460059Y-28369001D02*
X33460059Y-28539001D01*
X33375059Y-28454001D02*
X33545059Y-28454001D01*
X34000000Y-15707000D02*
X34000000Y-15877000D01*
X33915000Y-15792000D02*
X34085000Y-15792000D01*
X34000000Y-16723000D02*
X34000000Y-16893000D01*
X33915000Y-16808000D02*
X34085000Y-16808000D01*
X34010000Y-20607000D02*
X34010000Y-20777000D01*
X33925000Y-20692000D02*
X34095000Y-20692000D01*
X34010000Y-21623000D02*
X34010000Y-21793000D01*
X33925000Y-21708000D02*
X34095000Y-21708000D01*
X34320059Y-25111941D02*
X34320059Y-25281941D01*
X34235059Y-25196941D02*
X34405059Y-25196941D01*
X34336000Y-8579000D02*
X34336000Y-8749000D01*
X34251000Y-8664000D02*
X34421000Y-8664000D01*
X34339941Y-27861001D02*
X34339941Y-28031001D01*
X34254941Y-27946001D02*
X34424941Y-27946001D01*
X34386000Y-11315000D02*
X34386000Y-11485000D01*
X34301000Y-11400000D02*
X34471000Y-11400000D01*
X35199941Y-24603941D02*
X35199941Y-24773941D01*
X35114941Y-24688941D02*
X35284941Y-24688941D01*
X35530059Y-27185001D02*
X35530059Y-27355001D01*
X35445059Y-27270001D02*
X35615059Y-27270001D01*
X35760000Y-11305000D02*
X35760000Y-11475000D01*
X35675000Y-11390000D02*
X35845000Y-11390000D01*
X35860000Y-17649000D02*
X35860000Y-17819000D01*
X35775000Y-17734000D02*
X35945000Y-17734000D01*
X35880000Y-21589000D02*
X35880000Y-21759000D01*
X35795000Y-21674000D02*
X35965000Y-21674000D01*
X35890000Y-15269000D02*
X35890000Y-15439000D01*
X35805000Y-15354000D02*
X35975000Y-15354000D01*
X36200000Y-8569000D02*
X36200000Y-8739000D01*
X36115000Y-8654000D02*
X36285000Y-8654000D01*
X36409941Y-26677001D02*
X36409941Y-26847001D01*
X36324941Y-26762001D02*
X36494941Y-26762001D01*
X36776000Y-11305000D02*
X36776000Y-11475000D01*
X36691000Y-11390000D02*
X36861000Y-11390000D01*
X36876000Y-17649000D02*
X36876000Y-17819000D01*
X36791000Y-17734000D02*
X36961000Y-17734000D01*
X36896000Y-21589000D02*
X36896000Y-21759000D01*
X36811000Y-21674000D02*
X36981000Y-21674000D01*
X36906000Y-15269000D02*
X36906000Y-15439000D01*
X36821000Y-15354000D02*
X36991000Y-15354000D01*
X37216000Y-8569000D02*
X37216000Y-8739000D01*
X37131000Y-8654000D02*
X37301000Y-8654000D01*
X37590059Y-25985001D02*
X37590059Y-26155001D01*
X37505059Y-26070001D02*
X37675059Y-26070001D01*
X38140000Y-11325000D02*
X38140000Y-11495000D01*
X38055000Y-11410000D02*
X38225000Y-11410000D01*
X38250000Y-15259000D02*
X38250000Y-15429000D01*
X38165000Y-15344000D02*
X38335000Y-15344000D01*
X38260000Y-17639000D02*
X38260000Y-17809000D01*
X38175000Y-17724000D02*
X38345000Y-17724000D01*
X38260000Y-21569000D02*
X38260000Y-21739000D01*
X38175000Y-21654000D02*
X38345000Y-21654000D01*
X38469941Y-25477001D02*
X38469941Y-25647001D01*
X38384941Y-25562001D02*
X38554941Y-25562001D01*
X39060000Y-8579000D02*
X39060000Y-8749000D01*
X38975000Y-8664000D02*
X39145000Y-8664000D01*
X39156000Y-11325000D02*
X39156000Y-11495000D01*
X39071000Y-11410000D02*
X39241000Y-11410000D01*
X39266000Y-15259000D02*
X39266000Y-15429000D01*
X39181000Y-15344000D02*
X39351000Y-15344000D01*
X39276000Y-17639000D02*
X39276000Y-17809000D01*
X39191000Y-17724000D02*
X39361000Y-17724000D01*
X39276000Y-21569000D02*
X39276000Y-21739000D01*
X39191000Y-21654000D02*
X39361000Y-21654000D01*
X40076000Y-8579000D02*
X40076000Y-8749000D01*
X39991000Y-8664000D02*
X40161000Y-8664000D01*
X40530000Y-11085000D02*
X40530000Y-11255000D01*
X40445000Y-11170000D02*
X40615000Y-11170000D01*
X40630000Y-21359000D02*
X40630000Y-21529000D01*
X40545000Y-21444000D02*
X40715000Y-21444000D01*
X40640000Y-23739000D02*
X40640000Y-23909000D01*
X40555000Y-23824000D02*
X40725000Y-23824000D01*
X40650000Y-15019000D02*
X40650000Y-15189000D01*
X40565000Y-15104000D02*
X40735000Y-15104000D01*
X40650000Y-17419000D02*
X40650000Y-17589000D01*
X40565000Y-17504000D02*
X40735000Y-17504000D01*
X41546000Y-11085000D02*
X41546000Y-11255000D01*
X41461000Y-11170000D02*
X41631000Y-11170000D01*
X41646000Y-21359000D02*
X41646000Y-21529000D01*
X41561000Y-21444000D02*
X41731000Y-21444000D01*
X41656000Y-23739000D02*
X41656000Y-23909000D01*
X41571000Y-23824000D02*
X41741000Y-23824000D01*
X41666000Y-15019000D02*
X41666000Y-15189000D01*
X41581000Y-15104000D02*
X41751000Y-15104000D01*
X41666000Y-17419000D02*
X41666000Y-17589000D01*
X41581000Y-17504000D02*
X41751000Y-17504000D01*
X41914000Y-8581000D02*
X41914000Y-8751000D01*
X41829000Y-8666000D02*
X41999000Y-8666000D01*
X42890000Y-10855000D02*
X42890000Y-11025000D01*
X42805000Y-10940000D02*
X42975000Y-10940000D01*
X42930000Y-8581000D02*
X42930000Y-8751000D01*
X42845000Y-8666000D02*
X43015000Y-8666000D01*
X43016000Y-21111000D02*
X43016000Y-21281000D01*
X42931000Y-21196000D02*
X43101000Y-21196000D01*
X43020000Y-17179000D02*
X43020000Y-17349000D01*
X42935000Y-17264000D02*
X43105000Y-17264000D01*
X43030000Y-14799000D02*
X43030000Y-14969000D01*
X42945000Y-14884000D02*
X43115000Y-14884000D01*
X43030000Y-23479000D02*
X43030000Y-23649000D01*
X42945000Y-23564000D02*
X43115000Y-23564000D01*
X43906000Y-10855000D02*
X43906000Y-11025000D01*
X43821000Y-10940000D02*
X43991000Y-10940000D01*
X44032000Y-21111000D02*
X44032000Y-21281000D01*
X43947000Y-21196000D02*
X44117000Y-21196000D01*
X44036000Y-17179000D02*
X44036000Y-17349000D01*
X43951000Y-17264000D02*
X44121000Y-17264000D01*
X44046000Y-14799000D02*
X44046000Y-14969000D01*
X43961000Y-14884000D02*
X44131000Y-14884000D01*
X44046000Y-23479000D02*
X44046000Y-23649000D01*
X43961000Y-23564000D02*
X44131000Y-23564000D01*
X44780000Y-8589000D02*
X44780000Y-8759000D01*
X44695000Y-8674000D02*
X44865000Y-8674000D01*
X45300000Y-11315000D02*
X45300000Y-11485000D01*
X45215000Y-11400000D02*
X45385000Y-11400000D01*
X45380000Y-23749000D02*
X45380000Y-23919000D01*
X45295000Y-23834000D02*
X45465000Y-23834000D01*
X45400000Y-15259000D02*
X45400000Y-15429000D01*
X45315000Y-15344000D02*
X45485000Y-15344000D01*
X45410000Y-17409000D02*
X45410000Y-17579000D01*
X45325000Y-17494000D02*
X45495000Y-17494000D01*
X45440000Y-21369000D02*
X45440000Y-21539000D01*
X45355000Y-21454000D02*
X45525000Y-21454000D01*
X45796000Y-8589000D02*
X45796000Y-8759000D01*
X45711000Y-8674000D02*
X45881000Y-8674000D01*
X46316000Y-11315000D02*
X46316000Y-11485000D01*
X46231000Y-11400000D02*
X46401000Y-11400000D01*
X46396000Y-23749000D02*
X46396000Y-23919000D01*
X46311000Y-23834000D02*
X46481000Y-23834000D01*
X46416000Y-15259000D02*
X46416000Y-15429000D01*
X46331000Y-15344000D02*
X46501000Y-15344000D01*
X46426000Y-17409000D02*
X46426000Y-17579000D01*
X46341000Y-17494000D02*
X46511000Y-17494000D01*
X46456000Y-21369000D02*
X46456000Y-21539000D01*
X46371000Y-21454000D02*
X46541000Y-21454000D01*
X47640000Y-8569000D02*
X47640000Y-8739000D01*
X47555000Y-8654000D02*
X47725000Y-8654000D01*
X47660000Y-11565000D02*
X47660000Y-11735000D01*
X47575000Y-11650000D02*
X47745000Y-11650000D01*
X47760000Y-17879000D02*
X47760000Y-18049000D01*
X47675000Y-17964000D02*
X47845000Y-17964000D01*
X47760000Y-24229000D02*
X47760000Y-24399000D01*
X47675000Y-24314000D02*
X47845000Y-24314000D01*
X47770000Y-21819000D02*
X47770000Y-21989000D01*
X47685000Y-21904000D02*
X47855000Y-21904000D01*
X47790000Y-15509000D02*
X47790000Y-15679000D01*
X47705000Y-15594000D02*
X47875000Y-15594000D01*
X48656000Y-8569000D02*
X48656000Y-8739000D01*
X48571000Y-8654000D02*
X48741000Y-8654000D01*
X48676000Y-11565000D02*
X48676000Y-11735000D01*
X48591000Y-11650000D02*
X48761000Y-11650000D01*
X48776000Y-17879000D02*
X48776000Y-18049000D01*
X48691000Y-17964000D02*
X48861000Y-17964000D01*
X48776000Y-24229000D02*
X48776000Y-24399000D01*
X48691000Y-24314000D02*
X48861000Y-24314000D01*
X48786000Y-21819000D02*
X48786000Y-21989000D01*
X48701000Y-21904000D02*
X48871000Y-21904000D01*
X48806000Y-15509000D02*
X48806000Y-15679000D01*
X48721000Y-15594000D02*
X48891000Y-15594000D01*
X50150000Y-24239000D02*
X50150000Y-24409000D01*
X50065000Y-24324000D02*
X50235000Y-24324000D01*
X50510000Y-8579000D02*
X50510000Y-8749000D01*
X50425000Y-8664000D02*
X50595000Y-8664000D01*
X50530000Y-11555000D02*
X50530000Y-11725000D01*
X50445000Y-11640000D02*
X50615000Y-11640000D01*
X50630000Y-17889000D02*
X50630000Y-18059000D01*
X50545000Y-17974000D02*
X50715000Y-17974000D01*
X50640000Y-15499000D02*
X50640000Y-15669000D01*
X50555000Y-15584000D02*
X50725000Y-15584000D01*
X50660000Y-21829000D02*
X50660000Y-21999000D01*
X50575000Y-21914000D02*
X50745000Y-21914000D01*
X51166000Y-24239000D02*
X51166000Y-24409000D01*
X51081000Y-24324000D02*
X51251000Y-24324000D01*
X51526000Y-8579000D02*
X51526000Y-8749000D01*
X51441000Y-8664000D02*
X51611000Y-8664000D01*
X51546000Y-11555000D02*
X51546000Y-11725000D01*
X51461000Y-11640000D02*
X51631000Y-11640000D01*
X51646000Y-17889000D02*
X51646000Y-18059000D01*
X51561000Y-17974000D02*
X51731000Y-17974000D01*
X51656000Y-15499000D02*
X51656000Y-15669000D01*
X51571000Y-15584000D02*
X51741000Y-15584000D01*
X51676000Y-21829000D02*
X51676000Y-21999000D01*
X51591000Y-21914000D02*
X51761000Y-21914000D01*
D15*
X30416640Y-32799140D02*
X30416640Y-32671860D01*
X30289360Y-32671860D01*
X30289360Y-32799140D01*
X30416640Y-32799140D01*
X30416640Y-33344140D02*
X30416640Y-33216860D01*
X30289360Y-33216860D01*
X30289360Y-33344140D01*
X30416640Y-33344140D01*
X32113640Y-32768640D02*
X32113640Y-32641360D01*
X31986360Y-32641360D01*
X31986360Y-32768640D01*
X32113640Y-32768640D01*
X32113640Y-33313640D02*
X32113640Y-33186360D01*
X31986360Y-33186360D01*
X31986360Y-33313640D01*
X32113640Y-33313640D01*
D16*
X11049000Y-22103000D02*
X11249000Y-21903000D01*
X11049000Y-21703000D01*
X10849000Y-21903000D01*
X11049000Y-22103000D01*
X11529000Y-24493000D02*
X11729000Y-24293000D01*
X11529000Y-24093000D01*
X11329000Y-24293000D01*
X11529000Y-24493000D01*
X12173000Y-18180000D02*
X12373000Y-17980000D01*
X12173000Y-17780000D01*
X11973000Y-17980000D01*
X12173000Y-18180000D01*
X12193000Y-15800000D02*
X12393000Y-15600000D01*
X12193000Y-15400000D01*
X11993000Y-15600000D01*
X12193000Y-15800000D01*
X12761000Y-11832000D02*
X12961000Y-11632000D01*
X12761000Y-11432000D01*
X12561000Y-11632000D01*
X12761000Y-11832000D01*
X13899000Y-24483000D02*
X14099000Y-24283000D01*
X13899000Y-24083000D01*
X13699000Y-24283000D01*
X13899000Y-24483000D01*
X13919000Y-22083000D02*
X14119000Y-21883000D01*
X13919000Y-21683000D01*
X13719000Y-21883000D01*
X13919000Y-22083000D01*
X14883000Y-15800000D02*
X15083000Y-15600000D01*
X14883000Y-15400000D01*
X14683000Y-15600000D01*
X14883000Y-15800000D01*
X14923000Y-18170000D02*
X15123000Y-17970000D01*
X14923000Y-17770000D01*
X14723000Y-17970000D01*
X14923000Y-18170000D01*
X14967000Y-8890000D02*
X15167000Y-8690000D01*
X14967000Y-8490000D01*
X14767000Y-8690000D01*
X14967000Y-8890000D01*
X15443000Y-11802000D02*
X15643000Y-11602000D01*
X15443000Y-11402000D01*
X15243000Y-11602000D01*
X15443000Y-11802000D01*
X16289000Y-21623000D02*
X16489000Y-21423000D01*
X16289000Y-21223000D01*
X16089000Y-21423000D01*
X16289000Y-21623000D01*
X16299000Y-24003000D02*
X16499000Y-23803000D01*
X16299000Y-23603000D01*
X16099000Y-23803000D01*
X16299000Y-24003000D01*
X17077000Y-15330000D02*
X17277000Y-15130000D01*
X17077000Y-14930000D01*
X16877000Y-15130000D01*
X17077000Y-15330000D01*
X17097000Y-17700000D02*
X17297000Y-17500000D01*
X17097000Y-17300000D01*
X16897000Y-17500000D01*
X17097000Y-17700000D01*
X17196000Y-8858000D02*
X17396000Y-8658000D01*
X17196000Y-8458000D01*
X16996000Y-8658000D01*
X17196000Y-8858000D01*
X17554000Y-11318000D02*
X17754000Y-11118000D01*
X17554000Y-10918000D01*
X17354000Y-11118000D01*
X17554000Y-11318000D01*
X18669000Y-21373000D02*
X18869000Y-21173000D01*
X18669000Y-20973000D01*
X18469000Y-21173000D01*
X18669000Y-21373000D01*
X18669000Y-23773000D02*
X18869000Y-23573000D01*
X18669000Y-23373000D01*
X18469000Y-23573000D01*
X18669000Y-23773000D01*
X19275000Y-17460000D02*
X19475000Y-17260000D01*
X19275000Y-17060000D01*
X19075000Y-17260000D01*
X19275000Y-17460000D01*
X19285000Y-15070000D02*
X19485000Y-14870000D01*
X19285000Y-14670000D01*
X19085000Y-14870000D01*
X19285000Y-15070000D01*
X19454000Y-8870000D02*
X19654000Y-8670000D01*
X19454000Y-8470000D01*
X19254000Y-8670000D01*
X19454000Y-8870000D01*
X19714000Y-11058000D02*
X19914000Y-10858000D01*
X19714000Y-10658000D01*
X19514000Y-10858000D01*
X19714000Y-11058000D01*
X21059000Y-21633000D02*
X21259000Y-21433000D01*
X21059000Y-21233000D01*
X20859000Y-21433000D01*
X21059000Y-21633000D01*
X21069000Y-24013000D02*
X21269000Y-23813000D01*
X21069000Y-23613000D01*
X20869000Y-23813000D01*
X21069000Y-24013000D01*
X21455000Y-17700000D02*
X21655000Y-17500000D01*
X21455000Y-17300000D01*
X21255000Y-17500000D01*
X21455000Y-17700000D01*
X21475000Y-15320000D02*
X21675000Y-15120000D01*
X21475000Y-14920000D01*
X21275000Y-15120000D01*
X21475000Y-15320000D01*
X21682000Y-8860000D02*
X21882000Y-8660000D01*
X21682000Y-8460000D01*
X21482000Y-8660000D01*
X21682000Y-8860000D01*
X21872000Y-11308000D02*
X22072000Y-11108000D01*
X21872000Y-10908000D01*
X21672000Y-11108000D01*
X21872000Y-11308000D01*
X23419000Y-21863000D02*
X23619000Y-21663000D01*
X23419000Y-21463000D01*
X23219000Y-21663000D01*
X23419000Y-21863000D01*
X23744000Y-17930000D02*
X23944000Y-17730000D01*
X23744000Y-17530000D01*
X23544000Y-17730000D01*
X23744000Y-17930000D01*
X23764000Y-15550000D02*
X23964000Y-15350000D01*
X23764000Y-15150000D01*
X23564000Y-15350000D01*
X23764000Y-15550000D01*
X23930000Y-8850000D02*
X24130000Y-8650000D01*
X23930000Y-8450000D01*
X23730000Y-8650000D01*
X23930000Y-8850000D01*
X23990000Y-11528000D02*
X24190000Y-11328000D01*
X23990000Y-11128000D01*
X23790000Y-11328000D01*
X23990000Y-11528000D01*
X24507399Y-25823201D02*
X24707399Y-25623201D01*
X24507399Y-25423201D01*
X24307399Y-25623201D01*
X24507399Y-25823201D01*
X25829000Y-21863000D02*
X26029000Y-21663000D01*
X25829000Y-21463000D01*
X25629000Y-21663000D01*
X25829000Y-21863000D01*
X25946000Y-17940000D02*
X26146000Y-17740000D01*
X25946000Y-17540000D01*
X25746000Y-17740000D01*
X25946000Y-17940000D01*
X25956000Y-15550000D02*
X26156000Y-15350000D01*
X25956000Y-15150000D01*
X25756000Y-15350000D01*
X25956000Y-15550000D01*
X26100000Y-8850000D02*
X26300000Y-8650000D01*
X26100000Y-8450000D01*
X25900000Y-8650000D01*
X26100000Y-8850000D01*
X26108000Y-11538000D02*
X26308000Y-11338000D01*
X26108000Y-11138000D01*
X25908000Y-11338000D01*
X26108000Y-11538000D01*
X26577399Y-27003201D02*
X26777399Y-26803201D01*
X26577399Y-26603201D01*
X26377399Y-26803201D01*
X26577399Y-27003201D01*
X27757399Y-24943201D02*
X27957399Y-24743201D01*
X27757399Y-24543201D01*
X27557399Y-24743201D01*
X27757399Y-24943201D01*
X28142000Y-16496000D02*
X28342000Y-16296000D01*
X28142000Y-16096000D01*
X27942000Y-16296000D01*
X28142000Y-16496000D01*
X28223000Y-21365000D02*
X28423000Y-21165000D01*
X28223000Y-20965000D01*
X28023000Y-21165000D01*
X28223000Y-21365000D01*
X28280000Y-8840000D02*
X28480000Y-8640000D01*
X28280000Y-8440000D01*
X28080000Y-8640000D01*
X28280000Y-8840000D01*
X28280000Y-11538000D02*
X28480000Y-11338000D01*
X28280000Y-11138000D01*
X28080000Y-11338000D01*
X28280000Y-11538000D01*
X28637399Y-28213201D02*
X28837399Y-28013201D01*
X28637399Y-27813201D01*
X28437399Y-28013201D01*
X28637399Y-28213201D01*
X33828000Y-8864000D02*
X34028000Y-8664000D01*
X33828000Y-8464000D01*
X33628000Y-8664000D01*
X33828000Y-8864000D01*
X33878000Y-11600000D02*
X34078000Y-11400000D01*
X33878000Y-11200000D01*
X33678000Y-11400000D01*
X33878000Y-11600000D01*
X33900000Y-28400001D02*
X34100000Y-28200001D01*
X33900000Y-28000001D01*
X33700000Y-28200001D01*
X33900000Y-28400001D01*
X34000000Y-16500000D02*
X34200000Y-16300000D01*
X34000000Y-16100000D01*
X33800000Y-16300000D01*
X34000000Y-16500000D01*
X34010000Y-21400000D02*
X34210000Y-21200000D01*
X34010000Y-21000000D01*
X33810000Y-21200000D01*
X34010000Y-21400000D01*
X34760000Y-25142941D02*
X34960000Y-24942941D01*
X34760000Y-24742941D01*
X34560000Y-24942941D01*
X34760000Y-25142941D01*
X35970000Y-27216001D02*
X36170000Y-27016001D01*
X35970000Y-26816001D01*
X35770000Y-27016001D01*
X35970000Y-27216001D01*
X36268000Y-11590000D02*
X36468000Y-11390000D01*
X36268000Y-11190000D01*
X36068000Y-11390000D01*
X36268000Y-11590000D01*
X36368000Y-17934000D02*
X36568000Y-17734000D01*
X36368000Y-17534000D01*
X36168000Y-17734000D01*
X36368000Y-17934000D01*
X36388000Y-21874000D02*
X36588000Y-21674000D01*
X36388000Y-21474000D01*
X36188000Y-21674000D01*
X36388000Y-21874000D01*
X36398000Y-15554000D02*
X36598000Y-15354000D01*
X36398000Y-15154000D01*
X36198000Y-15354000D01*
X36398000Y-15554000D01*
X36708000Y-8854000D02*
X36908000Y-8654000D01*
X36708000Y-8454000D01*
X36508000Y-8654000D01*
X36708000Y-8854000D01*
X38030000Y-26016001D02*
X38230000Y-25816001D01*
X38030000Y-25616001D01*
X37830000Y-25816001D01*
X38030000Y-26016001D01*
X38648000Y-11610000D02*
X38848000Y-11410000D01*
X38648000Y-11210000D01*
X38448000Y-11410000D01*
X38648000Y-11610000D01*
X38758000Y-15544000D02*
X38958000Y-15344000D01*
X38758000Y-15144000D01*
X38558000Y-15344000D01*
X38758000Y-15544000D01*
X38768000Y-17924000D02*
X38968000Y-17724000D01*
X38768000Y-17524000D01*
X38568000Y-17724000D01*
X38768000Y-17924000D01*
X38768000Y-21854000D02*
X38968000Y-21654000D01*
X38768000Y-21454000D01*
X38568000Y-21654000D01*
X38768000Y-21854000D01*
X39568000Y-8864000D02*
X39768000Y-8664000D01*
X39568000Y-8464000D01*
X39368000Y-8664000D01*
X39568000Y-8864000D01*
X41038000Y-11370000D02*
X41238000Y-11170000D01*
X41038000Y-10970000D01*
X40838000Y-11170000D01*
X41038000Y-11370000D01*
X41138000Y-21644000D02*
X41338000Y-21444000D01*
X41138000Y-21244000D01*
X40938000Y-21444000D01*
X41138000Y-21644000D01*
X41148000Y-24024000D02*
X41348000Y-23824000D01*
X41148000Y-23624000D01*
X40948000Y-23824000D01*
X41148000Y-24024000D01*
X41158000Y-15304000D02*
X41358000Y-15104000D01*
X41158000Y-14904000D01*
X40958000Y-15104000D01*
X41158000Y-15304000D01*
X41158000Y-17704000D02*
X41358000Y-17504000D01*
X41158000Y-17304000D01*
X40958000Y-17504000D01*
X41158000Y-17704000D01*
X42422000Y-8866000D02*
X42622000Y-8666000D01*
X42422000Y-8466000D01*
X42222000Y-8666000D01*
X42422000Y-8866000D01*
X43398000Y-11140000D02*
X43598000Y-10940000D01*
X43398000Y-10740000D01*
X43198000Y-10940000D01*
X43398000Y-11140000D01*
X43524000Y-21396000D02*
X43724000Y-21196000D01*
X43524000Y-20996000D01*
X43324000Y-21196000D01*
X43524000Y-21396000D01*
X43528000Y-17464000D02*
X43728000Y-17264000D01*
X43528000Y-17064000D01*
X43328000Y-17264000D01*
X43528000Y-17464000D01*
X43538000Y-15084000D02*
X43738000Y-14884000D01*
X43538000Y-14684000D01*
X43338000Y-14884000D01*
X43538000Y-15084000D01*
X43538000Y-23764000D02*
X43738000Y-23564000D01*
X43538000Y-23364000D01*
X43338000Y-23564000D01*
X43538000Y-23764000D01*
X45288000Y-8874000D02*
X45488000Y-8674000D01*
X45288000Y-8474000D01*
X45088000Y-8674000D01*
X45288000Y-8874000D01*
X45808000Y-11600000D02*
X46008000Y-11400000D01*
X45808000Y-11200000D01*
X45608000Y-11400000D01*
X45808000Y-11600000D01*
X45888000Y-24034000D02*
X46088000Y-23834000D01*
X45888000Y-23634000D01*
X45688000Y-23834000D01*
X45888000Y-24034000D01*
X45908000Y-15544000D02*
X46108000Y-15344000D01*
X45908000Y-15144000D01*
X45708000Y-15344000D01*
X45908000Y-15544000D01*
X45918000Y-17694000D02*
X46118000Y-17494000D01*
X45918000Y-17294000D01*
X45718000Y-17494000D01*
X45918000Y-17694000D01*
X45948000Y-21654000D02*
X46148000Y-21454000D01*
X45948000Y-21254000D01*
X45748000Y-21454000D01*
X45948000Y-21654000D01*
X48148000Y-8854000D02*
X48348000Y-8654000D01*
X48148000Y-8454000D01*
X47948000Y-8654000D01*
X48148000Y-8854000D01*
X48168000Y-11850000D02*
X48368000Y-11650000D01*
X48168000Y-11450000D01*
X47968000Y-11650000D01*
X48168000Y-11850000D01*
X48268000Y-18164000D02*
X48468000Y-17964000D01*
X48268000Y-17764000D01*
X48068000Y-17964000D01*
X48268000Y-18164000D01*
X48268000Y-24514000D02*
X48468000Y-24314000D01*
X48268000Y-24114000D01*
X48068000Y-24314000D01*
X48268000Y-24514000D01*
X48278000Y-22104000D02*
X48478000Y-21904000D01*
X48278000Y-21704000D01*
X48078000Y-21904000D01*
X48278000Y-22104000D01*
X48298000Y-15794000D02*
X48498000Y-15594000D01*
X48298000Y-15394000D01*
X48098000Y-15594000D01*
X48298000Y-15794000D01*
X50658000Y-24524000D02*
X50858000Y-24324000D01*
X50658000Y-24124000D01*
X50458000Y-24324000D01*
X50658000Y-24524000D01*
X51018000Y-8864000D02*
X51218000Y-8664000D01*
X51018000Y-8464000D01*
X50818000Y-8664000D01*
X51018000Y-8864000D01*
X51038000Y-11840000D02*
X51238000Y-11640000D01*
X51038000Y-11440000D01*
X50838000Y-11640000D01*
X51038000Y-11840000D01*
X51138000Y-18174000D02*
X51338000Y-17974000D01*
X51138000Y-17774000D01*
X50938000Y-17974000D01*
X51138000Y-18174000D01*
X51148000Y-15784000D02*
X51348000Y-15584000D01*
X51148000Y-15384000D01*
X50948000Y-15584000D01*
X51148000Y-15784000D01*
X51168000Y-22114000D02*
X51368000Y-21914000D01*
X51168000Y-21714000D01*
X50968000Y-21914000D01*
X51168000Y-22114000D01*
D11*
X8792619Y-37717524D02*
X8792619Y-37517524D01*
X8792619Y-37517524D02*
X8840238Y-37517524D01*
X8840238Y-37517524D02*
X8868810Y-37527048D01*
X8868810Y-37527048D02*
X8887857Y-37546095D01*
X8887857Y-37546095D02*
X8897381Y-37565143D01*
X8897381Y-37565143D02*
X8906905Y-37603238D01*
X8906905Y-37603238D02*
X8906905Y-37631810D01*
X8906905Y-37631810D02*
X8897381Y-37669905D01*
X8897381Y-37669905D02*
X8887857Y-37688952D01*
X8887857Y-37688952D02*
X8868810Y-37708000D01*
X8868810Y-37708000D02*
X8840238Y-37717524D01*
X8840238Y-37717524D02*
X8792619Y-37717524D01*
X8992619Y-37717524D02*
X8992619Y-37584190D01*
X8992619Y-37622286D02*
X9002143Y-37603238D01*
X9002143Y-37603238D02*
X9011667Y-37593714D01*
X9011667Y-37593714D02*
X9030714Y-37584190D01*
X9030714Y-37584190D02*
X9049762Y-37584190D01*
X9116429Y-37717524D02*
X9116429Y-37584190D01*
X9116429Y-37517524D02*
X9106905Y-37527048D01*
X9106905Y-37527048D02*
X9116429Y-37536571D01*
X9116429Y-37536571D02*
X9125952Y-37527048D01*
X9125952Y-37527048D02*
X9116429Y-37517524D01*
X9116429Y-37517524D02*
X9116429Y-37536571D01*
X9240238Y-37717524D02*
X9221190Y-37708000D01*
X9221190Y-37708000D02*
X9211667Y-37688952D01*
X9211667Y-37688952D02*
X9211667Y-37517524D01*
X9345000Y-37717524D02*
X9325952Y-37708000D01*
X9325952Y-37708000D02*
X9316429Y-37688952D01*
X9316429Y-37688952D02*
X9316429Y-37517524D01*
X9573571Y-37717524D02*
X9573571Y-37517524D01*
X9573571Y-37517524D02*
X9640238Y-37660381D01*
X9640238Y-37660381D02*
X9706905Y-37517524D01*
X9706905Y-37517524D02*
X9706905Y-37717524D01*
X9887857Y-37717524D02*
X9887857Y-37612762D01*
X9887857Y-37612762D02*
X9878333Y-37593714D01*
X9878333Y-37593714D02*
X9859286Y-37584190D01*
X9859286Y-37584190D02*
X9821190Y-37584190D01*
X9821190Y-37584190D02*
X9802143Y-37593714D01*
X9887857Y-37708000D02*
X9868810Y-37717524D01*
X9868810Y-37717524D02*
X9821190Y-37717524D01*
X9821190Y-37717524D02*
X9802143Y-37708000D01*
X9802143Y-37708000D02*
X9792619Y-37688952D01*
X9792619Y-37688952D02*
X9792619Y-37669905D01*
X9792619Y-37669905D02*
X9802143Y-37650857D01*
X9802143Y-37650857D02*
X9821190Y-37641333D01*
X9821190Y-37641333D02*
X9868810Y-37641333D01*
X9868810Y-37641333D02*
X9887857Y-37631810D01*
X9983095Y-37584190D02*
X9983095Y-37784190D01*
X9983095Y-37593714D02*
X10002143Y-37584190D01*
X10002143Y-37584190D02*
X10040238Y-37584190D01*
X10040238Y-37584190D02*
X10059286Y-37593714D01*
X10059286Y-37593714D02*
X10068810Y-37603238D01*
X10068810Y-37603238D02*
X10078333Y-37622286D01*
X10078333Y-37622286D02*
X10078333Y-37679429D01*
X10078333Y-37679429D02*
X10068810Y-37698476D01*
X10068810Y-37698476D02*
X10059286Y-37708000D01*
X10059286Y-37708000D02*
X10040238Y-37717524D01*
X10040238Y-37717524D02*
X10002143Y-37717524D01*
X10002143Y-37717524D02*
X9983095Y-37708000D01*
X10164048Y-37698476D02*
X10173571Y-37708000D01*
X10173571Y-37708000D02*
X10164048Y-37717524D01*
X10164048Y-37717524D02*
X10154524Y-37708000D01*
X10154524Y-37708000D02*
X10164048Y-37698476D01*
X10164048Y-37698476D02*
X10164048Y-37717524D01*
X10164048Y-37593714D02*
X10173571Y-37603238D01*
X10173571Y-37603238D02*
X10164048Y-37612762D01*
X10164048Y-37612762D02*
X10154524Y-37603238D01*
X10154524Y-37603238D02*
X10164048Y-37593714D01*
X10164048Y-37593714D02*
X10164048Y-37612762D01*
D12*
X8435000Y-37990000D02*
X8545000Y-38100000D01*
X8545000Y-37990000D02*
X8435000Y-38100000D01*
D11*
X8897381Y-38137524D02*
X8783095Y-38137524D01*
X8840238Y-38137524D02*
X8840238Y-37937524D01*
X8840238Y-37937524D02*
X8821190Y-37966095D01*
X8821190Y-37966095D02*
X8802143Y-37985143D01*
X8802143Y-37985143D02*
X8783095Y-37994667D01*
X8983095Y-38118476D02*
X8992619Y-38128000D01*
X8992619Y-38128000D02*
X8983095Y-38137524D01*
X8983095Y-38137524D02*
X8973571Y-38128000D01*
X8973571Y-38128000D02*
X8983095Y-38118476D01*
X8983095Y-38118476D02*
X8983095Y-38137524D01*
X9183095Y-38137524D02*
X9068810Y-38137524D01*
X9125952Y-38137524D02*
X9125952Y-37937524D01*
X9125952Y-37937524D02*
X9106905Y-37966095D01*
X9106905Y-37966095D02*
X9087857Y-37985143D01*
X9087857Y-37985143D02*
X9068810Y-37994667D01*
X9306905Y-37937524D02*
X9325952Y-37937524D01*
X9325952Y-37937524D02*
X9345000Y-37947048D01*
X9345000Y-37947048D02*
X9354524Y-37956571D01*
X9354524Y-37956571D02*
X9364048Y-37975619D01*
X9364048Y-37975619D02*
X9373571Y-38013714D01*
X9373571Y-38013714D02*
X9373571Y-38061333D01*
X9373571Y-38061333D02*
X9364048Y-38099429D01*
X9364048Y-38099429D02*
X9354524Y-38118476D01*
X9354524Y-38118476D02*
X9345000Y-38128000D01*
X9345000Y-38128000D02*
X9325952Y-38137524D01*
X9325952Y-38137524D02*
X9306905Y-38137524D01*
X9306905Y-38137524D02*
X9287857Y-38128000D01*
X9287857Y-38128000D02*
X9278333Y-38118476D01*
X9278333Y-38118476D02*
X9268810Y-38099429D01*
X9268810Y-38099429D02*
X9259286Y-38061333D01*
X9259286Y-38061333D02*
X9259286Y-38013714D01*
X9259286Y-38013714D02*
X9268810Y-37975619D01*
X9268810Y-37975619D02*
X9278333Y-37956571D01*
X9278333Y-37956571D02*
X9287857Y-37947048D01*
X9287857Y-37947048D02*
X9306905Y-37937524D01*
X9497381Y-37937524D02*
X9516429Y-37937524D01*
X9516429Y-37937524D02*
X9535476Y-37947048D01*
X9535476Y-37947048D02*
X9545000Y-37956571D01*
X9545000Y-37956571D02*
X9554524Y-37975619D01*
X9554524Y-37975619D02*
X9564048Y-38013714D01*
X9564048Y-38013714D02*
X9564048Y-38061333D01*
X9564048Y-38061333D02*
X9554524Y-38099429D01*
X9554524Y-38099429D02*
X9545000Y-38118476D01*
X9545000Y-38118476D02*
X9535476Y-38128000D01*
X9535476Y-38128000D02*
X9516429Y-38137524D01*
X9516429Y-38137524D02*
X9497381Y-38137524D01*
X9497381Y-38137524D02*
X9478333Y-38128000D01*
X9478333Y-38128000D02*
X9468810Y-38118476D01*
X9468810Y-38118476D02*
X9459286Y-38099429D01*
X9459286Y-38099429D02*
X9449762Y-38061333D01*
X9449762Y-38061333D02*
X9449762Y-38013714D01*
X9449762Y-38013714D02*
X9459286Y-37975619D01*
X9459286Y-37975619D02*
X9468810Y-37956571D01*
X9468810Y-37956571D02*
X9478333Y-37947048D01*
X9478333Y-37947048D02*
X9497381Y-37937524D01*
X9649762Y-38137524D02*
X9649762Y-38004190D01*
X9649762Y-38023238D02*
X9659286Y-38013714D01*
X9659286Y-38013714D02*
X9678333Y-38004190D01*
X9678333Y-38004190D02*
X9706905Y-38004190D01*
X9706905Y-38004190D02*
X9725952Y-38013714D01*
X9725952Y-38013714D02*
X9735476Y-38032762D01*
X9735476Y-38032762D02*
X9735476Y-38137524D01*
X9735476Y-38032762D02*
X9745000Y-38013714D01*
X9745000Y-38013714D02*
X9764048Y-38004190D01*
X9764048Y-38004190D02*
X9792619Y-38004190D01*
X9792619Y-38004190D02*
X9811667Y-38013714D01*
X9811667Y-38013714D02*
X9821191Y-38032762D01*
X9821191Y-38032762D02*
X9821191Y-38137524D01*
X9916429Y-38137524D02*
X9916429Y-38004190D01*
X9916429Y-38023238D02*
X9925952Y-38013714D01*
X9925952Y-38013714D02*
X9945000Y-38004190D01*
X9945000Y-38004190D02*
X9973572Y-38004190D01*
X9973572Y-38004190D02*
X9992619Y-38013714D01*
X9992619Y-38013714D02*
X10002143Y-38032762D01*
X10002143Y-38032762D02*
X10002143Y-38137524D01*
X10002143Y-38032762D02*
X10011667Y-38013714D01*
X10011667Y-38013714D02*
X10030714Y-38004190D01*
X10030714Y-38004190D02*
X10059286Y-38004190D01*
X10059286Y-38004190D02*
X10078333Y-38013714D01*
X10078333Y-38013714D02*
X10087857Y-38032762D01*
X10087857Y-38032762D02*
X10087857Y-38137524D01*
X10478333Y-37928000D02*
X10306905Y-38185143D01*
X10735476Y-37937524D02*
X10754524Y-37937524D01*
X10754524Y-37937524D02*
X10773572Y-37947048D01*
X10773572Y-37947048D02*
X10783095Y-37956571D01*
X10783095Y-37956571D02*
X10792619Y-37975619D01*
X10792619Y-37975619D02*
X10802143Y-38013714D01*
X10802143Y-38013714D02*
X10802143Y-38061333D01*
X10802143Y-38061333D02*
X10792619Y-38099429D01*
X10792619Y-38099429D02*
X10783095Y-38118476D01*
X10783095Y-38118476D02*
X10773572Y-38128000D01*
X10773572Y-38128000D02*
X10754524Y-38137524D01*
X10754524Y-38137524D02*
X10735476Y-38137524D01*
X10735476Y-38137524D02*
X10716429Y-38128000D01*
X10716429Y-38128000D02*
X10706905Y-38118476D01*
X10706905Y-38118476D02*
X10697381Y-38099429D01*
X10697381Y-38099429D02*
X10687857Y-38061333D01*
X10687857Y-38061333D02*
X10687857Y-38013714D01*
X10687857Y-38013714D02*
X10697381Y-37975619D01*
X10697381Y-37975619D02*
X10706905Y-37956571D01*
X10706905Y-37956571D02*
X10716429Y-37947048D01*
X10716429Y-37947048D02*
X10735476Y-37937524D01*
X10887857Y-38118476D02*
X10897381Y-38128000D01*
X10897381Y-38128000D02*
X10887857Y-38137524D01*
X10887857Y-38137524D02*
X10878334Y-38128000D01*
X10878334Y-38128000D02*
X10887857Y-38118476D01*
X10887857Y-38118476D02*
X10887857Y-38137524D01*
X11021191Y-37937524D02*
X11040238Y-37937524D01*
X11040238Y-37937524D02*
X11059286Y-37947048D01*
X11059286Y-37947048D02*
X11068810Y-37956571D01*
X11068810Y-37956571D02*
X11078334Y-37975619D01*
X11078334Y-37975619D02*
X11087857Y-38013714D01*
X11087857Y-38013714D02*
X11087857Y-38061333D01*
X11087857Y-38061333D02*
X11078334Y-38099429D01*
X11078334Y-38099429D02*
X11068810Y-38118476D01*
X11068810Y-38118476D02*
X11059286Y-38128000D01*
X11059286Y-38128000D02*
X11040238Y-38137524D01*
X11040238Y-38137524D02*
X11021191Y-38137524D01*
X11021191Y-38137524D02*
X11002143Y-38128000D01*
X11002143Y-38128000D02*
X10992619Y-38118476D01*
X10992619Y-38118476D02*
X10983095Y-38099429D01*
X10983095Y-38099429D02*
X10973572Y-38061333D01*
X10973572Y-38061333D02*
X10973572Y-38013714D01*
X10973572Y-38013714D02*
X10983095Y-37975619D01*
X10983095Y-37975619D02*
X10992619Y-37956571D01*
X10992619Y-37956571D02*
X11002143Y-37947048D01*
X11002143Y-37947048D02*
X11021191Y-37937524D01*
X11259286Y-38004190D02*
X11259286Y-38137524D01*
X11211667Y-37928000D02*
X11164048Y-38070857D01*
X11164048Y-38070857D02*
X11287857Y-38070857D01*
X11345000Y-37937524D02*
X11468810Y-37937524D01*
X11468810Y-37937524D02*
X11402143Y-38013714D01*
X11402143Y-38013714D02*
X11430714Y-38013714D01*
X11430714Y-38013714D02*
X11449762Y-38023238D01*
X11449762Y-38023238D02*
X11459286Y-38032762D01*
X11459286Y-38032762D02*
X11468810Y-38051810D01*
X11468810Y-38051810D02*
X11468810Y-38099429D01*
X11468810Y-38099429D02*
X11459286Y-38118476D01*
X11459286Y-38118476D02*
X11449762Y-38128000D01*
X11449762Y-38128000D02*
X11430714Y-38137524D01*
X11430714Y-38137524D02*
X11373572Y-38137524D01*
X11373572Y-38137524D02*
X11354524Y-38128000D01*
X11354524Y-38128000D02*
X11345000Y-38118476D01*
X11535476Y-37937524D02*
X11659286Y-37937524D01*
X11659286Y-37937524D02*
X11592619Y-38013714D01*
X11592619Y-38013714D02*
X11621191Y-38013714D01*
X11621191Y-38013714D02*
X11640238Y-38023238D01*
X11640238Y-38023238D02*
X11649762Y-38032762D01*
X11649762Y-38032762D02*
X11659286Y-38051810D01*
X11659286Y-38051810D02*
X11659286Y-38099429D01*
X11659286Y-38099429D02*
X11649762Y-38118476D01*
X11649762Y-38118476D02*
X11640238Y-38128000D01*
X11640238Y-38128000D02*
X11621191Y-38137524D01*
X11621191Y-38137524D02*
X11564048Y-38137524D01*
X11564048Y-38137524D02*
X11545000Y-38128000D01*
X11545000Y-38128000D02*
X11535476Y-38118476D01*
X11735476Y-37937524D02*
X11735476Y-37975619D01*
X11811667Y-37937524D02*
X11811667Y-37975619D01*
X12106905Y-38213714D02*
X12097381Y-38204190D01*
X12097381Y-38204190D02*
X12078334Y-38175619D01*
X12078334Y-38175619D02*
X12068810Y-38156571D01*
X12068810Y-38156571D02*
X12059286Y-38128000D01*
X12059286Y-38128000D02*
X12049762Y-38080381D01*
X12049762Y-38080381D02*
X12049762Y-38042286D01*
X12049762Y-38042286D02*
X12059286Y-37994667D01*
X12059286Y-37994667D02*
X12068810Y-37966095D01*
X12068810Y-37966095D02*
X12078334Y-37947048D01*
X12078334Y-37947048D02*
X12097381Y-37918476D01*
X12097381Y-37918476D02*
X12106905Y-37908952D01*
X12268810Y-38004190D02*
X12268810Y-38137524D01*
X12221191Y-37928000D02*
X12173572Y-38070857D01*
X12173572Y-38070857D02*
X12297381Y-38070857D01*
X12525953Y-38137524D02*
X12525953Y-37937524D01*
X12611667Y-38137524D02*
X12611667Y-38032762D01*
X12611667Y-38032762D02*
X12602143Y-38013714D01*
X12602143Y-38013714D02*
X12583096Y-38004190D01*
X12583096Y-38004190D02*
X12554524Y-38004190D01*
X12554524Y-38004190D02*
X12535476Y-38013714D01*
X12535476Y-38013714D02*
X12525953Y-38023238D01*
X12735476Y-38137524D02*
X12716429Y-38128000D01*
X12716429Y-38128000D02*
X12706905Y-38118476D01*
X12706905Y-38118476D02*
X12697381Y-38099429D01*
X12697381Y-38099429D02*
X12697381Y-38042286D01*
X12697381Y-38042286D02*
X12706905Y-38023238D01*
X12706905Y-38023238D02*
X12716429Y-38013714D01*
X12716429Y-38013714D02*
X12735476Y-38004190D01*
X12735476Y-38004190D02*
X12764048Y-38004190D01*
X12764048Y-38004190D02*
X12783096Y-38013714D01*
X12783096Y-38013714D02*
X12792619Y-38023238D01*
X12792619Y-38023238D02*
X12802143Y-38042286D01*
X12802143Y-38042286D02*
X12802143Y-38099429D01*
X12802143Y-38099429D02*
X12792619Y-38118476D01*
X12792619Y-38118476D02*
X12783096Y-38128000D01*
X12783096Y-38128000D02*
X12764048Y-38137524D01*
X12764048Y-38137524D02*
X12735476Y-38137524D01*
X12916429Y-38137524D02*
X12897381Y-38128000D01*
X12897381Y-38128000D02*
X12887857Y-38108952D01*
X12887857Y-38108952D02*
X12887857Y-37937524D01*
X13068810Y-38128000D02*
X13049762Y-38137524D01*
X13049762Y-38137524D02*
X13011667Y-38137524D01*
X13011667Y-38137524D02*
X12992619Y-38128000D01*
X12992619Y-38128000D02*
X12983096Y-38108952D01*
X12983096Y-38108952D02*
X12983096Y-38032762D01*
X12983096Y-38032762D02*
X12992619Y-38013714D01*
X12992619Y-38013714D02*
X13011667Y-38004190D01*
X13011667Y-38004190D02*
X13049762Y-38004190D01*
X13049762Y-38004190D02*
X13068810Y-38013714D01*
X13068810Y-38013714D02*
X13078334Y-38032762D01*
X13078334Y-38032762D02*
X13078334Y-38051810D01*
X13078334Y-38051810D02*
X12983096Y-38070857D01*
X13154524Y-38128000D02*
X13173572Y-38137524D01*
X13173572Y-38137524D02*
X13211667Y-38137524D01*
X13211667Y-38137524D02*
X13230715Y-38128000D01*
X13230715Y-38128000D02*
X13240238Y-38108952D01*
X13240238Y-38108952D02*
X13240238Y-38099429D01*
X13240238Y-38099429D02*
X13230715Y-38080381D01*
X13230715Y-38080381D02*
X13211667Y-38070857D01*
X13211667Y-38070857D02*
X13183096Y-38070857D01*
X13183096Y-38070857D02*
X13164048Y-38061333D01*
X13164048Y-38061333D02*
X13154524Y-38042286D01*
X13154524Y-38042286D02*
X13154524Y-38032762D01*
X13154524Y-38032762D02*
X13164048Y-38013714D01*
X13164048Y-38013714D02*
X13183096Y-38004190D01*
X13183096Y-38004190D02*
X13211667Y-38004190D01*
X13211667Y-38004190D02*
X13230715Y-38013714D01*
X13306905Y-38213714D02*
X13316429Y-38204190D01*
X13316429Y-38204190D02*
X13335477Y-38175619D01*
X13335477Y-38175619D02*
X13345000Y-38156571D01*
X13345000Y-38156571D02*
X13354524Y-38128000D01*
X13354524Y-38128000D02*
X13364048Y-38080381D01*
X13364048Y-38080381D02*
X13364048Y-38042286D01*
X13364048Y-38042286D02*
X13354524Y-37994667D01*
X13354524Y-37994667D02*
X13345000Y-37966095D01*
X13345000Y-37966095D02*
X13335477Y-37947048D01*
X13335477Y-37947048D02*
X13316429Y-37918476D01*
X13316429Y-37918476D02*
X13306905Y-37908952D01*
X13668810Y-38213714D02*
X13659286Y-38204190D01*
X13659286Y-38204190D02*
X13640238Y-38175619D01*
X13640238Y-38175619D02*
X13630715Y-38156571D01*
X13630715Y-38156571D02*
X13621191Y-38128000D01*
X13621191Y-38128000D02*
X13611667Y-38080381D01*
X13611667Y-38080381D02*
X13611667Y-38042286D01*
X13611667Y-38042286D02*
X13621191Y-37994667D01*
X13621191Y-37994667D02*
X13630715Y-37966095D01*
X13630715Y-37966095D02*
X13640238Y-37947048D01*
X13640238Y-37947048D02*
X13659286Y-37918476D01*
X13659286Y-37918476D02*
X13668810Y-37908952D01*
X13745000Y-38004190D02*
X13745000Y-38137524D01*
X13745000Y-38023238D02*
X13754524Y-38013714D01*
X13754524Y-38013714D02*
X13773572Y-38004190D01*
X13773572Y-38004190D02*
X13802143Y-38004190D01*
X13802143Y-38004190D02*
X13821191Y-38013714D01*
X13821191Y-38013714D02*
X13830715Y-38032762D01*
X13830715Y-38032762D02*
X13830715Y-38137524D01*
X13954524Y-38137524D02*
X13935477Y-38128000D01*
X13935477Y-38128000D02*
X13925953Y-38118476D01*
X13925953Y-38118476D02*
X13916429Y-38099429D01*
X13916429Y-38099429D02*
X13916429Y-38042286D01*
X13916429Y-38042286D02*
X13925953Y-38023238D01*
X13925953Y-38023238D02*
X13935477Y-38013714D01*
X13935477Y-38013714D02*
X13954524Y-38004190D01*
X13954524Y-38004190D02*
X13983096Y-38004190D01*
X13983096Y-38004190D02*
X14002143Y-38013714D01*
X14002143Y-38013714D02*
X14011667Y-38023238D01*
X14011667Y-38023238D02*
X14021191Y-38042286D01*
X14021191Y-38042286D02*
X14021191Y-38099429D01*
X14021191Y-38099429D02*
X14011667Y-38118476D01*
X14011667Y-38118476D02*
X14002143Y-38128000D01*
X14002143Y-38128000D02*
X13983096Y-38137524D01*
X13983096Y-38137524D02*
X13954524Y-38137524D01*
X14078334Y-38004190D02*
X14154524Y-38004190D01*
X14106905Y-37937524D02*
X14106905Y-38108952D01*
X14106905Y-38108952D02*
X14116429Y-38128000D01*
X14116429Y-38128000D02*
X14135477Y-38137524D01*
X14135477Y-38137524D02*
X14154524Y-38137524D01*
X14373572Y-38004190D02*
X14373572Y-38204190D01*
X14373572Y-38013714D02*
X14392619Y-38004190D01*
X14392619Y-38004190D02*
X14430715Y-38004190D01*
X14430715Y-38004190D02*
X14449762Y-38013714D01*
X14449762Y-38013714D02*
X14459286Y-38023238D01*
X14459286Y-38023238D02*
X14468810Y-38042286D01*
X14468810Y-38042286D02*
X14468810Y-38099429D01*
X14468810Y-38099429D02*
X14459286Y-38118476D01*
X14459286Y-38118476D02*
X14449762Y-38128000D01*
X14449762Y-38128000D02*
X14430715Y-38137524D01*
X14430715Y-38137524D02*
X14392619Y-38137524D01*
X14392619Y-38137524D02*
X14373572Y-38128000D01*
X14583096Y-38137524D02*
X14564048Y-38128000D01*
X14564048Y-38128000D02*
X14554524Y-38108952D01*
X14554524Y-38108952D02*
X14554524Y-37937524D01*
X14745000Y-38137524D02*
X14745000Y-38032762D01*
X14745000Y-38032762D02*
X14735477Y-38013714D01*
X14735477Y-38013714D02*
X14716429Y-38004190D01*
X14716429Y-38004190D02*
X14678334Y-38004190D01*
X14678334Y-38004190D02*
X14659286Y-38013714D01*
X14745000Y-38128000D02*
X14725953Y-38137524D01*
X14725953Y-38137524D02*
X14678334Y-38137524D01*
X14678334Y-38137524D02*
X14659286Y-38128000D01*
X14659286Y-38128000D02*
X14649762Y-38108952D01*
X14649762Y-38108952D02*
X14649762Y-38089905D01*
X14649762Y-38089905D02*
X14659286Y-38070857D01*
X14659286Y-38070857D02*
X14678334Y-38061333D01*
X14678334Y-38061333D02*
X14725953Y-38061333D01*
X14725953Y-38061333D02*
X14745000Y-38051810D01*
X14811667Y-38004190D02*
X14887858Y-38004190D01*
X14840239Y-37937524D02*
X14840239Y-38108952D01*
X14840239Y-38108952D02*
X14849762Y-38128000D01*
X14849762Y-38128000D02*
X14868810Y-38137524D01*
X14868810Y-38137524D02*
X14887858Y-38137524D01*
X15030715Y-38128000D02*
X15011667Y-38137524D01*
X15011667Y-38137524D02*
X14973572Y-38137524D01*
X14973572Y-38137524D02*
X14954524Y-38128000D01*
X14954524Y-38128000D02*
X14945000Y-38108952D01*
X14945000Y-38108952D02*
X14945000Y-38032762D01*
X14945000Y-38032762D02*
X14954524Y-38013714D01*
X14954524Y-38013714D02*
X14973572Y-38004190D01*
X14973572Y-38004190D02*
X15011667Y-38004190D01*
X15011667Y-38004190D02*
X15030715Y-38013714D01*
X15030715Y-38013714D02*
X15040239Y-38032762D01*
X15040239Y-38032762D02*
X15040239Y-38051810D01*
X15040239Y-38051810D02*
X14945000Y-38070857D01*
X15211667Y-38137524D02*
X15211667Y-37937524D01*
X15211667Y-38128000D02*
X15192620Y-38137524D01*
X15192620Y-38137524D02*
X15154524Y-38137524D01*
X15154524Y-38137524D02*
X15135477Y-38128000D01*
X15135477Y-38128000D02*
X15125953Y-38118476D01*
X15125953Y-38118476D02*
X15116429Y-38099429D01*
X15116429Y-38099429D02*
X15116429Y-38042286D01*
X15116429Y-38042286D02*
X15125953Y-38023238D01*
X15125953Y-38023238D02*
X15135477Y-38013714D01*
X15135477Y-38013714D02*
X15154524Y-38004190D01*
X15154524Y-38004190D02*
X15192620Y-38004190D01*
X15192620Y-38004190D02*
X15211667Y-38013714D01*
X15287858Y-38213714D02*
X15297381Y-38204190D01*
X15297381Y-38204190D02*
X15316429Y-38175619D01*
X15316429Y-38175619D02*
X15325953Y-38156571D01*
X15325953Y-38156571D02*
X15335477Y-38128000D01*
X15335477Y-38128000D02*
X15345000Y-38080381D01*
X15345000Y-38080381D02*
X15345000Y-38042286D01*
X15345000Y-38042286D02*
X15335477Y-37994667D01*
X15335477Y-37994667D02*
X15325953Y-37966095D01*
X15325953Y-37966095D02*
X15316429Y-37947048D01*
X15316429Y-37947048D02*
X15297381Y-37918476D01*
X15297381Y-37918476D02*
X15287858Y-37908952D01*
D13*
X8545000Y-38309000D02*
G75*
G03*
X8545000Y-38309000I-75000J0D01*
G01*
D11*
X8897381Y-38401524D02*
X8783095Y-38401524D01*
X8840238Y-38401524D02*
X8840238Y-38201524D01*
X8840238Y-38201524D02*
X8821190Y-38230095D01*
X8821190Y-38230095D02*
X8802143Y-38249143D01*
X8802143Y-38249143D02*
X8783095Y-38258667D01*
X8983095Y-38382476D02*
X8992619Y-38392000D01*
X8992619Y-38392000D02*
X8983095Y-38401524D01*
X8983095Y-38401524D02*
X8973571Y-38392000D01*
X8973571Y-38392000D02*
X8983095Y-38382476D01*
X8983095Y-38382476D02*
X8983095Y-38401524D01*
X9173571Y-38201524D02*
X9078333Y-38201524D01*
X9078333Y-38201524D02*
X9068810Y-38296762D01*
X9068810Y-38296762D02*
X9078333Y-38287238D01*
X9078333Y-38287238D02*
X9097381Y-38277714D01*
X9097381Y-38277714D02*
X9145000Y-38277714D01*
X9145000Y-38277714D02*
X9164048Y-38287238D01*
X9164048Y-38287238D02*
X9173571Y-38296762D01*
X9173571Y-38296762D02*
X9183095Y-38315810D01*
X9183095Y-38315810D02*
X9183095Y-38363429D01*
X9183095Y-38363429D02*
X9173571Y-38382476D01*
X9173571Y-38382476D02*
X9164048Y-38392000D01*
X9164048Y-38392000D02*
X9145000Y-38401524D01*
X9145000Y-38401524D02*
X9097381Y-38401524D01*
X9097381Y-38401524D02*
X9078333Y-38392000D01*
X9078333Y-38392000D02*
X9068810Y-38382476D01*
X9306905Y-38201524D02*
X9325952Y-38201524D01*
X9325952Y-38201524D02*
X9345000Y-38211048D01*
X9345000Y-38211048D02*
X9354524Y-38220571D01*
X9354524Y-38220571D02*
X9364048Y-38239619D01*
X9364048Y-38239619D02*
X9373571Y-38277714D01*
X9373571Y-38277714D02*
X9373571Y-38325333D01*
X9373571Y-38325333D02*
X9364048Y-38363429D01*
X9364048Y-38363429D02*
X9354524Y-38382476D01*
X9354524Y-38382476D02*
X9345000Y-38392000D01*
X9345000Y-38392000D02*
X9325952Y-38401524D01*
X9325952Y-38401524D02*
X9306905Y-38401524D01*
X9306905Y-38401524D02*
X9287857Y-38392000D01*
X9287857Y-38392000D02*
X9278333Y-38382476D01*
X9278333Y-38382476D02*
X9268810Y-38363429D01*
X9268810Y-38363429D02*
X9259286Y-38325333D01*
X9259286Y-38325333D02*
X9259286Y-38277714D01*
X9259286Y-38277714D02*
X9268810Y-38239619D01*
X9268810Y-38239619D02*
X9278333Y-38220571D01*
X9278333Y-38220571D02*
X9287857Y-38211048D01*
X9287857Y-38211048D02*
X9306905Y-38201524D01*
X9497381Y-38201524D02*
X9516429Y-38201524D01*
X9516429Y-38201524D02*
X9535476Y-38211048D01*
X9535476Y-38211048D02*
X9545000Y-38220571D01*
X9545000Y-38220571D02*
X9554524Y-38239619D01*
X9554524Y-38239619D02*
X9564048Y-38277714D01*
X9564048Y-38277714D02*
X9564048Y-38325333D01*
X9564048Y-38325333D02*
X9554524Y-38363429D01*
X9554524Y-38363429D02*
X9545000Y-38382476D01*
X9545000Y-38382476D02*
X9535476Y-38392000D01*
X9535476Y-38392000D02*
X9516429Y-38401524D01*
X9516429Y-38401524D02*
X9497381Y-38401524D01*
X9497381Y-38401524D02*
X9478333Y-38392000D01*
X9478333Y-38392000D02*
X9468810Y-38382476D01*
X9468810Y-38382476D02*
X9459286Y-38363429D01*
X9459286Y-38363429D02*
X9449762Y-38325333D01*
X9449762Y-38325333D02*
X9449762Y-38277714D01*
X9449762Y-38277714D02*
X9459286Y-38239619D01*
X9459286Y-38239619D02*
X9468810Y-38220571D01*
X9468810Y-38220571D02*
X9478333Y-38211048D01*
X9478333Y-38211048D02*
X9497381Y-38201524D01*
X9649762Y-38401524D02*
X9649762Y-38268190D01*
X9649762Y-38287238D02*
X9659286Y-38277714D01*
X9659286Y-38277714D02*
X9678333Y-38268190D01*
X9678333Y-38268190D02*
X9706905Y-38268190D01*
X9706905Y-38268190D02*
X9725952Y-38277714D01*
X9725952Y-38277714D02*
X9735476Y-38296762D01*
X9735476Y-38296762D02*
X9735476Y-38401524D01*
X9735476Y-38296762D02*
X9745000Y-38277714D01*
X9745000Y-38277714D02*
X9764048Y-38268190D01*
X9764048Y-38268190D02*
X9792619Y-38268190D01*
X9792619Y-38268190D02*
X9811667Y-38277714D01*
X9811667Y-38277714D02*
X9821191Y-38296762D01*
X9821191Y-38296762D02*
X9821191Y-38401524D01*
X9916429Y-38401524D02*
X9916429Y-38268190D01*
X9916429Y-38287238D02*
X9925952Y-38277714D01*
X9925952Y-38277714D02*
X9945000Y-38268190D01*
X9945000Y-38268190D02*
X9973572Y-38268190D01*
X9973572Y-38268190D02*
X9992619Y-38277714D01*
X9992619Y-38277714D02*
X10002143Y-38296762D01*
X10002143Y-38296762D02*
X10002143Y-38401524D01*
X10002143Y-38296762D02*
X10011667Y-38277714D01*
X10011667Y-38277714D02*
X10030714Y-38268190D01*
X10030714Y-38268190D02*
X10059286Y-38268190D01*
X10059286Y-38268190D02*
X10078333Y-38277714D01*
X10078333Y-38277714D02*
X10087857Y-38296762D01*
X10087857Y-38296762D02*
X10087857Y-38401524D01*
X10478333Y-38192000D02*
X10306905Y-38449143D01*
X10735476Y-38201524D02*
X10754524Y-38201524D01*
X10754524Y-38201524D02*
X10773572Y-38211048D01*
X10773572Y-38211048D02*
X10783095Y-38220571D01*
X10783095Y-38220571D02*
X10792619Y-38239619D01*
X10792619Y-38239619D02*
X10802143Y-38277714D01*
X10802143Y-38277714D02*
X10802143Y-38325333D01*
X10802143Y-38325333D02*
X10792619Y-38363429D01*
X10792619Y-38363429D02*
X10783095Y-38382476D01*
X10783095Y-38382476D02*
X10773572Y-38392000D01*
X10773572Y-38392000D02*
X10754524Y-38401524D01*
X10754524Y-38401524D02*
X10735476Y-38401524D01*
X10735476Y-38401524D02*
X10716429Y-38392000D01*
X10716429Y-38392000D02*
X10706905Y-38382476D01*
X10706905Y-38382476D02*
X10697381Y-38363429D01*
X10697381Y-38363429D02*
X10687857Y-38325333D01*
X10687857Y-38325333D02*
X10687857Y-38277714D01*
X10687857Y-38277714D02*
X10697381Y-38239619D01*
X10697381Y-38239619D02*
X10706905Y-38220571D01*
X10706905Y-38220571D02*
X10716429Y-38211048D01*
X10716429Y-38211048D02*
X10735476Y-38201524D01*
X10887857Y-38382476D02*
X10897381Y-38392000D01*
X10897381Y-38392000D02*
X10887857Y-38401524D01*
X10887857Y-38401524D02*
X10878334Y-38392000D01*
X10878334Y-38392000D02*
X10887857Y-38382476D01*
X10887857Y-38382476D02*
X10887857Y-38401524D01*
X11021191Y-38201524D02*
X11040238Y-38201524D01*
X11040238Y-38201524D02*
X11059286Y-38211048D01*
X11059286Y-38211048D02*
X11068810Y-38220571D01*
X11068810Y-38220571D02*
X11078334Y-38239619D01*
X11078334Y-38239619D02*
X11087857Y-38277714D01*
X11087857Y-38277714D02*
X11087857Y-38325333D01*
X11087857Y-38325333D02*
X11078334Y-38363429D01*
X11078334Y-38363429D02*
X11068810Y-38382476D01*
X11068810Y-38382476D02*
X11059286Y-38392000D01*
X11059286Y-38392000D02*
X11040238Y-38401524D01*
X11040238Y-38401524D02*
X11021191Y-38401524D01*
X11021191Y-38401524D02*
X11002143Y-38392000D01*
X11002143Y-38392000D02*
X10992619Y-38382476D01*
X10992619Y-38382476D02*
X10983095Y-38363429D01*
X10983095Y-38363429D02*
X10973572Y-38325333D01*
X10973572Y-38325333D02*
X10973572Y-38277714D01*
X10973572Y-38277714D02*
X10983095Y-38239619D01*
X10983095Y-38239619D02*
X10992619Y-38220571D01*
X10992619Y-38220571D02*
X11002143Y-38211048D01*
X11002143Y-38211048D02*
X11021191Y-38201524D01*
X11268810Y-38201524D02*
X11173572Y-38201524D01*
X11173572Y-38201524D02*
X11164048Y-38296762D01*
X11164048Y-38296762D02*
X11173572Y-38287238D01*
X11173572Y-38287238D02*
X11192619Y-38277714D01*
X11192619Y-38277714D02*
X11240238Y-38277714D01*
X11240238Y-38277714D02*
X11259286Y-38287238D01*
X11259286Y-38287238D02*
X11268810Y-38296762D01*
X11268810Y-38296762D02*
X11278333Y-38315810D01*
X11278333Y-38315810D02*
X11278333Y-38363429D01*
X11278333Y-38363429D02*
X11268810Y-38382476D01*
X11268810Y-38382476D02*
X11259286Y-38392000D01*
X11259286Y-38392000D02*
X11240238Y-38401524D01*
X11240238Y-38401524D02*
X11192619Y-38401524D01*
X11192619Y-38401524D02*
X11173572Y-38392000D01*
X11173572Y-38392000D02*
X11164048Y-38382476D01*
X11373572Y-38401524D02*
X11411667Y-38401524D01*
X11411667Y-38401524D02*
X11430714Y-38392000D01*
X11430714Y-38392000D02*
X11440238Y-38382476D01*
X11440238Y-38382476D02*
X11459286Y-38353905D01*
X11459286Y-38353905D02*
X11468810Y-38315810D01*
X11468810Y-38315810D02*
X11468810Y-38239619D01*
X11468810Y-38239619D02*
X11459286Y-38220571D01*
X11459286Y-38220571D02*
X11449762Y-38211048D01*
X11449762Y-38211048D02*
X11430714Y-38201524D01*
X11430714Y-38201524D02*
X11392619Y-38201524D01*
X11392619Y-38201524D02*
X11373572Y-38211048D01*
X11373572Y-38211048D02*
X11364048Y-38220571D01*
X11364048Y-38220571D02*
X11354524Y-38239619D01*
X11354524Y-38239619D02*
X11354524Y-38287238D01*
X11354524Y-38287238D02*
X11364048Y-38306286D01*
X11364048Y-38306286D02*
X11373572Y-38315810D01*
X11373572Y-38315810D02*
X11392619Y-38325333D01*
X11392619Y-38325333D02*
X11430714Y-38325333D01*
X11430714Y-38325333D02*
X11449762Y-38315810D01*
X11449762Y-38315810D02*
X11459286Y-38306286D01*
X11459286Y-38306286D02*
X11468810Y-38287238D01*
X11659286Y-38401524D02*
X11545000Y-38401524D01*
X11602143Y-38401524D02*
X11602143Y-38201524D01*
X11602143Y-38201524D02*
X11583095Y-38230095D01*
X11583095Y-38230095D02*
X11564048Y-38249143D01*
X11564048Y-38249143D02*
X11545000Y-38258667D01*
X11735476Y-38201524D02*
X11735476Y-38239619D01*
X11811667Y-38201524D02*
X11811667Y-38239619D01*
X12106905Y-38477714D02*
X12097381Y-38468190D01*
X12097381Y-38468190D02*
X12078334Y-38439619D01*
X12078334Y-38439619D02*
X12068810Y-38420571D01*
X12068810Y-38420571D02*
X12059286Y-38392000D01*
X12059286Y-38392000D02*
X12049762Y-38344381D01*
X12049762Y-38344381D02*
X12049762Y-38306286D01*
X12049762Y-38306286D02*
X12059286Y-38258667D01*
X12059286Y-38258667D02*
X12068810Y-38230095D01*
X12068810Y-38230095D02*
X12078334Y-38211048D01*
X12078334Y-38211048D02*
X12097381Y-38182476D01*
X12097381Y-38182476D02*
X12106905Y-38172952D01*
X12268810Y-38268190D02*
X12268810Y-38401524D01*
X12221191Y-38192000D02*
X12173572Y-38334857D01*
X12173572Y-38334857D02*
X12297381Y-38334857D01*
X12525953Y-38401524D02*
X12525953Y-38201524D01*
X12611667Y-38401524D02*
X12611667Y-38296762D01*
X12611667Y-38296762D02*
X12602143Y-38277714D01*
X12602143Y-38277714D02*
X12583096Y-38268190D01*
X12583096Y-38268190D02*
X12554524Y-38268190D01*
X12554524Y-38268190D02*
X12535476Y-38277714D01*
X12535476Y-38277714D02*
X12525953Y-38287238D01*
X12735476Y-38401524D02*
X12716429Y-38392000D01*
X12716429Y-38392000D02*
X12706905Y-38382476D01*
X12706905Y-38382476D02*
X12697381Y-38363429D01*
X12697381Y-38363429D02*
X12697381Y-38306286D01*
X12697381Y-38306286D02*
X12706905Y-38287238D01*
X12706905Y-38287238D02*
X12716429Y-38277714D01*
X12716429Y-38277714D02*
X12735476Y-38268190D01*
X12735476Y-38268190D02*
X12764048Y-38268190D01*
X12764048Y-38268190D02*
X12783096Y-38277714D01*
X12783096Y-38277714D02*
X12792619Y-38287238D01*
X12792619Y-38287238D02*
X12802143Y-38306286D01*
X12802143Y-38306286D02*
X12802143Y-38363429D01*
X12802143Y-38363429D02*
X12792619Y-38382476D01*
X12792619Y-38382476D02*
X12783096Y-38392000D01*
X12783096Y-38392000D02*
X12764048Y-38401524D01*
X12764048Y-38401524D02*
X12735476Y-38401524D01*
X12916429Y-38401524D02*
X12897381Y-38392000D01*
X12897381Y-38392000D02*
X12887857Y-38372952D01*
X12887857Y-38372952D02*
X12887857Y-38201524D01*
X13068810Y-38392000D02*
X13049762Y-38401524D01*
X13049762Y-38401524D02*
X13011667Y-38401524D01*
X13011667Y-38401524D02*
X12992619Y-38392000D01*
X12992619Y-38392000D02*
X12983096Y-38372952D01*
X12983096Y-38372952D02*
X12983096Y-38296762D01*
X12983096Y-38296762D02*
X12992619Y-38277714D01*
X12992619Y-38277714D02*
X13011667Y-38268190D01*
X13011667Y-38268190D02*
X13049762Y-38268190D01*
X13049762Y-38268190D02*
X13068810Y-38277714D01*
X13068810Y-38277714D02*
X13078334Y-38296762D01*
X13078334Y-38296762D02*
X13078334Y-38315810D01*
X13078334Y-38315810D02*
X12983096Y-38334857D01*
X13154524Y-38392000D02*
X13173572Y-38401524D01*
X13173572Y-38401524D02*
X13211667Y-38401524D01*
X13211667Y-38401524D02*
X13230715Y-38392000D01*
X13230715Y-38392000D02*
X13240238Y-38372952D01*
X13240238Y-38372952D02*
X13240238Y-38363429D01*
X13240238Y-38363429D02*
X13230715Y-38344381D01*
X13230715Y-38344381D02*
X13211667Y-38334857D01*
X13211667Y-38334857D02*
X13183096Y-38334857D01*
X13183096Y-38334857D02*
X13164048Y-38325333D01*
X13164048Y-38325333D02*
X13154524Y-38306286D01*
X13154524Y-38306286D02*
X13154524Y-38296762D01*
X13154524Y-38296762D02*
X13164048Y-38277714D01*
X13164048Y-38277714D02*
X13183096Y-38268190D01*
X13183096Y-38268190D02*
X13211667Y-38268190D01*
X13211667Y-38268190D02*
X13230715Y-38277714D01*
X13306905Y-38477714D02*
X13316429Y-38468190D01*
X13316429Y-38468190D02*
X13335477Y-38439619D01*
X13335477Y-38439619D02*
X13345000Y-38420571D01*
X13345000Y-38420571D02*
X13354524Y-38392000D01*
X13354524Y-38392000D02*
X13364048Y-38344381D01*
X13364048Y-38344381D02*
X13364048Y-38306286D01*
X13364048Y-38306286D02*
X13354524Y-38258667D01*
X13354524Y-38258667D02*
X13345000Y-38230095D01*
X13345000Y-38230095D02*
X13335477Y-38211048D01*
X13335477Y-38211048D02*
X13316429Y-38182476D01*
X13316429Y-38182476D02*
X13306905Y-38172952D01*
X13668810Y-38477714D02*
X13659286Y-38468190D01*
X13659286Y-38468190D02*
X13640238Y-38439619D01*
X13640238Y-38439619D02*
X13630715Y-38420571D01*
X13630715Y-38420571D02*
X13621191Y-38392000D01*
X13621191Y-38392000D02*
X13611667Y-38344381D01*
X13611667Y-38344381D02*
X13611667Y-38306286D01*
X13611667Y-38306286D02*
X13621191Y-38258667D01*
X13621191Y-38258667D02*
X13630715Y-38230095D01*
X13630715Y-38230095D02*
X13640238Y-38211048D01*
X13640238Y-38211048D02*
X13659286Y-38182476D01*
X13659286Y-38182476D02*
X13668810Y-38172952D01*
X13745000Y-38268190D02*
X13745000Y-38401524D01*
X13745000Y-38287238D02*
X13754524Y-38277714D01*
X13754524Y-38277714D02*
X13773572Y-38268190D01*
X13773572Y-38268190D02*
X13802143Y-38268190D01*
X13802143Y-38268190D02*
X13821191Y-38277714D01*
X13821191Y-38277714D02*
X13830715Y-38296762D01*
X13830715Y-38296762D02*
X13830715Y-38401524D01*
X13954524Y-38401524D02*
X13935477Y-38392000D01*
X13935477Y-38392000D02*
X13925953Y-38382476D01*
X13925953Y-38382476D02*
X13916429Y-38363429D01*
X13916429Y-38363429D02*
X13916429Y-38306286D01*
X13916429Y-38306286D02*
X13925953Y-38287238D01*
X13925953Y-38287238D02*
X13935477Y-38277714D01*
X13935477Y-38277714D02*
X13954524Y-38268190D01*
X13954524Y-38268190D02*
X13983096Y-38268190D01*
X13983096Y-38268190D02*
X14002143Y-38277714D01*
X14002143Y-38277714D02*
X14011667Y-38287238D01*
X14011667Y-38287238D02*
X14021191Y-38306286D01*
X14021191Y-38306286D02*
X14021191Y-38363429D01*
X14021191Y-38363429D02*
X14011667Y-38382476D01*
X14011667Y-38382476D02*
X14002143Y-38392000D01*
X14002143Y-38392000D02*
X13983096Y-38401524D01*
X13983096Y-38401524D02*
X13954524Y-38401524D01*
X14078334Y-38268190D02*
X14154524Y-38268190D01*
X14106905Y-38201524D02*
X14106905Y-38372952D01*
X14106905Y-38372952D02*
X14116429Y-38392000D01*
X14116429Y-38392000D02*
X14135477Y-38401524D01*
X14135477Y-38401524D02*
X14154524Y-38401524D01*
X14373572Y-38268190D02*
X14373572Y-38468190D01*
X14373572Y-38277714D02*
X14392619Y-38268190D01*
X14392619Y-38268190D02*
X14430715Y-38268190D01*
X14430715Y-38268190D02*
X14449762Y-38277714D01*
X14449762Y-38277714D02*
X14459286Y-38287238D01*
X14459286Y-38287238D02*
X14468810Y-38306286D01*
X14468810Y-38306286D02*
X14468810Y-38363429D01*
X14468810Y-38363429D02*
X14459286Y-38382476D01*
X14459286Y-38382476D02*
X14449762Y-38392000D01*
X14449762Y-38392000D02*
X14430715Y-38401524D01*
X14430715Y-38401524D02*
X14392619Y-38401524D01*
X14392619Y-38401524D02*
X14373572Y-38392000D01*
X14583096Y-38401524D02*
X14564048Y-38392000D01*
X14564048Y-38392000D02*
X14554524Y-38372952D01*
X14554524Y-38372952D02*
X14554524Y-38201524D01*
X14745000Y-38401524D02*
X14745000Y-38296762D01*
X14745000Y-38296762D02*
X14735477Y-38277714D01*
X14735477Y-38277714D02*
X14716429Y-38268190D01*
X14716429Y-38268190D02*
X14678334Y-38268190D01*
X14678334Y-38268190D02*
X14659286Y-38277714D01*
X14745000Y-38392000D02*
X14725953Y-38401524D01*
X14725953Y-38401524D02*
X14678334Y-38401524D01*
X14678334Y-38401524D02*
X14659286Y-38392000D01*
X14659286Y-38392000D02*
X14649762Y-38372952D01*
X14649762Y-38372952D02*
X14649762Y-38353905D01*
X14649762Y-38353905D02*
X14659286Y-38334857D01*
X14659286Y-38334857D02*
X14678334Y-38325333D01*
X14678334Y-38325333D02*
X14725953Y-38325333D01*
X14725953Y-38325333D02*
X14745000Y-38315810D01*
X14811667Y-38268190D02*
X14887858Y-38268190D01*
X14840239Y-38201524D02*
X14840239Y-38372952D01*
X14840239Y-38372952D02*
X14849762Y-38392000D01*
X14849762Y-38392000D02*
X14868810Y-38401524D01*
X14868810Y-38401524D02*
X14887858Y-38401524D01*
X15030715Y-38392000D02*
X15011667Y-38401524D01*
X15011667Y-38401524D02*
X14973572Y-38401524D01*
X14973572Y-38401524D02*
X14954524Y-38392000D01*
X14954524Y-38392000D02*
X14945000Y-38372952D01*
X14945000Y-38372952D02*
X14945000Y-38296762D01*
X14945000Y-38296762D02*
X14954524Y-38277714D01*
X14954524Y-38277714D02*
X14973572Y-38268190D01*
X14973572Y-38268190D02*
X15011667Y-38268190D01*
X15011667Y-38268190D02*
X15030715Y-38277714D01*
X15030715Y-38277714D02*
X15040239Y-38296762D01*
X15040239Y-38296762D02*
X15040239Y-38315810D01*
X15040239Y-38315810D02*
X14945000Y-38334857D01*
X15211667Y-38401524D02*
X15211667Y-38201524D01*
X15211667Y-38392000D02*
X15192620Y-38401524D01*
X15192620Y-38401524D02*
X15154524Y-38401524D01*
X15154524Y-38401524D02*
X15135477Y-38392000D01*
X15135477Y-38392000D02*
X15125953Y-38382476D01*
X15125953Y-38382476D02*
X15116429Y-38363429D01*
X15116429Y-38363429D02*
X15116429Y-38306286D01*
X15116429Y-38306286D02*
X15125953Y-38287238D01*
X15125953Y-38287238D02*
X15135477Y-38277714D01*
X15135477Y-38277714D02*
X15154524Y-38268190D01*
X15154524Y-38268190D02*
X15192620Y-38268190D01*
X15192620Y-38268190D02*
X15211667Y-38277714D01*
X15287858Y-38477714D02*
X15297381Y-38468190D01*
X15297381Y-38468190D02*
X15316429Y-38439619D01*
X15316429Y-38439619D02*
X15325953Y-38420571D01*
X15325953Y-38420571D02*
X15335477Y-38392000D01*
X15335477Y-38392000D02*
X15345000Y-38344381D01*
X15345000Y-38344381D02*
X15345000Y-38306286D01*
X15345000Y-38306286D02*
X15335477Y-38258667D01*
X15335477Y-38258667D02*
X15325953Y-38230095D01*
X15325953Y-38230095D02*
X15316429Y-38211048D01*
X15316429Y-38211048D02*
X15297381Y-38182476D01*
X15297381Y-38182476D02*
X15287858Y-38172952D01*
D14*
X8460000Y-38494000D02*
X8460000Y-38664000D01*
X8375000Y-38579000D02*
X8545000Y-38579000D01*
D11*
X8897381Y-38671524D02*
X8783095Y-38671524D01*
X8840238Y-38671524D02*
X8840238Y-38471524D01*
X8840238Y-38471524D02*
X8821190Y-38500095D01*
X8821190Y-38500095D02*
X8802143Y-38519143D01*
X8802143Y-38519143D02*
X8783095Y-38528667D01*
X8983095Y-38652476D02*
X8992619Y-38662000D01*
X8992619Y-38662000D02*
X8983095Y-38671524D01*
X8983095Y-38671524D02*
X8973571Y-38662000D01*
X8973571Y-38662000D02*
X8983095Y-38652476D01*
X8983095Y-38652476D02*
X8983095Y-38671524D01*
X9059286Y-38471524D02*
X9192619Y-38471524D01*
X9192619Y-38471524D02*
X9106905Y-38671524D01*
X9306905Y-38471524D02*
X9325952Y-38471524D01*
X9325952Y-38471524D02*
X9345000Y-38481048D01*
X9345000Y-38481048D02*
X9354524Y-38490571D01*
X9354524Y-38490571D02*
X9364048Y-38509619D01*
X9364048Y-38509619D02*
X9373571Y-38547714D01*
X9373571Y-38547714D02*
X9373571Y-38595333D01*
X9373571Y-38595333D02*
X9364048Y-38633429D01*
X9364048Y-38633429D02*
X9354524Y-38652476D01*
X9354524Y-38652476D02*
X9345000Y-38662000D01*
X9345000Y-38662000D02*
X9325952Y-38671524D01*
X9325952Y-38671524D02*
X9306905Y-38671524D01*
X9306905Y-38671524D02*
X9287857Y-38662000D01*
X9287857Y-38662000D02*
X9278333Y-38652476D01*
X9278333Y-38652476D02*
X9268810Y-38633429D01*
X9268810Y-38633429D02*
X9259286Y-38595333D01*
X9259286Y-38595333D02*
X9259286Y-38547714D01*
X9259286Y-38547714D02*
X9268810Y-38509619D01*
X9268810Y-38509619D02*
X9278333Y-38490571D01*
X9278333Y-38490571D02*
X9287857Y-38481048D01*
X9287857Y-38481048D02*
X9306905Y-38471524D01*
X9497381Y-38471524D02*
X9516429Y-38471524D01*
X9516429Y-38471524D02*
X9535476Y-38481048D01*
X9535476Y-38481048D02*
X9545000Y-38490571D01*
X9545000Y-38490571D02*
X9554524Y-38509619D01*
X9554524Y-38509619D02*
X9564048Y-38547714D01*
X9564048Y-38547714D02*
X9564048Y-38595333D01*
X9564048Y-38595333D02*
X9554524Y-38633429D01*
X9554524Y-38633429D02*
X9545000Y-38652476D01*
X9545000Y-38652476D02*
X9535476Y-38662000D01*
X9535476Y-38662000D02*
X9516429Y-38671524D01*
X9516429Y-38671524D02*
X9497381Y-38671524D01*
X9497381Y-38671524D02*
X9478333Y-38662000D01*
X9478333Y-38662000D02*
X9468810Y-38652476D01*
X9468810Y-38652476D02*
X9459286Y-38633429D01*
X9459286Y-38633429D02*
X9449762Y-38595333D01*
X9449762Y-38595333D02*
X9449762Y-38547714D01*
X9449762Y-38547714D02*
X9459286Y-38509619D01*
X9459286Y-38509619D02*
X9468810Y-38490571D01*
X9468810Y-38490571D02*
X9478333Y-38481048D01*
X9478333Y-38481048D02*
X9497381Y-38471524D01*
X9649762Y-38671524D02*
X9649762Y-38538190D01*
X9649762Y-38557238D02*
X9659286Y-38547714D01*
X9659286Y-38547714D02*
X9678333Y-38538190D01*
X9678333Y-38538190D02*
X9706905Y-38538190D01*
X9706905Y-38538190D02*
X9725952Y-38547714D01*
X9725952Y-38547714D02*
X9735476Y-38566762D01*
X9735476Y-38566762D02*
X9735476Y-38671524D01*
X9735476Y-38566762D02*
X9745000Y-38547714D01*
X9745000Y-38547714D02*
X9764048Y-38538190D01*
X9764048Y-38538190D02*
X9792619Y-38538190D01*
X9792619Y-38538190D02*
X9811667Y-38547714D01*
X9811667Y-38547714D02*
X9821191Y-38566762D01*
X9821191Y-38566762D02*
X9821191Y-38671524D01*
X9916429Y-38671524D02*
X9916429Y-38538190D01*
X9916429Y-38557238D02*
X9925952Y-38547714D01*
X9925952Y-38547714D02*
X9945000Y-38538190D01*
X9945000Y-38538190D02*
X9973572Y-38538190D01*
X9973572Y-38538190D02*
X9992619Y-38547714D01*
X9992619Y-38547714D02*
X10002143Y-38566762D01*
X10002143Y-38566762D02*
X10002143Y-38671524D01*
X10002143Y-38566762D02*
X10011667Y-38547714D01*
X10011667Y-38547714D02*
X10030714Y-38538190D01*
X10030714Y-38538190D02*
X10059286Y-38538190D01*
X10059286Y-38538190D02*
X10078333Y-38547714D01*
X10078333Y-38547714D02*
X10087857Y-38566762D01*
X10087857Y-38566762D02*
X10087857Y-38671524D01*
X10478333Y-38462000D02*
X10306905Y-38719143D01*
X10735476Y-38471524D02*
X10754524Y-38471524D01*
X10754524Y-38471524D02*
X10773572Y-38481048D01*
X10773572Y-38481048D02*
X10783095Y-38490571D01*
X10783095Y-38490571D02*
X10792619Y-38509619D01*
X10792619Y-38509619D02*
X10802143Y-38547714D01*
X10802143Y-38547714D02*
X10802143Y-38595333D01*
X10802143Y-38595333D02*
X10792619Y-38633429D01*
X10792619Y-38633429D02*
X10783095Y-38652476D01*
X10783095Y-38652476D02*
X10773572Y-38662000D01*
X10773572Y-38662000D02*
X10754524Y-38671524D01*
X10754524Y-38671524D02*
X10735476Y-38671524D01*
X10735476Y-38671524D02*
X10716429Y-38662000D01*
X10716429Y-38662000D02*
X10706905Y-38652476D01*
X10706905Y-38652476D02*
X10697381Y-38633429D01*
X10697381Y-38633429D02*
X10687857Y-38595333D01*
X10687857Y-38595333D02*
X10687857Y-38547714D01*
X10687857Y-38547714D02*
X10697381Y-38509619D01*
X10697381Y-38509619D02*
X10706905Y-38490571D01*
X10706905Y-38490571D02*
X10716429Y-38481048D01*
X10716429Y-38481048D02*
X10735476Y-38471524D01*
X10887857Y-38652476D02*
X10897381Y-38662000D01*
X10897381Y-38662000D02*
X10887857Y-38671524D01*
X10887857Y-38671524D02*
X10878334Y-38662000D01*
X10878334Y-38662000D02*
X10887857Y-38652476D01*
X10887857Y-38652476D02*
X10887857Y-38671524D01*
X11021191Y-38471524D02*
X11040238Y-38471524D01*
X11040238Y-38471524D02*
X11059286Y-38481048D01*
X11059286Y-38481048D02*
X11068810Y-38490571D01*
X11068810Y-38490571D02*
X11078334Y-38509619D01*
X11078334Y-38509619D02*
X11087857Y-38547714D01*
X11087857Y-38547714D02*
X11087857Y-38595333D01*
X11087857Y-38595333D02*
X11078334Y-38633429D01*
X11078334Y-38633429D02*
X11068810Y-38652476D01*
X11068810Y-38652476D02*
X11059286Y-38662000D01*
X11059286Y-38662000D02*
X11040238Y-38671524D01*
X11040238Y-38671524D02*
X11021191Y-38671524D01*
X11021191Y-38671524D02*
X11002143Y-38662000D01*
X11002143Y-38662000D02*
X10992619Y-38652476D01*
X10992619Y-38652476D02*
X10983095Y-38633429D01*
X10983095Y-38633429D02*
X10973572Y-38595333D01*
X10973572Y-38595333D02*
X10973572Y-38547714D01*
X10973572Y-38547714D02*
X10983095Y-38509619D01*
X10983095Y-38509619D02*
X10992619Y-38490571D01*
X10992619Y-38490571D02*
X11002143Y-38481048D01*
X11002143Y-38481048D02*
X11021191Y-38471524D01*
X11259286Y-38471524D02*
X11221191Y-38471524D01*
X11221191Y-38471524D02*
X11202143Y-38481048D01*
X11202143Y-38481048D02*
X11192619Y-38490571D01*
X11192619Y-38490571D02*
X11173572Y-38519143D01*
X11173572Y-38519143D02*
X11164048Y-38557238D01*
X11164048Y-38557238D02*
X11164048Y-38633429D01*
X11164048Y-38633429D02*
X11173572Y-38652476D01*
X11173572Y-38652476D02*
X11183095Y-38662000D01*
X11183095Y-38662000D02*
X11202143Y-38671524D01*
X11202143Y-38671524D02*
X11240238Y-38671524D01*
X11240238Y-38671524D02*
X11259286Y-38662000D01*
X11259286Y-38662000D02*
X11268810Y-38652476D01*
X11268810Y-38652476D02*
X11278333Y-38633429D01*
X11278333Y-38633429D02*
X11278333Y-38585810D01*
X11278333Y-38585810D02*
X11268810Y-38566762D01*
X11268810Y-38566762D02*
X11259286Y-38557238D01*
X11259286Y-38557238D02*
X11240238Y-38547714D01*
X11240238Y-38547714D02*
X11202143Y-38547714D01*
X11202143Y-38547714D02*
X11183095Y-38557238D01*
X11183095Y-38557238D02*
X11173572Y-38566762D01*
X11173572Y-38566762D02*
X11164048Y-38585810D01*
X11449762Y-38471524D02*
X11411667Y-38471524D01*
X11411667Y-38471524D02*
X11392619Y-38481048D01*
X11392619Y-38481048D02*
X11383095Y-38490571D01*
X11383095Y-38490571D02*
X11364048Y-38519143D01*
X11364048Y-38519143D02*
X11354524Y-38557238D01*
X11354524Y-38557238D02*
X11354524Y-38633429D01*
X11354524Y-38633429D02*
X11364048Y-38652476D01*
X11364048Y-38652476D02*
X11373572Y-38662000D01*
X11373572Y-38662000D02*
X11392619Y-38671524D01*
X11392619Y-38671524D02*
X11430714Y-38671524D01*
X11430714Y-38671524D02*
X11449762Y-38662000D01*
X11449762Y-38662000D02*
X11459286Y-38652476D01*
X11459286Y-38652476D02*
X11468810Y-38633429D01*
X11468810Y-38633429D02*
X11468810Y-38585810D01*
X11468810Y-38585810D02*
X11459286Y-38566762D01*
X11459286Y-38566762D02*
X11449762Y-38557238D01*
X11449762Y-38557238D02*
X11430714Y-38547714D01*
X11430714Y-38547714D02*
X11392619Y-38547714D01*
X11392619Y-38547714D02*
X11373572Y-38557238D01*
X11373572Y-38557238D02*
X11364048Y-38566762D01*
X11364048Y-38566762D02*
X11354524Y-38585810D01*
X11564048Y-38671524D02*
X11602143Y-38671524D01*
X11602143Y-38671524D02*
X11621191Y-38662000D01*
X11621191Y-38662000D02*
X11630714Y-38652476D01*
X11630714Y-38652476D02*
X11649762Y-38623905D01*
X11649762Y-38623905D02*
X11659286Y-38585810D01*
X11659286Y-38585810D02*
X11659286Y-38509619D01*
X11659286Y-38509619D02*
X11649762Y-38490571D01*
X11649762Y-38490571D02*
X11640238Y-38481048D01*
X11640238Y-38481048D02*
X11621191Y-38471524D01*
X11621191Y-38471524D02*
X11583095Y-38471524D01*
X11583095Y-38471524D02*
X11564048Y-38481048D01*
X11564048Y-38481048D02*
X11554524Y-38490571D01*
X11554524Y-38490571D02*
X11545000Y-38509619D01*
X11545000Y-38509619D02*
X11545000Y-38557238D01*
X11545000Y-38557238D02*
X11554524Y-38576286D01*
X11554524Y-38576286D02*
X11564048Y-38585810D01*
X11564048Y-38585810D02*
X11583095Y-38595333D01*
X11583095Y-38595333D02*
X11621191Y-38595333D01*
X11621191Y-38595333D02*
X11640238Y-38585810D01*
X11640238Y-38585810D02*
X11649762Y-38576286D01*
X11649762Y-38576286D02*
X11659286Y-38557238D01*
X11735476Y-38471524D02*
X11735476Y-38509619D01*
X11811667Y-38471524D02*
X11811667Y-38509619D01*
X12106905Y-38747714D02*
X12097381Y-38738190D01*
X12097381Y-38738190D02*
X12078334Y-38709619D01*
X12078334Y-38709619D02*
X12068810Y-38690571D01*
X12068810Y-38690571D02*
X12059286Y-38662000D01*
X12059286Y-38662000D02*
X12049762Y-38614381D01*
X12049762Y-38614381D02*
X12049762Y-38576286D01*
X12049762Y-38576286D02*
X12059286Y-38528667D01*
X12059286Y-38528667D02*
X12068810Y-38500095D01*
X12068810Y-38500095D02*
X12078334Y-38481048D01*
X12078334Y-38481048D02*
X12097381Y-38452476D01*
X12097381Y-38452476D02*
X12106905Y-38442952D01*
X12287857Y-38671524D02*
X12173572Y-38671524D01*
X12230714Y-38671524D02*
X12230714Y-38471524D01*
X12230714Y-38471524D02*
X12211667Y-38500095D01*
X12211667Y-38500095D02*
X12192619Y-38519143D01*
X12192619Y-38519143D02*
X12173572Y-38528667D01*
X12402143Y-38557238D02*
X12383095Y-38547714D01*
X12383095Y-38547714D02*
X12373572Y-38538190D01*
X12373572Y-38538190D02*
X12364048Y-38519143D01*
X12364048Y-38519143D02*
X12364048Y-38509619D01*
X12364048Y-38509619D02*
X12373572Y-38490571D01*
X12373572Y-38490571D02*
X12383095Y-38481048D01*
X12383095Y-38481048D02*
X12402143Y-38471524D01*
X12402143Y-38471524D02*
X12440238Y-38471524D01*
X12440238Y-38471524D02*
X12459286Y-38481048D01*
X12459286Y-38481048D02*
X12468810Y-38490571D01*
X12468810Y-38490571D02*
X12478334Y-38509619D01*
X12478334Y-38509619D02*
X12478334Y-38519143D01*
X12478334Y-38519143D02*
X12468810Y-38538190D01*
X12468810Y-38538190D02*
X12459286Y-38547714D01*
X12459286Y-38547714D02*
X12440238Y-38557238D01*
X12440238Y-38557238D02*
X12402143Y-38557238D01*
X12402143Y-38557238D02*
X12383095Y-38566762D01*
X12383095Y-38566762D02*
X12373572Y-38576286D01*
X12373572Y-38576286D02*
X12364048Y-38595333D01*
X12364048Y-38595333D02*
X12364048Y-38633429D01*
X12364048Y-38633429D02*
X12373572Y-38652476D01*
X12373572Y-38652476D02*
X12383095Y-38662000D01*
X12383095Y-38662000D02*
X12402143Y-38671524D01*
X12402143Y-38671524D02*
X12440238Y-38671524D01*
X12440238Y-38671524D02*
X12459286Y-38662000D01*
X12459286Y-38662000D02*
X12468810Y-38652476D01*
X12468810Y-38652476D02*
X12478334Y-38633429D01*
X12478334Y-38633429D02*
X12478334Y-38595333D01*
X12478334Y-38595333D02*
X12468810Y-38576286D01*
X12468810Y-38576286D02*
X12459286Y-38566762D01*
X12459286Y-38566762D02*
X12440238Y-38557238D01*
X12592619Y-38557238D02*
X12573572Y-38547714D01*
X12573572Y-38547714D02*
X12564048Y-38538190D01*
X12564048Y-38538190D02*
X12554524Y-38519143D01*
X12554524Y-38519143D02*
X12554524Y-38509619D01*
X12554524Y-38509619D02*
X12564048Y-38490571D01*
X12564048Y-38490571D02*
X12573572Y-38481048D01*
X12573572Y-38481048D02*
X12592619Y-38471524D01*
X12592619Y-38471524D02*
X12630715Y-38471524D01*
X12630715Y-38471524D02*
X12649762Y-38481048D01*
X12649762Y-38481048D02*
X12659286Y-38490571D01*
X12659286Y-38490571D02*
X12668810Y-38509619D01*
X12668810Y-38509619D02*
X12668810Y-38519143D01*
X12668810Y-38519143D02*
X12659286Y-38538190D01*
X12659286Y-38538190D02*
X12649762Y-38547714D01*
X12649762Y-38547714D02*
X12630715Y-38557238D01*
X12630715Y-38557238D02*
X12592619Y-38557238D01*
X12592619Y-38557238D02*
X12573572Y-38566762D01*
X12573572Y-38566762D02*
X12564048Y-38576286D01*
X12564048Y-38576286D02*
X12554524Y-38595333D01*
X12554524Y-38595333D02*
X12554524Y-38633429D01*
X12554524Y-38633429D02*
X12564048Y-38652476D01*
X12564048Y-38652476D02*
X12573572Y-38662000D01*
X12573572Y-38662000D02*
X12592619Y-38671524D01*
X12592619Y-38671524D02*
X12630715Y-38671524D01*
X12630715Y-38671524D02*
X12649762Y-38662000D01*
X12649762Y-38662000D02*
X12659286Y-38652476D01*
X12659286Y-38652476D02*
X12668810Y-38633429D01*
X12668810Y-38633429D02*
X12668810Y-38595333D01*
X12668810Y-38595333D02*
X12659286Y-38576286D01*
X12659286Y-38576286D02*
X12649762Y-38566762D01*
X12649762Y-38566762D02*
X12630715Y-38557238D01*
X12906905Y-38671524D02*
X12906905Y-38471524D01*
X12992619Y-38671524D02*
X12992619Y-38566762D01*
X12992619Y-38566762D02*
X12983096Y-38547714D01*
X12983096Y-38547714D02*
X12964048Y-38538190D01*
X12964048Y-38538190D02*
X12935476Y-38538190D01*
X12935476Y-38538190D02*
X12916429Y-38547714D01*
X12916429Y-38547714D02*
X12906905Y-38557238D01*
X13116429Y-38671524D02*
X13097381Y-38662000D01*
X13097381Y-38662000D02*
X13087857Y-38652476D01*
X13087857Y-38652476D02*
X13078334Y-38633429D01*
X13078334Y-38633429D02*
X13078334Y-38576286D01*
X13078334Y-38576286D02*
X13087857Y-38557238D01*
X13087857Y-38557238D02*
X13097381Y-38547714D01*
X13097381Y-38547714D02*
X13116429Y-38538190D01*
X13116429Y-38538190D02*
X13145000Y-38538190D01*
X13145000Y-38538190D02*
X13164048Y-38547714D01*
X13164048Y-38547714D02*
X13173572Y-38557238D01*
X13173572Y-38557238D02*
X13183096Y-38576286D01*
X13183096Y-38576286D02*
X13183096Y-38633429D01*
X13183096Y-38633429D02*
X13173572Y-38652476D01*
X13173572Y-38652476D02*
X13164048Y-38662000D01*
X13164048Y-38662000D02*
X13145000Y-38671524D01*
X13145000Y-38671524D02*
X13116429Y-38671524D01*
X13297381Y-38671524D02*
X13278334Y-38662000D01*
X13278334Y-38662000D02*
X13268810Y-38642952D01*
X13268810Y-38642952D02*
X13268810Y-38471524D01*
X13449762Y-38662000D02*
X13430715Y-38671524D01*
X13430715Y-38671524D02*
X13392619Y-38671524D01*
X13392619Y-38671524D02*
X13373572Y-38662000D01*
X13373572Y-38662000D02*
X13364048Y-38642952D01*
X13364048Y-38642952D02*
X13364048Y-38566762D01*
X13364048Y-38566762D02*
X13373572Y-38547714D01*
X13373572Y-38547714D02*
X13392619Y-38538190D01*
X13392619Y-38538190D02*
X13430715Y-38538190D01*
X13430715Y-38538190D02*
X13449762Y-38547714D01*
X13449762Y-38547714D02*
X13459286Y-38566762D01*
X13459286Y-38566762D02*
X13459286Y-38585810D01*
X13459286Y-38585810D02*
X13364048Y-38604857D01*
X13535477Y-38662000D02*
X13554524Y-38671524D01*
X13554524Y-38671524D02*
X13592619Y-38671524D01*
X13592619Y-38671524D02*
X13611667Y-38662000D01*
X13611667Y-38662000D02*
X13621191Y-38642952D01*
X13621191Y-38642952D02*
X13621191Y-38633429D01*
X13621191Y-38633429D02*
X13611667Y-38614381D01*
X13611667Y-38614381D02*
X13592619Y-38604857D01*
X13592619Y-38604857D02*
X13564048Y-38604857D01*
X13564048Y-38604857D02*
X13545000Y-38595333D01*
X13545000Y-38595333D02*
X13535477Y-38576286D01*
X13535477Y-38576286D02*
X13535477Y-38566762D01*
X13535477Y-38566762D02*
X13545000Y-38547714D01*
X13545000Y-38547714D02*
X13564048Y-38538190D01*
X13564048Y-38538190D02*
X13592619Y-38538190D01*
X13592619Y-38538190D02*
X13611667Y-38547714D01*
X13687858Y-38747714D02*
X13697381Y-38738190D01*
X13697381Y-38738190D02*
X13716429Y-38709619D01*
X13716429Y-38709619D02*
X13725953Y-38690571D01*
X13725953Y-38690571D02*
X13735477Y-38662000D01*
X13735477Y-38662000D02*
X13745000Y-38614381D01*
X13745000Y-38614381D02*
X13745000Y-38576286D01*
X13745000Y-38576286D02*
X13735477Y-38528667D01*
X13735477Y-38528667D02*
X13725953Y-38500095D01*
X13725953Y-38500095D02*
X13716429Y-38481048D01*
X13716429Y-38481048D02*
X13697381Y-38452476D01*
X13697381Y-38452476D02*
X13687858Y-38442952D01*
X14049762Y-38747714D02*
X14040238Y-38738190D01*
X14040238Y-38738190D02*
X14021191Y-38709619D01*
X14021191Y-38709619D02*
X14011667Y-38690571D01*
X14011667Y-38690571D02*
X14002143Y-38662000D01*
X14002143Y-38662000D02*
X13992619Y-38614381D01*
X13992619Y-38614381D02*
X13992619Y-38576286D01*
X13992619Y-38576286D02*
X14002143Y-38528667D01*
X14002143Y-38528667D02*
X14011667Y-38500095D01*
X14011667Y-38500095D02*
X14021191Y-38481048D01*
X14021191Y-38481048D02*
X14040238Y-38452476D01*
X14040238Y-38452476D02*
X14049762Y-38442952D01*
X14125953Y-38538190D02*
X14125953Y-38671524D01*
X14125953Y-38557238D02*
X14135477Y-38547714D01*
X14135477Y-38547714D02*
X14154524Y-38538190D01*
X14154524Y-38538190D02*
X14183096Y-38538190D01*
X14183096Y-38538190D02*
X14202143Y-38547714D01*
X14202143Y-38547714D02*
X14211667Y-38566762D01*
X14211667Y-38566762D02*
X14211667Y-38671524D01*
X14335477Y-38671524D02*
X14316429Y-38662000D01*
X14316429Y-38662000D02*
X14306905Y-38652476D01*
X14306905Y-38652476D02*
X14297381Y-38633429D01*
X14297381Y-38633429D02*
X14297381Y-38576286D01*
X14297381Y-38576286D02*
X14306905Y-38557238D01*
X14306905Y-38557238D02*
X14316429Y-38547714D01*
X14316429Y-38547714D02*
X14335477Y-38538190D01*
X14335477Y-38538190D02*
X14364048Y-38538190D01*
X14364048Y-38538190D02*
X14383096Y-38547714D01*
X14383096Y-38547714D02*
X14392619Y-38557238D01*
X14392619Y-38557238D02*
X14402143Y-38576286D01*
X14402143Y-38576286D02*
X14402143Y-38633429D01*
X14402143Y-38633429D02*
X14392619Y-38652476D01*
X14392619Y-38652476D02*
X14383096Y-38662000D01*
X14383096Y-38662000D02*
X14364048Y-38671524D01*
X14364048Y-38671524D02*
X14335477Y-38671524D01*
X14459286Y-38538190D02*
X14535477Y-38538190D01*
X14487858Y-38471524D02*
X14487858Y-38642952D01*
X14487858Y-38642952D02*
X14497381Y-38662000D01*
X14497381Y-38662000D02*
X14516429Y-38671524D01*
X14516429Y-38671524D02*
X14535477Y-38671524D01*
X14754524Y-38538190D02*
X14754524Y-38738190D01*
X14754524Y-38547714D02*
X14773572Y-38538190D01*
X14773572Y-38538190D02*
X14811667Y-38538190D01*
X14811667Y-38538190D02*
X14830715Y-38547714D01*
X14830715Y-38547714D02*
X14840239Y-38557238D01*
X14840239Y-38557238D02*
X14849762Y-38576286D01*
X14849762Y-38576286D02*
X14849762Y-38633429D01*
X14849762Y-38633429D02*
X14840239Y-38652476D01*
X14840239Y-38652476D02*
X14830715Y-38662000D01*
X14830715Y-38662000D02*
X14811667Y-38671524D01*
X14811667Y-38671524D02*
X14773572Y-38671524D01*
X14773572Y-38671524D02*
X14754524Y-38662000D01*
X14964048Y-38671524D02*
X14945000Y-38662000D01*
X14945000Y-38662000D02*
X14935477Y-38642952D01*
X14935477Y-38642952D02*
X14935477Y-38471524D01*
X15125953Y-38671524D02*
X15125953Y-38566762D01*
X15125953Y-38566762D02*
X15116429Y-38547714D01*
X15116429Y-38547714D02*
X15097381Y-38538190D01*
X15097381Y-38538190D02*
X15059286Y-38538190D01*
X15059286Y-38538190D02*
X15040239Y-38547714D01*
X15125953Y-38662000D02*
X15106905Y-38671524D01*
X15106905Y-38671524D02*
X15059286Y-38671524D01*
X15059286Y-38671524D02*
X15040239Y-38662000D01*
X15040239Y-38662000D02*
X15030715Y-38642952D01*
X15030715Y-38642952D02*
X15030715Y-38623905D01*
X15030715Y-38623905D02*
X15040239Y-38604857D01*
X15040239Y-38604857D02*
X15059286Y-38595333D01*
X15059286Y-38595333D02*
X15106905Y-38595333D01*
X15106905Y-38595333D02*
X15125953Y-38585810D01*
X15192620Y-38538190D02*
X15268810Y-38538190D01*
X15221191Y-38471524D02*
X15221191Y-38642952D01*
X15221191Y-38642952D02*
X15230715Y-38662000D01*
X15230715Y-38662000D02*
X15249762Y-38671524D01*
X15249762Y-38671524D02*
X15268810Y-38671524D01*
X15411667Y-38662000D02*
X15392620Y-38671524D01*
X15392620Y-38671524D02*
X15354524Y-38671524D01*
X15354524Y-38671524D02*
X15335477Y-38662000D01*
X15335477Y-38662000D02*
X15325953Y-38642952D01*
X15325953Y-38642952D02*
X15325953Y-38566762D01*
X15325953Y-38566762D02*
X15335477Y-38547714D01*
X15335477Y-38547714D02*
X15354524Y-38538190D01*
X15354524Y-38538190D02*
X15392620Y-38538190D01*
X15392620Y-38538190D02*
X15411667Y-38547714D01*
X15411667Y-38547714D02*
X15421191Y-38566762D01*
X15421191Y-38566762D02*
X15421191Y-38585810D01*
X15421191Y-38585810D02*
X15325953Y-38604857D01*
X15592620Y-38671524D02*
X15592620Y-38471524D01*
X15592620Y-38662000D02*
X15573572Y-38671524D01*
X15573572Y-38671524D02*
X15535477Y-38671524D01*
X15535477Y-38671524D02*
X15516429Y-38662000D01*
X15516429Y-38662000D02*
X15506905Y-38652476D01*
X15506905Y-38652476D02*
X15497381Y-38633429D01*
X15497381Y-38633429D02*
X15497381Y-38576286D01*
X15497381Y-38576286D02*
X15506905Y-38557238D01*
X15506905Y-38557238D02*
X15516429Y-38547714D01*
X15516429Y-38547714D02*
X15535477Y-38538190D01*
X15535477Y-38538190D02*
X15573572Y-38538190D01*
X15573572Y-38538190D02*
X15592620Y-38547714D01*
X15668810Y-38747714D02*
X15678334Y-38738190D01*
X15678334Y-38738190D02*
X15697381Y-38709619D01*
X15697381Y-38709619D02*
X15706905Y-38690571D01*
X15706905Y-38690571D02*
X15716429Y-38662000D01*
X15716429Y-38662000D02*
X15725953Y-38614381D01*
X15725953Y-38614381D02*
X15725953Y-38576286D01*
X15725953Y-38576286D02*
X15716429Y-38528667D01*
X15716429Y-38528667D02*
X15706905Y-38500095D01*
X15706905Y-38500095D02*
X15697381Y-38481048D01*
X15697381Y-38481048D02*
X15678334Y-38452476D01*
X15678334Y-38452476D02*
X15668810Y-38442952D01*
D15*
X8518640Y-38932640D02*
X8518640Y-38805360D01*
X8391360Y-38805360D01*
X8391360Y-38932640D01*
X8518640Y-38932640D01*
D11*
X8897381Y-38961524D02*
X8783095Y-38961524D01*
X8840238Y-38961524D02*
X8840238Y-38761524D01*
X8840238Y-38761524D02*
X8821190Y-38790095D01*
X8821190Y-38790095D02*
X8802143Y-38809143D01*
X8802143Y-38809143D02*
X8783095Y-38818667D01*
X8983095Y-38942476D02*
X8992619Y-38952000D01*
X8992619Y-38952000D02*
X8983095Y-38961524D01*
X8983095Y-38961524D02*
X8973571Y-38952000D01*
X8973571Y-38952000D02*
X8983095Y-38942476D01*
X8983095Y-38942476D02*
X8983095Y-38961524D01*
X9106905Y-38847238D02*
X9087857Y-38837714D01*
X9087857Y-38837714D02*
X9078333Y-38828190D01*
X9078333Y-38828190D02*
X9068810Y-38809143D01*
X9068810Y-38809143D02*
X9068810Y-38799619D01*
X9068810Y-38799619D02*
X9078333Y-38780571D01*
X9078333Y-38780571D02*
X9087857Y-38771048D01*
X9087857Y-38771048D02*
X9106905Y-38761524D01*
X9106905Y-38761524D02*
X9145000Y-38761524D01*
X9145000Y-38761524D02*
X9164048Y-38771048D01*
X9164048Y-38771048D02*
X9173571Y-38780571D01*
X9173571Y-38780571D02*
X9183095Y-38799619D01*
X9183095Y-38799619D02*
X9183095Y-38809143D01*
X9183095Y-38809143D02*
X9173571Y-38828190D01*
X9173571Y-38828190D02*
X9164048Y-38837714D01*
X9164048Y-38837714D02*
X9145000Y-38847238D01*
X9145000Y-38847238D02*
X9106905Y-38847238D01*
X9106905Y-38847238D02*
X9087857Y-38856762D01*
X9087857Y-38856762D02*
X9078333Y-38866286D01*
X9078333Y-38866286D02*
X9068810Y-38885333D01*
X9068810Y-38885333D02*
X9068810Y-38923429D01*
X9068810Y-38923429D02*
X9078333Y-38942476D01*
X9078333Y-38942476D02*
X9087857Y-38952000D01*
X9087857Y-38952000D02*
X9106905Y-38961524D01*
X9106905Y-38961524D02*
X9145000Y-38961524D01*
X9145000Y-38961524D02*
X9164048Y-38952000D01*
X9164048Y-38952000D02*
X9173571Y-38942476D01*
X9173571Y-38942476D02*
X9183095Y-38923429D01*
X9183095Y-38923429D02*
X9183095Y-38885333D01*
X9183095Y-38885333D02*
X9173571Y-38866286D01*
X9173571Y-38866286D02*
X9164048Y-38856762D01*
X9164048Y-38856762D02*
X9145000Y-38847238D01*
X9306905Y-38761524D02*
X9325952Y-38761524D01*
X9325952Y-38761524D02*
X9345000Y-38771048D01*
X9345000Y-38771048D02*
X9354524Y-38780571D01*
X9354524Y-38780571D02*
X9364048Y-38799619D01*
X9364048Y-38799619D02*
X9373571Y-38837714D01*
X9373571Y-38837714D02*
X9373571Y-38885333D01*
X9373571Y-38885333D02*
X9364048Y-38923429D01*
X9364048Y-38923429D02*
X9354524Y-38942476D01*
X9354524Y-38942476D02*
X9345000Y-38952000D01*
X9345000Y-38952000D02*
X9325952Y-38961524D01*
X9325952Y-38961524D02*
X9306905Y-38961524D01*
X9306905Y-38961524D02*
X9287857Y-38952000D01*
X9287857Y-38952000D02*
X9278333Y-38942476D01*
X9278333Y-38942476D02*
X9268810Y-38923429D01*
X9268810Y-38923429D02*
X9259286Y-38885333D01*
X9259286Y-38885333D02*
X9259286Y-38837714D01*
X9259286Y-38837714D02*
X9268810Y-38799619D01*
X9268810Y-38799619D02*
X9278333Y-38780571D01*
X9278333Y-38780571D02*
X9287857Y-38771048D01*
X9287857Y-38771048D02*
X9306905Y-38761524D01*
X9497381Y-38761524D02*
X9516429Y-38761524D01*
X9516429Y-38761524D02*
X9535476Y-38771048D01*
X9535476Y-38771048D02*
X9545000Y-38780571D01*
X9545000Y-38780571D02*
X9554524Y-38799619D01*
X9554524Y-38799619D02*
X9564048Y-38837714D01*
X9564048Y-38837714D02*
X9564048Y-38885333D01*
X9564048Y-38885333D02*
X9554524Y-38923429D01*
X9554524Y-38923429D02*
X9545000Y-38942476D01*
X9545000Y-38942476D02*
X9535476Y-38952000D01*
X9535476Y-38952000D02*
X9516429Y-38961524D01*
X9516429Y-38961524D02*
X9497381Y-38961524D01*
X9497381Y-38961524D02*
X9478333Y-38952000D01*
X9478333Y-38952000D02*
X9468810Y-38942476D01*
X9468810Y-38942476D02*
X9459286Y-38923429D01*
X9459286Y-38923429D02*
X9449762Y-38885333D01*
X9449762Y-38885333D02*
X9449762Y-38837714D01*
X9449762Y-38837714D02*
X9459286Y-38799619D01*
X9459286Y-38799619D02*
X9468810Y-38780571D01*
X9468810Y-38780571D02*
X9478333Y-38771048D01*
X9478333Y-38771048D02*
X9497381Y-38761524D01*
X9649762Y-38961524D02*
X9649762Y-38828190D01*
X9649762Y-38847238D02*
X9659286Y-38837714D01*
X9659286Y-38837714D02*
X9678333Y-38828190D01*
X9678333Y-38828190D02*
X9706905Y-38828190D01*
X9706905Y-38828190D02*
X9725952Y-38837714D01*
X9725952Y-38837714D02*
X9735476Y-38856762D01*
X9735476Y-38856762D02*
X9735476Y-38961524D01*
X9735476Y-38856762D02*
X9745000Y-38837714D01*
X9745000Y-38837714D02*
X9764048Y-38828190D01*
X9764048Y-38828190D02*
X9792619Y-38828190D01*
X9792619Y-38828190D02*
X9811667Y-38837714D01*
X9811667Y-38837714D02*
X9821191Y-38856762D01*
X9821191Y-38856762D02*
X9821191Y-38961524D01*
X9916429Y-38961524D02*
X9916429Y-38828190D01*
X9916429Y-38847238D02*
X9925952Y-38837714D01*
X9925952Y-38837714D02*
X9945000Y-38828190D01*
X9945000Y-38828190D02*
X9973572Y-38828190D01*
X9973572Y-38828190D02*
X9992619Y-38837714D01*
X9992619Y-38837714D02*
X10002143Y-38856762D01*
X10002143Y-38856762D02*
X10002143Y-38961524D01*
X10002143Y-38856762D02*
X10011667Y-38837714D01*
X10011667Y-38837714D02*
X10030714Y-38828190D01*
X10030714Y-38828190D02*
X10059286Y-38828190D01*
X10059286Y-38828190D02*
X10078333Y-38837714D01*
X10078333Y-38837714D02*
X10087857Y-38856762D01*
X10087857Y-38856762D02*
X10087857Y-38961524D01*
X10478333Y-38752000D02*
X10306905Y-39009143D01*
X10735476Y-38761524D02*
X10754524Y-38761524D01*
X10754524Y-38761524D02*
X10773572Y-38771048D01*
X10773572Y-38771048D02*
X10783095Y-38780571D01*
X10783095Y-38780571D02*
X10792619Y-38799619D01*
X10792619Y-38799619D02*
X10802143Y-38837714D01*
X10802143Y-38837714D02*
X10802143Y-38885333D01*
X10802143Y-38885333D02*
X10792619Y-38923429D01*
X10792619Y-38923429D02*
X10783095Y-38942476D01*
X10783095Y-38942476D02*
X10773572Y-38952000D01*
X10773572Y-38952000D02*
X10754524Y-38961524D01*
X10754524Y-38961524D02*
X10735476Y-38961524D01*
X10735476Y-38961524D02*
X10716429Y-38952000D01*
X10716429Y-38952000D02*
X10706905Y-38942476D01*
X10706905Y-38942476D02*
X10697381Y-38923429D01*
X10697381Y-38923429D02*
X10687857Y-38885333D01*
X10687857Y-38885333D02*
X10687857Y-38837714D01*
X10687857Y-38837714D02*
X10697381Y-38799619D01*
X10697381Y-38799619D02*
X10706905Y-38780571D01*
X10706905Y-38780571D02*
X10716429Y-38771048D01*
X10716429Y-38771048D02*
X10735476Y-38761524D01*
X10887857Y-38942476D02*
X10897381Y-38952000D01*
X10897381Y-38952000D02*
X10887857Y-38961524D01*
X10887857Y-38961524D02*
X10878334Y-38952000D01*
X10878334Y-38952000D02*
X10887857Y-38942476D01*
X10887857Y-38942476D02*
X10887857Y-38961524D01*
X11021191Y-38761524D02*
X11040238Y-38761524D01*
X11040238Y-38761524D02*
X11059286Y-38771048D01*
X11059286Y-38771048D02*
X11068810Y-38780571D01*
X11068810Y-38780571D02*
X11078334Y-38799619D01*
X11078334Y-38799619D02*
X11087857Y-38837714D01*
X11087857Y-38837714D02*
X11087857Y-38885333D01*
X11087857Y-38885333D02*
X11078334Y-38923429D01*
X11078334Y-38923429D02*
X11068810Y-38942476D01*
X11068810Y-38942476D02*
X11059286Y-38952000D01*
X11059286Y-38952000D02*
X11040238Y-38961524D01*
X11040238Y-38961524D02*
X11021191Y-38961524D01*
X11021191Y-38961524D02*
X11002143Y-38952000D01*
X11002143Y-38952000D02*
X10992619Y-38942476D01*
X10992619Y-38942476D02*
X10983095Y-38923429D01*
X10983095Y-38923429D02*
X10973572Y-38885333D01*
X10973572Y-38885333D02*
X10973572Y-38837714D01*
X10973572Y-38837714D02*
X10983095Y-38799619D01*
X10983095Y-38799619D02*
X10992619Y-38780571D01*
X10992619Y-38780571D02*
X11002143Y-38771048D01*
X11002143Y-38771048D02*
X11021191Y-38761524D01*
X11154524Y-38761524D02*
X11287857Y-38761524D01*
X11287857Y-38761524D02*
X11202143Y-38961524D01*
X11402143Y-38761524D02*
X11421191Y-38761524D01*
X11421191Y-38761524D02*
X11440238Y-38771048D01*
X11440238Y-38771048D02*
X11449762Y-38780571D01*
X11449762Y-38780571D02*
X11459286Y-38799619D01*
X11459286Y-38799619D02*
X11468810Y-38837714D01*
X11468810Y-38837714D02*
X11468810Y-38885333D01*
X11468810Y-38885333D02*
X11459286Y-38923429D01*
X11459286Y-38923429D02*
X11449762Y-38942476D01*
X11449762Y-38942476D02*
X11440238Y-38952000D01*
X11440238Y-38952000D02*
X11421191Y-38961524D01*
X11421191Y-38961524D02*
X11402143Y-38961524D01*
X11402143Y-38961524D02*
X11383095Y-38952000D01*
X11383095Y-38952000D02*
X11373572Y-38942476D01*
X11373572Y-38942476D02*
X11364048Y-38923429D01*
X11364048Y-38923429D02*
X11354524Y-38885333D01*
X11354524Y-38885333D02*
X11354524Y-38837714D01*
X11354524Y-38837714D02*
X11364048Y-38799619D01*
X11364048Y-38799619D02*
X11373572Y-38780571D01*
X11373572Y-38780571D02*
X11383095Y-38771048D01*
X11383095Y-38771048D02*
X11402143Y-38761524D01*
X11564048Y-38961524D02*
X11602143Y-38961524D01*
X11602143Y-38961524D02*
X11621191Y-38952000D01*
X11621191Y-38952000D02*
X11630714Y-38942476D01*
X11630714Y-38942476D02*
X11649762Y-38913905D01*
X11649762Y-38913905D02*
X11659286Y-38875810D01*
X11659286Y-38875810D02*
X11659286Y-38799619D01*
X11659286Y-38799619D02*
X11649762Y-38780571D01*
X11649762Y-38780571D02*
X11640238Y-38771048D01*
X11640238Y-38771048D02*
X11621191Y-38761524D01*
X11621191Y-38761524D02*
X11583095Y-38761524D01*
X11583095Y-38761524D02*
X11564048Y-38771048D01*
X11564048Y-38771048D02*
X11554524Y-38780571D01*
X11554524Y-38780571D02*
X11545000Y-38799619D01*
X11545000Y-38799619D02*
X11545000Y-38847238D01*
X11545000Y-38847238D02*
X11554524Y-38866286D01*
X11554524Y-38866286D02*
X11564048Y-38875810D01*
X11564048Y-38875810D02*
X11583095Y-38885333D01*
X11583095Y-38885333D02*
X11621191Y-38885333D01*
X11621191Y-38885333D02*
X11640238Y-38875810D01*
X11640238Y-38875810D02*
X11649762Y-38866286D01*
X11649762Y-38866286D02*
X11659286Y-38847238D01*
X11735476Y-38761524D02*
X11735476Y-38799619D01*
X11811667Y-38761524D02*
X11811667Y-38799619D01*
X12106905Y-39037714D02*
X12097381Y-39028190D01*
X12097381Y-39028190D02*
X12078334Y-38999619D01*
X12078334Y-38999619D02*
X12068810Y-38980571D01*
X12068810Y-38980571D02*
X12059286Y-38952000D01*
X12059286Y-38952000D02*
X12049762Y-38904381D01*
X12049762Y-38904381D02*
X12049762Y-38866286D01*
X12049762Y-38866286D02*
X12059286Y-38818667D01*
X12059286Y-38818667D02*
X12068810Y-38790095D01*
X12068810Y-38790095D02*
X12078334Y-38771048D01*
X12078334Y-38771048D02*
X12097381Y-38742476D01*
X12097381Y-38742476D02*
X12106905Y-38732952D01*
X12268810Y-38828190D02*
X12268810Y-38961524D01*
X12221191Y-38752000D02*
X12173572Y-38894857D01*
X12173572Y-38894857D02*
X12297381Y-38894857D01*
X12525953Y-38961524D02*
X12525953Y-38761524D01*
X12611667Y-38961524D02*
X12611667Y-38856762D01*
X12611667Y-38856762D02*
X12602143Y-38837714D01*
X12602143Y-38837714D02*
X12583096Y-38828190D01*
X12583096Y-38828190D02*
X12554524Y-38828190D01*
X12554524Y-38828190D02*
X12535476Y-38837714D01*
X12535476Y-38837714D02*
X12525953Y-38847238D01*
X12735476Y-38961524D02*
X12716429Y-38952000D01*
X12716429Y-38952000D02*
X12706905Y-38942476D01*
X12706905Y-38942476D02*
X12697381Y-38923429D01*
X12697381Y-38923429D02*
X12697381Y-38866286D01*
X12697381Y-38866286D02*
X12706905Y-38847238D01*
X12706905Y-38847238D02*
X12716429Y-38837714D01*
X12716429Y-38837714D02*
X12735476Y-38828190D01*
X12735476Y-38828190D02*
X12764048Y-38828190D01*
X12764048Y-38828190D02*
X12783096Y-38837714D01*
X12783096Y-38837714D02*
X12792619Y-38847238D01*
X12792619Y-38847238D02*
X12802143Y-38866286D01*
X12802143Y-38866286D02*
X12802143Y-38923429D01*
X12802143Y-38923429D02*
X12792619Y-38942476D01*
X12792619Y-38942476D02*
X12783096Y-38952000D01*
X12783096Y-38952000D02*
X12764048Y-38961524D01*
X12764048Y-38961524D02*
X12735476Y-38961524D01*
X12916429Y-38961524D02*
X12897381Y-38952000D01*
X12897381Y-38952000D02*
X12887857Y-38932952D01*
X12887857Y-38932952D02*
X12887857Y-38761524D01*
X13068810Y-38952000D02*
X13049762Y-38961524D01*
X13049762Y-38961524D02*
X13011667Y-38961524D01*
X13011667Y-38961524D02*
X12992619Y-38952000D01*
X12992619Y-38952000D02*
X12983096Y-38932952D01*
X12983096Y-38932952D02*
X12983096Y-38856762D01*
X12983096Y-38856762D02*
X12992619Y-38837714D01*
X12992619Y-38837714D02*
X13011667Y-38828190D01*
X13011667Y-38828190D02*
X13049762Y-38828190D01*
X13049762Y-38828190D02*
X13068810Y-38837714D01*
X13068810Y-38837714D02*
X13078334Y-38856762D01*
X13078334Y-38856762D02*
X13078334Y-38875810D01*
X13078334Y-38875810D02*
X12983096Y-38894857D01*
X13154524Y-38952000D02*
X13173572Y-38961524D01*
X13173572Y-38961524D02*
X13211667Y-38961524D01*
X13211667Y-38961524D02*
X13230715Y-38952000D01*
X13230715Y-38952000D02*
X13240238Y-38932952D01*
X13240238Y-38932952D02*
X13240238Y-38923429D01*
X13240238Y-38923429D02*
X13230715Y-38904381D01*
X13230715Y-38904381D02*
X13211667Y-38894857D01*
X13211667Y-38894857D02*
X13183096Y-38894857D01*
X13183096Y-38894857D02*
X13164048Y-38885333D01*
X13164048Y-38885333D02*
X13154524Y-38866286D01*
X13154524Y-38866286D02*
X13154524Y-38856762D01*
X13154524Y-38856762D02*
X13164048Y-38837714D01*
X13164048Y-38837714D02*
X13183096Y-38828190D01*
X13183096Y-38828190D02*
X13211667Y-38828190D01*
X13211667Y-38828190D02*
X13230715Y-38837714D01*
X13306905Y-39037714D02*
X13316429Y-39028190D01*
X13316429Y-39028190D02*
X13335477Y-38999619D01*
X13335477Y-38999619D02*
X13345000Y-38980571D01*
X13345000Y-38980571D02*
X13354524Y-38952000D01*
X13354524Y-38952000D02*
X13364048Y-38904381D01*
X13364048Y-38904381D02*
X13364048Y-38866286D01*
X13364048Y-38866286D02*
X13354524Y-38818667D01*
X13354524Y-38818667D02*
X13345000Y-38790095D01*
X13345000Y-38790095D02*
X13335477Y-38771048D01*
X13335477Y-38771048D02*
X13316429Y-38742476D01*
X13316429Y-38742476D02*
X13306905Y-38732952D01*
X13668810Y-39037714D02*
X13659286Y-39028190D01*
X13659286Y-39028190D02*
X13640238Y-38999619D01*
X13640238Y-38999619D02*
X13630715Y-38980571D01*
X13630715Y-38980571D02*
X13621191Y-38952000D01*
X13621191Y-38952000D02*
X13611667Y-38904381D01*
X13611667Y-38904381D02*
X13611667Y-38866286D01*
X13611667Y-38866286D02*
X13621191Y-38818667D01*
X13621191Y-38818667D02*
X13630715Y-38790095D01*
X13630715Y-38790095D02*
X13640238Y-38771048D01*
X13640238Y-38771048D02*
X13659286Y-38742476D01*
X13659286Y-38742476D02*
X13668810Y-38732952D01*
X13745000Y-38828190D02*
X13745000Y-38961524D01*
X13745000Y-38847238D02*
X13754524Y-38837714D01*
X13754524Y-38837714D02*
X13773572Y-38828190D01*
X13773572Y-38828190D02*
X13802143Y-38828190D01*
X13802143Y-38828190D02*
X13821191Y-38837714D01*
X13821191Y-38837714D02*
X13830715Y-38856762D01*
X13830715Y-38856762D02*
X13830715Y-38961524D01*
X13954524Y-38961524D02*
X13935477Y-38952000D01*
X13935477Y-38952000D02*
X13925953Y-38942476D01*
X13925953Y-38942476D02*
X13916429Y-38923429D01*
X13916429Y-38923429D02*
X13916429Y-38866286D01*
X13916429Y-38866286D02*
X13925953Y-38847238D01*
X13925953Y-38847238D02*
X13935477Y-38837714D01*
X13935477Y-38837714D02*
X13954524Y-38828190D01*
X13954524Y-38828190D02*
X13983096Y-38828190D01*
X13983096Y-38828190D02*
X14002143Y-38837714D01*
X14002143Y-38837714D02*
X14011667Y-38847238D01*
X14011667Y-38847238D02*
X14021191Y-38866286D01*
X14021191Y-38866286D02*
X14021191Y-38923429D01*
X14021191Y-38923429D02*
X14011667Y-38942476D01*
X14011667Y-38942476D02*
X14002143Y-38952000D01*
X14002143Y-38952000D02*
X13983096Y-38961524D01*
X13983096Y-38961524D02*
X13954524Y-38961524D01*
X14078334Y-38828190D02*
X14154524Y-38828190D01*
X14106905Y-38761524D02*
X14106905Y-38932952D01*
X14106905Y-38932952D02*
X14116429Y-38952000D01*
X14116429Y-38952000D02*
X14135477Y-38961524D01*
X14135477Y-38961524D02*
X14154524Y-38961524D01*
X14373572Y-38828190D02*
X14373572Y-39028190D01*
X14373572Y-38837714D02*
X14392619Y-38828190D01*
X14392619Y-38828190D02*
X14430715Y-38828190D01*
X14430715Y-38828190D02*
X14449762Y-38837714D01*
X14449762Y-38837714D02*
X14459286Y-38847238D01*
X14459286Y-38847238D02*
X14468810Y-38866286D01*
X14468810Y-38866286D02*
X14468810Y-38923429D01*
X14468810Y-38923429D02*
X14459286Y-38942476D01*
X14459286Y-38942476D02*
X14449762Y-38952000D01*
X14449762Y-38952000D02*
X14430715Y-38961524D01*
X14430715Y-38961524D02*
X14392619Y-38961524D01*
X14392619Y-38961524D02*
X14373572Y-38952000D01*
X14583096Y-38961524D02*
X14564048Y-38952000D01*
X14564048Y-38952000D02*
X14554524Y-38932952D01*
X14554524Y-38932952D02*
X14554524Y-38761524D01*
X14745000Y-38961524D02*
X14745000Y-38856762D01*
X14745000Y-38856762D02*
X14735477Y-38837714D01*
X14735477Y-38837714D02*
X14716429Y-38828190D01*
X14716429Y-38828190D02*
X14678334Y-38828190D01*
X14678334Y-38828190D02*
X14659286Y-38837714D01*
X14745000Y-38952000D02*
X14725953Y-38961524D01*
X14725953Y-38961524D02*
X14678334Y-38961524D01*
X14678334Y-38961524D02*
X14659286Y-38952000D01*
X14659286Y-38952000D02*
X14649762Y-38932952D01*
X14649762Y-38932952D02*
X14649762Y-38913905D01*
X14649762Y-38913905D02*
X14659286Y-38894857D01*
X14659286Y-38894857D02*
X14678334Y-38885333D01*
X14678334Y-38885333D02*
X14725953Y-38885333D01*
X14725953Y-38885333D02*
X14745000Y-38875810D01*
X14811667Y-38828190D02*
X14887858Y-38828190D01*
X14840239Y-38761524D02*
X14840239Y-38932952D01*
X14840239Y-38932952D02*
X14849762Y-38952000D01*
X14849762Y-38952000D02*
X14868810Y-38961524D01*
X14868810Y-38961524D02*
X14887858Y-38961524D01*
X15030715Y-38952000D02*
X15011667Y-38961524D01*
X15011667Y-38961524D02*
X14973572Y-38961524D01*
X14973572Y-38961524D02*
X14954524Y-38952000D01*
X14954524Y-38952000D02*
X14945000Y-38932952D01*
X14945000Y-38932952D02*
X14945000Y-38856762D01*
X14945000Y-38856762D02*
X14954524Y-38837714D01*
X14954524Y-38837714D02*
X14973572Y-38828190D01*
X14973572Y-38828190D02*
X15011667Y-38828190D01*
X15011667Y-38828190D02*
X15030715Y-38837714D01*
X15030715Y-38837714D02*
X15040239Y-38856762D01*
X15040239Y-38856762D02*
X15040239Y-38875810D01*
X15040239Y-38875810D02*
X14945000Y-38894857D01*
X15211667Y-38961524D02*
X15211667Y-38761524D01*
X15211667Y-38952000D02*
X15192620Y-38961524D01*
X15192620Y-38961524D02*
X15154524Y-38961524D01*
X15154524Y-38961524D02*
X15135477Y-38952000D01*
X15135477Y-38952000D02*
X15125953Y-38942476D01*
X15125953Y-38942476D02*
X15116429Y-38923429D01*
X15116429Y-38923429D02*
X15116429Y-38866286D01*
X15116429Y-38866286D02*
X15125953Y-38847238D01*
X15125953Y-38847238D02*
X15135477Y-38837714D01*
X15135477Y-38837714D02*
X15154524Y-38828190D01*
X15154524Y-38828190D02*
X15192620Y-38828190D01*
X15192620Y-38828190D02*
X15211667Y-38837714D01*
X15287858Y-39037714D02*
X15297381Y-39028190D01*
X15297381Y-39028190D02*
X15316429Y-38999619D01*
X15316429Y-38999619D02*
X15325953Y-38980571D01*
X15325953Y-38980571D02*
X15335477Y-38952000D01*
X15335477Y-38952000D02*
X15345000Y-38904381D01*
X15345000Y-38904381D02*
X15345000Y-38866286D01*
X15345000Y-38866286D02*
X15335477Y-38818667D01*
X15335477Y-38818667D02*
X15325953Y-38790095D01*
X15325953Y-38790095D02*
X15316429Y-38771048D01*
X15316429Y-38771048D02*
X15297381Y-38742476D01*
X15297381Y-38742476D02*
X15287858Y-38732952D01*
X8445000Y-39269000D02*
X8545000Y-39169000D01*
X8445000Y-39069000D01*
X8345000Y-39169000D01*
X8445000Y-39269000D01*
X8878333Y-39128190D02*
X8878333Y-39261524D01*
X8830714Y-39052000D02*
X8783095Y-39194857D01*
X8783095Y-39194857D02*
X8906905Y-39194857D01*
X8983095Y-39242476D02*
X8992619Y-39252000D01*
X8992619Y-39252000D02*
X8983095Y-39261524D01*
X8983095Y-39261524D02*
X8973571Y-39252000D01*
X8973571Y-39252000D02*
X8983095Y-39242476D01*
X8983095Y-39242476D02*
X8983095Y-39261524D01*
X9116429Y-39061524D02*
X9135476Y-39061524D01*
X9135476Y-39061524D02*
X9154524Y-39071048D01*
X9154524Y-39071048D02*
X9164048Y-39080571D01*
X9164048Y-39080571D02*
X9173571Y-39099619D01*
X9173571Y-39099619D02*
X9183095Y-39137714D01*
X9183095Y-39137714D02*
X9183095Y-39185333D01*
X9183095Y-39185333D02*
X9173571Y-39223429D01*
X9173571Y-39223429D02*
X9164048Y-39242476D01*
X9164048Y-39242476D02*
X9154524Y-39252000D01*
X9154524Y-39252000D02*
X9135476Y-39261524D01*
X9135476Y-39261524D02*
X9116429Y-39261524D01*
X9116429Y-39261524D02*
X9097381Y-39252000D01*
X9097381Y-39252000D02*
X9087857Y-39242476D01*
X9087857Y-39242476D02*
X9078333Y-39223429D01*
X9078333Y-39223429D02*
X9068810Y-39185333D01*
X9068810Y-39185333D02*
X9068810Y-39137714D01*
X9068810Y-39137714D02*
X9078333Y-39099619D01*
X9078333Y-39099619D02*
X9087857Y-39080571D01*
X9087857Y-39080571D02*
X9097381Y-39071048D01*
X9097381Y-39071048D02*
X9116429Y-39061524D01*
X9306905Y-39061524D02*
X9325952Y-39061524D01*
X9325952Y-39061524D02*
X9345000Y-39071048D01*
X9345000Y-39071048D02*
X9354524Y-39080571D01*
X9354524Y-39080571D02*
X9364048Y-39099619D01*
X9364048Y-39099619D02*
X9373571Y-39137714D01*
X9373571Y-39137714D02*
X9373571Y-39185333D01*
X9373571Y-39185333D02*
X9364048Y-39223429D01*
X9364048Y-39223429D02*
X9354524Y-39242476D01*
X9354524Y-39242476D02*
X9345000Y-39252000D01*
X9345000Y-39252000D02*
X9325952Y-39261524D01*
X9325952Y-39261524D02*
X9306905Y-39261524D01*
X9306905Y-39261524D02*
X9287857Y-39252000D01*
X9287857Y-39252000D02*
X9278333Y-39242476D01*
X9278333Y-39242476D02*
X9268810Y-39223429D01*
X9268810Y-39223429D02*
X9259286Y-39185333D01*
X9259286Y-39185333D02*
X9259286Y-39137714D01*
X9259286Y-39137714D02*
X9268810Y-39099619D01*
X9268810Y-39099619D02*
X9278333Y-39080571D01*
X9278333Y-39080571D02*
X9287857Y-39071048D01*
X9287857Y-39071048D02*
X9306905Y-39061524D01*
X9497381Y-39061524D02*
X9516429Y-39061524D01*
X9516429Y-39061524D02*
X9535476Y-39071048D01*
X9535476Y-39071048D02*
X9545000Y-39080571D01*
X9545000Y-39080571D02*
X9554524Y-39099619D01*
X9554524Y-39099619D02*
X9564048Y-39137714D01*
X9564048Y-39137714D02*
X9564048Y-39185333D01*
X9564048Y-39185333D02*
X9554524Y-39223429D01*
X9554524Y-39223429D02*
X9545000Y-39242476D01*
X9545000Y-39242476D02*
X9535476Y-39252000D01*
X9535476Y-39252000D02*
X9516429Y-39261524D01*
X9516429Y-39261524D02*
X9497381Y-39261524D01*
X9497381Y-39261524D02*
X9478333Y-39252000D01*
X9478333Y-39252000D02*
X9468810Y-39242476D01*
X9468810Y-39242476D02*
X9459286Y-39223429D01*
X9459286Y-39223429D02*
X9449762Y-39185333D01*
X9449762Y-39185333D02*
X9449762Y-39137714D01*
X9449762Y-39137714D02*
X9459286Y-39099619D01*
X9459286Y-39099619D02*
X9468810Y-39080571D01*
X9468810Y-39080571D02*
X9478333Y-39071048D01*
X9478333Y-39071048D02*
X9497381Y-39061524D01*
X9649762Y-39261524D02*
X9649762Y-39128190D01*
X9649762Y-39147238D02*
X9659286Y-39137714D01*
X9659286Y-39137714D02*
X9678333Y-39128190D01*
X9678333Y-39128190D02*
X9706905Y-39128190D01*
X9706905Y-39128190D02*
X9725952Y-39137714D01*
X9725952Y-39137714D02*
X9735476Y-39156762D01*
X9735476Y-39156762D02*
X9735476Y-39261524D01*
X9735476Y-39156762D02*
X9745000Y-39137714D01*
X9745000Y-39137714D02*
X9764048Y-39128190D01*
X9764048Y-39128190D02*
X9792619Y-39128190D01*
X9792619Y-39128190D02*
X9811667Y-39137714D01*
X9811667Y-39137714D02*
X9821191Y-39156762D01*
X9821191Y-39156762D02*
X9821191Y-39261524D01*
X9916429Y-39261524D02*
X9916429Y-39128190D01*
X9916429Y-39147238D02*
X9925952Y-39137714D01*
X9925952Y-39137714D02*
X9945000Y-39128190D01*
X9945000Y-39128190D02*
X9973572Y-39128190D01*
X9973572Y-39128190D02*
X9992619Y-39137714D01*
X9992619Y-39137714D02*
X10002143Y-39156762D01*
X10002143Y-39156762D02*
X10002143Y-39261524D01*
X10002143Y-39156762D02*
X10011667Y-39137714D01*
X10011667Y-39137714D02*
X10030714Y-39128190D01*
X10030714Y-39128190D02*
X10059286Y-39128190D01*
X10059286Y-39128190D02*
X10078333Y-39137714D01*
X10078333Y-39137714D02*
X10087857Y-39156762D01*
X10087857Y-39156762D02*
X10087857Y-39261524D01*
X10478333Y-39052000D02*
X10306905Y-39309143D01*
X10735476Y-39061524D02*
X10754524Y-39061524D01*
X10754524Y-39061524D02*
X10773572Y-39071048D01*
X10773572Y-39071048D02*
X10783095Y-39080571D01*
X10783095Y-39080571D02*
X10792619Y-39099619D01*
X10792619Y-39099619D02*
X10802143Y-39137714D01*
X10802143Y-39137714D02*
X10802143Y-39185333D01*
X10802143Y-39185333D02*
X10792619Y-39223429D01*
X10792619Y-39223429D02*
X10783095Y-39242476D01*
X10783095Y-39242476D02*
X10773572Y-39252000D01*
X10773572Y-39252000D02*
X10754524Y-39261524D01*
X10754524Y-39261524D02*
X10735476Y-39261524D01*
X10735476Y-39261524D02*
X10716429Y-39252000D01*
X10716429Y-39252000D02*
X10706905Y-39242476D01*
X10706905Y-39242476D02*
X10697381Y-39223429D01*
X10697381Y-39223429D02*
X10687857Y-39185333D01*
X10687857Y-39185333D02*
X10687857Y-39137714D01*
X10687857Y-39137714D02*
X10697381Y-39099619D01*
X10697381Y-39099619D02*
X10706905Y-39080571D01*
X10706905Y-39080571D02*
X10716429Y-39071048D01*
X10716429Y-39071048D02*
X10735476Y-39061524D01*
X10887857Y-39242476D02*
X10897381Y-39252000D01*
X10897381Y-39252000D02*
X10887857Y-39261524D01*
X10887857Y-39261524D02*
X10878334Y-39252000D01*
X10878334Y-39252000D02*
X10887857Y-39242476D01*
X10887857Y-39242476D02*
X10887857Y-39261524D01*
X11087857Y-39261524D02*
X10973572Y-39261524D01*
X11030714Y-39261524D02*
X11030714Y-39061524D01*
X11030714Y-39061524D02*
X11011667Y-39090095D01*
X11011667Y-39090095D02*
X10992619Y-39109143D01*
X10992619Y-39109143D02*
X10973572Y-39118667D01*
X11268810Y-39061524D02*
X11173572Y-39061524D01*
X11173572Y-39061524D02*
X11164048Y-39156762D01*
X11164048Y-39156762D02*
X11173572Y-39147238D01*
X11173572Y-39147238D02*
X11192619Y-39137714D01*
X11192619Y-39137714D02*
X11240238Y-39137714D01*
X11240238Y-39137714D02*
X11259286Y-39147238D01*
X11259286Y-39147238D02*
X11268810Y-39156762D01*
X11268810Y-39156762D02*
X11278333Y-39175810D01*
X11278333Y-39175810D02*
X11278333Y-39223429D01*
X11278333Y-39223429D02*
X11268810Y-39242476D01*
X11268810Y-39242476D02*
X11259286Y-39252000D01*
X11259286Y-39252000D02*
X11240238Y-39261524D01*
X11240238Y-39261524D02*
X11192619Y-39261524D01*
X11192619Y-39261524D02*
X11173572Y-39252000D01*
X11173572Y-39252000D02*
X11164048Y-39242476D01*
X11345000Y-39061524D02*
X11478333Y-39061524D01*
X11478333Y-39061524D02*
X11392619Y-39261524D01*
X11649762Y-39061524D02*
X11554524Y-39061524D01*
X11554524Y-39061524D02*
X11545000Y-39156762D01*
X11545000Y-39156762D02*
X11554524Y-39147238D01*
X11554524Y-39147238D02*
X11573572Y-39137714D01*
X11573572Y-39137714D02*
X11621191Y-39137714D01*
X11621191Y-39137714D02*
X11640238Y-39147238D01*
X11640238Y-39147238D02*
X11649762Y-39156762D01*
X11649762Y-39156762D02*
X11659286Y-39175810D01*
X11659286Y-39175810D02*
X11659286Y-39223429D01*
X11659286Y-39223429D02*
X11649762Y-39242476D01*
X11649762Y-39242476D02*
X11640238Y-39252000D01*
X11640238Y-39252000D02*
X11621191Y-39261524D01*
X11621191Y-39261524D02*
X11573572Y-39261524D01*
X11573572Y-39261524D02*
X11554524Y-39252000D01*
X11554524Y-39252000D02*
X11545000Y-39242476D01*
X11735476Y-39061524D02*
X11735476Y-39099619D01*
X11811667Y-39061524D02*
X11811667Y-39099619D01*
X12106905Y-39337714D02*
X12097381Y-39328190D01*
X12097381Y-39328190D02*
X12078334Y-39299619D01*
X12078334Y-39299619D02*
X12068810Y-39280571D01*
X12068810Y-39280571D02*
X12059286Y-39252000D01*
X12059286Y-39252000D02*
X12049762Y-39204381D01*
X12049762Y-39204381D02*
X12049762Y-39166286D01*
X12049762Y-39166286D02*
X12059286Y-39118667D01*
X12059286Y-39118667D02*
X12068810Y-39090095D01*
X12068810Y-39090095D02*
X12078334Y-39071048D01*
X12078334Y-39071048D02*
X12097381Y-39042476D01*
X12097381Y-39042476D02*
X12106905Y-39032952D01*
X12192619Y-39261524D02*
X12230714Y-39261524D01*
X12230714Y-39261524D02*
X12249762Y-39252000D01*
X12249762Y-39252000D02*
X12259286Y-39242476D01*
X12259286Y-39242476D02*
X12278334Y-39213905D01*
X12278334Y-39213905D02*
X12287857Y-39175810D01*
X12287857Y-39175810D02*
X12287857Y-39099619D01*
X12287857Y-39099619D02*
X12278334Y-39080571D01*
X12278334Y-39080571D02*
X12268810Y-39071048D01*
X12268810Y-39071048D02*
X12249762Y-39061524D01*
X12249762Y-39061524D02*
X12211667Y-39061524D01*
X12211667Y-39061524D02*
X12192619Y-39071048D01*
X12192619Y-39071048D02*
X12183095Y-39080571D01*
X12183095Y-39080571D02*
X12173572Y-39099619D01*
X12173572Y-39099619D02*
X12173572Y-39147238D01*
X12173572Y-39147238D02*
X12183095Y-39166286D01*
X12183095Y-39166286D02*
X12192619Y-39175810D01*
X12192619Y-39175810D02*
X12211667Y-39185333D01*
X12211667Y-39185333D02*
X12249762Y-39185333D01*
X12249762Y-39185333D02*
X12268810Y-39175810D01*
X12268810Y-39175810D02*
X12278334Y-39166286D01*
X12278334Y-39166286D02*
X12287857Y-39147238D01*
X12459286Y-39128190D02*
X12459286Y-39261524D01*
X12411667Y-39052000D02*
X12364048Y-39194857D01*
X12364048Y-39194857D02*
X12487857Y-39194857D01*
X12716429Y-39261524D02*
X12716429Y-39061524D01*
X12802143Y-39261524D02*
X12802143Y-39156762D01*
X12802143Y-39156762D02*
X12792619Y-39137714D01*
X12792619Y-39137714D02*
X12773572Y-39128190D01*
X12773572Y-39128190D02*
X12745000Y-39128190D01*
X12745000Y-39128190D02*
X12725953Y-39137714D01*
X12725953Y-39137714D02*
X12716429Y-39147238D01*
X12925953Y-39261524D02*
X12906905Y-39252000D01*
X12906905Y-39252000D02*
X12897381Y-39242476D01*
X12897381Y-39242476D02*
X12887857Y-39223429D01*
X12887857Y-39223429D02*
X12887857Y-39166286D01*
X12887857Y-39166286D02*
X12897381Y-39147238D01*
X12897381Y-39147238D02*
X12906905Y-39137714D01*
X12906905Y-39137714D02*
X12925953Y-39128190D01*
X12925953Y-39128190D02*
X12954524Y-39128190D01*
X12954524Y-39128190D02*
X12973572Y-39137714D01*
X12973572Y-39137714D02*
X12983096Y-39147238D01*
X12983096Y-39147238D02*
X12992619Y-39166286D01*
X12992619Y-39166286D02*
X12992619Y-39223429D01*
X12992619Y-39223429D02*
X12983096Y-39242476D01*
X12983096Y-39242476D02*
X12973572Y-39252000D01*
X12973572Y-39252000D02*
X12954524Y-39261524D01*
X12954524Y-39261524D02*
X12925953Y-39261524D01*
X13106905Y-39261524D02*
X13087857Y-39252000D01*
X13087857Y-39252000D02*
X13078334Y-39232952D01*
X13078334Y-39232952D02*
X13078334Y-39061524D01*
X13259286Y-39252000D02*
X13240238Y-39261524D01*
X13240238Y-39261524D02*
X13202143Y-39261524D01*
X13202143Y-39261524D02*
X13183096Y-39252000D01*
X13183096Y-39252000D02*
X13173572Y-39232952D01*
X13173572Y-39232952D02*
X13173572Y-39156762D01*
X13173572Y-39156762D02*
X13183096Y-39137714D01*
X13183096Y-39137714D02*
X13202143Y-39128190D01*
X13202143Y-39128190D02*
X13240238Y-39128190D01*
X13240238Y-39128190D02*
X13259286Y-39137714D01*
X13259286Y-39137714D02*
X13268810Y-39156762D01*
X13268810Y-39156762D02*
X13268810Y-39175810D01*
X13268810Y-39175810D02*
X13173572Y-39194857D01*
X13345000Y-39252000D02*
X13364048Y-39261524D01*
X13364048Y-39261524D02*
X13402143Y-39261524D01*
X13402143Y-39261524D02*
X13421191Y-39252000D01*
X13421191Y-39252000D02*
X13430715Y-39232952D01*
X13430715Y-39232952D02*
X13430715Y-39223429D01*
X13430715Y-39223429D02*
X13421191Y-39204381D01*
X13421191Y-39204381D02*
X13402143Y-39194857D01*
X13402143Y-39194857D02*
X13373572Y-39194857D01*
X13373572Y-39194857D02*
X13354524Y-39185333D01*
X13354524Y-39185333D02*
X13345000Y-39166286D01*
X13345000Y-39166286D02*
X13345000Y-39156762D01*
X13345000Y-39156762D02*
X13354524Y-39137714D01*
X13354524Y-39137714D02*
X13373572Y-39128190D01*
X13373572Y-39128190D02*
X13402143Y-39128190D01*
X13402143Y-39128190D02*
X13421191Y-39137714D01*
X13497381Y-39337714D02*
X13506905Y-39328190D01*
X13506905Y-39328190D02*
X13525953Y-39299619D01*
X13525953Y-39299619D02*
X13535477Y-39280571D01*
X13535477Y-39280571D02*
X13545000Y-39252000D01*
X13545000Y-39252000D02*
X13554524Y-39204381D01*
X13554524Y-39204381D02*
X13554524Y-39166286D01*
X13554524Y-39166286D02*
X13545000Y-39118667D01*
X13545000Y-39118667D02*
X13535477Y-39090095D01*
X13535477Y-39090095D02*
X13525953Y-39071048D01*
X13525953Y-39071048D02*
X13506905Y-39042476D01*
X13506905Y-39042476D02*
X13497381Y-39032952D01*
X13859286Y-39337714D02*
X13849762Y-39328190D01*
X13849762Y-39328190D02*
X13830715Y-39299619D01*
X13830715Y-39299619D02*
X13821191Y-39280571D01*
X13821191Y-39280571D02*
X13811667Y-39252000D01*
X13811667Y-39252000D02*
X13802143Y-39204381D01*
X13802143Y-39204381D02*
X13802143Y-39166286D01*
X13802143Y-39166286D02*
X13811667Y-39118667D01*
X13811667Y-39118667D02*
X13821191Y-39090095D01*
X13821191Y-39090095D02*
X13830715Y-39071048D01*
X13830715Y-39071048D02*
X13849762Y-39042476D01*
X13849762Y-39042476D02*
X13859286Y-39032952D01*
X13935477Y-39128190D02*
X13935477Y-39261524D01*
X13935477Y-39147238D02*
X13945000Y-39137714D01*
X13945000Y-39137714D02*
X13964048Y-39128190D01*
X13964048Y-39128190D02*
X13992619Y-39128190D01*
X13992619Y-39128190D02*
X14011667Y-39137714D01*
X14011667Y-39137714D02*
X14021191Y-39156762D01*
X14021191Y-39156762D02*
X14021191Y-39261524D01*
X14145000Y-39261524D02*
X14125953Y-39252000D01*
X14125953Y-39252000D02*
X14116429Y-39242476D01*
X14116429Y-39242476D02*
X14106905Y-39223429D01*
X14106905Y-39223429D02*
X14106905Y-39166286D01*
X14106905Y-39166286D02*
X14116429Y-39147238D01*
X14116429Y-39147238D02*
X14125953Y-39137714D01*
X14125953Y-39137714D02*
X14145000Y-39128190D01*
X14145000Y-39128190D02*
X14173572Y-39128190D01*
X14173572Y-39128190D02*
X14192619Y-39137714D01*
X14192619Y-39137714D02*
X14202143Y-39147238D01*
X14202143Y-39147238D02*
X14211667Y-39166286D01*
X14211667Y-39166286D02*
X14211667Y-39223429D01*
X14211667Y-39223429D02*
X14202143Y-39242476D01*
X14202143Y-39242476D02*
X14192619Y-39252000D01*
X14192619Y-39252000D02*
X14173572Y-39261524D01*
X14173572Y-39261524D02*
X14145000Y-39261524D01*
X14268810Y-39128190D02*
X14345000Y-39128190D01*
X14297381Y-39061524D02*
X14297381Y-39232952D01*
X14297381Y-39232952D02*
X14306905Y-39252000D01*
X14306905Y-39252000D02*
X14325953Y-39261524D01*
X14325953Y-39261524D02*
X14345000Y-39261524D01*
X14564048Y-39128190D02*
X14564048Y-39328190D01*
X14564048Y-39137714D02*
X14583096Y-39128190D01*
X14583096Y-39128190D02*
X14621191Y-39128190D01*
X14621191Y-39128190D02*
X14640239Y-39137714D01*
X14640239Y-39137714D02*
X14649762Y-39147238D01*
X14649762Y-39147238D02*
X14659286Y-39166286D01*
X14659286Y-39166286D02*
X14659286Y-39223429D01*
X14659286Y-39223429D02*
X14649762Y-39242476D01*
X14649762Y-39242476D02*
X14640239Y-39252000D01*
X14640239Y-39252000D02*
X14621191Y-39261524D01*
X14621191Y-39261524D02*
X14583096Y-39261524D01*
X14583096Y-39261524D02*
X14564048Y-39252000D01*
X14773572Y-39261524D02*
X14754524Y-39252000D01*
X14754524Y-39252000D02*
X14745000Y-39232952D01*
X14745000Y-39232952D02*
X14745000Y-39061524D01*
X14935477Y-39261524D02*
X14935477Y-39156762D01*
X14935477Y-39156762D02*
X14925953Y-39137714D01*
X14925953Y-39137714D02*
X14906905Y-39128190D01*
X14906905Y-39128190D02*
X14868810Y-39128190D01*
X14868810Y-39128190D02*
X14849762Y-39137714D01*
X14935477Y-39252000D02*
X14916429Y-39261524D01*
X14916429Y-39261524D02*
X14868810Y-39261524D01*
X14868810Y-39261524D02*
X14849762Y-39252000D01*
X14849762Y-39252000D02*
X14840239Y-39232952D01*
X14840239Y-39232952D02*
X14840239Y-39213905D01*
X14840239Y-39213905D02*
X14849762Y-39194857D01*
X14849762Y-39194857D02*
X14868810Y-39185333D01*
X14868810Y-39185333D02*
X14916429Y-39185333D01*
X14916429Y-39185333D02*
X14935477Y-39175810D01*
X15002143Y-39128190D02*
X15078334Y-39128190D01*
X15030715Y-39061524D02*
X15030715Y-39232952D01*
X15030715Y-39232952D02*
X15040239Y-39252000D01*
X15040239Y-39252000D02*
X15059286Y-39261524D01*
X15059286Y-39261524D02*
X15078334Y-39261524D01*
X15221191Y-39252000D02*
X15202143Y-39261524D01*
X15202143Y-39261524D02*
X15164048Y-39261524D01*
X15164048Y-39261524D02*
X15145000Y-39252000D01*
X15145000Y-39252000D02*
X15135477Y-39232952D01*
X15135477Y-39232952D02*
X15135477Y-39156762D01*
X15135477Y-39156762D02*
X15145000Y-39137714D01*
X15145000Y-39137714D02*
X15164048Y-39128190D01*
X15164048Y-39128190D02*
X15202143Y-39128190D01*
X15202143Y-39128190D02*
X15221191Y-39137714D01*
X15221191Y-39137714D02*
X15230715Y-39156762D01*
X15230715Y-39156762D02*
X15230715Y-39175810D01*
X15230715Y-39175810D02*
X15135477Y-39194857D01*
X15402143Y-39261524D02*
X15402143Y-39061524D01*
X15402143Y-39252000D02*
X15383096Y-39261524D01*
X15383096Y-39261524D02*
X15345000Y-39261524D01*
X15345000Y-39261524D02*
X15325953Y-39252000D01*
X15325953Y-39252000D02*
X15316429Y-39242476D01*
X15316429Y-39242476D02*
X15306905Y-39223429D01*
X15306905Y-39223429D02*
X15306905Y-39166286D01*
X15306905Y-39166286D02*
X15316429Y-39147238D01*
X15316429Y-39147238D02*
X15325953Y-39137714D01*
X15325953Y-39137714D02*
X15345000Y-39128190D01*
X15345000Y-39128190D02*
X15383096Y-39128190D01*
X15383096Y-39128190D02*
X15402143Y-39137714D01*
X15478334Y-39337714D02*
X15487858Y-39328190D01*
X15487858Y-39328190D02*
X15506905Y-39299619D01*
X15506905Y-39299619D02*
X15516429Y-39280571D01*
X15516429Y-39280571D02*
X15525953Y-39252000D01*
X15525953Y-39252000D02*
X15535477Y-39204381D01*
X15535477Y-39204381D02*
X15535477Y-39166286D01*
X15535477Y-39166286D02*
X15525953Y-39118667D01*
X15525953Y-39118667D02*
X15516429Y-39090095D01*
X15516429Y-39090095D02*
X15506905Y-39071048D01*
X15506905Y-39071048D02*
X15487858Y-39042476D01*
X15487858Y-39042476D02*
X15478334Y-39032952D01*
M02*
