%TF.GenerationSoftware,KiCad,Pcbnew,7.0.1-3b83917a11~172~ubuntu22.04.1*%
%TF.CreationDate,2023-03-31T15:39:13+02:00*%
%TF.ProjectId,Europe-flex,4575726f-7065-42d6-966c-65782e6b6963,rev?*%
%TF.SameCoordinates,Original*%
%TF.FileFunction,Soldermask,Bot*%
%TF.FilePolarity,Negative*%
%FSLAX46Y46*%
G04 Gerber Fmt 4.6, Leading zero omitted, Abs format (unit mm)*
G04 Created by KiCad (PCBNEW 7.0.1-3b83917a11~172~ubuntu22.04.1) date 2023-03-31 15:39:13*
%MOMM*%
%LPD*%
G01*
G04 APERTURE LIST*
%ADD10O,1.100000X2.200000*%
%ADD11O,2.200000X1.100000*%
%ADD12C,1.100000*%
%ADD13R,1.600000X1.600000*%
%ADD14O,1.600000X1.600000*%
%ADD15R,1.700000X1.700000*%
%ADD16O,1.700000X1.700000*%
%ADD17C,7.500000*%
%ADD18C,1.700000*%
%ADD19C,4.000000*%
%ADD20C,2.200000*%
%ADD21R,1.500000X1.500000*%
%ADD22O,1.500000X1.500000*%
%ADD23C,1.400000*%
%ADD24O,1.400000X1.400000*%
%ADD25R,1.800000X1.800000*%
%ADD26O,1.800000X1.800000*%
%ADD27R,1.700000X3.500000*%
%ADD28R,3.500000X1.700000*%
G04 APERTURE END LIST*
D10*
%TO.C,J104*%
X290700000Y-362300000D03*
D11*
X294000000Y-359400000D03*
X290900000Y-364600000D03*
X299000000Y-358500000D03*
X299000000Y-368100000D03*
X296500000Y-357500000D03*
D12*
X299000000Y-363000000D03*
X294000000Y-363000000D03*
%TD*%
D10*
%TO.C,J93*%
X335000000Y-362800000D03*
D11*
X331700000Y-365700000D03*
X334800000Y-360500000D03*
X326700000Y-366600000D03*
X326700000Y-357000000D03*
X329200000Y-367600000D03*
D12*
X326700000Y-362100000D03*
X331700000Y-362100000D03*
%TD*%
D13*
%TO.C,D76*%
X432100000Y-222000000D03*
D14*
X439720000Y-222000000D03*
%TD*%
D15*
%TO.C,J12*%
X398210000Y-112590000D03*
D16*
X398210000Y-115130000D03*
%TD*%
D13*
%TO.C,D80*%
X135190000Y-252930000D03*
D14*
X142810000Y-252930000D03*
%TD*%
D15*
%TO.C,J95*%
X284000000Y-311000000D03*
%TD*%
D17*
%TO.C,H28*%
X303500000Y-47500000D03*
%TD*%
D15*
%TO.C,J7*%
X527000000Y-115190000D03*
D16*
X527000000Y-117730000D03*
%TD*%
D13*
%TO.C,D82*%
X267614000Y-258312000D03*
D14*
X275234000Y-258312000D03*
%TD*%
D17*
%TO.C,H36*%
X295500000Y-311080000D03*
%TD*%
D15*
%TO.C,J75*%
X405000000Y-253000000D03*
D16*
X407540000Y-253000000D03*
X410080000Y-253000000D03*
%TD*%
D15*
%TO.C,J19*%
X208620000Y-107460000D03*
D16*
X208620000Y-110000000D03*
%TD*%
D13*
%TO.C,D8*%
X190940000Y-99000000D03*
D14*
X198560000Y-99000000D03*
%TD*%
D17*
%TO.C,H17*%
X335580000Y-262000000D03*
%TD*%
D13*
%TO.C,D22*%
X192920000Y-120180000D03*
D14*
X200540000Y-120180000D03*
%TD*%
D18*
%TO.C,SW39*%
X340000000Y-168080000D03*
D19*
X340000000Y-163000000D03*
D18*
X340000000Y-157920000D03*
D20*
X334920000Y-160460000D03*
X337460000Y-166810000D03*
%TD*%
D18*
%TO.C,SW62*%
X134110000Y-218830000D03*
D19*
X139190000Y-218830000D03*
D18*
X144270000Y-218830000D03*
D20*
X141730000Y-213750000D03*
X135380000Y-216290000D03*
%TD*%
D18*
%TO.C,SW46*%
X506400000Y-155840000D03*
D19*
X511480000Y-155840000D03*
D18*
X516560000Y-155840000D03*
D20*
X514020000Y-150760000D03*
X507670000Y-153300000D03*
%TD*%
D15*
%TO.C,J87*%
X350310000Y-348500000D03*
%TD*%
D13*
%TO.C,D88*%
X351780000Y-259400000D03*
D14*
X359400000Y-259400000D03*
%TD*%
D13*
%TO.C,D87*%
X330780000Y-269880000D03*
D14*
X338400000Y-269880000D03*
%TD*%
D21*
%TO.C,D98*%
X509180000Y-50440000D03*
D22*
X511720000Y-50440000D03*
%TD*%
D18*
%TO.C,SW43*%
X430300000Y-148840000D03*
D19*
X435380000Y-148840000D03*
D18*
X440460000Y-148840000D03*
D20*
X437920000Y-143760000D03*
X431570000Y-146300000D03*
%TD*%
D17*
%TO.C,H19*%
X304500000Y-154500000D03*
%TD*%
D15*
%TO.C,J32*%
X248990000Y-175870000D03*
D16*
X248990000Y-178410000D03*
%TD*%
D15*
%TO.C,J59*%
X126975000Y-238145000D03*
%TD*%
D18*
%TO.C,SW74*%
X406300000Y-214440000D03*
D19*
X411380000Y-214440000D03*
D18*
X416460000Y-214440000D03*
D20*
X413920000Y-209360000D03*
X407570000Y-211900000D03*
%TD*%
D13*
%TO.C,D45*%
X408100000Y-161300000D03*
D14*
X415720000Y-161300000D03*
%TD*%
D13*
%TO.C,D62*%
X135190000Y-228930000D03*
D14*
X142810000Y-228930000D03*
%TD*%
D15*
%TO.C,J58*%
X495000000Y-214500000D03*
%TD*%
%TO.C,J8*%
X227650000Y-109650000D03*
%TD*%
D18*
%TO.C,SW81*%
X157910000Y-238030000D03*
D19*
X162990000Y-238030000D03*
D18*
X168070000Y-238030000D03*
D20*
X165530000Y-232950000D03*
X159180000Y-235490000D03*
%TD*%
D15*
%TO.C,J84*%
X389736000Y-50132000D03*
%TD*%
D13*
%TO.C,D39*%
X337100000Y-173300000D03*
D14*
X344720000Y-173300000D03*
%TD*%
D18*
%TO.C,SW60*%
X506300000Y-179740000D03*
D19*
X511380000Y-179740000D03*
D18*
X516460000Y-179740000D03*
D20*
X513920000Y-174660000D03*
X507570000Y-177200000D03*
%TD*%
D23*
%TO.C,R10*%
X137020000Y-53300000D03*
D24*
X142100000Y-53300000D03*
%TD*%
D18*
%TO.C,SW45*%
X477900000Y-155940000D03*
D19*
X482980000Y-155940000D03*
D18*
X488060000Y-155940000D03*
D20*
X485520000Y-150860000D03*
X479170000Y-153400000D03*
%TD*%
D18*
%TO.C,SW89*%
X375900586Y-260700009D03*
D19*
X380299995Y-258160009D03*
D18*
X384699405Y-255620009D03*
D20*
X379959700Y-252490600D03*
X375730439Y-257865305D03*
%TD*%
D18*
%TO.C,SW73*%
X382600000Y-216540000D03*
D19*
X387680000Y-216540000D03*
D18*
X392760000Y-216540000D03*
D20*
X390220000Y-211460000D03*
X383870000Y-214000000D03*
%TD*%
D15*
%TO.C,J43*%
X471000000Y-174144000D03*
D16*
X471000000Y-176684000D03*
%TD*%
D17*
%TO.C,H31*%
X91500000Y-154500000D03*
%TD*%
D15*
%TO.C,J38*%
X127065000Y-213095000D03*
%TD*%
D23*
%TO.C,R8*%
X290830000Y-354340000D03*
D24*
X295910000Y-354340000D03*
%TD*%
D18*
%TO.C,SW38*%
X281420000Y-168040000D03*
D19*
X281420000Y-162960000D03*
D18*
X281420000Y-157880000D03*
D20*
X276340000Y-160420000D03*
X278880000Y-166770000D03*
%TD*%
D15*
%TO.C,J11*%
X374370000Y-112810000D03*
D16*
X374370000Y-115350000D03*
%TD*%
D13*
%TO.C,D32*%
X145030000Y-167500000D03*
D14*
X152650000Y-167500000D03*
%TD*%
D18*
%TO.C,SW59*%
X477600000Y-179640000D03*
D19*
X482680000Y-179640000D03*
D18*
X487760000Y-179640000D03*
D20*
X485220000Y-174560000D03*
X478870000Y-177100000D03*
%TD*%
D15*
%TO.C,J97*%
X515366000Y-50546000D03*
%TD*%
D23*
%TO.C,R11*%
X171100000Y-53300000D03*
D24*
X166020000Y-53300000D03*
%TD*%
D13*
%TO.C,D36*%
X167260000Y-163500000D03*
D14*
X174880000Y-163500000D03*
%TD*%
D18*
%TO.C,SW6*%
X476400000Y-86540000D03*
D19*
X481480000Y-86540000D03*
D18*
X486560000Y-86540000D03*
D20*
X484020000Y-81460000D03*
X477670000Y-84000000D03*
%TD*%
D15*
%TO.C,J4*%
X327420000Y-113930000D03*
%TD*%
%TO.C,J44*%
X333500000Y-250000000D03*
%TD*%
D18*
%TO.C,SW37*%
X254480000Y-153500000D03*
D19*
X259560000Y-153500000D03*
D18*
X264640000Y-153500000D03*
D20*
X262100000Y-148420000D03*
X255750000Y-150960000D03*
%TD*%
D18*
%TO.C,SW34*%
X187770000Y-148700000D03*
D19*
X192850000Y-148700000D03*
D18*
X197930000Y-148700000D03*
D20*
X195390000Y-143620000D03*
X189040000Y-146160000D03*
%TD*%
D13*
%TO.C,D74*%
X384480000Y-227000000D03*
D14*
X392100000Y-227000000D03*
%TD*%
D15*
%TO.C,J39*%
X376010000Y-175840000D03*
D16*
X376010000Y-178380000D03*
%TD*%
D13*
%TO.C,D86*%
X183190000Y-245930000D03*
D14*
X190810000Y-245930000D03*
%TD*%
D17*
%TO.C,H13*%
X376000000Y-231500000D03*
%TD*%
D15*
%TO.C,J28*%
X226160000Y-173680000D03*
D16*
X226160000Y-176220000D03*
%TD*%
D13*
%TO.C,D10*%
X280000000Y-97700000D03*
D14*
X287620000Y-97700000D03*
%TD*%
D17*
%TO.C,H2*%
X533000000Y-86500000D03*
%TD*%
D18*
%TO.C,SW27*%
X428900000Y-109400000D03*
D19*
X433980000Y-109400000D03*
D18*
X439060000Y-109400000D03*
D20*
X436520000Y-104320000D03*
X430170000Y-106860000D03*
%TD*%
D17*
%TO.C,H24*%
X289800000Y-261700000D03*
%TD*%
D13*
%TO.C,D53*%
X189250000Y-184500000D03*
D14*
X196870000Y-184500000D03*
%TD*%
D18*
%TO.C,SW56*%
X406500000Y-175040000D03*
D19*
X411580000Y-175040000D03*
D18*
X416660000Y-175040000D03*
D20*
X414120000Y-169960000D03*
X407770000Y-172500000D03*
%TD*%
D18*
%TO.C,SW58*%
X454100000Y-174940000D03*
D19*
X459180000Y-174940000D03*
D18*
X464260000Y-174940000D03*
D20*
X461720000Y-169860000D03*
X455370000Y-172400000D03*
%TD*%
D13*
%TO.C,D84*%
X159190000Y-247930000D03*
D14*
X166810000Y-247930000D03*
%TD*%
D15*
%TO.C,J74*%
X195578000Y-257463000D03*
D16*
X198118000Y-257463000D03*
X200658000Y-257463000D03*
X203198000Y-257463000D03*
X205738000Y-257463000D03*
X208278000Y-257463000D03*
X210818000Y-257463000D03*
X213358000Y-257463000D03*
X215898000Y-257463000D03*
%TD*%
D18*
%TO.C,SW82*%
X181610000Y-235730000D03*
D19*
X186690000Y-235730000D03*
D18*
X191770000Y-235730000D03*
D20*
X189230000Y-230650000D03*
X182880000Y-233190000D03*
%TD*%
D18*
%TO.C,SW13*%
X255920000Y-86500000D03*
D19*
X261000000Y-86500000D03*
D18*
X266080000Y-86500000D03*
D20*
X263540000Y-81420000D03*
X257190000Y-83960000D03*
%TD*%
D15*
%TO.C,J23*%
X293000000Y-160420000D03*
D16*
X293000000Y-162960000D03*
%TD*%
D13*
%TO.C,D42*%
X360100000Y-164300000D03*
D14*
X367720000Y-164300000D03*
%TD*%
D18*
%TO.C,SW48*%
X144150000Y-179700000D03*
D19*
X149230000Y-179700000D03*
D18*
X154310000Y-179700000D03*
D20*
X151770000Y-174620000D03*
X145420000Y-177160000D03*
%TD*%
D17*
%TO.C,H12*%
X304500000Y-179500000D03*
%TD*%
D13*
%TO.C,D35*%
X256560000Y-165500000D03*
D14*
X264180000Y-165500000D03*
%TD*%
D15*
%TO.C,J56*%
X352000000Y-213000000D03*
%TD*%
D18*
%TO.C,SW44*%
X454000000Y-153440000D03*
D19*
X459080000Y-153440000D03*
D18*
X464160000Y-153440000D03*
D20*
X461620000Y-148360000D03*
X455270000Y-150900000D03*
%TD*%
D13*
%TO.C,D16*%
X150030000Y-127540000D03*
D14*
X157650000Y-127540000D03*
%TD*%
D13*
%TO.C,D66*%
X183190000Y-221930000D03*
D14*
X190810000Y-221930000D03*
%TD*%
D15*
%TO.C,J107*%
X202538000Y-53688000D03*
%TD*%
%TO.C,J99*%
X458216000Y-50292000D03*
%TD*%
D23*
%TO.C,R3*%
X421920000Y-54000000D03*
D24*
X427000000Y-54000000D03*
%TD*%
D18*
%TO.C,SW94*%
X501500000Y-243240000D03*
D19*
X506580000Y-243240000D03*
D18*
X511660000Y-243240000D03*
D20*
X509120000Y-238160000D03*
X502770000Y-240700000D03*
%TD*%
D13*
%TO.C,D83*%
X286234000Y-268312000D03*
D14*
X293854000Y-268312000D03*
%TD*%
D15*
%TO.C,J61*%
X471000000Y-216000000D03*
%TD*%
D13*
%TO.C,D23*%
X215220000Y-122180000D03*
D14*
X222840000Y-122180000D03*
%TD*%
D18*
%TO.C,SW42*%
X406500000Y-151040000D03*
D19*
X411580000Y-151040000D03*
D18*
X416660000Y-151040000D03*
D20*
X414120000Y-145960000D03*
X407770000Y-148500000D03*
%TD*%
D13*
%TO.C,D18*%
X335000000Y-124660000D03*
D14*
X342620000Y-124660000D03*
%TD*%
D18*
%TO.C,SW32*%
X143750000Y-156000000D03*
D19*
X148830000Y-156000000D03*
D18*
X153910000Y-156000000D03*
D20*
X151370000Y-150920000D03*
X145020000Y-153460000D03*
%TD*%
D18*
%TO.C,SW20*%
X234820000Y-113280000D03*
D19*
X239900000Y-113280000D03*
D18*
X244980000Y-113280000D03*
D20*
X242440000Y-108200000D03*
X236090000Y-110740000D03*
%TD*%
D17*
%TO.C,H20*%
X91000000Y-244000000D03*
%TD*%
D15*
%TO.C,J34*%
X290500000Y-249000000D03*
%TD*%
D18*
%TO.C,SW16*%
X149350000Y-116020000D03*
D19*
X154430000Y-116020000D03*
D18*
X159510000Y-116020000D03*
D20*
X156970000Y-110940000D03*
X150620000Y-113480000D03*
%TD*%
D15*
%TO.C,J71*%
X266000000Y-234920000D03*
D16*
X266000000Y-237460000D03*
X266000000Y-240000000D03*
%TD*%
D15*
%TO.C,J36*%
X496710000Y-178550000D03*
D16*
X496710000Y-181090000D03*
%TD*%
D17*
%TO.C,H21*%
X533000000Y-154500000D03*
%TD*%
D15*
%TO.C,J90*%
X346500000Y-348500000D03*
%TD*%
D17*
%TO.C,H23*%
X260300000Y-245700000D03*
%TD*%
D15*
%TO.C,J96*%
X487680000Y-50292000D03*
%TD*%
%TO.C,J21*%
X293260000Y-147110000D03*
%TD*%
D13*
%TO.C,D47*%
X117520000Y-190500000D03*
D14*
X125140000Y-190500000D03*
%TD*%
D17*
%TO.C,H16*%
X246100000Y-232100000D03*
%TD*%
D18*
%TO.C,SW78*%
X506600000Y-219140000D03*
D19*
X511680000Y-219140000D03*
D18*
X516760000Y-219140000D03*
D20*
X514220000Y-214060000D03*
X507870000Y-216600000D03*
%TD*%
D18*
%TO.C,SW15*%
X122530000Y-116320000D03*
D19*
X127610000Y-116320000D03*
D18*
X132690000Y-116320000D03*
D20*
X130150000Y-111240000D03*
X123800000Y-113780000D03*
%TD*%
D13*
%TO.C,D54*%
X479480000Y-190300000D03*
D14*
X487100000Y-190300000D03*
%TD*%
D18*
%TO.C,SW9*%
X166880000Y-86580000D03*
D19*
X171960000Y-86580000D03*
D18*
X177040000Y-86580000D03*
D20*
X174500000Y-81500000D03*
X168150000Y-84040000D03*
%TD*%
D13*
%TO.C,D50*%
X233720000Y-188500000D03*
D14*
X241340000Y-188500000D03*
%TD*%
D13*
%TO.C,D78*%
X360480000Y-227000000D03*
D14*
X368100000Y-227000000D03*
%TD*%
D18*
%TO.C,SW40*%
X358900000Y-153540000D03*
D19*
X363980000Y-153540000D03*
D18*
X369060000Y-153540000D03*
D20*
X366520000Y-148460000D03*
X360170000Y-151000000D03*
%TD*%
D13*
%TO.C,D34*%
X234340000Y-164500000D03*
D14*
X241960000Y-164500000D03*
%TD*%
D13*
%TO.C,D15*%
X122810000Y-128040000D03*
D14*
X130430000Y-128040000D03*
%TD*%
D17*
%TO.C,H33*%
X319500000Y-154500000D03*
%TD*%
D15*
%TO.C,J45*%
X328000000Y-210000000D03*
%TD*%
%TO.C,J40*%
X399850000Y-175740000D03*
D16*
X399850000Y-178280000D03*
%TD*%
D13*
%TO.C,D61*%
X107190000Y-228930000D03*
D14*
X114810000Y-228930000D03*
%TD*%
D17*
%TO.C,H3*%
X91500000Y-87000000D03*
%TD*%
D15*
%TO.C,J60*%
X447500000Y-214000000D03*
%TD*%
%TO.C,J48*%
X174600000Y-212920000D03*
%TD*%
D23*
%TO.C,R5*%
X486080000Y-54000000D03*
D24*
X481000000Y-54000000D03*
%TD*%
D15*
%TO.C,J73*%
X358000000Y-235475000D03*
D16*
X358000000Y-238015000D03*
X358000000Y-240555000D03*
%TD*%
D15*
%TO.C,J101*%
X117448000Y-48100000D03*
%TD*%
D13*
%TO.C,D37*%
X189060000Y-160500000D03*
D14*
X196680000Y-160500000D03*
%TD*%
D18*
%TO.C,SW2*%
X362000000Y-86540000D03*
D19*
X367080000Y-86540000D03*
D18*
X372160000Y-86540000D03*
D20*
X369620000Y-81460000D03*
X363270000Y-84000000D03*
%TD*%
D13*
%TO.C,D20*%
X507380000Y-126660000D03*
D14*
X515000000Y-126660000D03*
%TD*%
D18*
%TO.C,SW17*%
X170460000Y-111180000D03*
D19*
X175540000Y-111180000D03*
D18*
X180620000Y-111180000D03*
D20*
X178080000Y-106100000D03*
X171730000Y-108640000D03*
%TD*%
D15*
%TO.C,J89*%
X357930000Y-348500000D03*
%TD*%
D17*
%TO.C,H4*%
X303400000Y-86500000D03*
%TD*%
%TO.C,H35*%
X329500000Y-310000000D03*
%TD*%
D15*
%TO.C,J37*%
X524180000Y-178600000D03*
D16*
X524180000Y-181140000D03*
%TD*%
D13*
%TO.C,D56*%
X359480000Y-187300000D03*
D14*
X367100000Y-187300000D03*
%TD*%
D15*
%TO.C,J72*%
X195500000Y-253000000D03*
D16*
X198040000Y-253000000D03*
X200580000Y-253000000D03*
%TD*%
D13*
%TO.C,D57*%
X384480000Y-187300000D03*
D14*
X392100000Y-187300000D03*
%TD*%
D13*
%TO.C,D94*%
X431480000Y-246000000D03*
D14*
X439100000Y-246000000D03*
%TD*%
D18*
%TO.C,SW68*%
X282230000Y-216730000D03*
D19*
X282230000Y-211650000D03*
D18*
X282230000Y-206570000D03*
D20*
X277150000Y-209110000D03*
X279690000Y-215460000D03*
%TD*%
D15*
%TO.C,J67*%
X270000000Y-234500000D03*
%TD*%
D13*
%TO.C,D63*%
X277570000Y-222930000D03*
D14*
X285190000Y-222930000D03*
%TD*%
D13*
%TO.C,D77*%
X456100000Y-225000000D03*
D14*
X463720000Y-225000000D03*
%TD*%
D17*
%TO.C,H6*%
X533000000Y-114000000D03*
%TD*%
%TO.C,H18*%
X364280000Y-245900000D03*
%TD*%
D18*
%TO.C,SW4*%
X419140000Y-86660000D03*
D19*
X424220000Y-86660000D03*
D18*
X429300000Y-86660000D03*
D20*
X426760000Y-81580000D03*
X420410000Y-84120000D03*
%TD*%
D13*
%TO.C,D28*%
X406380000Y-121660000D03*
D14*
X414000000Y-121660000D03*
%TD*%
D23*
%TO.C,R9*%
X108020000Y-53300000D03*
D24*
X113100000Y-53300000D03*
%TD*%
D15*
%TO.C,J108*%
X253500000Y-349000000D03*
%TD*%
%TO.C,J70*%
X400000000Y-238240000D03*
%TD*%
D18*
%TO.C,SW87*%
X334600586Y-284540009D03*
D19*
X338999995Y-282000009D03*
D18*
X343399405Y-279460009D03*
D20*
X338659700Y-276330600D03*
X334430439Y-281705305D03*
%TD*%
D15*
%TO.C,J85*%
X285080000Y-349000000D03*
D16*
X282540000Y-349000000D03*
X280000000Y-349000000D03*
X277460000Y-349000000D03*
X274920000Y-349000000D03*
X272380000Y-349000000D03*
%TD*%
D15*
%TO.C,J29*%
X182840000Y-173450000D03*
D16*
X182840000Y-175990000D03*
%TD*%
D21*
%TO.C,D96*%
X452064700Y-50440000D03*
D22*
X454604700Y-50440000D03*
%TD*%
D15*
%TO.C,J106*%
X371562000Y-347106000D03*
%TD*%
D18*
%TO.C,SW92*%
X453800000Y-238340000D03*
D19*
X458880000Y-238340000D03*
D18*
X463960000Y-238340000D03*
D20*
X461420000Y-233260000D03*
X455070000Y-235800000D03*
%TD*%
D13*
%TO.C,D30*%
X454380000Y-124660000D03*
D14*
X462000000Y-124660000D03*
%TD*%
D15*
%TO.C,J52*%
X246000000Y-214500000D03*
%TD*%
%TO.C,J30*%
X158780000Y-178270000D03*
D16*
X158780000Y-180810000D03*
%TD*%
D18*
%TO.C,SW8*%
X144590000Y-86900000D03*
D19*
X149670000Y-86900000D03*
D18*
X154750000Y-86900000D03*
D20*
X152210000Y-81820000D03*
X145860000Y-84360000D03*
%TD*%
D18*
%TO.C,SW51*%
X209470000Y-175000000D03*
D19*
X214550000Y-175000000D03*
D18*
X219630000Y-175000000D03*
D20*
X217090000Y-169920000D03*
X210740000Y-172460000D03*
%TD*%
D18*
%TO.C,SW54*%
X358600000Y-177340000D03*
D19*
X363680000Y-177340000D03*
D18*
X368760000Y-177340000D03*
D20*
X366220000Y-172260000D03*
X359870000Y-174800000D03*
%TD*%
D17*
%TO.C,H1*%
X319000000Y-87000000D03*
%TD*%
%TO.C,H10*%
X533000000Y-179500000D03*
%TD*%
D13*
%TO.C,D55*%
X508100000Y-190300000D03*
D14*
X515720000Y-190300000D03*
%TD*%
D18*
%TO.C,SW70*%
X343200586Y-251969409D03*
D19*
X347599995Y-249429409D03*
D18*
X351999405Y-246889409D03*
D20*
X347259700Y-243760000D03*
X343030439Y-249134705D03*
%TD*%
D15*
%TO.C,J82*%
X342436000Y-348500000D03*
%TD*%
%TO.C,J105*%
X435500000Y-54000000D03*
%TD*%
D18*
%TO.C,SW76*%
X454400000Y-214540000D03*
D19*
X459480000Y-214540000D03*
D18*
X464560000Y-214540000D03*
D20*
X462020000Y-209460000D03*
X455670000Y-212000000D03*
%TD*%
D17*
%TO.C,H26*%
X533000000Y-48000000D03*
%TD*%
D13*
%TO.C,D51*%
X255560000Y-188500000D03*
D14*
X263180000Y-188500000D03*
%TD*%
D13*
%TO.C,D43*%
X384100000Y-163300000D03*
D14*
X391720000Y-163300000D03*
%TD*%
D15*
%TO.C,J88*%
X354120000Y-348500000D03*
%TD*%
D18*
%TO.C,SW75*%
X430160000Y-211960000D03*
D19*
X435240000Y-211960000D03*
D18*
X440320000Y-211960000D03*
D20*
X437780000Y-206880000D03*
X431430000Y-209420000D03*
%TD*%
D15*
%TO.C,J86*%
X338175000Y-309975000D03*
D16*
X340715000Y-309975000D03*
X343255000Y-309975000D03*
X345795000Y-309975000D03*
X348335000Y-309975000D03*
X350875000Y-309975000D03*
%TD*%
D18*
%TO.C,SW26*%
X405300000Y-111700000D03*
D19*
X410380000Y-111700000D03*
D18*
X415460000Y-111700000D03*
D20*
X412920000Y-106620000D03*
X406570000Y-109160000D03*
%TD*%
D13*
%TO.C,D11*%
X392700000Y-96800000D03*
D14*
X400320000Y-96800000D03*
%TD*%
D25*
%TO.C,D100*%
X138200000Y-48500000D03*
D26*
X140740000Y-48500000D03*
%TD*%
D18*
%TO.C,SW93*%
X477600000Y-243140000D03*
D19*
X482680000Y-243140000D03*
D18*
X487760000Y-243140000D03*
D20*
X485220000Y-238060000D03*
X478870000Y-240600000D03*
%TD*%
D15*
%TO.C,J64*%
X416010000Y-253350000D03*
%TD*%
D18*
%TO.C,SW10*%
X189460000Y-86700000D03*
D19*
X194540000Y-86700000D03*
D18*
X199620000Y-86700000D03*
D20*
X197080000Y-81620000D03*
X190730000Y-84160000D03*
%TD*%
D15*
%TO.C,J92*%
X276500000Y-311080000D03*
%TD*%
D13*
%TO.C,D73*%
X508100000Y-229000000D03*
D14*
X515720000Y-229000000D03*
%TD*%
D13*
%TO.C,D14*%
X234400000Y-98000000D03*
D14*
X242020000Y-98000000D03*
%TD*%
D13*
%TO.C,D7*%
X168190000Y-97280000D03*
D14*
X175810000Y-97280000D03*
%TD*%
D18*
%TO.C,SW14*%
X277720000Y-86400000D03*
D19*
X282800000Y-86400000D03*
D18*
X287880000Y-86400000D03*
D20*
X285340000Y-81320000D03*
X278990000Y-83860000D03*
%TD*%
D15*
%TO.C,J33*%
X270816000Y-175360000D03*
D16*
X270816000Y-177900000D03*
%TD*%
D17*
%TO.C,H30*%
X319500000Y-211500000D03*
%TD*%
D18*
%TO.C,SW53*%
X254380000Y-177400000D03*
D19*
X259460000Y-177400000D03*
D18*
X264540000Y-177400000D03*
D20*
X262000000Y-172320000D03*
X255650000Y-174860000D03*
%TD*%
D23*
%TO.C,R6*%
X509460000Y-54000000D03*
D24*
X514540000Y-54000000D03*
%TD*%
D13*
%TO.C,D69*%
X255190000Y-226930000D03*
D14*
X262810000Y-226930000D03*
%TD*%
D15*
%TO.C,J78*%
X388500000Y-320760000D03*
D16*
X388500000Y-323300000D03*
X388500000Y-325840000D03*
X388500000Y-328380000D03*
X388500000Y-330920000D03*
X388500000Y-333460000D03*
X388500000Y-336000000D03*
X388500000Y-338540000D03*
X388500000Y-341080000D03*
%TD*%
D15*
%TO.C,J63*%
X423500000Y-215000000D03*
%TD*%
%TO.C,J81*%
X232510000Y-50386000D03*
%TD*%
D13*
%TO.C,D38*%
X211350000Y-162500000D03*
D14*
X218970000Y-162500000D03*
%TD*%
D15*
%TO.C,J55*%
X278500000Y-270000000D03*
%TD*%
D18*
%TO.C,SW55*%
X382600000Y-177240000D03*
D19*
X387680000Y-177240000D03*
D18*
X392760000Y-177240000D03*
D20*
X390220000Y-172160000D03*
X383870000Y-174700000D03*
%TD*%
D23*
%TO.C,R1*%
X327000000Y-371500000D03*
D24*
X332080000Y-371500000D03*
%TD*%
D15*
%TO.C,J31*%
X203900000Y-171310000D03*
D16*
X203900000Y-173850000D03*
%TD*%
D17*
%TO.C,H32*%
X281500000Y-363500000D03*
%TD*%
D15*
%TO.C,J79*%
X287500000Y-310898000D03*
%TD*%
D13*
%TO.C,D41*%
X508480000Y-165300000D03*
D14*
X516100000Y-165300000D03*
%TD*%
D17*
%TO.C,H15*%
X91000000Y-219000000D03*
%TD*%
D13*
%TO.C,D9*%
X257090000Y-97700000D03*
D14*
X264710000Y-97700000D03*
%TD*%
D13*
%TO.C,D92*%
X455100000Y-248000000D03*
D14*
X462720000Y-248000000D03*
%TD*%
D13*
%TO.C,D58*%
X408480000Y-185300000D03*
D14*
X416100000Y-185300000D03*
%TD*%
D15*
%TO.C,J35*%
X294000000Y-207554000D03*
%TD*%
D13*
%TO.C,D68*%
X230570000Y-226930000D03*
D14*
X238190000Y-226930000D03*
%TD*%
D15*
%TO.C,J65*%
X375500000Y-218000000D03*
%TD*%
D17*
%TO.C,H9*%
X319000000Y-179500000D03*
%TD*%
D15*
%TO.C,J26*%
X351920000Y-177950000D03*
%TD*%
D17*
%TO.C,H11*%
X91500000Y-179500000D03*
%TD*%
D18*
%TO.C,SW7*%
X505100000Y-86640000D03*
D19*
X510180000Y-86640000D03*
D18*
X515260000Y-86640000D03*
D20*
X512720000Y-81560000D03*
X506370000Y-84100000D03*
%TD*%
D13*
%TO.C,D19*%
X478380000Y-126660000D03*
D14*
X486000000Y-126660000D03*
%TD*%
D18*
%TO.C,SW50*%
X187670000Y-172600000D03*
D19*
X192750000Y-172600000D03*
D18*
X197830000Y-172600000D03*
D20*
X195290000Y-167520000D03*
X188940000Y-170060000D03*
%TD*%
D13*
%TO.C,D2*%
X506700000Y-96800000D03*
D14*
X514320000Y-96800000D03*
%TD*%
D13*
%TO.C,D59*%
X431480000Y-182300000D03*
D14*
X439100000Y-182300000D03*
%TD*%
D17*
%TO.C,H22*%
X532500000Y-219000000D03*
%TD*%
D13*
%TO.C,D70*%
X339160000Y-239400000D03*
D14*
X346780000Y-239400000D03*
%TD*%
D21*
%TO.C,D95*%
X423364700Y-50340000D03*
D22*
X425904700Y-50340000D03*
%TD*%
D18*
%TO.C,SW69*%
X273174586Y-244892009D03*
D19*
X277573995Y-247432009D03*
D18*
X281973405Y-249972009D03*
D20*
X282313700Y-244302600D03*
X275544439Y-243327305D03*
%TD*%
D15*
%TO.C,J47*%
X150000000Y-217500000D03*
%TD*%
D18*
%TO.C,SW65*%
X205510000Y-214330000D03*
D19*
X210590000Y-214330000D03*
D18*
X215670000Y-214330000D03*
D20*
X213130000Y-209250000D03*
X206780000Y-211790000D03*
%TD*%
D18*
%TO.C,SW47*%
X116650000Y-179800000D03*
D19*
X121730000Y-179800000D03*
D18*
X126810000Y-179800000D03*
D20*
X124270000Y-174720000D03*
X117920000Y-177260000D03*
%TD*%
D18*
%TO.C,SW19*%
X213640000Y-111080000D03*
D19*
X218720000Y-111080000D03*
D18*
X223800000Y-111080000D03*
D20*
X221260000Y-106000000D03*
X214910000Y-108540000D03*
%TD*%
D18*
%TO.C,SW80*%
X133910000Y-242830000D03*
D19*
X138990000Y-242830000D03*
D18*
X144070000Y-242830000D03*
D20*
X141530000Y-237750000D03*
X135180000Y-240290000D03*
%TD*%
D17*
%TO.C,H38*%
X384500000Y-310000000D03*
%TD*%
D15*
%TO.C,J50*%
X274500000Y-233500000D03*
%TD*%
%TO.C,J9*%
X272000000Y-113220000D03*
D16*
X272000000Y-115760000D03*
%TD*%
D13*
%TO.C,D72*%
X479100000Y-229000000D03*
D14*
X486720000Y-229000000D03*
%TD*%
D13*
%TO.C,D65*%
X159190000Y-223930000D03*
D14*
X166810000Y-223930000D03*
%TD*%
D18*
%TO.C,SW25*%
X381400000Y-114100000D03*
D19*
X386480000Y-114100000D03*
D18*
X391560000Y-114100000D03*
D20*
X389020000Y-109020000D03*
X382670000Y-111560000D03*
%TD*%
D25*
%TO.C,D99*%
X110000000Y-48000000D03*
D26*
X112540000Y-48000000D03*
%TD*%
D23*
%TO.C,R4*%
X456000000Y-54000000D03*
D24*
X450920000Y-54000000D03*
%TD*%
D13*
%TO.C,D81*%
X246614000Y-245312000D03*
D14*
X254234000Y-245312000D03*
%TD*%
D23*
%TO.C,R12*%
X199100000Y-53300000D03*
D24*
X194020000Y-53300000D03*
%TD*%
D17*
%TO.C,H14*%
X532500000Y-244000000D03*
%TD*%
D13*
%TO.C,D46*%
X432480000Y-159300000D03*
D14*
X440100000Y-159300000D03*
%TD*%
D15*
%TO.C,J80*%
X219800000Y-50200000D03*
%TD*%
D23*
%TO.C,R7*%
X297500000Y-371000000D03*
D24*
X292420000Y-371000000D03*
%TD*%
D18*
%TO.C,SW30*%
X505300000Y-116400000D03*
D19*
X510380000Y-116400000D03*
D18*
X515460000Y-116400000D03*
D20*
X512920000Y-111320000D03*
X506570000Y-113860000D03*
%TD*%
D17*
%TO.C,H7*%
X91200000Y-115400000D03*
%TD*%
D15*
%TO.C,J24*%
X351550000Y-161480000D03*
D16*
X351550000Y-164020000D03*
%TD*%
D15*
%TO.C,J42*%
X447340000Y-171420000D03*
D16*
X447340000Y-173960000D03*
%TD*%
D18*
%TO.C,SW77*%
X477700000Y-219040000D03*
D19*
X482780000Y-219040000D03*
D18*
X487860000Y-219040000D03*
D20*
X485320000Y-213960000D03*
X478970000Y-216500000D03*
%TD*%
D13*
%TO.C,D79*%
X111190000Y-252930000D03*
D14*
X118810000Y-252930000D03*
%TD*%
D15*
%TO.C,J20*%
X166040000Y-114460000D03*
D16*
X166040000Y-117000000D03*
%TD*%
D18*
%TO.C,SW64*%
X181610000Y-211730000D03*
D19*
X186690000Y-211730000D03*
D18*
X191770000Y-211730000D03*
D20*
X189230000Y-206650000D03*
X182880000Y-209190000D03*
%TD*%
D18*
%TO.C,SW61*%
X105410000Y-219030000D03*
D19*
X110490000Y-219030000D03*
D18*
X115570000Y-219030000D03*
D20*
X113030000Y-213950000D03*
X106680000Y-216490000D03*
%TD*%
D15*
%TO.C,J6*%
X493670000Y-114900000D03*
D16*
X493670000Y-117440000D03*
%TD*%
D23*
%TO.C,R2*%
X333960000Y-354000000D03*
D24*
X328880000Y-354000000D03*
%TD*%
D15*
%TO.C,J3*%
X143430000Y-110180000D03*
%TD*%
D18*
%TO.C,SW88*%
X355300586Y-272700009D03*
D19*
X359699995Y-270160009D03*
D18*
X364099405Y-267620009D03*
D20*
X359359700Y-264490600D03*
X355130439Y-269865305D03*
%TD*%
D18*
%TO.C,SW90*%
X406400000Y-238240000D03*
D19*
X411480000Y-238240000D03*
D18*
X416560000Y-238240000D03*
D20*
X414020000Y-233160000D03*
X407670000Y-235700000D03*
%TD*%
D18*
%TO.C,SW85*%
X261374586Y-265492009D03*
D19*
X265773995Y-268032009D03*
D18*
X270173405Y-270572009D03*
D20*
X270513700Y-264902600D03*
X263744439Y-263927305D03*
%TD*%
D13*
%TO.C,D67*%
X207190000Y-223930000D03*
D14*
X214810000Y-223930000D03*
%TD*%
D15*
%TO.C,J51*%
X198000000Y-211000000D03*
%TD*%
%TO.C,J54*%
X222000000Y-213000000D03*
%TD*%
D18*
%TO.C,SW11*%
X211740000Y-86600000D03*
D19*
X216820000Y-86600000D03*
D18*
X221900000Y-86600000D03*
D20*
X219360000Y-81520000D03*
X213010000Y-84060000D03*
%TD*%
D15*
%TO.C,J76*%
X405110000Y-256920000D03*
D16*
X407650000Y-256920000D03*
X410190000Y-256920000D03*
X412730000Y-256920000D03*
X415270000Y-256920000D03*
X417810000Y-256920000D03*
X420350000Y-256920000D03*
X422890000Y-256920000D03*
X425430000Y-256920000D03*
%TD*%
D18*
%TO.C,SW35*%
X209670000Y-151200000D03*
D19*
X214750000Y-151200000D03*
D18*
X219830000Y-151200000D03*
D20*
X217290000Y-146120000D03*
X210940000Y-148660000D03*
%TD*%
D15*
%TO.C,J57*%
X495000000Y-220000000D03*
%TD*%
D18*
%TO.C,SW31*%
X116850000Y-156000000D03*
D19*
X121930000Y-156000000D03*
D18*
X127010000Y-156000000D03*
D20*
X124470000Y-150920000D03*
X118120000Y-153460000D03*
%TD*%
D18*
%TO.C,SW49*%
X165890000Y-175000000D03*
D19*
X170970000Y-175000000D03*
D18*
X176050000Y-175000000D03*
D20*
X173510000Y-169920000D03*
X167160000Y-172460000D03*
%TD*%
D18*
%TO.C,SW12*%
X234220000Y-86500000D03*
D19*
X239300000Y-86500000D03*
D18*
X244380000Y-86500000D03*
D20*
X241840000Y-81420000D03*
X235490000Y-83960000D03*
%TD*%
D15*
%TO.C,J66*%
X262000000Y-252000000D03*
%TD*%
D13*
%TO.C,D12*%
X420080000Y-96800000D03*
D14*
X427700000Y-96800000D03*
%TD*%
D15*
%TO.C,J103*%
X202538000Y-48608000D03*
%TD*%
D13*
%TO.C,D49*%
X210730000Y-186500000D03*
D14*
X218350000Y-186500000D03*
%TD*%
D18*
%TO.C,SW5*%
X447800000Y-86740000D03*
D19*
X452880000Y-86740000D03*
D18*
X457960000Y-86740000D03*
D20*
X455420000Y-81660000D03*
X449070000Y-84200000D03*
%TD*%
D15*
%TO.C,J53*%
X270000000Y-216000000D03*
%TD*%
D13*
%TO.C,D89*%
X371160000Y-248400000D03*
D14*
X378780000Y-248400000D03*
%TD*%
D13*
%TO.C,D33*%
X276980000Y-173500000D03*
D14*
X284600000Y-173500000D03*
%TD*%
D15*
%TO.C,J98*%
X429514000Y-50292000D03*
%TD*%
%TO.C,J17*%
X294600000Y-112180000D03*
D16*
X294600000Y-114720000D03*
%TD*%
D17*
%TO.C,H34*%
X238500000Y-311080000D03*
%TD*%
D18*
%TO.C,SW29*%
X476600000Y-116500000D03*
D19*
X481680000Y-116500000D03*
D18*
X486760000Y-116500000D03*
D20*
X484220000Y-111420000D03*
X477870000Y-113960000D03*
%TD*%
D13*
%TO.C,D27*%
X383380000Y-124660000D03*
D14*
X391000000Y-124660000D03*
%TD*%
D17*
%TO.C,H37*%
X345000000Y-363080000D03*
%TD*%
D15*
%TO.C,J83*%
X403000000Y-50000000D03*
%TD*%
D13*
%TO.C,D40*%
X479480000Y-166300000D03*
D14*
X487100000Y-166300000D03*
%TD*%
D18*
%TO.C,SW41*%
X382500000Y-153440000D03*
D19*
X387580000Y-153440000D03*
D18*
X392660000Y-153440000D03*
D20*
X390120000Y-148360000D03*
X383770000Y-150900000D03*
%TD*%
D15*
%TO.C,J49*%
X294000000Y-213500000D03*
%TD*%
%TO.C,J77*%
X236000000Y-320340000D03*
D16*
X236000000Y-322880000D03*
X236000000Y-325420000D03*
X236000000Y-327960000D03*
X236000000Y-330500000D03*
X236000000Y-333040000D03*
X236000000Y-335580000D03*
X236000000Y-338120000D03*
X236000000Y-340660000D03*
%TD*%
D13*
%TO.C,D31*%
X116810000Y-167500000D03*
D14*
X124430000Y-167500000D03*
%TD*%
D13*
%TO.C,D85*%
X207190000Y-247930000D03*
D14*
X214810000Y-247930000D03*
%TD*%
D15*
%TO.C,J1*%
X162400000Y-83480000D03*
%TD*%
%TO.C,J69*%
X254500000Y-241000000D03*
%TD*%
D13*
%TO.C,D13*%
X213620000Y-98000000D03*
D14*
X221240000Y-98000000D03*
%TD*%
D18*
%TO.C,SW83*%
X205610000Y-238130000D03*
D19*
X210690000Y-238130000D03*
D18*
X215770000Y-238130000D03*
D20*
X213230000Y-233050000D03*
X206880000Y-235590000D03*
%TD*%
D15*
%TO.C,J13*%
X422040000Y-110250000D03*
D16*
X422040000Y-112790000D03*
%TD*%
D15*
%TO.C,J18*%
X249980000Y-111860000D03*
D16*
X249980000Y-114400000D03*
%TD*%
D17*
%TO.C,H27*%
X91500000Y-47500000D03*
%TD*%
D13*
%TO.C,D3*%
X334700000Y-96800000D03*
D14*
X342320000Y-96800000D03*
%TD*%
D13*
%TO.C,D26*%
X359380000Y-124660000D03*
D14*
X367000000Y-124660000D03*
%TD*%
D17*
%TO.C,H29*%
X304000000Y-211000000D03*
%TD*%
D25*
%TO.C,D102*%
X195300000Y-48500000D03*
D26*
X197840000Y-48500000D03*
%TD*%
D15*
%TO.C,J10*%
X185710000Y-110080000D03*
D16*
X185710000Y-112620000D03*
%TD*%
D18*
%TO.C,SW1*%
X333200000Y-86640000D03*
D19*
X338280000Y-86640000D03*
D18*
X343360000Y-86640000D03*
D20*
X340820000Y-81560000D03*
X334470000Y-84100000D03*
%TD*%
D15*
%TO.C,J27*%
X137830000Y-178310000D03*
D16*
X137830000Y-180850000D03*
%TD*%
D13*
%TO.C,D17*%
X280000000Y-125180000D03*
D14*
X287620000Y-125180000D03*
%TD*%
D13*
%TO.C,D4*%
X363700000Y-96800000D03*
D14*
X371320000Y-96800000D03*
%TD*%
D15*
%TO.C,J62*%
X335500000Y-242000000D03*
%TD*%
D18*
%TO.C,SW3*%
X390600000Y-86640000D03*
D19*
X395680000Y-86640000D03*
D18*
X400760000Y-86640000D03*
D20*
X398220000Y-81560000D03*
X391870000Y-84100000D03*
%TD*%
D13*
%TO.C,D52*%
X167450000Y-186500000D03*
D14*
X175070000Y-186500000D03*
%TD*%
D15*
%TO.C,J16*%
X143380000Y-115000000D03*
D16*
X143380000Y-117540000D03*
%TD*%
D15*
%TO.C,J25*%
X136760000Y-174000000D03*
%TD*%
%TO.C,J100*%
X145896000Y-48354000D03*
%TD*%
%TO.C,J14*%
X445870000Y-108070000D03*
D16*
X445870000Y-110610000D03*
%TD*%
D15*
%TO.C,J94*%
X280500000Y-311010000D03*
%TD*%
D13*
%TO.C,D90*%
X479100000Y-254000000D03*
D14*
X486720000Y-254000000D03*
%TD*%
D18*
%TO.C,SW66*%
X229110000Y-216630000D03*
D19*
X234190000Y-216630000D03*
D18*
X239270000Y-216630000D03*
D20*
X236730000Y-211550000D03*
X230380000Y-214090000D03*
%TD*%
D18*
%TO.C,SW24*%
X357600000Y-113900000D03*
D19*
X362680000Y-113900000D03*
D18*
X367760000Y-113900000D03*
D20*
X365220000Y-108820000D03*
X358870000Y-111360000D03*
%TD*%
D15*
%TO.C,J102*%
X174852000Y-48100000D03*
%TD*%
D18*
%TO.C,SW22*%
X277720000Y-113380000D03*
D19*
X282800000Y-113380000D03*
D18*
X287880000Y-113380000D03*
D20*
X285340000Y-108300000D03*
X278990000Y-110840000D03*
%TD*%
D13*
%TO.C,D60*%
X455480000Y-185300000D03*
D14*
X463100000Y-185300000D03*
%TD*%
D13*
%TO.C,D71*%
X337100000Y-222000000D03*
D14*
X344720000Y-222000000D03*
%TD*%
D18*
%TO.C,SW36*%
X232560000Y-153500000D03*
D19*
X237640000Y-153500000D03*
D18*
X242720000Y-153500000D03*
D20*
X240180000Y-148420000D03*
X233830000Y-150960000D03*
%TD*%
D18*
%TO.C,SW33*%
X165690000Y-151300000D03*
D19*
X170770000Y-151300000D03*
D18*
X175850000Y-151300000D03*
D20*
X173310000Y-146220000D03*
X166960000Y-148760000D03*
%TD*%
D18*
%TO.C,SW79*%
X110210000Y-242930000D03*
D19*
X115290000Y-242930000D03*
D18*
X120370000Y-242930000D03*
D20*
X117830000Y-237850000D03*
X111480000Y-240390000D03*
%TD*%
D13*
%TO.C,D21*%
X172540000Y-122180000D03*
D14*
X180160000Y-122180000D03*
%TD*%
D13*
%TO.C,D48*%
X144120000Y-190500000D03*
D14*
X151740000Y-190500000D03*
%TD*%
D15*
%TO.C,J5*%
X350560000Y-112580000D03*
D16*
X350560000Y-115120000D03*
%TD*%
D18*
%TO.C,SW18*%
X192060000Y-108580000D03*
D19*
X197140000Y-108580000D03*
D18*
X202220000Y-108580000D03*
D20*
X199680000Y-103500000D03*
X193330000Y-106040000D03*
%TD*%
D15*
%TO.C,J2*%
X326985000Y-86465000D03*
%TD*%
D13*
%TO.C,D93*%
X408100000Y-248000000D03*
D14*
X415720000Y-248000000D03*
%TD*%
D18*
%TO.C,SW86*%
X281974586Y-277592009D03*
D19*
X286373995Y-280132009D03*
D18*
X290773405Y-282672009D03*
D20*
X291113700Y-277002600D03*
X284344439Y-276027305D03*
%TD*%
D13*
%TO.C,D91*%
X503480000Y-253000000D03*
D14*
X511100000Y-253000000D03*
%TD*%
D15*
%TO.C,J22*%
X328200000Y-162820000D03*
%TD*%
D18*
%TO.C,SW84*%
X240674586Y-253692009D03*
D19*
X245073995Y-256232009D03*
D18*
X249473405Y-258772009D03*
D20*
X249813700Y-253102600D03*
X243044439Y-252127305D03*
%TD*%
D18*
%TO.C,SW21*%
X256000000Y-113380000D03*
D19*
X261080000Y-113380000D03*
D18*
X266160000Y-113380000D03*
D20*
X263620000Y-108300000D03*
X257270000Y-110840000D03*
%TD*%
D17*
%TO.C,H25*%
X320500000Y-47500000D03*
%TD*%
D18*
%TO.C,SW71*%
X340100000Y-217080000D03*
D19*
X340100000Y-212000000D03*
D18*
X340100000Y-206920000D03*
D20*
X335020000Y-209460000D03*
X337560000Y-215810000D03*
%TD*%
D18*
%TO.C,SW52*%
X232360000Y-177300000D03*
D19*
X237440000Y-177300000D03*
D18*
X242520000Y-177300000D03*
D20*
X239980000Y-172220000D03*
X233630000Y-174760000D03*
%TD*%
D18*
%TO.C,SW67*%
X253210000Y-216630000D03*
D19*
X258290000Y-216630000D03*
D18*
X263370000Y-216630000D03*
D20*
X260830000Y-211550000D03*
X254480000Y-214090000D03*
%TD*%
D15*
%TO.C,J68*%
X347000000Y-271500000D03*
%TD*%
%TO.C,J41*%
X423390000Y-173590000D03*
D16*
X423390000Y-176130000D03*
%TD*%
D13*
%TO.C,D44*%
X456100000Y-163300000D03*
D14*
X463720000Y-163300000D03*
%TD*%
D13*
%TO.C,D5*%
X449080000Y-96800000D03*
D14*
X456700000Y-96800000D03*
%TD*%
D18*
%TO.C,SW72*%
X358800000Y-216740000D03*
D19*
X363880000Y-216740000D03*
D18*
X368960000Y-216740000D03*
D20*
X366420000Y-211660000D03*
X360070000Y-214200000D03*
%TD*%
D13*
%TO.C,D29*%
X430380000Y-119660000D03*
D14*
X438000000Y-119660000D03*
%TD*%
D13*
%TO.C,D25*%
X257360000Y-124180000D03*
D14*
X264980000Y-124180000D03*
%TD*%
D18*
%TO.C,SW91*%
X430300000Y-235640000D03*
D19*
X435380000Y-235640000D03*
D18*
X440460000Y-235640000D03*
D20*
X437920000Y-230560000D03*
X431570000Y-233100000D03*
%TD*%
D13*
%TO.C,D6*%
X144880000Y-98000000D03*
D14*
X152500000Y-98000000D03*
%TD*%
D13*
%TO.C,D24*%
X236800000Y-123180000D03*
D14*
X244420000Y-123180000D03*
%TD*%
D18*
%TO.C,SW63*%
X157810000Y-214230000D03*
D19*
X162890000Y-214230000D03*
D18*
X167970000Y-214230000D03*
D20*
X165430000Y-209150000D03*
X159080000Y-211690000D03*
%TD*%
D13*
%TO.C,D1*%
X478080000Y-96800000D03*
D14*
X485700000Y-96800000D03*
%TD*%
D13*
%TO.C,D64*%
X278234000Y-235312000D03*
D14*
X285854000Y-235312000D03*
%TD*%
D15*
%TO.C,J91*%
X272500000Y-311080000D03*
%TD*%
D25*
%TO.C,D101*%
X167500000Y-48300000D03*
D26*
X170040000Y-48300000D03*
%TD*%
D18*
%TO.C,SW28*%
X453000000Y-114000000D03*
D19*
X458080000Y-114000000D03*
D18*
X463160000Y-114000000D03*
D20*
X460620000Y-108920000D03*
X454270000Y-111460000D03*
%TD*%
D21*
%TO.C,D97*%
X481564700Y-50240000D03*
D22*
X484104700Y-50240000D03*
%TD*%
D13*
%TO.C,D75*%
X408100000Y-224000000D03*
D14*
X415720000Y-224000000D03*
%TD*%
D18*
%TO.C,SW57*%
X430200000Y-172640000D03*
D19*
X435280000Y-172640000D03*
D18*
X440360000Y-172640000D03*
D20*
X437820000Y-167560000D03*
X431470000Y-170100000D03*
%TD*%
D15*
%TO.C,J46*%
X127000000Y-220000000D03*
%TD*%
%TO.C,J15*%
X469670000Y-112820000D03*
D16*
X469670000Y-115360000D03*
%TD*%
D17*
%TO.C,H8*%
X303600000Y-113700000D03*
%TD*%
D18*
%TO.C,SW23*%
X333700000Y-114000000D03*
D19*
X338780000Y-114000000D03*
D18*
X343860000Y-114000000D03*
D20*
X341320000Y-108920000D03*
X334970000Y-111460000D03*
%TD*%
D17*
%TO.C,H5*%
X319300000Y-113700000D03*
%TD*%
D18*
%TO.C,SW96*%
X393560000Y-50300000D03*
X398640000Y-50300000D03*
%TD*%
D26*
%TO.C,U1*%
X303530000Y-332805000D03*
D22*
X300500000Y-332505000D03*
X300500000Y-327655000D03*
D26*
X303530000Y-327355000D03*
D16*
X303660000Y-338970000D03*
D27*
X303660000Y-339870000D03*
D16*
X301120000Y-338970000D03*
D27*
X301120000Y-339870000D03*
D15*
X298580000Y-338970000D03*
D27*
X298580000Y-339870000D03*
D16*
X296040000Y-338970000D03*
D27*
X296040000Y-339870000D03*
D16*
X293500000Y-338970000D03*
D27*
X293500000Y-339870000D03*
D16*
X290960000Y-338970000D03*
D27*
X290960000Y-339870000D03*
D16*
X288420000Y-338970000D03*
D27*
X288420000Y-339870000D03*
D15*
X285880000Y-338970000D03*
D27*
X285880000Y-339870000D03*
D16*
X283340000Y-338970000D03*
D27*
X283340000Y-339870000D03*
D16*
X280800000Y-338970000D03*
D27*
X280800000Y-339870000D03*
D16*
X278260000Y-338970000D03*
D27*
X278260000Y-339870000D03*
D16*
X275720000Y-338970000D03*
D27*
X275720000Y-339870000D03*
D15*
X273180000Y-338970000D03*
D27*
X273180000Y-339870000D03*
D16*
X270640000Y-338970000D03*
D27*
X270640000Y-339870000D03*
D16*
X268100000Y-338970000D03*
D27*
X268100000Y-339870000D03*
D16*
X265560000Y-338970000D03*
D27*
X265560000Y-339870000D03*
D16*
X263020000Y-338970000D03*
D27*
X263020000Y-339870000D03*
D15*
X260480000Y-338970000D03*
D27*
X260480000Y-339870000D03*
D16*
X257940000Y-338970000D03*
D27*
X257940000Y-339870000D03*
D16*
X255400000Y-338970000D03*
D27*
X255400000Y-339870000D03*
D16*
X255400000Y-321190000D03*
D27*
X255400000Y-320290000D03*
D16*
X257940000Y-321190000D03*
D27*
X257940000Y-320290000D03*
D15*
X260480000Y-321190000D03*
D27*
X260480000Y-320290000D03*
D16*
X263020000Y-321190000D03*
D27*
X263020000Y-320290000D03*
D16*
X265560000Y-321190000D03*
D27*
X265560000Y-320290000D03*
D16*
X268100000Y-321190000D03*
D27*
X268100000Y-320290000D03*
D16*
X270640000Y-321190000D03*
D27*
X270640000Y-320290000D03*
D15*
X273180000Y-321190000D03*
D27*
X273180000Y-320290000D03*
D16*
X275720000Y-321190000D03*
D27*
X275720000Y-320290000D03*
D16*
X278260000Y-321190000D03*
D27*
X278260000Y-320290000D03*
D16*
X280800000Y-321190000D03*
D27*
X280800000Y-320290000D03*
D16*
X283340000Y-321190000D03*
D27*
X283340000Y-320290000D03*
D15*
X285880000Y-321190000D03*
D27*
X285880000Y-320290000D03*
D16*
X288420000Y-321190000D03*
D27*
X288420000Y-320290000D03*
D16*
X290960000Y-321190000D03*
D27*
X290960000Y-320290000D03*
D16*
X293500000Y-321190000D03*
D27*
X293500000Y-320290000D03*
D16*
X296040000Y-321190000D03*
D27*
X296040000Y-320290000D03*
D15*
X298580000Y-321190000D03*
D27*
X298580000Y-320290000D03*
D16*
X301120000Y-321190000D03*
D27*
X301120000Y-320290000D03*
D16*
X303660000Y-321190000D03*
D27*
X303660000Y-320290000D03*
D16*
X255630000Y-332620000D03*
D28*
X254730000Y-332620000D03*
D15*
X255630000Y-330080000D03*
D28*
X254730000Y-330080000D03*
D16*
X255630000Y-327540000D03*
D28*
X254730000Y-327540000D03*
%TD*%
D26*
%TO.C,U2*%
X320500000Y-327050000D03*
D22*
X323530000Y-327350000D03*
X323530000Y-332200000D03*
D26*
X320500000Y-332500000D03*
D16*
X320370000Y-320885000D03*
D27*
X320370000Y-319985000D03*
D16*
X322910000Y-320885000D03*
D27*
X322910000Y-319985000D03*
D15*
X325450000Y-320885000D03*
D27*
X325450000Y-319985000D03*
D16*
X327990000Y-320885000D03*
D27*
X327990000Y-319985000D03*
D16*
X330530000Y-320885000D03*
D27*
X330530000Y-319985000D03*
D16*
X333070000Y-320885000D03*
D27*
X333070000Y-319985000D03*
D16*
X335610000Y-320885000D03*
D27*
X335610000Y-319985000D03*
D15*
X338150000Y-320885000D03*
D27*
X338150000Y-319985000D03*
D16*
X340690000Y-320885000D03*
D27*
X340690000Y-319985000D03*
D16*
X343230000Y-320885000D03*
D27*
X343230000Y-319985000D03*
D16*
X345770000Y-320885000D03*
D27*
X345770000Y-319985000D03*
D16*
X348310000Y-320885000D03*
D27*
X348310000Y-319985000D03*
D15*
X350850000Y-320885000D03*
D27*
X350850000Y-319985000D03*
D16*
X353390000Y-320885000D03*
D27*
X353390000Y-319985000D03*
D16*
X355930000Y-320885000D03*
D27*
X355930000Y-319985000D03*
D16*
X358470000Y-320885000D03*
D27*
X358470000Y-319985000D03*
D16*
X361010000Y-320885000D03*
D27*
X361010000Y-319985000D03*
D15*
X363550000Y-320885000D03*
D27*
X363550000Y-319985000D03*
D16*
X366090000Y-320885000D03*
D27*
X366090000Y-319985000D03*
D16*
X368630000Y-320885000D03*
D27*
X368630000Y-319985000D03*
D16*
X368630000Y-338665000D03*
D27*
X368630000Y-339565000D03*
D16*
X366090000Y-338665000D03*
D27*
X366090000Y-339565000D03*
D15*
X363550000Y-338665000D03*
D27*
X363550000Y-339565000D03*
D16*
X361010000Y-338665000D03*
D27*
X361010000Y-339565000D03*
D16*
X358470000Y-338665000D03*
D27*
X358470000Y-339565000D03*
D16*
X355930000Y-338665000D03*
D27*
X355930000Y-339565000D03*
D16*
X353390000Y-338665000D03*
D27*
X353390000Y-339565000D03*
D15*
X350850000Y-338665000D03*
D27*
X350850000Y-339565000D03*
D16*
X348310000Y-338665000D03*
D27*
X348310000Y-339565000D03*
D16*
X345770000Y-338665000D03*
D27*
X345770000Y-339565000D03*
D16*
X343230000Y-338665000D03*
D27*
X343230000Y-339565000D03*
D16*
X340690000Y-338665000D03*
D27*
X340690000Y-339565000D03*
D15*
X338150000Y-338665000D03*
D27*
X338150000Y-339565000D03*
D16*
X335610000Y-338665000D03*
D27*
X335610000Y-339565000D03*
D16*
X333070000Y-338665000D03*
D27*
X333070000Y-339565000D03*
D16*
X330530000Y-338665000D03*
D27*
X330530000Y-339565000D03*
D16*
X327990000Y-338665000D03*
D27*
X327990000Y-339565000D03*
D15*
X325450000Y-338665000D03*
D27*
X325450000Y-339565000D03*
D16*
X322910000Y-338665000D03*
D27*
X322910000Y-339565000D03*
D16*
X320370000Y-338665000D03*
D27*
X320370000Y-339565000D03*
D16*
X368400000Y-327235000D03*
D28*
X369300000Y-327235000D03*
D15*
X368400000Y-329775000D03*
D28*
X369300000Y-329775000D03*
D16*
X368400000Y-332315000D03*
D28*
X369300000Y-332315000D03*
%TD*%
D18*
%TO.C,SW95*%
X229100000Y-50300000D03*
X224020000Y-50300000D03*
%TD*%
M02*
